<?xml version="1.0" encoding="utf-8"?>
<!-- Generator: Adobe Illustrator 22.0.1, SVG Export Plug-In . SVG Version: 6.00 Build 0)  -->
<svg version="1.1" id="Layer_1" xmlns="http://www.w3.org/2000/svg" xmlns:xlink="http://www.w3.org/1999/xlink" x="0px" y="0px"
	 viewBox="0 0 110 110" style="enable-background:new 0 0 110 110;" xml:space="preserve">
<style type="text/css">
	.st0{fill:none;stroke:#8D949E;stroke-width:3;stroke-miterlimit:10;stroke-dasharray:9.1606,9.1606;}
	.st1{fill:#8D949E;}
</style>
<g>
	<circle class="st0" cx="55" cy="55" r="52.5"/>
</g>
<path class="st1" d="M75.4,34.6c-2.9-2.9-7.5-2.9-10.4,0L35.6,64c0,0,0,0,0,0c0,0,0,0,0,0.1c0,0.1-0.1,0.1-0.1,0.2c0,0,0,0,0,0.1
	l0,0l-2.9,12.1c0,0.1,0,0.1,0,0.2c0,0,0,0,0,0c0,0.1,0,0.2,0.1,0.3c0,0.1,0.1,0.2,0.2,0.2c0.2,0.2,0.5,0.3,0.8,0.2l12.1-2.9
	c0,0,0,0,0.1,0c0.1,0,0.2-0.1,0.2-0.1c0,0,0,0,0.1,0c0,0,0,0,0,0L75.4,45C78.2,42.1,78.2,37.5,75.4,34.6z M74.2,35.8
	c2,2,2.2,5.2,0.5,7.4l-8-8C69,33.6,72.2,33.8,74.2,35.8z M70.2,47.9l-8.1-8.1l1.2-1.2l8.1,8.1L70.2,47.9z M36.5,73.5
	c-0.3-0.3-0.8-0.3-1.2,0c0,0,0,0,0,0l-0.6,0.6l2.1-8.7l3.6-0.4L40,69.1c0,0,0,0.1,0,0.1c0,0,0,0.1,0,0.1c0,0,0,0,0,0.1
	c0,0.1,0.1,0.3,0.2,0.4c0,0,0.1,0.1,0.1,0.1c0,0,0.1,0,0.1,0.1c0.1,0,0.1,0,0.2,0.1c0,0,0.1,0,0.1,0c0,0,0.1,0,0.1,0h0
	c0,0,0.1,0,0.1,0l4.2-0.5l-0.4,3.6l-8.7,2.1l0.6-0.6C36.8,74.3,36.8,73.8,36.5,73.5z M46.8,69L65,50.8c0.3-0.3,0.3-0.8,0-1.2
	c-0.3-0.3-0.8-0.3-1.2,0L45.6,67.9l-3.9,0.4l0.4-3.9l18.2-18.2c0.3-0.3,0.3-0.8,0-1.2c-0.3-0.3-0.8-0.3-1.2,0L41,63.2l-2.6,0.3
	L61,41L69,49L46.5,71.6C46.5,71.6,46.8,69,46.8,69z M72.5,45.6l-8.1-8.1l1.2-1.2l8.1,8.1L72.5,45.6z"/>
</svg>
