<?xml version="1.0" encoding="utf-8"?>
<!-- Generator: Adobe Illustrator 22.0.1, SVG Export Plug-In . SVG Version: 6.00 Build 0)  -->
<svg version="1.1" id="Layer_1" xmlns="http://www.w3.org/2000/svg" xmlns:xlink="http://www.w3.org/1999/xlink" x="0px" y="0px"
	 viewBox="0 0 110 110" style="enable-background:new 0 0 110 110;" xml:space="preserve">
<style type="text/css">
	.st0{fill:#8D949E;}
	.st1{fill:none;stroke:#8D949E;stroke-width:3;stroke-miterlimit:10;stroke-dasharray:9.1606,9.1606;}
</style>
<g>
	<path class="st0" d="M55,74.5L55,74.5c-1.1,0-2-0.9-2-2v-35c0-1.1,0.9-2,2-2h0c1.1,0,2,0.9,2,2v35C57,73.6,56.1,74.5,55,74.5z"/>
</g>
<g>
	<path class="st0" d="M35.5,55L35.5,55c0-1.1,0.9-2,2-2h35c1.1,0,2,0.9,2,2v0c0,1.1-0.9,2-2,2h-35C36.4,57,35.5,56.1,35.5,55z"/>
</g>
<g>
	<circle class="st1" cx="55" cy="55" r="52.5"/>
</g>
</svg>
