<?xml version="1.0" encoding="utf-8"?>
<!-- Generator: Adobe Illustrator 22.0.1, SVG Export Plug-In . SVG Version: 6.00 Build 0)  -->
<svg version="1.1" id="Layer_1" xmlns="http://www.w3.org/2000/svg" xmlns:xlink="http://www.w3.org/1999/xlink" x="0px" y="0px"
	 viewBox="0 0 110 110" style="enable-background:new 0 0 110 110;" xml:space="preserve">
<style type="text/css">
	.st0{fill:#88C5CC;}
	.st1{fill:#80B9BF;}
	.st2{fill:#808080;}
	.st3{fill:#737373;}
	.st4{fill:#F5F5F5;}
	.st5{fill:#E6E6E6;}
	.st6{fill:#CCCCCC;}
	.st7{fill:#242424;}
	.st8{fill:#B3B3B3;}
</style>
<g>
	<circle class="st0" cx="55" cy="55" r="52.5"/>
	<path class="st1" d="M103.2,75.8c0-0.1,0-0.1-0.1-0.2c0-0.1-0.1-0.3-0.2-0.4c0-0.1-0.1-0.3-0.2-0.4c0-0.1-0.1-0.3-0.2-0.4
		c0-0.1-0.1-0.3-0.2-0.4c0-0.1-0.1-0.3-0.2-0.4c0-0.1-0.1-0.3-0.2-0.4c0-0.1-0.1-0.3-0.2-0.4c0-0.1-0.1-0.3-0.2-0.4
		c0-0.1-0.1-0.3-0.2-0.4c0-0.2-0.1-0.3-0.2-0.4c0-0.1-0.1-0.3-0.2-0.4c0-0.1-0.1-0.3-0.2-0.4c0-0.1-0.1-0.3-0.2-0.4
		c0-0.1-0.1-0.3-0.2-0.4c0-0.1-0.1-0.3-0.2-0.4c0-0.1-0.1-0.3-0.2-0.4c0-0.1-0.1-0.3-0.2-0.4c0-0.1-0.1-0.3-0.2-0.4
		c0-0.1-0.1-0.3-0.2-0.4c0-0.1-0.1-0.3-0.2-0.4c0-0.1-0.1-0.3-0.2-0.4c0-0.1-0.1-0.3-0.2-0.4c0-0.1-0.1-0.3-0.2-0.4
		c0-0.2-0.1-0.3-0.2-0.4c0-0.1-0.1-0.3-0.2-0.4c0-0.1-0.1-0.3-0.2-0.4c0-0.1-0.1-0.3-0.2-0.4c0-0.1-0.1-0.3-0.2-0.4
		c0-0.1-0.1-0.3-0.2-0.4c0-0.2-0.1-0.3-0.2-0.4c0-0.1-0.1-0.3-0.2-0.4c0-0.1-0.1-0.3-0.2-0.4c0-0.1-0.1-0.3-0.2-0.4
		c0-0.1-0.1-0.3-0.2-0.4c0-0.1-0.1-0.3-0.2-0.4c0-0.1-0.1-0.3-0.2-0.4c0-0.2-0.1-0.3-0.2-0.4c0-0.1-0.1-0.3-0.2-0.4
		c0-0.2-0.1-0.3-0.2-0.4c0-0.1-0.1-0.3-0.2-0.4c0-0.1-0.1-0.3-0.2-0.4c0-0.1-0.1-0.3-0.2-0.4c0-0.1-0.1-0.3-0.2-0.4
		c0-0.1-0.1-0.3-0.2-0.4c0-0.1-0.1-0.3-0.2-0.4c0-0.1-0.1-0.3-0.2-0.4c0-0.1-0.1-0.3-0.2-0.4c0-0.1-0.1-0.3-0.2-0.4
		c0-0.1-0.1-0.3-0.2-0.4c0-0.1-0.1-0.3-0.2-0.4c0-0.1-0.1-0.3-0.2-0.4c0-0.1-0.1-0.3-0.2-0.4c0-0.1-0.1-0.3-0.2-0.4
		c0-0.1-0.1-0.3-0.2-0.4c0-0.1-0.1-0.3-0.2-0.4c0-0.1-0.1-0.3-0.2-0.4c0-0.1-0.1-0.3-0.2-0.4c0-0.1-0.1-0.3-0.2-0.4
		c0-0.1-0.1-0.3-0.2-0.4c0-0.1-0.1-0.3-0.2-0.4c0-0.1-0.1-0.3-0.2-0.4c0-0.1-0.1-0.3-0.2-0.4c0-0.1-0.1-0.3-0.2-0.4
		c0-0.1-0.1-0.3-0.2-0.4c0-0.1-0.1-0.3-0.2-0.4c0-0.1-0.1-0.3-0.2-0.4c0-0.1-0.1-0.3-0.2-0.4c0-0.1-0.1-0.3-0.2-0.4
		c0-0.1-0.1-0.3-0.2-0.4c0-0.1-0.1-0.3-0.2-0.4c0-0.1-0.1-0.3-0.2-0.4c0-0.1-0.1-0.3-0.2-0.4c0-0.1-0.1-0.3-0.2-0.4
		c0-0.1-0.1-0.3-0.2-0.4c0-0.1-0.1-0.3-0.2-0.4c0-0.1-0.1-0.3-0.2-0.4c0-0.1-0.1-0.3-0.2-0.4c0-0.1-0.1-0.3-0.2-0.4
		c0-0.1-0.1-0.3-0.2-0.4c0-0.1-0.1-0.3-0.2-0.4c0-0.1-0.1-0.3-0.2-0.4c0-0.1-0.1-0.3-0.2-0.4c0-0.1-0.1-0.3-0.2-0.4
		c0-0.1-0.1-0.3-0.2-0.4c0-0.1-0.1-0.3-0.2-0.4c0-0.1-0.1-0.3-0.2-0.4c0-0.1-0.1-0.3-0.2-0.4c0-0.1-0.1-0.3-0.2-0.4
		c0-0.1-0.1-0.3-0.2-0.4c0-0.1-0.1-0.3-0.2-0.4c0-0.1-0.1-0.3-0.2-0.4c0-0.1-0.1-0.3-0.2-0.4c0-0.1-0.1-0.3-0.2-0.4
		c0-0.1-0.1-0.3-0.2-0.4c0-0.1-0.1-0.3-0.2-0.4c0-0.1-0.1-0.3-0.2-0.4c0-0.1-0.1-0.3-0.2-0.4c0-0.1-0.1-0.3-0.2-0.4
		c0-0.1-0.1-0.3-0.2-0.4c0-0.1-0.1-0.3-0.2-0.4c0-0.1-0.1-0.3-0.2-0.4c0-0.1-0.1-0.3-0.2-0.4c0-0.1-0.1-0.3-0.2-0.4
		c0-0.1-0.1-0.3-0.2-0.4c0-0.1-0.1-0.3-0.2-0.4c0-0.1-0.1-0.3-0.2-0.4c0-0.1-0.1-0.3-0.2-0.4c0-0.1-0.1-0.3-0.2-0.4
		c0-0.1-0.1-0.3-0.2-0.4c0-0.1-0.1-0.3-0.2-0.4c0-0.1-0.1-0.3-0.2-0.4c0-0.1-0.1-0.3-0.2-0.4c0-0.1-0.1-0.3-0.2-0.4
		c0-0.1-0.1-0.3-0.2-0.4c0-0.2-0.1-0.3-0.2-0.4c0-0.1-0.1-0.3-0.2-0.4c0-0.1-0.1-0.3-0.2-0.4c0-0.1-0.1-0.3-0.2-0.4
		c0-0.1-0.1-0.3-0.2-0.4c0-0.1-0.1-0.3-0.2-0.4c-0.1-0.5-0.5-0.9-0.9-1.2c-0.6-0.4-1.4-0.4-2,0l-13.1,7.5c-0.4-0.1-0.8-0.3-1.2-0.4
		c-1.8-0.6-3.8-0.9-5.7-1.1c-0.1,0-0.1,0-0.2,0c-0.4,0-0.8-0.1-1.2-0.1c-0.1,0-0.2,0-0.4,0c-0.4,0-0.8,0-1.1-0.1c-0.1,0-0.3,0-0.4,0
		c-0.5,0-1,0-1.5,0c-4.3,0-8.5,0.6-11.8,1.8l-13.1-7.5c-0.6-0.4-1.4-0.4-2,0c-0.6,0.4-1,1-1,1.7v15.4c-2,3.8-1.7,11-1.7,15.6
		c-1.5,3.7-0.3,10,0.5,11.8c0.1,0.2,0.1,0.3,0.2,0.4c0.1,0.2,0.1,0.3,0.2,0.4c0.1,0.2,0.1,0.3,0.2,0.4c0.1,0.2,0.1,0.3,0.2,0.4
		c0.1,0.2,0.1,0.3,0.2,0.4c0.1,0.2,0.1,0.3,0.2,0.4c0.1,0.2,0.1,0.3,0.2,0.4c0.1,0.2,0.1,0.3,0.2,0.4c0.1,0.2,0.1,0.3,0.2,0.4
		c0.1,0.2,0.1,0.3,0.2,0.4c0.1,0.2,0.1,0.3,0.2,0.4c0.1,0.2,0.1,0.3,0.2,0.4c0.1,0.2,0.1,0.3,0.2,0.4c0.1,0.2,0.1,0.3,0.2,0.4
		c0.1,0.2,0.1,0.3,0.2,0.4c0.1,0.2,0.1,0.3,0.2,0.4c0.1,0.2,0.1,0.3,0.2,0.4c0.1,0.2,0.1,0.3,0.2,0.4c0.1,0.2,0.1,0.3,0.2,0.4
		c0.1,0.2,0.1,0.3,0.2,0.4c0.1,0.2,0.1,0.3,0.2,0.4c0.1,0.2,0.1,0.3,0.2,0.4c0.1,0.2,0.1,0.3,0.2,0.4c0.1,0.2,0.1,0.3,0.2,0.4
		c0.1,0.2,0.1,0.3,0.2,0.4c0.1,0.2,0.1,0.3,0.2,0.4c0.1,0.2,0.1,0.3,0.2,0.4c0.1,0.2,0.1,0.3,0.2,0.4c0.1,0.2,0.1,0.3,0.2,0.4
		c0.1,0.2,0.1,0.3,0.2,0.4c0.1,0.2,0.1,0.3,0.2,0.4c0.1,0.2,0.1,0.3,0.2,0.4c0.1,0.2,0.1,0.3,0.2,0.4c0.1,0.2,0.1,0.3,0.2,0.4
		c0.1,0.2,0.1,0.3,0.2,0.4c0.1,0.2,0.1,0.3,0.2,0.4c0.1,0.2,0.1,0.3,0.2,0.4c0.1,0.2,0.1,0.3,0.2,0.4c0.1,0.2,0.1,0.3,0.2,0.4
		c0.1,0.2,0.1,0.3,0.2,0.4c0.1,0.2,0.1,0.3,0.2,0.4c0.1,0.2,0.1,0.3,0.2,0.4c0.1,0.2,0.1,0.3,0.2,0.4c0.1,0.2,0.1,0.3,0.2,0.4
		c0.1,0.2,0.1,0.3,0.2,0.4c0.1,0.2,0.1,0.3,0.2,0.4c0.1,0.2,0.1,0.3,0.2,0.4c0.1,0.2,0.1,0.3,0.2,0.4c0.1,0.2,0.1,0.3,0.2,0.4
		c0.1,0.2,0.1,0.3,0.2,0.4c0.1,0.2,0.1,0.3,0.2,0.4c0.1,0.2,0.1,0.3,0.2,0.4c0.1,0.2,0.1,0.3,0.2,0.4c0.1,0.2,0.1,0.3,0.2,0.4
		c0.1,0.2,0.1,0.3,0.2,0.4c0.1,0.2,0.1,0.3,0.2,0.4c0.1,0.2,0.1,0.3,0.2,0.4c0.1,0.2,0.1,0.3,0.2,0.4c0.1,0.2,0.1,0.3,0.2,0.4
		c0.1,0.2,0.1,0.3,0.2,0.4c0.1,0.2,0.1,0.3,0.2,0.4c0.1,0.2,0.1,0.3,0.2,0.4c0.1,0.2,0.1,0.3,0.2,0.4c0.1,0.2,0.1,0.3,0.2,0.4
		c0.1,0.2,0.1,0.3,0.2,0.4c0.1,0.2,0.1,0.3,0.2,0.4c0.1,0.2,0.1,0.3,0.2,0.4c0.1,0.2,0.1,0.3,0.2,0.4c0.1,0.2,0.1,0.3,0.2,0.4
		c0.1,0.2,0.1,0.3,0.2,0.4c0.1,0.2,0.1,0.3,0.2,0.4c0.1,0.2,0.1,0.3,0.2,0.4c0.1,0.2,0.1,0.3,0.2,0.4c0.1,0.2,0.1,0.3,0.2,0.4
		c0.1,0.2,0.1,0.3,0.2,0.4c0.1,0.2,0.1,0.3,0.2,0.4c0.1,0.2,0.1,0.3,0.2,0.4c0.1,0.2,0.1,0.3,0.2,0.4c0.1,0.2,0.1,0.3,0.2,0.4
		c0.1,0.2,0.1,0.3,0.2,0.4c0.1,0.2,0.1,0.3,0.2,0.4c0.1,0.2,0.1,0.3,0.2,0.4c0.1,0.2,0.1,0.3,0.2,0.4c0.1,0.2,0.1,0.3,0.2,0.4
		c0.1,0.2,0.1,0.3,0.2,0.4c0.1,0.2,0.1,0.3,0.2,0.4c0.1,0.2,0.1,0.3,0.2,0.4c0.1,0.2,0.1,0.3,0.2,0.4c0,0,0,0,0,0
		c4.5,1.2,9.2,1.9,14,1.9C76.6,107.5,95.2,94.4,103.2,75.8z"/>
	<path class="st2" d="M25.5,56.8c0-4.6-0.3-11.8,1.7-15.6V25.7c0-0.7,0.4-1.4,1-1.7c0.6-0.4,1.4-0.4,2,0l13.1,7.5
		c3.3-1.2,7.4-1.8,11.8-1.8c4.3,0,8.5,0.6,11.8,1.8L79.9,24c0.6-0.4,1.4-0.4,2,0c0.6,0.4,1,1,1,1.7v15.4c2,3.8,1.7,11,1.7,15.6H25.5
		z"/>
	<g>
		<path class="st3" d="M65.9,32l0.9-0.5c-3.7-1.3-8.1-1.8-11.8-1.8c-0.4,0-0.8,0-1.2,0C57.7,29.8,62.9,30.9,65.9,32z"/>
		<path class="st3" d="M41.6,32c0.5-0.2,1-0.3,1.6-0.5l-13-7.5c-0.6-0.4-1.4-0.4-2,0c-0.1,0-0.1,0.1-0.2,0.2L41.6,32z"/>
		<path class="st3" d="M82.8,41.1V25.7c0-0.7-0.4-1.4-1-1.7c-0.6-0.4-1.4-0.4-2,0l-0.3,0.2c0.5,0.4,0.8,0.9,0.8,1.6v15.4
			c2,3.8,1.7,11,1.7,15.6h2.5C84.5,52.2,84.8,45,82.8,41.1z"/>
	</g>
	<path class="st4" d="M62.3,73c0,2.2-3.3,4.8-7.3,4.8s-7.3-2.6-7.3-4.8v-3.5h14.6V73z"/>
	<path class="st5" d="M84.5,56.8c-4.1-3.3-18.9-8.3-29.5-8.3s-25.4,5-29.5,8.3c-1.6,4.1,0,11.5,0.8,12.3c1.6-0.8,4.9-1.6,7.4-1.6
		c-1.6,1.6-2.5,7.4-2.5,9.8c3.3-1.6,6.6-0.8,8.2,0.8c2.5,7.4,13.1,8.2,15.6,8.2s13.1-0.8,15.6-8.2c1.6-1.6,4.1-2.5,8.2-0.8
		c0-2.5-0.8-8.2-2.5-9.8c2.5,0,5.7,0.8,7.4,1.6C84.5,68.2,86.2,60.9,84.5,56.8z"/>
	<g>
		<path class="st6" d="M72.6,67c1.5,1.5,2.6,6.7,2.7,9.4c1,0.1,2.1,0.3,3.4,0.9c0-2.3-0.6-7.2-2.4-9.8C75.1,67.1,73.8,67,72.6,67z"
			/>
		<path class="st6" d="M67.2,78.1c-2.1,6.2-10,7.8-13.9,8.1c0.7,0.1,1.3,0.1,1.7,0.1c2.5,0,13.1-0.8,15.6-8.2
			c0.7-0.7,1.5-1.2,2.6-1.5C70.4,76,68.5,76.8,67.2,78.1z"/>
		<path class="st6" d="M84.5,56.8c-1-0.8-2.5-1.6-4.4-2.5c0.5,0.9,0.8,1.8,1,2.5c0,0,0,0,0,0c0.3,0.8,0.5,1.7,0.6,2.7c0,0,0,0,0,0h0
			c0.3,3.1-0.3,6.8-0.9,8.5c1.1,0.3,2.2,0.6,2.9,1C84.5,68.2,86.2,60.9,84.5,56.8z"/>
	</g>
	<circle class="st4" cx="44.3" cy="50.8" r="4.1"/>
	<circle class="st7" cx="44.3" cy="50.8" r="1.6"/>
	<circle class="st4" cx="65.7" cy="50.8" r="4.1"/>
	<circle class="st7" cx="65.7" cy="50.8" r="1.6"/>
	<path class="st4" d="M55,80.5c-5.7,0-8.2-8.5-8.2-11.4c0-2.9,3.7-3.1,8.2-3.1c4.5,0,8.2,0.3,8.2,3.1C63.2,72,60.7,80.5,55,80.5z"/>
	<path class="st3" d="M63.2,69.5V48.9c0-2.6-3.7-5.7-8.2-5.7c-4.5,0-8.2,3.1-8.2,5.7v20.5H63.2z"/>
	<g>
		<polygon class="st8" points="31.1,41.6 31.1,29.7 43.1,35.6 		"/>
		<polygon class="st8" points="78.9,41.6 78.9,29.7 66.9,35.6 		"/>
	</g>
	<path class="st7" d="M55,78.1c-4.5,0-8.2-6-8.2-8.6c0-2.6,3.7-2.9,8.2-2.9c4.5,0,8.2,0.3,8.2,2.9C63.2,72.1,59.5,78.1,55,78.1z"/>
	<g>
		<path class="st3" d="M55,48.5H39c2.2-1.9,10.2-5.3,16-5.3V48.5z"/>
		<path class="st3" d="M55,48.5h16c-2.2-1.9-10.2-5.3-16-5.3V48.5z"/>
	</g>
</g>
</svg>
