<?xml version="1.0" encoding="utf-8"?>
<!-- Generator: Adobe Illustrator 22.0.1, SVG Export Plug-In . SVG Version: 6.00 Build 0)  -->
<svg version="1.1" id="Layer_1" xmlns="http://www.w3.org/2000/svg" xmlns:xlink="http://www.w3.org/1999/xlink" x="0px" y="0px"
	 viewBox="0 0 110 110" style="enable-background:new 0 0 110 110;" xml:space="preserve">
<style type="text/css">
	.st0{clip-path:url(#SVGID_2_);fill:none;}
	.st1{clip-path:url(#SVGID_2_);}
	.st2{fill:#FF9656;}
	.st3{fill:#EF8C56;}
	.st4{fill:#FFD7A3;}
	.st5{fill:#FDC88E;}
	.st6{fill:#9BCE7A;}
	.st7{fill:#FFE1B2;}
	.st8{fill:#623F33;}
	.st9{fill:#E4B07B;}
	.st10{fill:#8ABE69;}
	.st11{fill:#76AB5F;}
</style>
<g>
	<defs>
		<circle id="SVGID_1_" cx="55.5" cy="55.3" r="52.5"/>
	</defs>
	<use xlink:href="#SVGID_1_"  style="overflow:visible;fill:#EB5F00;"/>
	<clipPath id="SVGID_2_">
		<use xlink:href="#SVGID_1_"  style="overflow:visible;"/>
	</clipPath>
	<circle class="st0" cx="55.5" cy="55.3" r="52.5"/>
	<g class="st1">
		<path class="st2" d="M55.8,34.8L55.8,34.8c-10.2,0-20.3,9.1-20.3,21.4C35.6,72.4,43,80,43,80s-1.5,3.7-2,7.1h5.6
			c-0.5-3.5-0.4-7.1-0.4-7.1S75,73.9,75,56.1C75,44.1,66,34.8,55.8,34.8z"/>
		<path class="st3" d="M64.7,37.3c-2.7-1.6-5.8-2.5-8.9-2.5h0c-10.2,0-20.2,9.1-20.2,21.4C35.6,72.4,43,80,43,80s-1.5,3.7-2,7.1h5.6
			c-0.5-3.5-0.4-7.1-0.4-7.1s3.1-0.7,7.2-2.2l-14.6-17C38.8,60.9,59.9,52.1,64.7,37.3z"/>
		<path class="st4" d="M76,99.8L75.8,99c-0.1-0.4-0.4-0.6-0.8-0.6l-0.7-6.3c-0.2-2.1-1.3-3.9-3.1-4.9L69.1,86
			c-0.3-0.2-0.6,0.1-0.8,0.4l-4.6-2c-0.9-0.3-1.5-1.3-1.5-2.4v-4.1l4.6-2.3c2.4-1.2,3.9-3.9,3.9-7v-1.3c1.8,0,3.2-1.7,3.2-3.8
			c0-2.1-1.4-3.8-3.2-3.8v-2.5c0-3.5-2.4-8.8-5.3-8.8H46.2c-2.9,0-5.3,5.3-5.3,8.8v2.5c-1.8,0-3.2,1.7-3.2,3.8
			c0,2.1,1.4,3.8,3.2,3.8v1.3c0,3,1.6,5.8,3.9,7l4.6,2.3V82c0,1.1-0.6,2-1.5,2.4l-4.6,2c-0.2-0.3-0.5-0.6-0.8-0.4l-2.1,1.2
			c-1.8,1.1-2.9,2.8-3.1,4.9l-0.7,6.3c-0.3-0.1-0.7,0.2-0.8,0.6l-0.2,0.8c-0.1,0.4,0.1,0.9,0.5,1l1.6,0.5v3.8c0,1.4,1,2.5,2.1,2.5
			h4.3h23.4h4.3c1.2,0,2.1-1.1,2.1-2.5v-3.8l1.6-0.5C75.9,100.7,76.1,100.3,76,99.8z"/>
		<path class="st5" d="M62.2,77.8l-12.8,0V82c0,0.9-0.4,1.7-1,2.2C57.3,86,62.2,77.8,62.2,77.8z"/>
		<g>
			<path class="st6" d="M74.3,92.1c-0.2-2.1-1.3-3.9-3.1-4.9L69.1,86c-0.4-0.2-0.7,0.1-1,0.5c-5.7,7.8-12.3,11.1-12.3,11.1h0h0
				c0,0-6.7-3.4-12.3-11.1c-0.3-0.4-0.6-0.8-1-0.5l-2.1,1.2c-1.8,1.1-2.9,2.8-3.1,4.9l-0.9,7.7c2.8,1.1,7.6,2.9,7.6,2.9v5h23.4v-5
				c0,0,4.8-1.7,7.6-2.9L74.3,92.1z"/>
		</g>
		<path class="st7" d="M70.7,59.9v-2.5c0-3.5-2.4-8.8-5.3-8.8H46.2c-2.9,0-5.3,5.3-5.3,8.8v2.5c-1.8,0-3.2,1.7-3.2,3.8
			s1.4,3.8,3.2,3.8v1.3c0,3,1.6,5.8,3.9,7l6.9,3.4c1.3,0.6,2.7,1,4.1,1l0,0c1.4,0,2.8-0.3,4.1-1l6.9-3.4c2.4-1.2,3.9-3.9,3.9-7v-1.3
			c1.8,0,3.2-1.7,3.2-3.8S72.5,59.9,70.7,59.9z"/>
		<g>
			<path class="st8" d="M63.3,64.9L63.3,64.9c-0.6,0-1.1-0.6-1.1-1.3v-1.3c0-0.7,0.5-1.3,1.1-1.3l0,0c0.6,0,1.1,0.6,1.1,1.3v1.3
				C64.3,64.4,63.9,64.9,63.3,64.9z"/>
		</g>
		<g>
			<g>
				<path class="st9" d="M55.8,73.8c-1.9,0-3.7-0.6-4.9-1.5c-0.5-0.4-0.6-1.2-0.3-1.7c0.3-0.6,1-0.7,1.5-0.3
					c0.8,0.7,2.2,1.1,3.7,1.1c1.5,0,2.8-0.4,3.7-1.1c0.5-0.4,1.1-0.2,1.5,0.3c0.3,0.6,0.2,1.4-0.3,1.7
					C59.5,73.2,57.7,73.8,55.8,73.8z"/>
			</g>
		</g>
		<path class="st4" d="M40.9,59.9c-1.8,0-3.2,1.7-3.2,3.8s1.4,3.8,3.2,3.8v1.3c0,3,1.6,5.8,3.9,7l6.9,3.4c0.3,0.2,0.7,0.3,1,0.4
			c-3-2.6-5.1-4.9-6.3-6.4c-0.9-1.1-1.3-2.5-1.3-4v-6.6c0,0,17.8-2.6,22.4-11.3c0.3-0.5,0.5-1,0.6-1.4
			C57.7,56.8,40.9,59.9,40.9,59.9z"/>
		<g>
			<path class="st10" d="M44.1,102.3c-0.1-1.5-0.5-2.9-1.3-4.1l-5-7.9c-0.2,0.6-0.4,1.2-0.5,1.9l-0.8,7.5L44.1,102.3z"/>
		</g>
		<g>
			<path class="st11" d="M35.6,99.8c-0.1,0.4,0.1,0.9,0.5,1l8,2.7v-0.9c0-0.6-0.1-1.2-0.2-1.7l-7.2-2.5c-0.4-0.1-0.8,0.1-0.9,0.6
				L35.6,99.8z"/>
		</g>
		<g>
			<path class="st10" d="M67.6,102.3c0.1-1.5,0.5-2.9,1.3-4.1l5-7.9c0.2,0.6,0.4,1.2,0.5,1.9l0.8,7.5L67.6,102.3z"/>
		</g>
		<g>
			<path class="st11" d="M76,99.8c0.1,0.4-0.1,0.9-0.5,1l-8,2.7v-0.9c0-0.6,0.1-1.2,0.2-1.7l7.2-2.5c0.4-0.1,0.8,0.1,0.9,0.6
				L76,99.8z"/>
		</g>
		<g>
			<path class="st11" d="M46.2,81.3H43c-0.6,0-1.1-0.6-1.1-1.3l0,0c0-0.7,0.5-1.3,1.1-1.3h3.2c0.6,0,1.1,0.6,1.1,1.3l0,0
				C47.3,80.7,46.8,81.3,46.2,81.3z"/>
		</g>
		<path class="st2" d="M38.8,48.1v12.7c16.6-2.3,24.5-6.5,28.1-9.3c0.3,4.6,0.2,11.5-1.6,18.4c0,0,6.4-10.5,5.4-21.9L38.8,48.1
			L38.8,48.1z"/>
		<g>
			<path class="st8" d="M48.3,64.9L48.3,64.9c-0.6,0-1.1-0.6-1.1-1.3v-1.3c0-0.7,0.5-1.3,1.1-1.3l0,0c0.6,0,1.1,0.6,1.1,1.3v1.3
				C49.4,64.4,48.9,64.9,48.3,64.9z"/>
		</g>
		<path class="st3" d="M38.8,48.1v12.7l0,0c0,0,11.1-4.6,19-12.7H38.8z"/>
	</g>
</g>
</svg>
