<?xml version="1.0" encoding="utf-8"?>
<!-- Generator: Adobe Illustrator 22.0.1, SVG Export Plug-In . SVG Version: 6.00 Build 0)  -->
<svg version="1.1" id="Layer_1" xmlns="http://www.w3.org/2000/svg" xmlns:xlink="http://www.w3.org/1999/xlink" x="0px" y="0px"
	 viewBox="0 0 110 110" style="enable-background:new 0 0 110 110;" xml:space="preserve">
<style type="text/css">
	.st0{fill:#2D4452;}
	.st1{fill:#233540;}
	.st2{fill:#FFEACC;}
	.st3{fill:#F2DEC2;}
	.st4{fill:#242424;}
	.st5{fill:#FFD464;}
	.st6{fill:#FFC066;}
	.st7{fill:#FFD599;}
	.st8{fill:#F2B661;}
	.st9{fill:#99602E;}
	.st10{fill:#8C582A;}
</style>
<g>
	<circle class="st0" cx="55" cy="55" r="52.5"/>
	<path class="st1" d="M103.3,75.7c-0.1-0.1-0.1-0.3-0.2-0.4c-0.1-0.2-0.1-0.3-0.2-0.5c-0.1-0.2-0.1-0.3-0.2-0.5
		c-0.1-0.2-0.1-0.3-0.2-0.5c-0.1-0.2-0.1-0.3-0.2-0.5c-0.1-0.2-0.1-0.3-0.2-0.5c-0.1-0.2-0.1-0.3-0.2-0.5c-0.1-0.2-0.1-0.3-0.2-0.5
		c-0.1-0.2-0.1-0.3-0.2-0.5c-0.1-0.2-0.1-0.3-0.2-0.5c-0.1-0.2-0.1-0.3-0.2-0.5c-0.1-0.2-0.1-0.3-0.2-0.5c-0.1-0.2-0.1-0.3-0.2-0.5
		c-0.1-0.2-0.1-0.3-0.2-0.5c-0.1-0.2-0.1-0.3-0.2-0.5c-0.1-0.2-0.1-0.3-0.2-0.5c-0.1-0.2-0.1-0.3-0.2-0.5c-0.1-0.2-0.1-0.3-0.2-0.5
		c-0.1-0.2-0.1-0.3-0.2-0.5c-0.1-0.2-0.1-0.3-0.2-0.5c-0.1-0.2-0.1-0.3-0.2-0.5c-0.1-0.2-0.1-0.3-0.2-0.5c-0.1-0.2-0.1-0.3-0.2-0.5
		c-0.1-0.2-0.1-0.3-0.2-0.5c-0.1-0.2-0.1-0.3-0.2-0.5c-0.1-0.2-0.1-0.3-0.2-0.5c-0.1-0.2-0.1-0.3-0.2-0.5c-0.1-0.2-0.1-0.3-0.2-0.5
		c-0.1-0.2-0.1-0.3-0.2-0.5c-0.1-0.2-0.1-0.3-0.2-0.5c-0.1-0.2-0.1-0.3-0.2-0.5c-0.1-0.2-0.1-0.3-0.2-0.5c-0.1-0.2-0.1-0.3-0.2-0.5
		c-0.1-0.2-0.1-0.3-0.2-0.5c-0.1-0.2-0.1-0.3-0.2-0.5C96.1,58,96,57.8,96,57.7c-0.1-0.2-0.1-0.3-0.2-0.5c-0.1-0.2-0.1-0.3-0.2-0.5
		c-0.1-0.2-0.1-0.3-0.2-0.5c-0.1-0.2-0.1-0.3-0.2-0.5c-0.1-0.2-0.1-0.3-0.2-0.5c-0.1-0.2-0.1-0.3-0.2-0.5c-0.1-0.2-0.1-0.3-0.2-0.5
		c-0.1-0.2-0.1-0.3-0.2-0.5c-0.1-0.2-0.1-0.3-0.2-0.5c-0.1-0.2-0.1-0.3-0.2-0.5c-0.1-0.2-0.1-0.3-0.2-0.5c-0.1-0.2-0.1-0.3-0.2-0.5
		c-0.1-0.2-0.1-0.3-0.2-0.5c-0.1-0.2-0.1-0.3-0.2-0.5c-0.1-0.2-0.1-0.3-0.2-0.5c-0.1-0.2-0.1-0.3-0.2-0.5c-0.1-0.2-0.1-0.3-0.2-0.5
		c-0.1-0.2-0.1-0.3-0.2-0.5c-0.1-0.2-0.1-0.3-0.2-0.5c-0.1-0.2-0.1-0.3-0.2-0.5c-0.1-0.2-0.1-0.3-0.2-0.5c-0.1-0.2-0.1-0.3-0.2-0.5
		c-0.1-0.2-0.1-0.3-0.2-0.5c-0.1-0.2-0.1-0.3-0.2-0.5c-0.1-0.2-0.1-0.3-0.2-0.5c-0.1-0.2-0.1-0.3-0.2-0.5c-0.1-0.2-0.1-0.3-0.2-0.5
		c-0.1-0.2-0.1-0.3-0.2-0.5c-0.1-0.2-0.1-0.3-0.2-0.5c-0.1-0.2-0.1-0.3-0.2-0.5c-0.1-0.2-0.1-0.3-0.2-0.5c-0.1-0.2-0.1-0.3-0.2-0.5
		c-0.1-0.2-0.1-0.3-0.2-0.5c-0.1-0.2-0.1-0.3-0.2-0.5c-0.1-0.2-0.1-0.3-0.2-0.5c-0.1-0.3-0.3-0.7-0.4-1c-0.1-0.2-0.1-0.3-0.2-0.5
		c-0.1-0.2-0.1-0.3-0.2-0.5c-0.1-0.2-0.1-0.3-0.2-0.5c-0.1-0.2-0.1-0.3-0.2-0.5c-0.1-0.2-0.1-0.3-0.2-0.5c-0.1-0.2-0.1-0.3-0.2-0.5
		c-0.1-0.2-0.1-0.3-0.2-0.5c-0.1-0.2-0.1-0.3-0.2-0.5c-0.1-0.2-0.1-0.3-0.2-0.5c-0.1-0.2-0.1-0.3-0.2-0.5c-0.5-1.5-1.2-2.8-2.1-4
		c-0.2-0.3-0.4-0.6-0.7-0.9c-0.1-0.1-0.2-0.2-0.3-0.4c-0.1-0.2-0.3-0.3-0.4-0.5c-0.2-0.2-0.3-0.3-0.5-0.5c-0.1-0.1-0.2-0.2-0.3-0.3
		c-0.2-0.2-0.4-0.4-0.6-0.5c-0.1-0.1-0.1-0.1-0.2-0.2c-0.2-0.2-0.5-0.4-0.7-0.6c0,0-0.1,0-0.1-0.1c-3.7-2.6-8.8-4-15-4H34.8
		c-7.2,0-12.6,5.1-12.6,12.3v26.7c0,0,0,0,0,0l-0.2,0v18.4c0,0,0,1.3,0.7,2.9c0.1,0.2,0.1,0.3,0.2,0.5c0.1,0.2,0.1,0.3,0.2,0.5
		c0.1,0.2,0.1,0.3,0.2,0.5c0.1,0.2,0.1,0.3,0.2,0.5c0.1,0.2,0.1,0.3,0.2,0.5c0.1,0.2,0.1,0.3,0.2,0.5c0.1,0.2,0.1,0.3,0.2,0.5
		c0.1,0.2,0.1,0.3,0.2,0.5c0.1,0.2,0.1,0.3,0.2,0.5c0.1,0.2,0.1,0.3,0.2,0.5c0.1,0.2,0.1,0.3,0.2,0.5c0.1,0.2,0.1,0.3,0.2,0.5
		c0.1,0.2,0.1,0.3,0.2,0.5c0.1,0.2,0.1,0.3,0.2,0.5c0.1,0.2,0.1,0.3,0.2,0.5c0.1,0.2,0.1,0.3,0.2,0.5c0.1,0.2,0.1,0.3,0.2,0.5
		c0.1,0.2,0.1,0.3,0.2,0.5c0.1,0.2,0.1,0.3,0.2,0.5c0.1,0.2,0.1,0.3,0.2,0.5c0.1,0.2,0.1,0.3,0.2,0.5c0.1,0.2,0.1,0.3,0.2,0.5
		c0.1,0.2,0.1,0.3,0.2,0.5c0.1,0.2,0.1,0.3,0.2,0.5c0.1,0.2,0.1,0.3,0.2,0.5c0.1,0.2,0.1,0.3,0.2,0.5c0.1,0.2,0.1,0.3,0.2,0.5
		c0.1,0.2,0.1,0.3,0.2,0.5c0.1,0.2,0.1,0.3,0.2,0.5c0.1,0.2,0.1,0.3,0.2,0.5c0.1,0.2,0.1,0.3,0.2,0.5c0.1,0.2,0.1,0.3,0.2,0.5
		c0.1,0.2,0.1,0.3,0.2,0.5c0.1,0.2,0.1,0.3,0.2,0.5c0.1,0.2,0.1,0.3,0.2,0.5c0.1,0.2,0.1,0.3,0.2,0.5c0.1,0.2,0.1,0.3,0.2,0.5
		c0,0.1,0.1,0.2,0.1,0.2c7.3,3.9,15.7,6.1,24.6,6.1C76.6,107.5,95.2,94.4,103.3,75.7z"/>
	<path class="st2" d="M73.8,87.8h-41c-3.5,0-6.3-0.9-8.1-2.8c-2.3-2.3-2.4-5.1-2.4-5.4V34.5c0-7.2,5.4-12.3,12.6-12.3h30.8
		c8.7,0,15.2,2.7,18.8,7.8c4.5,6.4,4.4,16.5-0.4,29.8c-0.3,0.9-1.1,1.4-2.1,1.4c-0.9-0.1-1.7-0.7-1.9-1.6
		c-1.7-7.2-4.6-13.9-14.3-14.7c0.8,8.3,5.7,19.3,9.5,27.2c5.2,10.7,0.1,15.1-0.1,15.3C74.7,87.6,74.3,87.8,73.8,87.8z"/>
	<path class="st3" d="M65.7,45.2c-0.8-0.2-1.6-0.3-2.5-0.4c0.8,8.3,5.7,19.3,9.5,27.2c5.2,10.7,0.1,15.1-0.1,15.3
		c-0.4,0.3-0.8,0.5-1.3,0.5h2.5c0.5,0,1-0.2,1.3-0.5c0.2-0.2,5.2-4.6,0.1-15.3C71.5,64.3,66.6,53.4,65.7,45.2z"/>
	<path class="st4" d="M47.1,40.4c-3.3,0-6-2.7-6-6c0-3.3,2.7-6,6-6c3.3,0,6,2.7,6,6C53.1,37.8,50.4,40.4,47.1,40.4z"/>
	<path class="st5" d="M47.1,39.4c-2.7,0-4.9-2.2-4.9-4.9c0-2.7,2.2-4.9,4.9-4.9c2.7,0,4.9,2.2,4.9,4.9C52,37.2,49.8,39.4,47.1,39.4z
		"/>
	<path class="st4" d="M47.1,37c-1.4,0-2.5-1.1-2.5-2.5s1.1-2.5,2.5-2.5c1.4,0,2.5,1.1,2.5,2.5S48.5,37,47.1,37z"/>
	<path class="st6" d="M67.7,22.3c-4.1,9.1-2.2,20.4-2,22.6c9.7,0.8,12.6,7.5,14.3,14.7c0.2,0.9,1,1.5,1.9,1.6
		c0.9,0.1,1.7-0.5,2.1-1.4c4.8-13.3,5-23.4,0.4-29.8C81.1,25.3,75.3,22.7,67.7,22.3z"/>
	<path class="st7" d="M84.3,43.9C84.3,43.9,84.3,43.9,84.3,43.9c-0.5,0-0.8-0.4-0.8-0.9c0.2-4.4-0.7-8-2.5-10.7
		c-2.2-3.1-6-5.1-11.2-5.8c-0.5-0.1-0.8-0.5-0.7-0.9c0.1-0.5,0.5-0.8,0.9-0.7c5.7,0.7,9.9,3,12.4,6.4c2.1,3,3,6.9,2.8,11.7
		C85.2,43.5,84.8,43.9,84.3,43.9z"/>
	<path class="st8" d="M84.3,30c-3.3-4.7-9-7.3-16.7-7.7c0,0.1-0.1,0.1-0.1,0.2c6.5,0.8,11.4,3.3,14.3,7.5c4.5,6.4,4.4,16.5-0.4,29.8
		c-0.1,0.4-0.4,0.7-0.7,0.9c0.3,0.2,0.7,0.4,1.1,0.4c0.9,0.1,1.7-0.5,2.1-1.4C88.7,46.5,88.9,36.4,84.3,30z"/>
	<path class="st9" d="M32.8,88c-3.6,0-6.4-1-8.3-2.9c-2.5-2.5-2.5-5.5-2.5-5.6V61.2l0.2,0c0.2,0,0.4,0,0.6,0c1.2,0,2.3,0.1,2.9,0.4
		c2.2,0.7,3.7,2.8,3.7,5.2c0,0.5,0.4,0.9,0.8,0.9c0.5,0,0.8-0.4,0.8-0.9c0-3,2.4-5.5,5.4-5.5c3,0,5.4,2.5,5.4,5.5
		c0,0.5,0.4,0.9,0.8,0.9c0.5,0,0.8-0.4,0.8-0.9c0-3,2.4-5.5,5.4-5.5c3,0,5.4,2.5,5.4,5.5c0,0.5,0.4,0.9,0.8,0.9
		c0.5,0,0.8-0.4,0.8-0.9c0-3,2.4-5.5,5.4-5.5c3,0,5.4,2.5,5.4,5.5c0,0.5,0.4,0.9,0.8,0.9c0.3,0,0.5-0.2,0.6-0.3
		c0.2-0.2,0.3-0.4,0.3-0.6c0-0.7,0.3-1.3,0.9-1.8c0.4-0.5,1.1-0.7,2-0.7c0.1,0,0.3,0,0.4,0l0.1,0l0,0.1c1,2.3,2.1,4.8,3.5,7.5
		c5.2,10.9,0.1,15.3-0.1,15.5c-0.4,0.3-0.9,0.5-1.4,0.5H32.8L32.8,88z"/>
	<path class="st10" d="M75.3,71.9c-0.3-0.6-0.6-1.2-0.9-1.9c-0.1-0.1-0.1-0.2-0.2-0.4c-0.3-0.5-0.5-1.1-0.8-1.6c0,0,0-0.1-0.1-0.1
		c-0.5-1.2-1.1-2.4-1.6-3.6l-0.1,0c-0.1,0-0.3,0-0.4,0c-0.9,0-1.6,0.2-2,0.7c1.1,2.5,2.2,4.9,3.3,7.1c5.1,10.6,0.2,14.9,0,15.1
		c-0.3,0.3-0.8,0.4-1.2,0.4V88h2.5c0.5,0,1-0.2,1.4-0.5C75.4,87.3,80.6,82.8,75.3,71.9z"/>
</g>
</svg>
