<?xml version="1.0" encoding="utf-8"?>
<!-- Generator: Adobe Illustrator 22.0.1, SVG Export Plug-In . SVG Version: 6.00 Build 0)  -->
<svg version="1.1" id="Layer_1" xmlns="http://www.w3.org/2000/svg" xmlns:xlink="http://www.w3.org/1999/xlink" x="0px" y="0px"
	 viewBox="0 0 110 110" style="enable-background:new 0 0 110 110;" xml:space="preserve">
<style type="text/css">
	.st0{fill:#88C5CC;}
	.st1{fill:#80B9BF;}
	.st2{fill:#CC803D;}
	.st3{fill:#99602E;}
	.st4{fill:#4D3017;}
	.st5{fill:#8C582A;}
	.st6{fill:#FFEACC;}
	.st7{fill:#F2DEC2;}
	.st8{fill:#F5F5F5;}
	.st9{fill:#242424;}
	.st10{fill:#FFE1D9;}
	.st11{fill:#F2D6CE;}
	.st12{fill:#B3746F;}
	.st13{fill:#99635F;}
</style>
<g>
	<circle class="st0" cx="55" cy="55" r="52.5"/>
	<path class="st1" d="M104.3,73.1C104.3,73.1,104.3,73.1,104.3,73.1c-0.1-0.1-0.1-0.2-0.1-0.3c0,0,0-0.1,0-0.1
		c0-0.1-0.1-0.2-0.1-0.3c0,0,0-0.1,0-0.1c0-0.1-0.1-0.2-0.1-0.3c0,0,0-0.1,0-0.1c0-0.1-0.1-0.2-0.1-0.3c0,0,0-0.1,0-0.1
		c0-0.1-0.1-0.2-0.1-0.3c0,0,0-0.1,0-0.1c0-0.1-0.1-0.2-0.1-0.3c0,0,0-0.1,0-0.1c0-0.1-0.1-0.2-0.1-0.3c0,0,0-0.1,0-0.1
		c0-0.1-0.1-0.2-0.1-0.3c0,0,0-0.1,0-0.1c0-0.1-0.1-0.2-0.1-0.3c0,0,0-0.1,0-0.1c0-0.1-0.1-0.2-0.1-0.3c0,0,0-0.1,0-0.1
		c0-0.1-0.1-0.2-0.1-0.3c0,0,0-0.1,0-0.1c0-0.1-0.1-0.2-0.1-0.3c0,0,0-0.1,0-0.1c0-0.1-0.1-0.2-0.1-0.3c0,0,0-0.1,0-0.1
		c0-0.1-0.1-0.2-0.1-0.3c0,0,0-0.1,0-0.1c0-0.1-0.1-0.2-0.1-0.3c0,0,0-0.1,0-0.1c0-0.1-0.1-0.2-0.1-0.3c0,0,0-0.1,0-0.1
		c0-0.1-0.1-0.2-0.1-0.3c0,0,0-0.1,0-0.1c0-0.1-0.1-0.2-0.1-0.3c0,0,0-0.1,0-0.1c0-0.1-0.1-0.2-0.1-0.3c0,0,0-0.1,0-0.1
		c0-0.1-0.1-0.2-0.1-0.3c0,0,0-0.1,0-0.1c0-0.1-0.1-0.2-0.1-0.3c0,0,0-0.1,0-0.1c0-0.1-0.1-0.2-0.1-0.3c0,0,0-0.1,0-0.1
		c0-0.1-0.1-0.2-0.1-0.3c0,0,0-0.1,0-0.1c0-0.1-0.1-0.2-0.1-0.3c0,0,0-0.1,0-0.1c0-0.1-0.1-0.2-0.1-0.3c0,0,0-0.1,0-0.1
		c0-0.1-0.1-0.2-0.1-0.3c0,0,0-0.1,0-0.1c0-0.1-0.1-0.2-0.1-0.3c0,0,0-0.1,0-0.1c0-0.1-0.1-0.2-0.1-0.3c0,0,0-0.1,0-0.1
		c0-0.1-0.1-0.2-0.1-0.3c0,0,0-0.1,0-0.1c0-0.1-0.1-0.2-0.1-0.3c0,0,0-0.1,0-0.1c0-0.1-0.1-0.2-0.1-0.3c0,0,0-0.1,0-0.1
		c0-0.1-0.1-0.2-0.1-0.3c0,0,0-0.1,0-0.1c0-0.1-0.1-0.2-0.1-0.3c0,0,0-0.1,0-0.1c0-0.1-0.1-0.2-0.1-0.3c0,0,0-0.1,0-0.1
		c0-0.1-0.1-0.2-0.1-0.3c0,0,0-0.1,0-0.1c0-0.1-0.1-0.2-0.1-0.3c0,0,0-0.1,0-0.1c0-0.1-0.1-0.2-0.1-0.3c0,0,0-0.1,0-0.1
		c0-0.1-0.1-0.2-0.1-0.3c0,0,0-0.1,0-0.1c0-0.1-0.1-0.2-0.1-0.3c0,0,0-0.1,0-0.1c0-0.1-0.1-0.2-0.1-0.3c0,0,0-0.1,0-0.1
		c0-0.1-0.1-0.2-0.1-0.3c0,0,0-0.1,0-0.1c0-0.1-0.1-0.2-0.1-0.3c0,0,0-0.1,0-0.1c0-0.1-0.1-0.2-0.1-0.3c0,0,0-0.1,0-0.1
		c0-0.1-0.1-0.2-0.1-0.3c0,0,0-0.1,0-0.1c0-0.1-0.1-0.2-0.1-0.3c0,0,0-0.1,0-0.1c0-0.1-0.1-0.2-0.1-0.3c0,0,0-0.1,0-0.1
		c0-0.1-0.1-0.2-0.1-0.3c0,0,0-0.1,0-0.1c0-0.1-0.1-0.2-0.1-0.3c0,0,0-0.1,0-0.1c0-0.1-0.1-0.2-0.1-0.3c0,0,0-0.1,0-0.1
		c0-0.1-0.1-0.2-0.1-0.3c0,0,0-0.1,0-0.1c0-0.1-0.1-0.2-0.1-0.3c0,0,0-0.1,0-0.1c0-0.1-0.1-0.2-0.1-0.3c0,0,0-0.1,0-0.1
		c0-0.1-0.1-0.2-0.1-0.3c0,0,0-0.1,0-0.1c0-0.1-0.1-0.2-0.1-0.3c0,0,0-0.1,0-0.1c0-0.1-0.1-0.2-0.1-0.3c0,0,0-0.1,0-0.1
		c0-0.1-0.1-0.2-0.1-0.3c0,0,0-0.1,0-0.1c0-0.1-0.1-0.2-0.1-0.3c0,0,0-0.1,0-0.1c0-0.1-0.1-0.2-0.1-0.3c0,0,0-0.1,0-0.1
		c0-0.1-0.1-0.2-0.1-0.3c0,0,0-0.1,0-0.1c0-0.1-0.1-0.2-0.1-0.3c0,0,0-0.1,0-0.1c0-0.1-0.1-0.2-0.1-0.3c0,0,0-0.1,0-0.1
		c0-0.1-0.1-0.2-0.1-0.3c0,0,0-0.1,0-0.1c0-0.1-0.1-0.2-0.1-0.3c0,0,0-0.1,0-0.1c0-0.1-0.1-0.2-0.1-0.3c0,0,0-0.1,0-0.1
		c0-0.1-0.1-0.2-0.1-0.3c0,0,0-0.1,0-0.1c0-0.1-0.1-0.2-0.1-0.3c0,0,0-0.1,0-0.1c0-0.1-0.1-0.2-0.1-0.3c0,0,0-0.1,0-0.1
		c-0.2-0.4-0.3-0.8-0.5-1.2c-0.1-0.1-0.1-0.3-0.2-0.4c-0.1-0.3-0.3-0.5-0.4-0.8c-0.1-0.2-0.2-0.3-0.3-0.5c-0.1-0.2-0.3-0.4-0.4-0.7
		c-0.1-0.2-0.3-0.4-0.5-0.6c-0.1-0.2-0.3-0.4-0.4-0.5c-0.2-0.2-0.4-0.4-0.6-0.6c-0.1-0.2-0.3-0.3-0.4-0.5c-0.2-0.2-0.5-0.4-0.7-0.6
		c-0.1-0.1-0.3-0.3-0.4-0.4c-0.3-0.2-0.5-0.4-0.8-0.7c-0.1-0.1-0.3-0.2-0.4-0.3c-0.3-0.2-0.6-0.4-1-0.6c-0.1-0.1-0.2-0.2-0.4-0.2
		c-0.4-0.2-0.7-0.4-1.1-0.6c-0.1-0.1-0.2-0.1-0.3-0.2c-0.4-0.2-0.8-0.4-1.2-0.6c-0.1,0-0.2-0.1-0.3-0.1c-0.4-0.2-0.9-0.4-1.4-0.5
		c-0.1,0-0.2-0.1-0.3-0.1c-0.2-0.1-0.5-0.1-0.7-0.2c0-0.1-0.1-0.2-0.1-0.3c0-0.2-0.1-0.3-0.2-0.4c0-0.2-0.1-0.3-0.2-0.4
		c0-0.2-0.1-0.3-0.2-0.4c0-0.2-0.1-0.3-0.2-0.4c0-0.2-0.1-0.3-0.2-0.4c0-0.2-0.1-0.3-0.2-0.4c0-0.2-0.1-0.3-0.2-0.4
		c0-0.2-0.1-0.3-0.2-0.4c0-0.2-0.1-0.3-0.2-0.4c0-0.2-0.1-0.3-0.2-0.4c0-0.2-0.1-0.3-0.2-0.4c0-0.2-0.1-0.3-0.2-0.4
		c0-0.2-0.1-0.3-0.2-0.4c0-0.2-0.1-0.3-0.2-0.4c0-0.2-0.1-0.3-0.2-0.4c0-0.2-0.1-0.3-0.2-0.4c0-0.2-0.1-0.3-0.2-0.4
		c0-0.2-0.1-0.3-0.2-0.4c0-0.2-0.1-0.3-0.2-0.4c0-0.2-0.1-0.3-0.2-0.4c0-0.2-0.1-0.3-0.2-0.4c0-0.2-0.1-0.3-0.2-0.4
		c0-0.2-0.1-0.3-0.2-0.4c0-0.2-0.1-0.3-0.2-0.4c0-0.2-0.1-0.3-0.2-0.4c0-0.2-0.1-0.3-0.2-0.4c0-0.2-0.1-0.3-0.2-0.4
		c0-0.2-0.1-0.3-0.2-0.4c0-0.2-0.1-0.3-0.2-0.4c0-0.2-0.1-0.3-0.2-0.4c0-0.2-0.1-0.3-0.2-0.4c0-0.2-0.1-0.3-0.2-0.4
		c0-0.2-0.1-0.3-0.2-0.4c0-0.2-0.1-0.3-0.2-0.4c0-0.2-0.1-0.3-0.2-0.4c-0.1-0.5-0.5-0.8-1-0.8c-0.5,0-0.8,0.4-0.9,0.8l0,0.1
		c-0.2,1.1-0.7,2.3-1.2,3.4c-0.6,1.1-1.3,2.2-2.1,3.1c-0.8,0.9-1.7,1.6-2.6,2.1c-0.9,0.4-1.8,0.6-2.6,0.5c-2.4-0.7-5.2-1-8.5-1
		c-0.5,0-1,0-1.4,0c0,0,0,0,0,0c-2.7,0.1-5.1,0.4-7.1,1c-0.8,0.1-1.7-0.1-2.6-0.5c-0.9-0.5-1.8-1.2-2.6-2.1c-0.5-0.6-1-1.3-1.5-2
		c0-0.1-0.1-0.2-0.1-0.3l0,0c0-0.1-0.1-0.3-0.2-0.4l0,0c0-0.1-0.1-0.3-0.2-0.4l0,0c0-0.1-0.1-0.3-0.2-0.4l0,0c0-0.1-0.1-0.3-0.2-0.4
		l0,0c0-0.1-0.1-0.3-0.2-0.4l0,0c0-0.1-0.1-0.3-0.2-0.4l0,0c0-0.1-0.1-0.3-0.2-0.4l0,0c0-0.1-0.1-0.3-0.2-0.4l0,0
		c0-0.1-0.1-0.3-0.2-0.4l0,0c0-0.1-0.1-0.3-0.2-0.4l0,0c-0.1-0.5-0.4-0.8-0.9-0.8c-0.5,0-1,0.4-1,0.9c-0.1,1.6,0.3,3,0.7,4.4
		c0.1,0.5,0.3,0.9,0.5,1.3c0.1,0.2,0.1,0.3,0.2,0.5c0.1,0.1,0.1,0.3,0.2,0.4c0.1,0.1,0.1,0.3,0.2,0.4c0.1,0.1,0.1,0.3,0.2,0.4
		c0.1,0.1,0.1,0.3,0.2,0.4c0.1,0.1,0.1,0.3,0.2,0.4c0.1,0.1,0.1,0.3,0.2,0.4c0.1,0.1,0.1,0.3,0.2,0.4c0.1,0.1,0.1,0.3,0.2,0.4
		c0.1,0.1,0.1,0.3,0.2,0.4c0.1,0.1,0.1,0.3,0.2,0.4c0.1,0.1,0.1,0.3,0.2,0.4c0.1,0.1,0.1,0.3,0.2,0.4c0.1,0.1,0.1,0.3,0.2,0.4
		c0.1,0.1,0.1,0.3,0.2,0.4c0,0.1,0.1,0.2,0.1,0.2c-0.6,0.5-1.1,1-1.6,1.5c-11.2-0.4-18.7,5.8-21.2,12c-0.2,0.6-0.2,1.2,0.1,1.8
		c0,0.1,0.1,0.3,0.2,0.4c0,0.1,0.1,0.3,0.2,0.4c0,0.1,0.1,0.3,0.2,0.4c0,0.1,0.1,0.3,0.2,0.4c0,0.1,0.1,0.3,0.2,0.4
		c0,0.1,0.1,0.3,0.2,0.4c0,0.1,0.1,0.3,0.2,0.4c0,0.1,0.1,0.3,0.2,0.4c0,0.1,0.1,0.3,0.2,0.4c0,0.1,0.1,0.3,0.2,0.4
		c0,0.1,0.1,0.3,0.2,0.4c0,0.1,0.1,0.3,0.2,0.4c0,0.1,0.1,0.3,0.2,0.4c0,0.1,0.1,0.3,0.2,0.4c0,0.1,0.1,0.3,0.2,0.4
		c0,0.1,0.1,0.3,0.2,0.4c0,0.1,0.1,0.3,0.2,0.4c0,0.1,0.1,0.3,0.2,0.4c0,0.1,0.1,0.3,0.2,0.4c0,0.1,0.1,0.3,0.2,0.4
		c0,0.1,0.1,0.3,0.2,0.4c0,0.1,0.1,0.3,0.2,0.4c0,0.1,0.1,0.3,0.2,0.4c0,0.1,0.1,0.3,0.2,0.4c0,0.1,0.1,0.3,0.2,0.4
		c0,0.1,0.1,0.3,0.2,0.4c0,0.1,0.1,0.3,0.2,0.4c0,0.1,0.1,0.3,0.2,0.4c0,0.1,0.1,0.3,0.2,0.4c0,0.1,0.1,0.3,0.2,0.4
		c0,0.1,0.1,0.3,0.2,0.4c0,0.1,0.1,0.3,0.2,0.4c0,0.1,0.1,0.3,0.2,0.4c0,0.1,0.1,0.3,0.2,0.4c0,0.1,0.1,0.3,0.2,0.4
		c0,0.1,0.1,0.3,0.2,0.4c0,0.1,0.1,0.3,0.2,0.4c0,0.1,0.1,0.3,0.2,0.4c0,0.1,0.1,0.3,0.2,0.4c0,0.1,0.1,0.3,0.2,0.4
		c0,0.1,0.1,0.3,0.2,0.4c0,0.1,0.1,0.3,0.2,0.4c0,0.1,0.1,0.3,0.2,0.4c0,0.1,0.1,0.3,0.2,0.4c0,0.1,0.1,0.3,0.2,0.4
		c0,0.1,0.1,0.3,0.2,0.4c0,0.1,0.1,0.3,0.2,0.4c0,0.1,0.1,0.3,0.2,0.4c0,0.1,0.1,0.3,0.2,0.4c0,0.1,0.1,0.3,0.2,0.4
		c0,0.1,0.1,0.3,0.2,0.4c0,0.1,0.1,0.3,0.2,0.4c0,0.1,0.1,0.3,0.2,0.4c0,0.1,0.1,0.3,0.2,0.4c0,0.1,0.1,0.3,0.2,0.4
		c0,0.1,0.1,0.3,0.2,0.4c0,0.1,0.1,0.3,0.2,0.4c0,0.1,0.1,0.3,0.2,0.4c0,0.1,0.1,0.3,0.2,0.4c0,0.1,0.1,0.3,0.2,0.4
		c0,0.1,0.1,0.3,0.2,0.4c0,0.1,0.1,0.3,0.2,0.4c0,0.1,0.1,0.3,0.2,0.4c0,0.1,0.1,0.3,0.2,0.4c0,0.1,0.1,0.3,0.2,0.4
		c0,0.1,0.1,0.3,0.2,0.4c0,0.1,0.1,0.3,0.2,0.4c0,0.1,0.1,0.3,0.2,0.4c0,0.1,0.1,0.3,0.2,0.4c0,0.1,0.1,0.3,0.2,0.4
		c0,0.1,0.1,0.3,0.2,0.4c0,0.1,0.1,0.3,0.2,0.4c0,0.1,0.1,0.3,0.2,0.4c0,0.1,0.1,0.3,0.2,0.4c0,0.1,0.1,0.3,0.2,0.4
		c0,0.1,0.1,0.3,0.2,0.4c0,0.1,0.1,0.3,0.2,0.4c0,0.1,0.1,0.3,0.2,0.4c0,0.1,0.1,0.3,0.2,0.4c0,0.1,0.1,0.3,0.2,0.4
		c0,0.1,0.1,0.3,0.2,0.4c0,0.1,0.1,0.3,0.2,0.4c0,0.1,0.1,0.3,0.2,0.4c0,0.1,0.1,0.3,0.2,0.4c0,0.1,0.1,0.3,0.2,0.4
		c0,0.1,0.1,0.3,0.2,0.4c0,0.1,0.1,0.3,0.2,0.4c0,0.1,0.1,0.3,0.2,0.4c0,0.1,0.1,0.3,0.2,0.4c0,0.1,0.1,0.3,0.2,0.4
		c0,0.1,0.1,0.3,0.2,0.4c0,0.1,0.1,0.3,0.2,0.4c0,0.1,0.1,0.3,0.2,0.4c0,0.1,0.1,0.3,0.2,0.4c0,0.1,0.1,0.3,0.2,0.4
		c0,0.1,0.1,0.3,0.2,0.4c0,0.1,0.1,0.3,0.2,0.4c0,0.1,0.1,0.3,0.2,0.4c0,0.1,0.1,0.3,0.2,0.4c0,0.1,0.1,0.3,0.2,0.4
		c0,0.1,0.1,0.3,0.2,0.4c0,0.1,0.1,0.3,0.2,0.4c0,0.1,0.1,0.3,0.2,0.4c0,0.1,0.1,0.3,0.2,0.4c0,0.1,0.1,0.3,0.2,0.4
		c0,0.1,0.1,0.3,0.2,0.4c0,0.1,0.1,0.3,0.2,0.4c0,0.1,0.1,0.3,0.2,0.4c0,0.1,0.1,0.3,0.2,0.4c0,0.1,0.1,0.3,0.2,0.4
		c0,0.1,0.1,0.3,0.2,0.4c0,0.1,0.1,0.3,0.2,0.4c0,0.1,0.1,0.3,0.2,0.4c0,0.1,0.1,0.3,0.2,0.4c0,0.1,0.1,0.3,0.2,0.4
		c0,0.1,0.1,0.3,0.2,0.4c0,0.1,0.1,0.3,0.2,0.4c0,0.1,0.1,0.3,0.2,0.4c0,0.1,0.1,0.3,0.2,0.4c0,0.1,0.1,0.3,0.2,0.4
		c0,0.1,0.1,0.3,0.2,0.4c0,0.1,0.1,0.3,0.2,0.4c0,0.1,0.1,0.3,0.2,0.4c0,0.1,0.1,0.3,0.2,0.4c0,0.1,0.1,0.3,0.2,0.4
		c0,0.1,0.1,0.3,0.2,0.4c0,0.1,0.1,0.3,0.2,0.4c0,0.1,0.1,0.3,0.2,0.4c0,0.1,0.1,0.3,0.2,0.4c0,0.1,0.1,0.3,0.2,0.4
		c0,0.1,0.1,0.3,0.2,0.4c0,0.1,0.1,0.3,0.2,0.4c0,0.1,0.1,0.3,0.2,0.4c0,0.1,0.1,0.3,0.2,0.4c0,0.1,0.1,0.3,0.2,0.4
		c0,0.1,0.1,0.3,0.2,0.4c0,0.1,0.1,0.3,0.2,0.4c0,0.1,0.1,0.3,0.2,0.4c0,0.1,0.1,0.3,0.2,0.4c0,0.1,0.1,0.3,0.2,0.4c0,0,0,0,0,0.1
		c4.5,1.2,9.1,1.9,14,1.9C77.6,107.5,96.9,93.1,104.3,73.1z"/>
	<g>
		<path class="st2" d="M37.9,18.9c0.2,1.1,0.7,2.3,1.2,3.4c0.6,1.1,1.3,2.2,2.1,3.1c0.8,0.9,1.7,1.6,2.6,2.1
			c0.9,0.5,1.8,0.6,2.7,0.5c1.3-0.2,2.5,0.7,2.7,2.1c0.2,1.3-0.7,2.5-2.1,2.7c-0.2,0-0.3,0-0.4,0l-0.2,0c-1.8-0.1-3.6-0.8-4.9-1.8
			c-1.3-1-2.3-2.3-3.1-3.5c-0.8-1.3-1.4-2.6-1.8-4C36.3,21.9,36,20.6,36,19c0-0.5,0.5-0.9,1-0.9C37.5,18.1,37.9,18.4,37.9,18.9
			L37.9,18.9z"/>
		<path class="st2" d="M72.1,18.9c-0.2,1.1-0.7,2.3-1.2,3.4c-0.6,1.1-1.3,2.2-2.1,3.1c-0.8,0.9-1.7,1.6-2.6,2.1
			c-0.9,0.5-1.8,0.6-2.7,0.5c-1.3-0.2-2.5,0.7-2.7,2.1c-0.2,1.3,0.7,2.5,2.1,2.7c0.2,0,0.3,0,0.4,0l0.2,0c1.8-0.1,3.6-0.8,4.9-1.8
			c1.3-1,2.3-2.3,3.1-3.5c0.8-1.3,1.4-2.6,1.8-4c0.4-1.4,0.8-2.8,0.7-4.4c0-0.5-0.5-0.9-1-0.9C72.5,18.1,72.1,18.4,72.1,18.9
			L72.1,18.9z"/>
	</g>
	<path class="st3" d="M79.2,50.8c-2.2,0-4.2-0.3-6-1c-1.1-0.5-1.6-1.7-1.1-2.8c0.3-0.8-2.2-9.7-2.3-9.7c-1.1,0-2-0.8-2.1-1.9
		c-0.1-1.2,0.7-2.2,1.9-2.3c12.3-1.3,20.7,5.3,23.3,11.9c0.4,0.9,0,2-0.8,2.6C89.2,49.2,84,50.8,79.2,50.8z"/>
	<path class="st4" d="M79.2,47c-1.2,0-2.4-0.1-3.3-0.4c-0.1-2.9-1.5-7.5-2.3-9.9c7.6,0.3,12.9,4.1,15.2,8.3C86.3,46,82.6,47,79.2,47
		z"/>
	<path class="st5" d="M92.9,44.9c-2.5-6.3-10.2-12.5-21.6-12c9.8,0.5,16.5,6.2,18.7,12c0.4,0.9,0,2-0.8,2.6c-2.5,1.6-7,3-11.4,3.3
		c0.4,0,0.9,0.1,1.4,0.1c4.8,0,10.1-1.5,12.9-3.3C92.9,46.9,93.3,45.8,92.9,44.9z"/>
	<path class="st3" d="M30.8,50.8c2.2,0,4.2-0.3,6-1c1.1-0.5,1.6-1.7,1.1-2.8c-0.3-0.8,2.2-9.7,2.3-9.7c1.1,0,2-0.8,2.1-1.9
		c0.1-1.2-0.7-2.2-1.9-2.3c-12.3-1.3-20.7,5.3-23.3,11.9c-0.4,0.9,0,2,0.8,2.6C20.8,49.2,26,50.8,30.8,50.8z"/>
	<path class="st5" d="M40.4,33c-1.4-0.1-2.7-0.2-4-0.1c-3.1,3.5-4.3,8.4-4.3,13.9c0,1.2,0.1,2.5,0.4,4c1.6-0.1,3-0.4,4.3-1
		c1.1-0.5,1.6-1.7,1.1-2.8c-0.3-0.8,2.2-9.7,2.3-9.7c1.1,0,2-0.8,2.1-1.9C42.4,34.1,41.6,33.1,40.4,33z"/>
	<path class="st4" d="M30.8,47c1.2,0,2.4-0.1,3.3-0.4c0.1-2.9,1.5-7.5,2.3-9.9c-7.6,0.3-12.9,4.1-15.2,8.3C23.7,46,27.4,47,30.8,47z
		"/>
	<path class="st6" d="M42.3,68.9c-0.7,0-1.5-0.4-1.8-1.1C36.7,61.2,34,52.3,34,46.7C34,35.6,38.8,27,55,27s21,8.7,21,19.8
		c0,5.6-2.7,14.5-6.5,21.1c-0.6,1-1.9,1.4-2.9,0.8c-1-0.6-22.3-0.6-23.3,0C43,68.8,42.7,68.9,42.3,68.9z"/>
	<g>
		<path class="st7" d="M41.1,68.5c0.4,0.2,0.8,0.4,1.2,0.4c0.4,0,0.7-0.1,1-0.3c0.5-0.3,5.2-0.4,10.3-0.4
			C48.5,68.2,43,68.3,41.1,68.5z"/>
		<path class="st7" d="M55,27c-0.5,0-1,0-1.4,0c15,0.5,19.6,9,19.6,19.7c0,5.6-2.7,14.5-6.5,21.1c-0.2,0.3-0.4,0.5-0.6,0.7
			c0.3,0,0.5,0.1,0.6,0.1c1,0.6,2.3,0.2,2.9-0.8c3.7-6.7,6.5-15.6,6.5-21.1C76,35.6,71.2,27,55,27z"/>
	</g>
	<path class="st8" d="M48.7,52c-2.3,0-4.2-1.9-4.2-4.2c0-2.3,1.9-4.2,4.2-4.2c2.3,0,4.2,1.9,4.2,4.2C52.9,50.1,51,52,48.7,52z"/>
	<path class="st9" d="M48.7,49.9c-1.2,0-2.1-0.9-2.1-2.1c0-1.2,0.9-2.1,2.1-2.1c1.2,0,2.1,0.9,2.1,2.1
		C50.8,48.9,49.8,49.9,48.7,49.9z"/>
	<path class="st8" d="M61.3,52c-2.3,0-4.2-1.9-4.2-4.2c0-2.3,1.9-4.2,4.2-4.2c2.3,0,4.2,1.9,4.2,4.2C65.6,50.1,63.7,52,61.3,52z"/>
	<path class="st9" d="M61.3,49.9c-1.2,0-2.1-0.9-2.1-2.1c0-1.2,0.9-2.1,2.1-2.1c1.2,0,2.1,0.9,2.1,2.1
		C63.5,48.9,62.5,49.9,61.3,49.9z"/>
	<path class="st10" d="M55,91.9c-3.5,0-7-0.9-10.5-2.6c-0.2-0.1-0.3-0.2-0.5-0.3c-1.9-1.9-2.2-2.8-2.2-4.4v-4.9c0-2.5,2.5-5,5-5
		h16.3c2.5,0,5,2.5,5,5v4.9c0,1.6-0.3,2.5-2.2,4.4c-0.1,0.1-0.3,0.2-0.4,0.3C62.1,91,58.5,91.9,55,91.9z"/>
	<g>
		<path class="st11" d="M63.1,74.5h-2.9c2.5,0,5.2,2.6,5.2,5.1v4.9c0,1.6-0.4,2.5-2.2,4.4c-0.1,0.1-0.3,0.2-0.5,0.3
			c-3,1.5-6.1,2.4-9.1,2.6c0.5,0,0.9,0.1,1.4,0.1c3.5,0,7.1-0.9,10.6-2.6c0.2-0.1,0.4-0.2,0.5-0.3c1.9-1.9,2.2-2.8,2.2-4.4v-4.9
			C68.3,77.1,65.7,74.5,63.1,74.5z"/>
		<path class="st11" d="M63.1,74.5H46.9c-2.5,0-5.2,2.6-5.2,5.1v4.9c0,0.4,0,0.7,0.1,1c4.4,2.1,8.8,3.2,13.2,3.2
			c4.4,0,8.9-1.1,13.2-3.2c0.1-0.3,0.1-0.7,0.1-1.1v-4.9C68.3,77.1,65.7,74.5,63.1,74.5z"/>
	</g>
	<path class="st10" d="M55,86.9c-4.5,0-9.1-1.1-13.6-3.4c-0.2-0.1-0.1-0.2-0.3-0.4c-2.5-2.5-2.5-3.7-2.5-5.7V71c0-3.3,2.6-7,5.8-7
		h21.1c3.3,0,5.8,3.8,5.8,7v6.3c0,2,0,3.3-2.5,5.7c-0.2,0.2-0.2,0.3-0.4,0.4C64,85.7,59.5,86.9,55,86.9z"/>
	<path class="st11" d="M65.6,64h-2.9c3.3,0,6.6,3.7,6.6,7v6.3c0,2-0.4,3.3-2.8,5.7c-0.2,0.2-0.4,0.3-0.6,0.4c-4,2-8.2,3.1-12.3,3.3
		c0.5,0,1,0,1.4,0c4.5,0,9.2-1.1,13.7-3.4c0.2-0.1,0.4-0.2,0.6-0.4c2.5-2.5,2.8-3.7,2.8-5.7V71C72.1,67.8,68.8,64,65.6,64z"/>
	<path class="st12" d="M49.3,79.5c-1.2,0-2.5-0.9-2.5-2.1v-4.2c0-1.2,1.3-2.1,2.5-2.1s2.5,0.9,2.5,2.1v4.2
		C51.7,78.5,50.4,79.5,49.3,79.5z"/>
	<path class="st13" d="M60.7,79.5c-1.2,0-2.5-0.9-2.5-2.1v-4.2c0-1.2,1.3-2.1,2.5-2.1s2.5,0.9,2.5,2.1v4.2
		C63.2,78.5,61.9,79.5,60.7,79.5z"/>
</g>
</svg>
