<?xml version="1.0" encoding="utf-8"?>
<!-- Generator: Adobe Illustrator 22.0.1, SVG Export Plug-In . SVG Version: 6.00 Build 0)  -->
<svg version="1.1" id="Layer_1" xmlns="http://www.w3.org/2000/svg" xmlns:xlink="http://www.w3.org/1999/xlink" x="0px" y="0px"
	 viewBox="0 0 110 110" style="enable-background:new 0 0 110 110;" xml:space="preserve">
<style type="text/css">
	.st0{clip-path:url(#SVGID_2_);}
	.st1{fill:#F6B47B;}
	.st2{fill:#6E4439;}
	.st3{fill:#5E342E;}
	.st4{fill:#F23F44;}
	.st5{fill:#FF4F4F;}
	.st6{fill:#E2A071;}
	.st7{fill:#FDC88E;}
	.st8{fill:#623F33;}
	.st9{clip-path:url(#SVGID_2_);fill:none;}
</style>
<g>
	<defs>
		<circle id="SVGID_1_" cx="55.5" cy="55.3" r="52.5"/>
	</defs>
	<use xlink:href="#SVGID_1_"  style="overflow:visible;fill:#7B6990;"/>
	<clipPath id="SVGID_2_">
		<use xlink:href="#SVGID_1_"  style="overflow:visible;"/>
	</clipPath>
	<g class="st0">
		<path class="st1" d="M81.7,105.1l-1.6-11.7c-0.3-2.5-2-4.6-4.4-5.5l-9.3-3.4c-1.1-0.4-1.9-1.4-1.9-2.6v-4.4l5.9-2.4
			c3-1.3,5-4.2,5-7.5v-1.4c2.3,0,4.1-1.8,4.1-4.1c0-2.3-1.8-4.1-4.1-4.1v-2.7c0-3.8-3-9.5-6.8-9.5H44.2c-3.8,0-6.8,5.8-6.8,9.5V58
			c-2.3,0-4.1,1.8-4.1,4.1c0,2.3,1.8,4.1,4.1,4.1v1.4c0,3.3,2,6.3,5,7.5l5.9,2.4v4.4c0,1.2-0.8,2.2-1.9,2.6l-9.3,3.4
			c-2.4,0.9-4.1,3-4.4,5.5l-1.6,11.7c-0.3,2.4,1.6,4.6,4,4.6h42.4C80.1,109.7,82,107.5,81.7,105.1z"/>
		<path class="st2" d="M76.8,64.8h-2.7c0,0-1.3,3.6-1.4,8.2c0,2.6,0.6,5.4,1.4,8.2h2.7c0.7-2.7,1.4-5.6,1.4-8.2
			C78.1,68.4,76.8,64.8,76.8,64.8z"/>
		<path class="st3" d="M38.7,64.8H36c0,0-1.3,3.6-1.4,8.2c0,2.6,0.6,5.4,1.4,8.2h2.7c0.7-2.7,1.4-5.6,1.4-8.2
			C40,68.4,38.7,64.8,38.7,64.8z"/>
		<g>
			<path class="st4" d="M36.7,56h-7.5c-1,0-1.6,1-1.3,1.9l1.4,3.5c0.3,0.8,1.2,1.1,2,0.7l5.4-3.3V56z"/>
		</g>
		<g>
			<path class="st5" d="M36.7,56h-7.5c-1,0-1.6-1-1.3-1.9l1.4-3.5c0.3-0.8,1.2-1.1,2-0.7l5.4,3.3V56z"/>
		</g>
		<g>
			<path class="st4" d="M76.1,56h7.5c1,0,1.6,1,1.3,1.9l-1.4,3.5c-0.3,0.8-1.2,1.1-2,0.7l-5.4-3.3V56z"/>
		</g>
		<g>
			<path class="st5" d="M76.1,56h7.5c1,0,1.6-1,1.3-1.9l-1.4-3.5c-0.3-0.8-1.2-1.1-2-0.7l-5.4,3.3V56z"/>
		</g>
		<g>
			<path class="st6" d="M64.6,77.5l-16.3-3.6v8c0,1-0.5,1.8-1.4,2.3C58.3,86.2,64.6,77.5,64.6,77.5z"/>
		</g>
		<g>
			<path class="st7" d="M37.3,58c-2.3,0-4.1,1.8-4.1,4.1c0,2.3,1.8,4.1,4.1,4.1v1.4c0,3.3,2,6.3,5,7.5l8.8,3.7c1.7,0.7,3.4,1,5.2,1
				l0,0c1.8,0,3.6-0.4,5.2-1l8.8-3.7c3-1.3,5-4.2,5-7.5v-1.4c2.3,0,4.1-1.8,4.1-4.1c0-2.3-1.8-4.1-4.1-4.1v-4.4
				c0-4.3-3.5-7.8-7.8-7.8H45.2c-4.3,0-7.8,3.5-7.8,7.8V58z"/>
		</g>
		<g>
			<path class="st8" d="M46.9,63.4L46.9,63.4c-0.7,0-1.4-0.6-1.4-1.4v-1.4c0-0.7,0.6-1.4,1.4-1.4l0,0c0.7,0,1.4,0.6,1.4,1.4v1.4
				C48.2,62.8,47.6,63.4,46.9,63.4z"/>
		</g>
		<g>
			<path class="st8" d="M65.9,63.4L65.9,63.4c-0.7,0-1.4-0.6-1.4-1.4v-1.4c0-0.7,0.6-1.4,1.4-1.4l0,0c0.7,0,1.4,0.6,1.4,1.4v1.4
				C67.3,62.8,66.7,63.4,65.9,63.4z"/>
		</g>
		<g>
			<g>
				<path class="st6" d="M56.4,73c-2.4,0-4.7-0.6-6.2-1.6c-0.6-0.4-0.8-1.3-0.4-1.9c0.4-0.6,1.3-0.8,1.9-0.4
					c1.1,0.7,2.8,1.2,4.7,1.2c1.9,0,3.6-0.4,4.7-1.2c0.6-0.4,1.5-0.3,1.9,0.4c0.4,0.6,0.3,1.5-0.4,1.9C61.1,72.4,58.8,73,56.4,73z"
					/>
			</g>
		</g>
		<path class="st1" d="M37.3,58c-2.3,0-4.1,1.8-4.1,4.1c0,2.3,1.8,4.1,4.1,4.1v1.4c0,3.3,2,6.3,5,7.5l8.8,3.7
			c0.4,0.2,0.9,0.3,1.3,0.5c-3.9-2.8-6.5-5.3-8-7c-1.1-1.2-1.7-2.7-1.7-4.4v-7.6c3.9-1.4,14.8-5.8,15-13.2l-1.7-1.7
			C56.1,45.4,55.3,55.1,37.3,58z"/>
		<g>
			<path class="st4" d="M72,86.3l-4.9,7.8c-0.7,1.2-2.1,1.9-3.5,1.9H49.1c-1.4,0-2.7-0.7-3.5-1.9l-4.9-7.8c-0.4-0.6-1.2-0.8-1.9-0.4
				l-4.5,2.7c-0.7,0.4-0.9,1.2-0.5,1.9l6.1,9.7h32.7l6.1-9.7c0.4-0.6,0.2-1.5-0.5-1.9l-4.5-2.7C73.3,85.5,72.4,85.7,72,86.3z"/>
		</g>
		<g>
			<rect x="40.1" y="100.2" class="st5" width="32.7" height="9.5"/>
		</g>
		<path class="st2" d="M63.2,30.7c-4.4,0-6.8,1.4-6.8,1.4s-2.4-1.4-6.8-1.4s-21.2,8.5-15,28.3c0,0,21.8-3.9,21.8-13.3
			c0,9.4,21.8,13.3,21.8,13.3C84.4,39.3,67.6,30.7,63.2,30.7z"/>
		<g>
			<path class="st3" d="M56.4,32.1L56.4,32.1c0,0-2.4-1.4-6.8-1.4s-21.2,8.5-15,28.3c0,0,2.6-0.5,6.1-1.5
				C36.8,39.8,52.2,32.1,56.4,32.1z"/>
		</g>
		<g>
			<path class="st4" d="M38.7,83.8H36c-0.8,0-1.4-0.6-1.4-1.4l0,0c0-0.8,0.6-1.4,1.4-1.4h2.7c0.8,0,1.4,0.6,1.4,1.4l0,0
				C40.1,83.2,39.5,83.8,38.7,83.8z"/>
		</g>
		<g>
			<path class="st3" d="M38.7,83.8c0,0,2.4,4.1-1.4,9.5c-3.7-5.4-1.4-9.5-1.4-9.5"/>
		</g>
		<g>
			<path class="st5" d="M74.1,83.8h2.7c0.8,0,1.4-0.6,1.4-1.4l0,0c0-0.8-0.6-1.4-1.4-1.4h-2.7c-0.8,0-1.4,0.6-1.4,1.4l0,0
				C72.7,83.2,73.4,83.8,74.1,83.8z"/>
		</g>
		<g>
			<path class="st2" d="M74.1,83.8c0,0-2.4,4.1,1.4,9.5c3.7-5.4,1.4-9.5,1.4-9.5"/>
		</g>
	</g>
	<circle class="st9" cx="55.5" cy="55.3" r="52.5"/>
</g>
</svg>
