<?xml version="1.0" encoding="utf-8"?>
<!-- Generator: Adobe Illustrator 22.0.1, SVG Export Plug-In . SVG Version: 6.00 Build 0)  -->
<svg version="1.1" id="Layer_1" xmlns="http://www.w3.org/2000/svg" xmlns:xlink="http://www.w3.org/1999/xlink" x="0px" y="0px"
	 viewBox="0 0 110 110" style="enable-background:new 0 0 110 110;" xml:space="preserve">
<style type="text/css">
	.st0{clip-path:url(#SVGID_2_);fill:none;}
	.st1{clip-path:url(#SVGID_2_);}
	.st2{fill:#FDC88E;}
	.st3{fill:#F5B97A;}
	.st4{fill:#FFD7A3;}
	.st5{fill:#623F33;}
	.st6{fill:#E4B07B;}
	.st7{fill:#8DB9E2;}
	.st8{fill:#6AA2DE;}
	.st9{fill:#9BCE7A;}
	.st10{fill:#8ABE69;}
	.st11{fill:#76AB5F;}
	.st12{fill:#82B8AD;}
</style>
<g>
	<defs>
		<circle id="SVGID_1_" cx="55.5" cy="55.3" r="52.5"/>
	</defs>
	<use xlink:href="#SVGID_1_"  style="overflow:visible;fill:#DBDBDB;"/>
	<clipPath id="SVGID_2_">
		<use xlink:href="#SVGID_1_"  style="overflow:visible;"/>
	</clipPath>
	<circle class="st0" cx="55.5" cy="55.3" r="52.5"/>
	<g class="st1">
		<path class="st2" d="M78,100.9l-0.1-1c0-0.4-0.4-0.7-0.8-0.6l-0.1,0l-1-8.3c-0.2-1.8-1.5-3.3-3.2-3.9l-5.7-1.9
			c-0.8-0.3-1.7-0.1-2.3,0.4l-1.7-0.6c-1-0.3-1.6-1.2-1.6-2.2v-3.8l5.1-2.1c2.6-1.1,4.3-3.7,4.3-6.5v-1.2c1.9,0,3.5-1.6,3.5-3.5
			c0-1.9-1.6-3.5-3.5-3.5V60c0-3.2-2.6-5.9-5.9-5.9H43.9c-3.2,0-5.9,2.6-5.9,5.9v2.4c-1.9,0-3.5,1.6-3.5,3.5c0,1.9,1.6,3.5,3.5,3.5
			v1.2c0,2.8,1.7,5.4,4.3,6.5l5.1,2.1v3.8c0,1-0.6,1.9-1.6,2.2l-1.7,0.6c-0.6-0.5-1.5-0.7-2.3-0.4l-5.7,1.9c-1.7,0.6-3,2.1-3.2,3.9
			l-1,8.3l-0.1,0c-0.4,0-0.7,0.2-0.8,0.6l-0.1,1c0,0.4,0.2,0.7,0.6,0.8l1.7,0.2v2.7c0,1.3,1.1,2.4,2.4,2.4h5.9h25.9h5.9
			c1.3,0,2.4-1.1,2.4-2.4v-2.7l1.7-0.2C77.8,101.7,78,101.3,78,100.9z"/>
		<g>
			<path class="st3" d="M61.6,79.2L47.4,76v6.9c0,0.8-0.5,1.6-1.2,2C56.1,86.7,61.6,79.2,61.6,79.2z"/>
		</g>
		<path class="st4" d="M71,62.3V60c0-3.2-2.6-5.9-5.9-5.9H43.9c-3.2,0-5.9,2.6-5.9,5.9v2.4c-1.9,0-3.5,1.6-3.5,3.5
			c0,1.9,1.6,3.5,3.5,3.5v1.2c0,2.8,1.7,5.4,4.3,6.5l7.6,3.2c1.4,0.6,3,0.9,4.5,0.9l0,0c1.6,0,3.1-0.3,4.5-0.9l7.6-3.2
			c2.6-1.1,4.3-3.7,4.3-6.5v-1.2c1.9,0,3.5-1.6,3.5-3.5C74.5,63.9,72.9,62.3,71,62.3z"/>
		<g>
			<path class="st5" d="M46.3,67L46.3,67c-0.6,0-1.2-0.5-1.2-1.2v-1.2c0-0.6,0.5-1.2,1.2-1.2l0,0c0.6,0,1.2,0.5,1.2,1.2v1.2
				C47.4,66.5,46.9,67,46.3,67z"/>
		</g>
		<g>
			<path class="st5" d="M62.7,67L62.7,67c-0.6,0-1.2-0.5-1.2-1.2v-1.2c0-0.6,0.5-1.2,1.2-1.2l0,0c0.6,0,1.2,0.5,1.2,1.2v1.2
				C63.9,66.5,63.4,67,62.7,67z"/>
		</g>
		<g>
			<g>
				<path class="st6" d="M54.5,75.3c-2.1,0-4-0.5-5.4-1.4c-0.5-0.4-0.7-1.1-0.3-1.6c0.4-0.5,1.1-0.7,1.6-0.3c0.9,0.6,2.4,1,4,1
					s3.1-0.4,4-1c0.5-0.4,1.3-0.2,1.6,0.3c0.4,0.5,0.2,1.3-0.3,1.6C58.5,74.8,56.6,75.3,54.5,75.3z"/>
			</g>
		</g>
		<path class="st2" d="M44.2,74.6c-1-1-1.5-2.4-1.5-3.8V60.5c3.2-1.8,12.7-6.4,22.3-6.4H43.9c-0.4,0-0.8,0-1.2,0.1v0
			C40.1,54.7,38,57.1,38,60v2.4c-1.9,0-3.5,1.6-3.5,3.5c0,1.9,1.6,3.5,3.5,3.5v1.2c0,2.8,1.7,5.4,4.3,6.5l7.6,3.2
			c0.4,0.2,0.8,0.3,1.1,0.4C47.8,78.2,45.5,76,44.2,74.6z"/>
		<g>
			<path class="st7" d="M74.5,44.7c0,0-0.4-0.3-1.2-0.8c-0.2-2.7-1.1-3.9-1.1-3.9l-4.3,1.4c-3.7-1.4-9-2.6-15.7-2.6
				c0,0-0.8,0.8-2.4,1.2c0,0-4-0.9-8.2-1.2l-2.4,5.9c0,0-5.9,0-5.9,7.1c0,2.6,1.5,9.1,2.1,11.8c0.6-0.7,1.6-1.2,2.6-1.2V60
				c0-3.2,2.6-5.8,5.8-5.9c-0.9,2-1.1,3.5-1.1,3.5c2.9-2,6.8-3.5,11.8-3.5h10.6c3.2,0,5.9,2.6,5.9,5.9v2.4c1.1,0,2.1,0.5,2.8,1.4
				C74.8,61.1,77.1,53.7,74.5,44.7z"/>
		</g>
		<g>
			<path class="st8" d="M72.1,40l-4.3,1.4c-3.7-1.4-9-2.6-15.7-2.6c0,0-0.8,0.8-2.4,1.2c0,0-4-0.9-8.2-1.2l-2.4,5.9
				c0,0-5.9,0-5.9,7.1c0,2.6,1.5,9.1,2.1,11.8c0.6-0.7,1.6-1.2,2.6-1.2V60c0-3.1,2.4-5.6,5.4-5.8c-0.3,0.9-0.7,2.1-0.7,3.5
				c4.6-5.9,11.2-8,16.5-9.4c5.2-1.4,5.9-3.5,5.9-3.5S70.2,44.4,72.1,40z"/>
		</g>
		<g>
			<path class="st9" d="M67.4,107v-5.9h9.8l-1.2-10c-0.2-1.8-1.5-3.3-3.2-3.9l-5.7-1.9c-1-0.3-2.1,0-2.7,0.9
				c-2.1,3.3-5.7,5.5-9.9,5.5s-7.8-2.2-9.9-5.5c-0.6-0.9-1.7-1.2-2.7-0.9l-5.7,1.9c-1.7,0.6-3,2.1-3.2,3.9l-1.1,8.9l9.7,1v5.9
				L67.4,107L67.4,107z"/>
		</g>
		<g>
			<path class="st10" d="M41.6,102v-2.7c0-1.1-0.4-2.2-1.1-3.1L34,88.8c-0.5,0.7-0.9,1.5-1,2.3l-1.2,9.8
				C33.6,101,38.6,101.6,41.6,102z"/>
		</g>
		<g>
			<path class="st11" d="M41.6,100.4l-9.7-1.1c-0.4,0-0.7,0.2-0.8,0.6l-0.1,1c0,0.4,0.2,0.7,0.6,0.8l10,1.1V100.4z"/>
		</g>
		<g>
			<path class="st10" d="M67.4,102v-2.7c0-1.1,0.4-2.2,1.1-3.1l6.5-7.5c0.5,0.7,0.9,1.5,1,2.3l1.2,9.8C75.4,101,70.4,101.6,67.4,102
				z"/>
		</g>
		<g>
			<path class="st11" d="M67.4,100.4l9.7-1.1c0.4,0,0.7,0.2,0.8,0.6l0.1,1c0,0.4-0.2,0.7-0.6,0.8l-10,1.1V100.4z"/>
		</g>
		<g>
			<path class="st10" d="M67.1,85.3c-1-0.3-2.1,0-2.7,0.9c-2.1,3.3-5.7,5.5-9.9,5.5s-7.8-2.2-9.9-5.5c-0.6-0.9-1.7-1.2-2.7-0.9
				l-0.4,0.1c2.1,5.1,7.2,8.6,13,8.6s10.8-3.5,13-8.6L67.1,85.3z"/>
		</g>
		<g>
			<circle class="st12" cx="54.5" cy="103.5" r="1.2"/>
		</g>
		<g>
			<circle class="st12" cx="45.1" cy="103.5" r="1.2"/>
		</g>
		<g>
			<circle class="st12" cx="63.9" cy="103.5" r="1.2"/>
		</g>
		<g>
			<circle class="st8" cx="59.2" cy="103.5" r="1.2"/>
		</g>
		<g>
			<circle class="st8" cx="49.8" cy="103.5" r="1.2"/>
		</g>
		<g>
			<circle class="st8" cx="56.9" cy="99.9" r="1.2"/>
		</g>
		<g>
			<circle class="st8" cx="47.4" cy="99.9" r="1.2"/>
		</g>
		<g>
			<circle class="st8" cx="66.3" cy="99.9" r="1.2"/>
		</g>
		<g>
			<circle class="st12" cx="42.7" cy="99.9" r="1.2"/>
		</g>
		<g>
			<circle class="st12" cx="61.6" cy="99.9" r="1.2"/>
		</g>
		<g>
			<circle class="st12" cx="52.1" cy="99.9" r="1.2"/>
		</g>
	</g>
</g>
</svg>
