<?xml version="1.0" encoding="utf-8"?>
<!-- Generator: Adobe Illustrator 22.0.1, SVG Export Plug-In . SVG Version: 6.00 Build 0)  -->
<svg version="1.1" id="Layer_1" xmlns="http://www.w3.org/2000/svg" xmlns:xlink="http://www.w3.org/1999/xlink" x="0px" y="0px"
	 viewBox="0 0 110 110" style="enable-background:new 0 0 110 110;" xml:space="preserve">
<style type="text/css">
	.st0{clip-path:url(#SVGID_2_);fill:none;}
	.st1{clip-path:url(#SVGID_2_);}
	.st2{fill:#543C2A;}
	.st3{fill:#FDCC9B;}
	.st4{fill:#FCBC85;}
	.st5{fill:#3B2519;}
	.st6{fill:#FFFFFF;}
	.st7{fill:#684B37;}
	.st8{fill:#F7945E;}
	.st9{fill:#F9AA8D;}
	.st10{fill:#F5A860;}
	.st11{fill:#F18B45;}
</style>
<g>
	<defs>
		<circle id="SVGID_1_" cx="55.5" cy="55.3" r="52.5"/>
	</defs>
	<use xlink:href="#SVGID_1_"  style="overflow:visible;fill:#E6BD49;"/>
	<clipPath id="SVGID_2_">
		<use xlink:href="#SVGID_1_"  style="overflow:visible;"/>
	</clipPath>
	<circle class="st0" cx="55.5" cy="55.3" r="52.5"/>
	<g class="st1">
		<path class="st2" d="M55.7,63.2v42.5h19.5c0,0,3.7-19.2,3.6-30.8C78.8,63.4,55.7,63.2,55.7,63.2z"/>
		<path class="st2" d="M55.7,63.2v42.5H36.2c0,0-3.7-19.2-3.6-30.8C32.7,63.4,55.7,63.2,55.7,63.2z"/>
		<g>
			<g>
				<rect x="51" y="91.5" class="st3" width="9.5" height="10.7"/>
				<path class="st4" d="M51,92.8c0,0,4,2.5,9.5,2v-3.2H51V92.8z"/>
				<ellipse class="st4" cx="37.3" cy="75" rx="4.6" ry="5.3"/>
				<ellipse class="st4" cx="74.2" cy="75" rx="4.6" ry="5.3"/>
				<path class="st3" d="M74.2,64.9c0-7.8-5.7-13.5-18.5-13.5s-18.5,5.7-18.5,13.5S36,93.2,55.7,93.2C75.5,93.2,74.2,72.7,74.2,64.9
					z"/>
				<g>
					<g>
						<ellipse class="st5" cx="46.7" cy="73.7" rx="2" ry="2.2"/>
						<circle class="st6" cx="45.9" cy="72.8" r="0.6"/>
					</g>
					<path class="st7" d="M43.6,69c0.9,0.4,2.5-1.2,5.9,0.2c0.6,0.3,1-2.2-2.7-2.2C43.6,67,43,68.8,43.6,69z"/>
					<g>
						<ellipse class="st5" cx="65" cy="73.7" rx="2" ry="2.2"/>
						<circle class="st6" cx="64.1" cy="72.8" r="0.6"/>
					</g>
					<path class="st7" d="M67.9,69c-0.9,0.4-2.5-1.2-5.9,0.2c-0.6,0.3-1-2.2,2.7-2.2C67.9,67,68.5,68.8,67.9,69z"/>
				</g>
				<path class="st4" d="M55.7,81.4c-2,0-3.2-1.5-3.2-0.8c0,0.7,0.6,2.1,3.2,2.1c2.6,0,3.2-1.4,3.2-2.1
					C58.9,79.9,57.7,81.4,55.7,81.4z"/>
				<path class="st4" d="M55.7,88c-0.7,0-1.1-0.5-1.1-0.3c0,0.2,0.2,0.7,1.1,0.7c0.9,0,1.1-0.5,1.1-0.7C56.8,87.5,56.4,88,55.7,88z"
					/>
				<path class="st8" d="M55.7,86.2c-3.1,0-5-1.3-5-1c0,0.3,0.9,1.6,5,1.6s5-1.3,5-1.6S58.9,86.2,55.7,86.2z"/>
			</g>
			<circle class="st9" cx="44.2" cy="80.7" r="2.7"/>
			<circle class="st9" cx="67.6" cy="80.7" r="2.7"/>
		</g>
		<path class="st10" d="M55.7,95.8v12H34.9C34.9,102.9,44.8,95.8,55.7,95.8z"/>
		<path class="st10" d="M55.7,95.8v12h20.8C76.6,102.9,66.7,95.8,55.7,95.8z"/>
		<path class="st11" d="M51.8,96.1c-0.1,0-0.1,0-0.2,0c-1.3,0.2-2.5,0.5-3.7,0.9l7.9,10.8v-6L52.2,96C52,96.1,51.9,96.1,51.8,96.1z"
			/>
		<path class="st11" d="M59.7,96.1c0.1,0,0.1,0,0.2,0c1.3,0.2,2.5,0.5,3.7,0.9l-7.9,10.8v-6l3.6-5.7C59.4,96.1,59.6,96.1,59.7,96.1z
			"/>
		<path class="st7" d="M55.7,41.8c-21.5,0-24,15.2-23.1,33.1c0.9,17.9,16.1,26.8,16.1,26.8S31.7,77.4,45.9,56c0,0-2.7,4.6-2.5,8.4
			c0,0,3.3-1.1,12.4-1.1c9,0,12.4,1.1,12.4,1.1c0.1-3.8-2.5-8.4-2.5-8.4c14.2,21.4-2.9,45.8-2.9,45.8S77.9,92.9,78.8,75
			C79.7,57.1,77.2,41.8,55.7,41.8z"/>
		<path class="st3" d="M51,96.2l4.8,7.9l4.8-7.9C60.5,96.2,55.6,94.4,51,96.2z"/>
	</g>
</g>
</svg>
