<?xml version="1.0" encoding="utf-8"?>
<!-- Generator: Adobe Illustrator 22.0.1, SVG Export Plug-In . SVG Version: 6.00 Build 0)  -->
<svg version="1.1" id="Layer_1" xmlns="http://www.w3.org/2000/svg" xmlns:xlink="http://www.w3.org/1999/xlink" x="0px" y="0px"
	 viewBox="0 0 110 110" style="enable-background:new 0 0 110 110;" xml:space="preserve">
<style type="text/css">
	.st0{fill:#E16B5A;}
	.st1{fill:#CC6152;}
	.st2{fill:#FFC066;}
	.st3{fill:#F2B661;}
	.st4{fill:#99733D;}
	.st5{fill:#F5F5F5;}
	.st6{fill:#E6E6E6;}
	.st7{fill:#242424;}
</style>
<g>
	<circle class="st0" cx="55" cy="55" r="52.5"/>
	<path class="st1" d="M101.5,79.4c-0.1-0.1-0.1-0.3-0.2-0.4c-0.1-0.1-0.1-0.3-0.2-0.4c-0.1-0.1-0.1-0.3-0.2-0.4
		c-0.1-0.1-0.1-0.3-0.2-0.4c-0.1-0.1-0.1-0.3-0.2-0.4c-0.1-0.1-0.1-0.3-0.2-0.4c-0.1-0.1-0.1-0.3-0.2-0.4c-0.1-0.1-0.1-0.3-0.2-0.4
		c-0.1-0.1-0.1-0.3-0.2-0.4c-0.1-0.1-0.1-0.3-0.2-0.4c-0.1-0.1-0.1-0.3-0.2-0.4c-0.1-0.1-0.1-0.3-0.2-0.4c-0.1-0.1-0.1-0.3-0.2-0.4
		c-0.1-0.1-0.1-0.3-0.2-0.4c-0.1-0.1-0.1-0.3-0.2-0.4c-0.1-0.1-0.1-0.3-0.2-0.4c-0.1-0.1-0.1-0.3-0.2-0.4c-0.1-0.1-0.1-0.3-0.2-0.4
		c-0.1-0.1-0.1-0.3-0.2-0.4c-0.1-0.1-0.1-0.3-0.2-0.4c-0.1-0.1-0.1-0.3-0.2-0.4c-0.1-0.1-0.1-0.3-0.2-0.4c-0.1-0.1-0.1-0.3-0.2-0.4
		c-0.1-0.1-0.1-0.3-0.2-0.4c-0.1-0.1-0.1-0.3-0.2-0.4c-0.1-0.1-0.1-0.3-0.2-0.4C97,68.3,97,68.2,96.9,68c-0.1-0.1-0.1-0.3-0.2-0.4
		c-0.1-0.1-0.1-0.3-0.2-0.4c-0.1-0.1-0.1-0.3-0.2-0.4c-0.1-0.1-0.1-0.3-0.2-0.4c-0.1-0.1-0.1-0.3-0.2-0.4c-0.1-0.1-0.1-0.3-0.2-0.4
		c-0.1-0.1-0.1-0.3-0.2-0.4c-0.1-0.1-0.1-0.3-0.2-0.4c-0.1-0.1-0.1-0.3-0.2-0.4c-0.1-0.1-0.1-0.3-0.2-0.4c-0.1-0.1-0.1-0.3-0.2-0.4
		c-0.1-0.1-0.1-0.3-0.2-0.4c-0.1-0.1-0.1-0.3-0.2-0.4c-0.1-0.1-0.1-0.3-0.2-0.4c-0.1-0.1-0.1-0.3-0.2-0.4c-0.1-0.1-0.1-0.3-0.2-0.4
		c-0.1-0.1-0.1-0.3-0.2-0.4c-0.1-0.1-0.1-0.3-0.2-0.4c-0.1-0.1-0.1-0.3-0.2-0.4c-0.1-0.1-0.1-0.3-0.2-0.4c-0.1-0.1-0.1-0.3-0.2-0.4
		c-0.1-0.1-0.1-0.3-0.2-0.4c-0.1-0.1-0.1-0.3-0.2-0.4c-0.1-0.1-0.1-0.3-0.2-0.4c-0.1-0.1-0.1-0.3-0.2-0.4c-0.1-0.1-0.1-0.3-0.2-0.4
		c-0.1-0.1-0.1-0.3-0.2-0.4c-0.1-0.1-0.1-0.3-0.2-0.4c-0.1-0.1-0.1-0.3-0.2-0.4c-0.1-0.1-0.1-0.3-0.2-0.4c-0.1-0.1-0.1-0.3-0.2-0.4
		c-0.1-0.1-0.1-0.3-0.2-0.4c-0.1-0.1-0.1-0.3-0.2-0.4c-0.1-0.1-0.1-0.3-0.2-0.4c-0.1-0.1-0.1-0.3-0.2-0.4c-0.1-0.1-0.1-0.3-0.2-0.4
		c-0.1-0.1-0.1-0.3-0.2-0.4c-0.1-0.1-0.1-0.3-0.2-0.4c-0.1-0.1-0.1-0.3-0.2-0.4c-0.1-0.1-0.1-0.3-0.2-0.4c-0.1-0.1-0.1-0.3-0.2-0.4
		c-0.1-0.1-0.1-0.3-0.2-0.4c-0.1-0.1-0.1-0.3-0.2-0.4c-0.1-0.1-0.1-0.3-0.2-0.4c-0.1-0.1-0.1-0.3-0.2-0.4c-0.1-0.1-0.1-0.3-0.2-0.4
		c-0.1-0.1-0.1-0.3-0.2-0.4c-0.1-0.1-0.1-0.3-0.2-0.4c-0.1-0.1-0.1-0.3-0.2-0.4c-0.1-0.1-0.1-0.3-0.2-0.4c-0.1-0.1-0.1-0.3-0.2-0.4
		c-0.1-0.1-0.1-0.3-0.2-0.4C88,46,88,45.9,87.9,45.7c-0.1-0.1-0.1-0.3-0.2-0.4c-0.1-0.1-0.1-0.3-0.2-0.4c-0.1-0.1-0.1-0.3-0.2-0.4
		c-0.1-0.1-0.1-0.3-0.2-0.4c-0.1-0.1-0.1-0.3-0.2-0.4c-0.1-0.1-0.1-0.3-0.2-0.4c-0.1-0.1-0.1-0.3-0.2-0.4c-0.1-0.1-0.1-0.3-0.2-0.4
		c-0.1-0.1-0.1-0.3-0.2-0.4c-0.1-0.1-0.1-0.3-0.2-0.4c-0.1-0.1-0.1-0.3-0.2-0.4c-0.1-0.1-0.1-0.3-0.2-0.4c-0.1-0.1-0.1-0.3-0.2-0.4
		c-0.1-0.1-0.1-0.3-0.2-0.4c-0.1-0.1-0.1-0.3-0.2-0.4c-0.1-0.1-0.1-0.3-0.2-0.4c-0.1-0.1-0.1-0.3-0.2-0.4c-0.1-0.1-0.1-0.3-0.2-0.4
		c-0.1-0.1-0.1-0.3-0.2-0.4c-0.1-0.1-0.1-0.3-0.2-0.4c-0.1-0.1-0.1-0.3-0.2-0.4c-0.1-0.1-0.1-0.3-0.2-0.4c-0.1-0.1-0.1-0.3-0.2-0.4
		c-0.1-0.1-0.1-0.3-0.2-0.4c-0.1-0.1-0.1-0.3-0.2-0.4c-0.1-0.1-0.1-0.3-0.2-0.4c-0.1-0.1-0.1-0.3-0.2-0.4c-0.1-0.1-0.1-0.3-0.2-0.4
		c-0.1-0.1-0.1-0.3-0.2-0.4c-0.1-0.1-0.1-0.3-0.2-0.4c-0.1-0.1-0.1-0.3-0.2-0.4c-0.1-0.1-0.1-0.3-0.2-0.4c-0.1-0.1-0.1-0.3-0.2-0.4
		c-0.1-0.1-0.1-0.3-0.2-0.4C82.1,31.3,82,31.1,82,31c-0.1-0.1-0.1-0.3-0.2-0.4c-0.1-0.1-0.1-0.3-0.2-0.4c-0.1-0.1-0.1-0.3-0.2-0.4
		c-0.1-0.1-0.1-0.3-0.2-0.4c-0.1-0.1-0.1-0.3-0.2-0.4c-0.1-0.1-0.1-0.3-0.2-0.4c-0.1-0.1-0.1-0.3-0.2-0.4C79.4,24.5,76,22,72,22
		c-0.3,0-0.6,0-0.9,0c-2.7,0.3-5,1.6-6.5,3.6l-1.3-1h-2.5H55h-8.2l-1.3,1.1c-1.7-2.2-4.4-3.7-7.5-3.7c-0.3,0-0.6,0-0.9,0
		c-4.8,0.5-8.5,4.5-8.5,9.4c0,1.3,0.3,2.6,0.8,3.7c0.1,0.1,0.1,0.3,0.2,0.4c0.1,0.1,0.1,0.3,0.2,0.4c0.1,0.1,0.1,0.3,0.2,0.4
		c0.1,0.1,0.1,0.3,0.2,0.4c0.1,0.1,0.1,0.3,0.2,0.4c0.1,0.1,0.1,0.3,0.2,0.4c0.1,0.1,0.1,0.3,0.2,0.4c0,0.1,0.1,0.2,0.1,0.2
		l-1.1,0.9v12.7v2.1v2.8V59v2.5l0.1,0.1l0,0V62l0.1,0.1l0,0v0.3l0.1,0.1l0,0v0.3l0.1,0.1l0,0v0.3l0.1,0.1l0,0v0.3l0.1,0.1l0,0v0.3
		l0.1,0.1l0,0v0.3l0.1,0.1l0,0v0.3l0.1,0.1l0,0v0.2l0.1,0.1l0,0v0.3l0.1,0.1l0,0v0.3l0.1,0.1l0,0v0.3l0.1,0.1l0,0V67l0.1,0.1l0,0
		v0.3l0.1,0.1l0,0v0.3l0.1,0.1l0,0v0.3l0.1,0.1l0,0v0.3l0.1,0.1l0,0v0.3l0.1,0.1l0,0v0.3l0.1,0.1l0,0V70l0.1,0.1l0,0v0.3l0.1,0.1
		l0,0v0.3l0.1,0.1l0,0v0.3l0.1,0.1l0,0v0.3l0.1,0.1l0,0v0.3l0.1,0.1l0,0v0.3l0.1,0.1l0,0v0.3l0.1,0.1l0,0v0.3l0.1,0.1l0,0v0.3
		l0.1,0.1l0,0v0.3l0.1,0.1l0,0v0.3l0.1,0.1l0,0V75l0.1,0.1l0,0v0.3l0.1,0.1l0,0v0.3l0.1,0.1l0,0v0.3l0.1,0.1l0,0v0.3l0.1,0.1l0,0
		v0.3l0.1,0.1l0,0v0.3l0.1,0.1l0,0V78l0.1,0.1l0,0v0.3l0.1,0.1l0,0v0.2l0.1,0.1l0,0v0.3l0.1,0.1l0,0v0.3l0.1,0.1l0,0v0.3l0.1,0.1
		l0,0v0.3l0.1,0.1l0,0v0.3l0.1,0.1l0,0v0.3l0.1,0.1l0,0v0.3l0.1,0.1l0,0v0.3l0.1,0.1l0,0v0.3l0.1,0.1l0,0V83l0.1,0.1l0,0v0.3
		l0.1,0.1l0,0v0.3l0.1,0.1l0,0v0.3l0.1,0.1l0,0v0.3l0.1,0.1l0,0v0.3l0.1,0.1l0,0v0.3l0.1,0.1l0,0v0.3l0.1,0.1l0,0v0.3l0.1,0.1l0,0
		v0.3l0.1,0.1l0,0v0.3l0.1,0.1l0,0v0.3l0.1,0.1l0,0V88l0.1,0.1l0,0v0.3l0.1,0.1l0,0v0.3l0.1,0.1l0,0v0.3l0.1,0.1l0,0v0.3l0.1,0.1
		l0,0v0.3l0.1,0.1l0,0v0.3l0.1,0.1l0,0V91l0.1,0.1l0,0v0.3l0.1,0.1l0,0v0.3l0.1,0.1l0,0v0.3l0.1,0.1l0,0v0.3l0.1,0.1l0,0v0.3
		l0.1,0.1l0,0v0.3l0.1,0.1l0,0v0.3l0.1,0.1l0,0v0.3l0.1,0.1l0,0v0.3l0.1,0.1l0,0v0.3l0.1,0.1l0,0v0.3l0.1,0.1l0,0V96l0.1,0.1l0,0
		v0.3l0.1,0.1l0,0v0.3L44,97l0,0v0.3l0.1,0.1l0,0v0.3l0.1,0.1l0,0v0.3l0.1,0.1l0,0v0.3l0.1,0.1l0,0V99l0.1,0.1l0,0v0.3l0.1,0.1l0,0
		v0.3l0.1,0.1l0,0v0.3l0.1,0.1l0,0v0.3l0.1,0.1l0,0v0.3l0.1,0.1l0,0v0.3l0.1,0.1l0,0v0.3L46,102l0,0v0.3l0.1,0.1l0,0v0.3l0.1,0.1
		l0,0v0.3l0.1,0.1l0,0v0.3l0.1,0.1l0,0v0.3l0.1,0.1l0,0v0.3l0.1,0.1l0,0v0.3l0.1,0.1l0,0v0.3l0.1,0.1l0,0v0.3l0.1,0.1l0,0v0.3
		l0.1,0.1l0,0v0.3l0.1,0.1l0,0v0.3L48,107c2.3,0.3,4.6,0.5,7,0.5C75.2,107.5,92.7,96.1,101.5,79.4z"/>
	<g>
		<circle class="st2" cx="71.9" cy="31.5" r="9.5"/>
		<circle class="st2" cx="38.1" cy="31.5" r="9.5"/>
	</g>
	<g>
		<path class="st3" d="M71.9,22.1c-0.3,0-0.6,0-0.9,0c4.8,0.5,8.5,4.5,8.5,9.4c0,4.9-3.7,9-8.5,9.4c0.3,0,0.6,0,0.9,0
			c5.2,0,9.5-4.2,9.5-9.5S77.2,22.1,71.9,22.1z"/>
		<path class="st3" d="M38.1,22.1c-0.3,0-0.6,0-0.9,0c4.8,0.5,8.5,4.5,8.5,9.4c0,4.9-3.7,9-8.5,9.4c0.3,0,0.6,0,0.9,0
			c5.2,0,9.5-4.2,9.5-9.5C47.5,26.3,43.3,22.1,38.1,22.1z"/>
	</g>
	<g>
		<path class="st4" d="M71.9,37.7c-3.4,0-6.1-2.8-6.1-6.1c0-3.4,2.8-6.1,6.1-6.1s6.1,2.8,6.1,6.1C78.1,34.9,75.3,37.7,71.9,37.7z"/>
		<path class="st4" d="M38.1,37.7c-3.4,0-6.1-2.8-6.1-6.1c0-3.4,2.8-6.1,6.1-6.1c3.4,0,6.1,2.8,6.1,6.1
			C44.2,34.9,41.4,37.7,38.1,37.7z"/>
	</g>
	<polygon class="st2" points="63.2,24.6 55,24.6 46.8,24.6 29.6,39.4 29.6,61.5 41.9,73.9 41.9,82.9 46,87 55,87 64,87 68.1,82.9 
		68.1,73.9 80.4,61.5 80.4,39.4 	"/>
	<polygon class="st3" points="63.2,24.6 60.7,24.6 78,39.4 78,61.5 65.7,73.9 65.7,82.9 61.6,87 64,87 68.1,82.9 68.1,73.9 
		80.4,61.5 80.4,39.4 	"/>
	<polygon class="st5" points="68.1,73.9 73.5,68.5 64.8,64.8 55,64.8 45.2,64.8 36.5,68.5 41.9,73.9 41.9,82.9 46,87 55,87 64,87 
		68.1,82.9 	"/>
	<polygon class="st6" points="65.7,73.9 65.7,82.9 61.6,87 64,87 68.1,82.9 68.1,73.9 73.5,68.5 71.8,67.7 	"/>
	<path class="st3" d="M55,45.3c-4.6,0-9,0.9-10.7,2.3v2.7v2v13.2h21.3V52.4v-2v-2.7C64,46.3,59.6,45.3,55,45.3z"/>
	<path class="st7" d="M56.8,75.1l8.5-8.5c1-1,0.6-1.8-0.7-1.8H45.4c-1.4,0-1.7,0.8-0.7,1.8l8.5,8.5c0,0,0.1,0.1,0.1,0.1V77
		c0,0.9-0.8,1.7-1.7,1.7c-0.9,0-1.7-0.8-1.7-1.7c0-0.9-0.7-1.7-1.7-1.7c-0.9,0-1.7,0.7-1.7,1.7c0,2.8,2.3,5,5,5
		c1.3,0,2.5-0.5,3.3-1.3c0.9,0.8,2.1,1.3,3.4,1.3c2.8,0,5-2.2,5-5c0-0.9-0.7-1.7-1.7-1.7c-0.9,0-1.7,0.7-1.7,1.7
		c0,0.9-0.8,1.7-1.7,1.7c-0.9,0-1.7-0.8-1.7-1.7v-1.8C56.7,75.2,56.7,75.2,56.8,75.1z"/>
	<circle class="st5" cx="45" cy="52" r="4.2"/>
	<circle class="st7" cx="45" cy="52" r="1.7"/>
	<circle class="st5" cx="65" cy="52" r="4.2"/>
	<g>
		<circle class="st7" cx="65" cy="52" r="1.7"/>
		<path class="st7" d="M55,30.2c-1.1,0-2.1-0.3-3-0.5c-1.3-0.3-2.4-0.6-3.4-0.2c-0.5,0.2-1-0.1-1.2-0.6c-0.2-0.5,0.1-1,0.6-1.2
			c1.5-0.6,3.1-0.2,4.5,0.2c0.9,0.2,1.7,0.4,2.6,0.4s1.7-0.2,2.6-0.4c1.5-0.4,3-0.7,4.5-0.2c0.5,0.2,0.7,0.7,0.6,1.2
			c-0.2,0.5-0.7,0.7-1.2,0.6c-1-0.4-2.1-0.1-3.4,0.2C57.1,30,56.1,30.2,55,30.2z"/>
		<path class="st7" d="M55,34c-1.3,0-2.5-0.2-3.7-0.5c-1.6-0.3-3.1-0.6-4.5-0.2c-0.5,0.1-1-0.1-1.2-0.6c-0.1-0.5,0.1-1,0.6-1.2
			c1.8-0.5,3.6-0.2,5.4,0.2c1.1,0.2,2.2,0.4,3.3,0.4c1.1,0,2.2-0.2,3.3-0.4c1.8-0.4,3.6-0.7,5.4-0.2c0.5,0.1,0.8,0.7,0.6,1.2
			c-0.1,0.5-0.7,0.8-1.2,0.6c-1.4-0.4-2.9-0.1-4.5,0.2C57.5,33.7,56.3,34,55,34z"/>
		<path class="st7" d="M74.4,47.3c-0.4-0.3-0.9-0.2-1.2,0.1c-0.3,0.4-0.2,0.9,0.1,1.2l7.1,5.6v-2.1L74.4,47.3z"/>
		<path class="st7" d="M74.4,52.1c-0.4-0.3-0.9-0.2-1.2,0.1c-0.3,0.4-0.2,0.9,0.1,1.2l7.1,5.6v-2.1L74.4,52.1z"/>
		<path class="st7" d="M74.4,57c-0.4-0.3-0.9-0.2-1.2,0.1c-0.3,0.4-0.2,0.9,0.1,1.2l5.8,4.6l1.2-1.2L74.4,57z"/>
		<path class="st7" d="M36.6,58.3c0.4-0.3,0.4-0.8,0.1-1.2S36,56.7,35.6,57l-5.9,4.7l1.2,1.2L36.6,58.3z"/>
		<path class="st7" d="M36.6,53.4c0.4-0.3,0.4-0.8,0.1-1.2c-0.3-0.4-0.8-0.4-1.2-0.1l-6,4.8V59L36.6,53.4z"/>
		<path class="st7" d="M36.8,47.4c-0.3-0.4-0.8-0.4-1.2-0.1l-6,4.8v2.1l7.1-5.6C37,48.3,37.1,47.8,36.8,47.4z"/>
	</g>
</g>
</svg>
