<?xml version="1.0" encoding="utf-8"?>
<!-- Generator: Adobe Illustrator 22.0.1, SVG Export Plug-In . SVG Version: 6.00 Build 0)  -->
<svg version="1.1" id="Layer_1" xmlns="http://www.w3.org/2000/svg" xmlns:xlink="http://www.w3.org/1999/xlink" x="0px" y="0px"
	 viewBox="0 0 110 110" style="enable-background:new 0 0 110 110;" xml:space="preserve">
<style type="text/css">
	.st0{clip-path:url(#SVGID_2_);}
	.st1{fill:#5E342E;}
	.st2{fill:#683F39;}
	.st3{fill:#F6B47B;}
	.st4{fill:#E2A071;}
	.st5{fill:#FFAB3B;}
	.st6{fill:#FFC84A;}
	.st7{fill:#FDC88E;}
	.st8{fill:#623F33;}
	.st9{fill:#00AB9A;}
	.st10{fill:#00BEA4;}
	.st11{clip-path:url(#SVGID_2_);fill:none;}
</style>
<g>
	<defs>
		<circle id="SVGID_1_" cx="55.5" cy="55.3" r="52.5"/>
	</defs>
	<use xlink:href="#SVGID_1_"  style="overflow:visible;fill:#F3E4B2;"/>
	<clipPath id="SVGID_2_">
		<use xlink:href="#SVGID_1_"  style="overflow:visible;"/>
	</clipPath>
	<g class="st0">
		<g>
			<path class="st1" d="M35.9,62.4c-1.2,2.9-2.3,7.1-2.3,12.3c0,6.9,17.4,9.8,21.7,9.8V62.4H35.9z"/>
			<path class="st2" d="M55.3,62.4v22.1c4.3,0,21.7-3,21.7-9.8c0-5.2-1.2-9.4-2.3-12.3L55.3,62.4L55.3,62.4z"/>
		</g>
		<path class="st3" d="M77.3,104L76,93.9c-0.3-2.2-1.7-4-3.8-4.7l-8-2.9c-1-0.3-1.6-1.2-1.6-2.2v-3.8l5.1-2.1
			c2.6-1.1,4.3-3.7,4.3-6.5v-1.2c1.9,0,3.5-1.6,3.5-3.5s-1.6-3.5-3.5-3.5v-2.3c0-3.2-2.6-8.2-5.9-8.2H45c-3.2,0-5.9,5-5.9,8.2v2.3
			c-1.9,0-3.5,1.6-3.5,3.5s1.6,3.5,3.5,3.5v1.2c0,2.8,1.7,5.4,4.3,6.5l5.1,2.1V84c0,1-0.6,1.9-1.6,2.2l-8,2.9
			c-2,0.8-3.5,2.6-3.8,4.7L33.8,104c-0.3,2.1,1.4,4,3.5,4h36.5C76,108,77.6,106.1,77.3,104z"/>
		<path class="st4" d="M62.6,80.3l-14.1,0V84c0,0.8-0.4,1.6-1.1,2C57.2,87.7,62.6,80.3,62.6,80.3z"/>
		<path class="st5" d="M38.6,64.1h-6.5c-0.8,0-1.4,0.8-1.1,1.6l1.2,3c0.3,0.7,1.1,0.9,1.7,0.6l4.7-2.8V64.1z"/>
		<path class="st6" d="M38.6,64.1h-6.5c-0.8,0-1.4-0.8-1.1-1.6l1.2-3c0.3-0.7,1.1-0.9,1.7-0.6l4.7,2.8V64.1z"/>
		<path class="st5" d="M71.4,64.1h6.5c0.8,0,1.4,0.8,1.1,1.6l-1.2,3c-0.3,0.7-1.1,0.9-1.7,0.6l-4.7-2.8V64.1z"/>
		<path class="st6" d="M71.4,64.1h6.5c0.8,0,1.4-0.8,1.1-1.6l-1.2-3c-0.3-0.7-1.1-0.9-1.7-0.6l-4.7,2.8V64.1z"/>
		<path class="st7" d="M67.7,78.2l-7.6,3.2c-1.4,0.6-3,0.9-4.5,0.9l0,0c-1.5,0-3.1-0.3-4.5-0.9l-7.6-3.2c-2.6-1.1-4.3-3.7-4.3-6.5
			V61.1c0-3.2,2.6-8.2,5.9-8.2h21.1c3.2,0,5.9,5,5.9,8.2v10.6C72,74.5,70.3,77.1,67.7,78.2z"/>
		<circle class="st7" cx="72" cy="67" r="3.5"/>
		<path class="st8" d="M47.4,68.1L47.4,68.1c-0.6,0-1.2-0.5-1.2-1.2v-1.2c0-0.6,0.5-1.2,1.2-1.2l0,0c0.6,0,1.2,0.5,1.2,1.2V67
			C48.6,67.6,48,68.1,47.4,68.1z"/>
		<path class="st8" d="M63.8,68.1L63.8,68.1c-0.6,0-1.2-0.5-1.2-1.2v-1.2c0-0.6,0.5-1.2,1.2-1.2l0,0c0.6,0,1.2,0.5,1.2,1.2V67
			C65,67.6,64.4,68.1,63.8,68.1z"/>
		<path class="st4" d="M55.6,76.4c-2.1,0-4-0.5-5.3-1.4c-0.5-0.4-0.7-1.1-0.3-1.6c0.4-0.5,1.1-0.7,1.6-0.3c0.9,0.6,2.4,1,4,1
			c1.6,0,3.1-0.4,4-1c0.5-0.4,1.3-0.2,1.6,0.3c0.4,0.5,0.2,1.3-0.3,1.6C59.6,75.9,57.7,76.4,55.6,76.4z"/>
		<path class="st3" d="M58.7,52.5l-19.5,8.6v2.3c-1.9,0-3.5,1.6-3.5,3.5c0,1.9,1.6,3.5,3.5,3.5v1.2c0,2.8,1.7,5.4,4.3,6.5l7.6,3.2
			c0.4,0.2,0.7,0.3,1.1,0.4c-3.3-2.4-5.6-4.6-6.9-6c-0.9-1-1.5-2.4-1.5-3.8v-7.5c4-0.9,15.8-5.2,18.8-10.4L58.7,52.5z"/>
		<path class="st9" d="M69,87.9l-4.2,6.8c-0.6,1-1.8,1.7-3,1.7H49.3c-1.2,0-2.3-0.6-3-1.7l-4.2-6.8c-0.3-0.5-1-0.7-1.6-0.4l-3.9,2.3
			c-0.6,0.3-0.7,1.1-0.4,1.6l5.2,8.4h28.1l5.2-8.4c0.3-0.6,0.2-1.3-0.4-1.6l-3.9-2.3C70.1,87.2,69.4,87.3,69,87.9z"/>
		<rect x="41.5" y="99.8" class="st10" width="28.1" height="8.2"/>
		<path class="st2" d="M63.8,41.2c-1.7,0-2.9,0.2-3.8,0.6c-1.2-1-3-1.7-5.6-1.7c-5.7,0-18.8,4-18.8,16.4c0,5.7,3.5,7,3.5,7
			s15.1-4.2,21-9.7c4.5,7,11.8,9.7,11.8,9.7s2.3-3.2,2.3-9.4S67.8,41.2,63.8,41.2z"/>
		<path class="st1" d="M54.4,40c-5.7,0-18.8,4-18.8,16.4c0,5.7,3.5,7,3.5,7s0,0,0.1,0c2.9-2.4,16.1-13.8,20.8-21.6
			c-0.1-0.1-0.1-0.1-0.2-0.2C58.6,40.6,56.9,40,54.4,40z"/>
	</g>
	<circle class="st11" cx="55.5" cy="55.3" r="52.5"/>
</g>
</svg>
