<?xml version="1.0" encoding="utf-8"?>
<!-- Generator: Adobe Illustrator 22.0.1, SVG Export Plug-In . SVG Version: 6.00 Build 0)  -->
<svg version="1.1" id="Capa_1" xmlns="http://www.w3.org/2000/svg" xmlns:xlink="http://www.w3.org/1999/xlink" x="0px" y="0px"
	 viewBox="0 0 110 110" style="enable-background:new 0 0 110 110;" xml:space="preserve">
<style type="text/css">
	.st0{fill:#EB6D4A;}
	.st1{clip-path:url(#SVGID_3_);fill:#ECC19C;}
	.st2{clip-path:url(#SVGID_5_);fill:#ECC19C;}
	.st3{clip-path:url(#SVGID_7_);fill:#C7D4E2;}
	.st4{clip-path:url(#SVGID_9_);fill:#543E36;}
	.st5{clip-path:url(#SVGID_11_);fill:#543E36;}
	.st6{clip-path:url(#SVGID_13_);fill:#543E36;}
	.st7{clip-path:url(#SVGID_15_);fill:#543E36;}
	.st8{clip-path:url(#SVGID_17_);fill:#543E36;}
	.st9{clip-path:url(#SVGID_19_);fill:#1A1A1A;}
	.st10{clip-path:url(#SVGID_21_);}
	.st11{fill:#543E36;}
	.st12{clip-path:url(#SVGID_23_);fill:#ECC19C;}
	.st13{clip-path:url(#SVGID_25_);}
	.st14{fill:#435363;}
	.st15{clip-path:url(#SVGID_27_);}
	.st16{fill:#141720;}
	.st17{fill:#E7ECF2;}
</style>
<g>
	<g>
		<g>
			<circle id="SVGID_1_" class="st0" cx="55" cy="55" r="52.5"/>
		</g>
		<g>
			<defs>
				<circle id="SVGID_2_" cx="55" cy="55" r="52.5"/>
			</defs>
			<clipPath id="SVGID_3_">
				<use xlink:href="#SVGID_2_"  style="overflow:visible;"/>
			</clipPath>
			<path class="st1" d="M78.4,32v17.4c0,0.3,0,0.5,0,0.8c0,0.5,0,1-0.1,1.6c0,0.2,0,0.4-0.1,0.5c-0.1,0.7-0.2,1.5-0.3,2.2
				c0,0.2-0.1,0.5-0.1,0.7c0,0.1,0,0.1,0,0.1c0,0.2-0.1,0.5-0.2,0.7c0,0.1-0.1,0.3-0.1,0.4c0,0.1-0.1,0.2-0.1,0.3
				c-0.1,0.5-0.3,0.9-0.4,1.4c-0.1,0.2-0.1,0.4-0.2,0.6c0,0,0,0,0,0.1c-0.1,0.2-0.1,0.4-0.2,0.6c0,0.1,0,0.1-0.1,0.2
				c-0.1,0.2-0.1,0.4-0.2,0.6c-0.1,0.2-0.2,0.4-0.3,0.7c-0.1,0.2-0.2,0.4-0.3,0.6c0,0,0,0.1,0,0.1c-0.1,0.2-0.2,0.4-0.3,0.6
				c-0.1,0.2-0.2,0.4-0.3,0.6c-0.2,0.4-0.4,0.8-0.7,1.2c-0.1,0.2-0.2,0.4-0.3,0.6c-0.9,1.5-1.9,2.9-2.9,4.3
				c-0.1,0.2-0.3,0.4-0.4,0.6c-0.2,0.3-0.4,0.5-0.6,0.8c-0.2,0.2-0.4,0.4-0.6,0.6c-0.6,0.6-1.1,1.2-1.7,1.7
				c-0.1,0.1-0.2,0.2-0.4,0.3c-0.2,0.2-0.4,0.3-0.6,0.5c-0.2,0.1-0.3,0.3-0.5,0.4c-0.4,0.3-0.8,0.7-1.2,1c-0.2,0.1-0.4,0.3-0.5,0.4
				c-0.3,0.2-0.6,0.4-0.9,0.6c-0.2,0.1-0.3,0.2-0.5,0.3c-0.6,0.4-1.2,0.7-1.8,1c-0.1,0.1-0.3,0.1-0.4,0.2c-0.1,0.1-0.3,0.1-0.4,0.2
				c-0.2,0.1-0.4,0.2-0.6,0.2c-0.1,0-0.1,0.1-0.2,0.1c-0.2,0.1-0.5,0.2-0.7,0.3c-0.3,0.1-0.6,0.2-0.8,0.3c-0.2,0.1-0.4,0.1-0.6,0.2
				c0,0,0,0,0,0c-0.2,0-0.4,0.1-0.6,0.1c-0.1,0-0.1,0-0.2,0c-0.2,0-0.3,0.1-0.5,0.1c-0.2,0-0.5,0.1-0.7,0.1c-0.1,0-0.2,0-0.2,0
				c-0.2,0-0.4,0-0.5,0h0c-0.2,0-0.4,0-0.5,0c-0.1,0-0.1,0-0.2,0c-0.2,0-0.3,0-0.5,0c0,0-0.1,0-0.1,0c-0.2,0-0.4-0.1-0.6-0.1
				c-0.2,0-0.4-0.1-0.6-0.1c-1-0.2-2-0.6-3-1c-0.9-0.4-1.8-0.8-2.6-1.4c-0.4-0.3-0.9-0.6-1.3-0.9c-0.2-0.2-0.4-0.3-0.7-0.5
				c-0.7-0.5-1.4-1-2-1.6c-0.2-0.2-0.4-0.3-0.6-0.5c-0.2-0.2-0.4-0.3-0.5-0.5c-0.4-0.4-0.9-0.9-1.3-1.3c-0.2-0.2-0.3-0.4-0.5-0.6
				c-0.5-0.5-0.9-1-1.3-1.6c-0.2-0.2-0.3-0.4-0.5-0.6c-0.6-0.8-1.1-1.6-1.6-2.4c-0.1-0.2-0.3-0.5-0.4-0.7c-0.2-0.3-0.3-0.5-0.5-0.8
				c-0.6-1-1.1-2.1-1.6-3.2c-0.1-0.2-0.1-0.3-0.2-0.5c-0.1-0.2-0.2-0.4-0.2-0.6c-0.1-0.3-0.2-0.6-0.3-0.9c-0.1-0.3-0.2-0.6-0.3-0.9
				c-0.1-0.3-0.2-0.6-0.3-0.9c-0.1-0.3-0.2-0.6-0.3-1c0,0,0-0.1,0-0.1c-0.1-0.5-0.2-0.9-0.3-1.4c-0.1-0.6-0.2-1.3-0.3-1.9
				c0-0.2,0-0.4-0.1-0.6c0-0.2,0-0.4-0.1-0.6c0-0.4,0-0.8-0.1-1.2c0-0.3,0-0.5,0-0.8V32C31.6,19.1,42.1,8.6,55,8.6h0
				c1.8,0,3.5,0.2,5.2,0.6c1.5,0.3,3,0.8,4.4,1.5c1.9,0.8,3.7,1.9,5.2,3.2c1.3,1.1,2.5,2.3,3.6,3.7C76.5,21.5,78.4,26.5,78.4,32z"/>
		</g>
		<g>
			<defs>
				<circle id="SVGID_4_" cx="55" cy="55" r="52.5"/>
			</defs>
			<clipPath id="SVGID_5_">
				<use xlink:href="#SVGID_4_"  style="overflow:visible;"/>
			</clipPath>
			<path class="st2" d="M85.4,114.5L85.4,114.5l-60.9,0v0c0-3.4,0.6-6.7,1.6-9.8c0.2-0.6,0.4-1.1,0.6-1.7v0c0.2-0.5,0.5-1.1,0.7-1.6
				c1-2.1,2.3-4.1,3.7-5.9c0.4-0.5,0.7-0.9,1.1-1.3c0.2-0.2,0.4-0.4,0.6-0.6c0.2-0.2,0.4-0.4,0.6-0.6c1-1,2.1-2,3.3-2.8
				c0.6-0.4,1.2-0.8,1.8-1.2c0.6-0.4,1.2-0.8,1.9-1.1c0,0,0,0,0,0c0.2-0.1,0.5-0.3,0.7-0.4c0.5-0.3,0.9-0.6,1.4-0.9
				c0.2-0.2,0.4-0.3,0.7-0.5c0.5-0.4,1-0.9,1.5-1.3c0.2-0.2,0.3-0.3,0.5-0.5c0.3-0.3,0.6-0.7,0.9-1c0.1-0.2,0.3-0.3,0.4-0.5
				c0.1-0.2,0.3-0.4,0.4-0.5c1-1.4,1.8-3,2.4-4.7c0.7-2,1.1-4.2,1.1-6.5l4.4,0l4.6,0c0,2.3,0.4,4.4,1.1,6.4c0.6,1.7,1.4,3.2,2.4,4.7
				c1,1.5,2.3,2.8,3.7,3.9c0.2,0.2,0.4,0.3,0.6,0.5c0.2,0.2,0.4,0.3,0.6,0.4c0,0,0.1,0.1,0.1,0.1c0.2,0.1,0.4,0.3,0.6,0.4
				c0.2,0.1,0.5,0.3,0.7,0.4c0,0,0.1,0,0.1,0.1c0.5,0.3,1,0.6,1.5,0.9c0.2,0.1,0.5,0.3,0.7,0.5c0.5,0.3,0.9,0.6,1.4,1c0,0,0,0,0,0h0
				c1.2,0.9,2.3,1.8,3.3,2.8C82,98.5,85.4,106.1,85.4,114.5z"/>
		</g>
		<g>
			<defs>
				<circle id="SVGID_6_" cx="55" cy="55" r="52.5"/>
			</defs>
			<clipPath id="SVGID_7_">
				<use xlink:href="#SVGID_6_"  style="overflow:visible;"/>
			</clipPath>
			<path class="st3" d="M85.4,114.5H24.6c0-3.4,0.6-6.7,1.6-9.8c0.2-0.6,0.4-1.1,0.6-1.7c0,0,0,0,0,0c0.2-0.5,0.5-1.1,0.7-1.6
				c1-2.1,2.3-4.1,3.7-5.9c0.4-0.5,0.7-0.9,1.1-1.3c0.2-0.2,0.4-0.4,0.6-0.6c0.2-0.2,0.4-0.4,0.6-0.6c1-1,2.1-2,3.3-2.8
				c0.6-0.4,1.2-0.8,1.8-1.2c0.6-0.4,1.2-0.8,1.9-1.1c0,0,0,0,0,0v0c0.2-0.1,0.5-0.3,0.7-0.4c0.7-0.4,1.4-0.9,2-1.4c0,0,0,0,0,0
				c3,3,7.1,4.9,11.7,4.9h0c4.6,0,8.7-1.9,11.7-4.9l0,0c0.4,0.3,0.8,0.7,1.3,0.9c0,0,0.1,0.1,0.1,0.1c0.2,0.1,0.4,0.3,0.6,0.4
				c0.2,0.1,0.5,0.3,0.7,0.4c0,0,0.1,0,0.1,0.1c0.5,0.3,1,0.6,1.5,0.9c0.2,0.1,0.5,0.3,0.7,0.5c0.5,0.3,0.9,0.6,1.4,1h0
				c1.2,0.9,2.3,1.8,3.3,2.8C82,98.5,85.4,106.1,85.4,114.5z"/>
		</g>
		<g>
			<defs>
				<circle id="SVGID_8_" cx="55" cy="55" r="52.5"/>
			</defs>
			<clipPath id="SVGID_9_">
				<use xlink:href="#SVGID_8_"  style="overflow:visible;"/>
			</clipPath>
			<path class="st4" d="M78.4,49.4c0,0.3,0,0.5,0,0.8c0,0.5,0,1-0.1,1.6c0,0.2,0,0.4-0.1,0.5c-0.1,0.7-0.2,1.5-0.3,2.2
				c0,0.2-0.1,0.5-0.1,0.7c0,0.1,0,0.1,0,0.1c0,0.2-0.1,0.5-0.2,0.7c0,0.1-0.1,0.3-0.1,0.4c0,0.1,0,0.2-0.1,0.3
				c-0.1,0.5-0.3,0.9-0.4,1.4c-0.1,0.2-0.1,0.4-0.2,0.6c0,0,0,0,0,0.1c-0.1,0.2-0.1,0.4-0.2,0.6c0,0.1,0,0.1-0.1,0.2
				c-0.1,0.2-0.1,0.4-0.2,0.6c-0.1,0.2-0.2,0.4-0.3,0.7c-0.1,0.2-0.2,0.4-0.3,0.6c0,0,0,0.1,0,0.1c-0.1,0.2-0.2,0.4-0.3,0.6
				c-0.1,0.2-0.2,0.4-0.3,0.6c-0.2,0.4-0.4,0.8-0.7,1.2c-0.1,0.2-0.2,0.4-0.3,0.6c-0.9,1.5-1.9,2.9-2.9,4.3
				c-0.1,0.2-0.3,0.4-0.4,0.6c-0.2,0.3-0.4,0.5-0.6,0.8c-0.2,0.2-0.4,0.4-0.6,0.6c-0.6,0.6-1.1,1.2-1.7,1.7
				c-0.1,0.1-0.2,0.2-0.4,0.3c-0.2,0.2-0.4,0.3-0.6,0.5c-0.2,0.1-0.3,0.3-0.5,0.4c-0.4,0.3-0.8,0.7-1.2,1c-0.2,0.1-0.4,0.3-0.5,0.4
				c-0.3,0.2-0.6,0.4-0.9,0.6c-0.2,0.1-0.3,0.2-0.5,0.3c-0.6,0.4-1.2,0.7-1.8,1c-0.1,0.1-0.3,0.1-0.4,0.2c-0.1,0.1-0.3,0.1-0.4,0.2
				c-0.2,0.1-0.4,0.2-0.6,0.2c-0.1,0-0.1,0.1-0.2,0.1c-0.2,0.1-0.5,0.2-0.7,0.3c-0.3,0.1-0.6,0.2-0.8,0.3c-0.2,0.1-0.4,0.1-0.6,0.2
				c0,0,0,0,0,0c-0.2,0-0.4,0.1-0.6,0.1c-0.1,0-0.1,0-0.2,0c-0.2,0-0.3,0.1-0.5,0.1c-0.2,0-0.5,0.1-0.7,0.1c-0.1,0-0.2,0-0.2,0
				c-0.2,0-0.4,0-0.5,0h0c-0.2,0-0.4,0-0.5,0c-0.1,0-0.1,0-0.2,0c-0.2,0-0.3,0-0.5,0c0,0-0.1,0-0.1,0c-0.2,0-0.4-0.1-0.6-0.1
				c-0.2,0-0.4-0.1-0.6-0.1c-1-0.2-2-0.6-3-1c-0.9-0.4-1.8-0.8-2.6-1.4c-0.4-0.3-0.9-0.6-1.3-0.9c-0.2-0.2-0.4-0.3-0.7-0.5
				c-0.7-0.5-1.4-1-2-1.6c-0.2-0.2-0.4-0.3-0.6-0.5c-0.2-0.2-0.4-0.3-0.5-0.5c-0.4-0.4-0.9-0.9-1.3-1.3c-0.2-0.2-0.3-0.4-0.5-0.6
				c-0.5-0.5-0.9-1-1.3-1.6c-0.2-0.2-0.3-0.4-0.5-0.6c-0.6-0.8-1.1-1.6-1.6-2.4c-0.1-0.2-0.3-0.5-0.4-0.7c-0.2-0.3-0.3-0.5-0.5-0.8
				c-0.6-1-1.1-2.1-1.6-3.2c-0.1-0.2-0.1-0.3-0.2-0.5c-0.1-0.2-0.2-0.4-0.2-0.6c-0.1-0.3-0.2-0.6-0.3-0.9c-0.1-0.3-0.2-0.6-0.3-0.9
				c-0.1-0.3-0.2-0.6-0.3-0.9c-0.1-0.3-0.2-0.6-0.3-1c0,0,0-0.1,0-0.1c-0.1-0.5-0.2-0.9-0.3-1.4c-0.1-0.6-0.2-1.3-0.3-1.9
				c0-0.2,0-0.4-0.1-0.6c0-0.2,0-0.4-0.1-0.6c0-0.4,0-0.8-0.1-1.2c0-0.3,0-0.5,0-0.8l3.7,7.3l6.4,2.8l7.6,0.7l5.6,0.5h0l5.3,0.5
				L72,62.3L78.4,49.4z"/>
		</g>
		<g>
			<defs>
				<circle id="SVGID_10_" cx="55" cy="55" r="52.5"/>
			</defs>
			<clipPath id="SVGID_11_">
				<use xlink:href="#SVGID_10_"  style="overflow:visible;"/>
			</clipPath>
			<path class="st5" d="M73.4,17.6c-1.1,2.6-2.6,5-4.4,7.2c-0.1,0.1-0.2,0.3-0.3,0.4c-3.6,4.3-8.3,7.7-13.7,9.7
				c-1.4,0.5-2.9,0.9-4.4,1.3c-1,0.2-2,0.4-3.1,0.5c-1.2,0.1-2.4,0.2-3.6,0.2c-1.4,0-2.8-0.1-4.2-0.3c-1.3-0.2-2.6-0.4-3.9-0.7
				c-0.7-0.2-1.4-0.4-2.1-0.6c-0.7-0.2-1.4-0.5-2-0.8V32C31.6,19.1,42.1,8.6,55,8.6h0c1.8,0,3.5,0.2,5.2,0.6c1.5,0.3,3,0.8,4.4,1.5
				c1.9,0.8,3.7,1.9,5.2,3.2C71.1,15,72.3,16.2,73.4,17.6z"/>
		</g>
		<g>
			<defs>
				<circle id="SVGID_12_" cx="55" cy="55" r="52.5"/>
			</defs>
			<clipPath id="SVGID_13_">
				<use xlink:href="#SVGID_12_"  style="overflow:visible;"/>
			</clipPath>
			<path class="st6" d="M78.4,32v4.6c-4-3.1-7.3-7-9.7-11.4c0,0,0,0,0,0c-2.3-4.4-3.8-9.3-4.1-14.5c1.9,0.8,3.7,1.9,5.2,3.2
				c1.3,1.1,2.5,2.3,3.6,3.7C76.5,21.5,78.4,26.5,78.4,32z"/>
		</g>
		<g>
			<defs>
				<circle id="SVGID_14_" cx="55" cy="55" r="52.5"/>
			</defs>
			<clipPath id="SVGID_15_">
				<use xlink:href="#SVGID_14_"  style="overflow:visible;"/>
			</clipPath>
			<path class="st7" d="M34.4,33.8c-0.2,0.4-0.5,0.9-0.7,1.3c-0.1,0.2-0.2,0.4-0.3,0.6c-1.1,2.5-1.7,5-1.8,7.2c0,0.1,0,0.1,0,0.2v-9
				c0-0.3,0-0.6,0-0.9C32.6,33.3,33.5,33.6,34.4,33.8z"/>
		</g>
		<g>
			<defs>
				<circle id="SVGID_16_" cx="55" cy="55" r="52.5"/>
			</defs>
			<clipPath id="SVGID_17_">
				<use xlink:href="#SVGID_16_"  style="overflow:visible;"/>
			</clipPath>
			<path class="st8" d="M75.6,33.8c0.3,0.6,0.7,1.2,1,1.9c1.2,2.6,1.7,5.1,1.8,7.4v-9c0-0.3,0-0.6,0-0.9
				C77.5,33.3,76.6,33.6,75.6,33.8z"/>
		</g>
		<g>
			<defs>
				<circle id="SVGID_18_" cx="55" cy="55" r="52.5"/>
			</defs>
			<clipPath id="SVGID_19_">
				<use xlink:href="#SVGID_18_"  style="overflow:visible;"/>
			</clipPath>
			<path class="st9" d="M75.6,36.1c0-0.1-0.1-0.2-0.2-0.2c-0.8-0.1-4.5-0.6-8.5-0.6c-4.5,0-10.4,1.4-11.4,1.4h-0.9
				c-0.5,0-2-0.3-4-0.6c-2.2-0.4-5-0.8-7.5-0.8c-2.9,0-5.7,0.3-7.3,0.5c-0.6,0.1-1,0.1-1.2,0.2c-0.1,0-0.2,0.1-0.2,0.2l0,2.4
				c0,0.1,0.1,0.2,0.1,0.2l0.3,0.1c0.4,0.2,0.4,7.5,2.6,9.3c1.3,1.1,2.5,1.7,7.3,1.7c2.8,0,4.6-0.8,6.3-3c1.2-1.6,2.3-5.5,2.3-5.5
				c0.3-1.6,1.5-1.7,1.7-1.7c0,0,0,0,0,0c0,0,1.4,0,1.7,1.7c0,0,1.1,3.9,2.3,5.5c1.7,2.3,3.5,3,6.3,3c4.9,0,6-0.6,7.3-1.7
				c2.2-1.8,2.2-9.2,2.6-9.3l0.3-0.1c0.1,0,0.1-0.1,0.1-0.2L75.6,36.1z M51,44.8c-0.7,1.7-2.6,3.9-5.2,4c-7.8,0.4-8.2-1.8-8.7-3.5
				c-0.5-1.7-0.6-3.3-0.4-5c0.2-1.7,0.6-2.7,1.4-3.3c0.3-0.2,0.7-0.4,1.6-0.6c0.8-0.1,2.1-0.2,4.3-0.2c1.3,0,2.4,0.1,3.5,0.3
				c2.8,0.4,4.7,1.4,4.7,2.3C52.2,39.5,52,42.3,51,44.8z M72.9,45.3c-0.5,1.7-0.9,3.9-8.7,3.5c-2.6-0.1-4.5-2.3-5.2-4
				c-1.1-2.5-1.2-5.3-1.2-5.9c0-1.3,3.6-2.6,8.2-2.6c4.6,0,5.3,0.3,6,0.8c0.8,0.5,1.2,1.5,1.4,3.3C73.5,42,73.4,43.5,72.9,45.3z"/>
		</g>
		<g>
			<defs>
				<circle id="SVGID_20_" cx="55" cy="55" r="52.5"/>
			</defs>
			<clipPath id="SVGID_21_">
				<use xlink:href="#SVGID_20_"  style="overflow:visible;"/>
			</clipPath>
			<g class="st10">
				<path class="st11" d="M55,53.1l0,5.7l0,2v1.6l0,5.2v0l0,0h0l0,0L32.4,55.9c0,0,0-0.1,0-0.1c-0.1-0.5-0.2-0.9-0.3-1.4
					c-0.1-0.6-0.2-1.3-0.3-1.9c0-0.2,0-0.4-0.1-0.6c0-0.2,0-0.4-0.1-0.6c0-0.4,0-0.8-0.1-1.2c0-0.3,0-0.5,0-0.8v-6.9
					c0,0.1,0,0.2,0,0.3c0,1.7,0.3,3.5,0.8,5.3c0.4,1.4,0.9,2.8,1.5,3.9v0c1.5,3.1,3.5,5.2,5.4,5.6c0.1,0,0.2,0,0.4,0
					c0.7,0.1,1.5,0.1,2.2,0.1c2.9,0,5.5-2.4,7.2-3.3c0,0,0,0,0,0c0.1-0.1,0.2-0.1,0.2-0.2c0,0,0,0,0.1,0
					C50.8,53.6,52.8,53.1,55,53.1L55,53.1L55,53.1z"/>
				<path class="st11" d="M78.4,42.5l0,6.9c0,1.7-0.2,3.4-0.5,5c-0.1,0.7-0.3,1.3-0.4,1.9L72.2,64L55,67.4h0l0,0v0l0-14.4h0
					c2.2,0,4.2,0.5,5.6,1.3c0,0,0,0,0.1,0c0.1,0.1,0.2,0.1,0.3,0.2c0,0,0,0,0,0c1.6,1,4.2,3.3,7.2,3.3c0.8,0,1.5,0,2.2-0.1
					c0.1,0,0.2,0,0.4,0c1.8-0.3,3.9-2.5,5.4-5.6v0c0.6-1.2,1.1-2.5,1.5-3.9c0.5-1.9,0.8-3.7,0.8-5.4C78.4,42.7,78.4,42.6,78.4,42.5z
					"/>
			</g>
		</g>
		<g>
			<defs>
				<circle id="SVGID_22_" cx="55" cy="55" r="52.5"/>
			</defs>
			<clipPath id="SVGID_23_">
				<use xlink:href="#SVGID_22_"  style="overflow:visible;"/>
			</clipPath>
			<ellipse class="st12" cx="55" cy="60.5" rx="5.7" ry="1.8"/>
		</g>
		<g>
			<defs>
				<circle id="SVGID_24_" cx="55" cy="55" r="52.5"/>
			</defs>
			<clipPath id="SVGID_25_">
				<use xlink:href="#SVGID_24_"  style="overflow:visible;"/>
			</clipPath>
			<g class="st13">
				<path class="st14" d="M38.3,89.1v31.6h-2.4V90.9c0.3-0.3,0.7-0.5,1-0.8C37.3,89.8,37.8,89.4,38.3,89.1z"/>
				<polygon class="st14" points="71.7,89.1 71.7,114.5 71.7,120.7 74.2,120.7 74.2,114.5 74.2,90.9 				"/>
			</g>
		</g>
		<g>
			<defs>
				<circle id="SVGID_26_" cx="55" cy="55" r="52.5"/>
			</defs>
			<clipPath id="SVGID_27_">
				<use xlink:href="#SVGID_26_"  style="overflow:visible;"/>
			</clipPath>
			<g class="st15">
				<g>
					<polygon class="st16" points="48.3,87.2 55,95.2 61.7,87.2 					"/>
					<path class="st16" d="M55,128.3h-3.9l2.9-36.7c0.1,0.5,2.1,0.5,2.2,0l2.9,36.7H55z"/>
				</g>
				<g>
					<path class="st17" d="M55,87.1L55,87.1L55,87.1l-2.8,4.7l-2.6,4.3l-7-9.7c0.2-0.2,0.4-0.3,0.7-0.5c0,0,0,0,0,0
						c1.4-1.1,2.7-2.4,3.7-3.9L55,87.1L55,87.1z"/>
					<path class="st17" d="M67.4,86.4l-7,9.7l-2.6-4.3L55,87.2l0,0l8.1-5.1c1,1.5,2.3,2.8,3.7,3.9C67,86.1,67.2,86.3,67.4,86.4z"/>
				</g>
			</g>
		</g>
	</g>
</g>
</svg>
