<?xml version="1.0" encoding="utf-8"?>
<!-- Generator: Adobe Illustrator 22.0.1, SVG Export Plug-In . SVG Version: 6.00 Build 0)  -->
<svg version="1.1" id="Layer_1" xmlns="http://www.w3.org/2000/svg" xmlns:xlink="http://www.w3.org/1999/xlink" x="0px" y="0px"
	 viewBox="0 0 110 110" style="enable-background:new 0 0 110 110;" xml:space="preserve">
<style type="text/css">
	.st0{fill:#E16B5A;}
	.st1{fill:#FFD464;}
	.st2{fill:#F2C95F;}
	.st3{fill:#2995CC;}
	.st4{fill:#268CBF;}
	.st5{fill:#99602E;}
	.st6{fill:#F5F5F5;}
	.st7{fill:#242424;}
</style>
<g>
	<circle class="st0" cx="55" cy="55" r="52.5"/>
	<path class="st1" d="M76.8,31.6c-7.9-8.8-14.5-13.1-20.3-13.1c-5.8,0-9.9,4-9.9,7.9c0,12.6,7.4,14,10.6,14c0.9,0,1.7-0.1,2.5-0.2
		l2.8,31.1c0.1,1.3,1,2.3,2.2,2.7l7.2,2.4l-2.1,28.9c4.4-1.3,8.5-3.1,12.3-5.4c3-10.2,5.8-23.1,5.8-35.3
		C87.9,51.6,83.9,39.6,76.8,31.6z"/>
	<path class="st2" d="M76.8,31.6c-7.9-8.8-14.5-13.1-20.3-13.1c-0.5,0-1,0-1.4,0.1c5.4,0.6,11.6,4.9,18.9,13.1
		c7.1,8,11.2,20,11.2,33c0,13-3.2,26.7-6.4,37.2c1.2-0.6,2.3-1.2,3.4-1.9c3-10.2,5.8-23.1,5.8-35.3C87.9,51.6,83.9,39.6,76.8,31.6z"
		/>
	<path class="st3" d="M83.9,93.5c2.3-8.9,4-19.1,4-28.8c0-13-4.1-25.1-11.2-33c-2.7-3-5.2-5.5-7.7-7.5l-2.5,6.4
		c2.9-0.2,8.2,7.2,4.8,11.8c-5.7,0.6-7.4,9.1-4.8,14.1C69.2,61.4,85.2,72.5,83.9,93.5z"/>
	<path class="st4" d="M74.5,29.2c-0.5-0.6-1.1-1.1-1.6-1.6c-0.1-0.1-0.1-0.1-0.2-0.2c-1.3-1.2-2.5-2.3-3.7-3.3c0,0,0,0,0,0L68.4,26
		c1.8,1.6,3.6,3.5,5.5,5.6c7.1,8,11.2,20,11.2,33c0,6.3-0.7,12.8-1.9,18.9c0.6,3,0.9,6.3,0.7,9.9c0.3-1.1,0.5-2.1,0.8-3.2
		c0-0.1,0.1-0.3,0.1-0.4c0.2-1.1,0.5-2.1,0.7-3.2c0,0,0,0,0-0.1c0.2-1.1,0.4-2.2,0.6-3.3c0-0.2,0.1-0.4,0.1-0.6
		c0.2-1.1,0.4-2.1,0.5-3.2c0,0,0-0.1,0-0.1c0.2-1.1,0.3-2.2,0.4-3.3c0-0.3,0.1-0.5,0.1-0.7c0.1-1.1,0.2-2.1,0.3-3.2c0,0,0-0.1,0-0.1
		c0.1-1.1,0.2-2.2,0.2-3.3c0-0.3,0-0.5,0-0.8c0-1.1,0.1-2.2,0.1-3.3c0-13-4.1-25.1-11.2-33c-0.6-0.7-1.2-1.3-1.8-2
		C74.8,29.5,74.7,29.4,74.5,29.2z"/>
	<path class="st3" d="M69.1,24.2c-4.7-3.8-8.9-5.7-12.7-5.7c-5.8,0-9.9,4-9.9,7.9c0,0.1,0,0.3,0,0.4C51.2,24.3,59.3,21.4,69.1,24.2z
		"/>
	<path class="st4" d="M55,18.6C55,18.6,55,18.6,55,18.6c3.1,0.4,6.5,2,10.2,4.8c1.3,0.2,2.5,0.4,3.9,0.8c-1.7-1.4-3.4-2.5-5-3.4
		c0,0-0.1,0-0.1-0.1c-0.5-0.3-1-0.5-1.4-0.7c0,0-0.1,0-0.1-0.1c-1-0.4-2-0.8-2.9-1c-0.1,0-0.2-0.1-0.4-0.1c-0.3-0.1-0.7-0.1-1-0.2
		c-0.1,0-0.3,0-0.4-0.1c-0.4-0.1-0.9-0.1-1.3-0.1c-0.3,0-0.5,0-0.8,0C55.4,18.5,55.2,18.5,55,18.6z"/>
	<path class="st5" d="M14.8,88.8c1.5,1.8,3.1,3.5,4.9,5.1c16-5.7,44.8-13,77.4-7.5c1.4-1.8,2.6-3.8,3.8-5.8
		C63.6,73.5,31.2,82.6,14.8,88.8z"/>
	<path class="st6" d="M57.4,30.6c-0.7,0-1.5-0.3-2-0.8c-0.5-0.5-0.8-1.3-0.8-2c0-0.7,0.3-1.5,0.8-2c1.1-1.1,3-1.1,4,0
		c0.5,0.5,0.8,1.3,0.8,2c0,0.7-0.3,1.5-0.8,2C58.8,30.3,58.1,30.6,57.4,30.6z"/>
	<g>
		<path class="st7" d="M57.4,29.6c-0.5,0-1-0.2-1.4-0.6c-0.3-0.4-0.6-0.9-0.6-1.4c0-0.5,0.2-1,0.6-1.4c0.7-0.7,2-0.7,2.7,0
			c0.3,0.4,0.6,0.9,0.6,1.4c0,0.5-0.2,1-0.6,1.4C58.3,29.4,57.8,29.6,57.4,29.6z"/>
		<path class="st7" d="M69.1,24.2c-4.3,11.4-9.6,12.8-16.3,10.7c-6.9-2.2-5.6-11.1-3.9-13.4c0,0,0,0,0,0c-1.6,0.8-3.7,2-5.9,3.8
			c-2.2,1.8-3.5,4.2-3.7,7c-0.5,6,3.2,12.2,7.2,13.4c2.7-0.2,3.7-5.1,4.2-6.8c2.2,1.8,4.7,2,6.3,2c0.9,0,1.9-0.1,2.7-0.3
			C63.8,37.7,66.5,35.3,69.1,24.2L69.1,24.2z"/>
	</g>
</g>
</svg>
