<?xml version="1.0" encoding="utf-8"?>
<!-- Generator: Adobe Illustrator 22.0.1, SVG Export Plug-In . SVG Version: 6.00 Build 0)  -->
<svg version="1.1" id="Layer_1" xmlns="http://www.w3.org/2000/svg" xmlns:xlink="http://www.w3.org/1999/xlink" x="0px" y="0px"
	 viewBox="0 0 110 110" style="enable-background:new 0 0 110 110;" xml:space="preserve">
<style type="text/css">
	.st0{clip-path:url(#SVGID_2_);fill:none;}
	.st1{clip-path:url(#SVGID_2_);}
	.st2{fill:#734A3E;}
	.st3{fill:#623F33;}
	.st4{fill:#F6B47B;}
	.st5{fill:#FF4F4F;}
	.st6{fill:#E2A071;}
	.st7{fill:#FDC88E;}
	.st8{fill:#F23F44;}
	.st9{fill:#D6343A;}
</style>
<g>
	<defs>
		<circle id="SVGID_1_" cx="55.5" cy="55.3" r="52.5"/>
	</defs>
	<use xlink:href="#SVGID_1_"  style="overflow:visible;fill:#41AAA0;"/>
	<clipPath id="SVGID_2_">
		<use xlink:href="#SVGID_1_"  style="overflow:visible;"/>
	</clipPath>
	<circle class="st0" cx="55.5" cy="55.3" r="52.5"/>
	<g class="st1">
		<g>
			<path class="st2" d="M34.2,60.6c0,0-2.6-10.6-2.6-14.3c0-7.9,6.5-7.8,6.5-7.8l0,0C42,32,56.3,32,56.3,32l1.3,2.6
				c7.2-2.3,16.9-2.6,16.9-2.6s1.9,2.6,2.6,6.5c1.5,8.1-1.3,22.1-1.3,22.1H34.2z"/>
		</g>
		<g>
			<path class="st3" d="M56.3,32c0,0-14.4,0-18.2,6.5l0,0c0,0-6.5-0.1-6.5,7.8c0,3.7,2.6,14.3,2.6,14.3h8.4l8.5-11.7
				c0,0,13.1-6.7,23.4-16.9c0,0-9.8,0.3-16.9,2.6L56.3,32z"/>
		</g>
		<path class="st4" d="M81,100.7l-0.1-1.1c0-0.4-0.4-0.7-0.8-0.7L80,99l-1.1-9.1c-0.2-2-1.6-3.7-3.5-4.3l-7.5-2.5l0.2-0.4l-2.8-1.9
			c-0.6-0.4-1.4-0.2-1.8,0.4L63,81.8c-0.1-0.3-0.2-0.6-0.2-1v-4.2l5.6-2.3c2.9-1.2,4.8-4.1,4.8-7.2v-1.3c2.2,0,3.9-1.7,3.9-3.9
			c0-1-0.4-2-1-2.7c0.7-3.7,2.3-14.2,1-20.7c-0.7-3.9-2.6-6.5-2.6-6.5s-9.8,0.3-16.9,2.6L56.3,32c0,0-14.4,0-18.2,6.5l0,0l0,0
			c0,0,0,0,0,0c0,0,0,0,0,0c0,0,0,0-0.1,0c0,0-0.1,0-0.1,0c0,0,0,0-0.1,0c-0.1,0-0.1,0-0.2,0c-0.1,0-0.1,0-0.2,0c-0.1,0-0.1,0-0.2,0
			c-0.1,0-0.1,0-0.2,0c-1.6,0.3-4.4,1.5-5.2,5.4c0,0.1,0,0.2-0.1,0.3c-0.1,0.3-0.1,0.6-0.1,1c0,0.3,0,0.7,0,1.1c0,0.3,0,0.6,0,1
			s0.1,0.8,0.1,1.2c0,0.1,0,0.2,0,0.3c0.3,1.9,0.7,4.3,1.2,6.4c0,0.1,0,0.2,0.1,0.3c0.3,1.4,0.6,2.7,0.8,3.7c0,0.1,0,0.2,0.1,0.2
			c-0.6,0.7-1,1.6-1,2.6c0,2.2,1.7,3.9,3.9,3.9v1.3c0,3.1,1.9,6,4.8,7.2l5.6,2.3v4.2c0,0.3-0.1,0.7-0.2,1l-0.4-0.6
			c-0.4-0.6-1.2-0.8-1.8-0.4L42,82.7l0.2,0.4l-7.5,2.5c-1.9,0.6-3.3,2.3-3.5,4.3L30,99L30,99c-0.4,0-0.8,0.3-0.8,0.7l-0.1,1.1
			c0,0.4,0.3,0.8,0.7,0.8l1.9,0.2v3c0,1.4,1.2,2.6,2.6,2.6h6.5h28.6h6.5c1.4,0,2.6-1.2,2.6-2.6v-3l1.9-0.2
			C80.7,101.5,81,101.2,81,100.7z"/>
		<path class="st5" d="M78.8,89.9c-0.2-2-1.6-3.7-3.5-4.3l-8.4-2.8c-1.2,2.8-8,5.1-8,5.1l-2.6,2.6c0,0-2.4,0-2.6,0l-2.6-2.6
			c0,0-6.8-2.4-8-5.1l-8.4,2.8c-1.9,0.6-3.3,2.3-3.5,4.3L30,99.8l10.7,1.2v6.5h28.6v-6.5h10.9L78.8,89.9z"/>
		<g>
			<path class="st2" d="M34.2,60.6c0,0-2.6-10.6-2.6-14.3c0-7.9,6.5-7.8,6.5-7.8l0,0c3.8-6.4,18.2-6.5,18.2-6.5l1.3,2.6
				c7.2-2.3,16.9-2.6,16.9-2.6s1.9,2.6,2.6,6.5c1.5,8.1-1.3,22.1-1.3,22.1H34.2z"/>
		</g>
		<g>
			<path class="st3" d="M56.3,32c0,0-14.4,0-18.2,6.5l0,0c0,0-6.5-0.1-6.5,7.8c0,3.7,2.6,14.3,2.6,14.3h8.4l8.5-11.7
				c0,0,13.1-6.7,23.4-16.9c0,0-9.8,0.3-16.9,2.6L56.3,32z"/>
		</g>
		<g>
			<path class="st6" d="M62.8,76.5H47.2v4.3c0,0.9-0.5,1.8-1.3,2.2C56.8,85,62.8,76.5,62.8,76.5z"/>
		</g>
		<path class="st7" d="M73.2,58v-2.6c0-3.6-2.9-6.5-6.5-6.5H43.3c-3.6,0-6.5,2.9-6.5,6.5V58c-2.2,0-3.9,1.7-3.9,3.9s1.7,3.9,3.9,3.9
			v1.3c0,3.1,1.9,6,4.8,7.2l8.4,3.5c1.6,0.7,3.3,1,5,1l0,0c1.7,0,3.4-0.3,5-1l8.4-3.5c2.9-1.2,4.8-4.1,4.8-7.2v-1.3
			c2.2,0,3.9-1.7,3.9-3.9S75.4,58,73.2,58z"/>
		<g>
			<path class="st3" d="M45.9,63.2L45.9,63.2c-0.7,0-1.3-0.6-1.3-1.3v-1.3c0-0.7,0.6-1.3,1.3-1.3l0,0c0.7,0,1.3,0.6,1.3,1.3v1.3
				C47.2,62.6,46.6,63.2,45.9,63.2z"/>
		</g>
		<g>
			<path class="st3" d="M64.1,63.2L64.1,63.2c-0.7,0-1.3-0.6-1.3-1.3v-1.3c0-0.7,0.6-1.3,1.3-1.3l0,0c0.7,0,1.3,0.6,1.3,1.3v1.3
				C65.4,62.6,64.8,63.2,64.1,63.2z"/>
		</g>
		<g>
			<g>
				<path class="st6" d="M55,72.3c-2.3,0-4.5-0.6-5.9-1.6c-0.6-0.4-0.7-1.2-0.3-1.8c0.4-0.6,1.2-0.7,1.8-0.3c1,0.7,2.7,1.1,4.5,1.1
					c1.8,0,3.4-0.4,4.5-1.1c0.6-0.4,1.4-0.3,1.8,0.3c0.4,0.6,0.3,1.4-0.3,1.8C59.5,71.8,57.3,72.3,55,72.3z"/>
			</g>
		</g>
		<g>
			<path class="st8" d="M40.7,101.9V99c0-1.3-0.5-2.5-1.3-3.4l-7.2-8.3c-0.6,0.7-1,1.6-1.1,2.6l-1.4,10.9
				C31.9,100.9,37.4,101.5,40.7,101.9z"/>
		</g>
		<g>
			<path class="st9" d="M40.7,100.2L30,99c-0.4,0-0.8,0.3-0.8,0.7l-0.1,1.1c0,0.4,0.3,0.8,0.7,0.8l11,1.2V100.2z"/>
		</g>
		<g>
			<path class="st8" d="M69.3,101.9V99c0-1.3,0.5-2.5,1.3-3.4l7.2-8.3c0.6,0.7,1,1.6,1.1,2.6l1.4,10.9
				C78.1,100.9,72.6,101.5,69.3,101.9z"/>
		</g>
		<g>
			<path class="st9" d="M69.3,100.2L80,99c0.4,0,0.8,0.3,0.8,0.7l0.1,1.1c0,0.4-0.3,0.8-0.7,0.8l-11,1.2V100.2z"/>
		</g>
		<g>
			<path class="st8" d="M46.6,81.2l4.5,6.7l-3.9,5.2L42,82.7l2.8-1.9C45.4,80.4,46.2,80.6,46.6,81.2z"/>
		</g>
		<g>
			<path class="st8" d="M63.4,81.2l-4.5,6.7l3.9,5.2L68,82.7l-2.8-1.9C64.6,80.4,63.8,80.6,63.4,81.2z"/>
		</g>
		<g>
			<path class="st8" d="M55,100.9L55,100.9c-0.7,0-1.3-0.6-1.3-1.3v-9.1h2.6v9.1C56.3,100.3,55.7,100.9,55,100.9z"/>
		</g>
		<path class="st4" d="M43.6,71.6C42.6,70.5,42,69,42,67.4V52.5c4.6-0.5,14.5-1.7,24.7-3.6H43.3c-0.4,0-0.9,0.1-1.3,0.1v0
			c-3,0.6-5.2,3.2-5.2,6.4V58c-2.2,0-3.9,1.7-3.9,3.9c0,2.2,1.7,3.9,3.9,3.9v1.3c0,3.1,1.9,6,4.8,7.2l8.4,3.5
			c0.4,0.2,0.8,0.3,1.3,0.4C47.5,75.5,45.1,73.2,43.6,71.6z"/>
	</g>
</g>
</svg>
