<?xml version="1.0" encoding="utf-8"?>
<!-- Generator: Adobe Illustrator 22.0.1, SVG Export Plug-In . SVG Version: 6.00 Build 0)  -->
<svg version="1.1" id="Capa_1" xmlns="http://www.w3.org/2000/svg" xmlns:xlink="http://www.w3.org/1999/xlink" x="0px" y="0px"
	 viewBox="0 0 110 110" style="enable-background:new 0 0 110 110;" xml:space="preserve">
<style type="text/css">
	.st0{fill:#7E6990;}
	.st1{clip-path:url(#SVGID_3_);}
	.st2{fill:#ECC19C;}
	.st3{fill:#1C5A7D;}
	.st4{fill:#7CA6BA;}
	.st5{fill:#D4DCE6;}
	.st6{fill:#1A1A1A;}
</style>
<g>
	<g>
		<g>
			<circle id="SVGID_1_" class="st0" cx="55" cy="55" r="52.5"/>
		</g>
		<g>
			<defs>
				<circle id="SVGID_2_" cx="55" cy="55" r="52.5"/>
			</defs>
			<clipPath id="SVGID_3_">
				<use xlink:href="#SVGID_2_"  style="overflow:visible;"/>
			</clipPath>
			<g class="st1">
				<path class="st2" d="M85.5,114.5L85.5,114.5l-60.9,0v0c0-3.4,0.6-6.7,1.6-9.8c0.2-0.6,0.4-1.1,0.6-1.7v0
					c0.2-0.5,0.5-1.1,0.7-1.6c1-2.1,2.3-4.1,3.7-5.9c0.4-0.5,0.7-0.9,1.1-1.3c0.2-0.2,0.4-0.4,0.6-0.6c0.2-0.2,0.4-0.4,0.6-0.6
					c1-1,2.1-2,3.3-2.8c0.6-0.4,1.2-0.8,1.8-1.2c0.2-0.1,0.4-0.3,0.7-0.4c0.1-0.1,0.2-0.1,0.3-0.2c0.3-0.2,0.6-0.3,0.9-0.5
					c0,0,0,0,0,0c0.2-0.1,0.5-0.3,0.7-0.4c0.7-0.4,1.4-0.9,2.1-1.4c2.1-1.7,3.9-3.8,5.1-6.2c0.4-0.8,0.7-1.6,1-2.4
					c0.7-2,1.1-4.2,1.1-6.5l4.4,0h0l4.5,0c0,2.3,0.4,4.4,1.1,6.4c0.3,0.8,0.6,1.6,1,2.4c1.2,2.4,3,4.5,5.1,6.2
					c0.4,0.3,0.8,0.6,1.3,0.9c0,0,0.1,0.1,0.1,0.1c0.2,0.1,0.4,0.3,0.6,0.4c0.2,0.1,0.5,0.3,0.7,0.4c0,0,0.1,0,0.1,0.1
					c0.3,0.1,0.5,0.3,0.8,0.5c0.2,0.1,0.5,0.3,0.7,0.4c0.2,0.1,0.5,0.3,0.7,0.5c0.5,0.3,0.9,0.6,1.4,1c0,0,0,0,0,0h0
					c0.6,0.4,1.1,0.9,1.7,1.4c0.6,0.5,1.1,1,1.6,1.5C82,98.5,85.5,106.1,85.5,114.5z"/>
				<path class="st3" d="M85.5,114.5H24.6c0-3.4,0.6-6.7,1.6-9.8c0.2-0.6,0.4-1.1,0.6-1.7v0c0.2-0.5,0.5-1.1,0.7-1.6
					c1-2.1,2.3-4.1,3.7-5.9c0.4-0.5,0.7-0.9,1.1-1.3c0.2-0.2,0.4-0.4,0.6-0.6c0.2-0.2,0.4-0.4,0.6-0.6c1-1,2.1-2,3.3-2.8
					c0.6-0.4,1.2-0.8,1.8-1.2c0.2-0.1,0.4-0.3,0.7-0.4c0.1-0.1,0.2-0.1,0.3-0.2c0.3-0.2,0.6-0.3,0.9-0.5c0,0,0,0,0,0v0
					c0.2-0.1,0.5-0.3,0.7-0.4c0.7-0.4,1.4-0.9,2-1.4c0,0,0,0,0,0c3,3,7.1,4.9,11.7,4.9h0c4.6,0,8.7-1.9,11.7-4.9l0,0
					c0.4,0.3,0.8,0.7,1.3,0.9c0,0,0.1,0.1,0.1,0.1c0.2,0.1,0.4,0.3,0.6,0.4c0.2,0.1,0.5,0.3,0.7,0.4c0,0,0.1,0,0.1,0.1
					c0.3,0.1,0.5,0.3,0.8,0.5c0.2,0.1,0.5,0.3,0.7,0.4c0.2,0.1,0.5,0.3,0.7,0.5c0.5,0.3,0.9,0.6,1.4,1h0c0.6,0.4,1.1,0.9,1.7,1.4
					c0.6,0.5,1.1,1,1.6,1.5C82,98.5,85.5,106.1,85.5,114.5z"/>
				<g>
					<path class="st4" d="M70.4,88.3L70.4,88.3l-0.6,0.6c-3.9,4-9.2,6.2-14.8,6.2c0,0,0,0,0,0c-5.7,0-10.9-2.2-14.8-6.2l-0.6-0.6
						l0,0c0.3-0.2,0.6-0.3,0.9-0.5c0,0,0,0,0,0v0c0.2-0.1,0.5-0.3,0.7-0.4c0.7-0.4,1.4-0.9,2-1.4c0,0,0,0,0,0c3,3,7.1,4.9,11.7,4.9
						h0c4.6,0,8.7-1.9,11.7-4.9l0,0c0.4,0.3,0.8,0.7,1.3,0.9c0,0,0.1,0.1,0.1,0.1c0.2,0.1,0.4,0.3,0.6,0.4c0.2,0.1,0.5,0.3,0.7,0.4
						c0,0,0.1,0,0.1,0.1C69.9,88,70.2,88.1,70.4,88.3z"/>
				</g>
				<g>
					<path class="st2" d="M78.4,38.3v14c0,0.3,0,0.5,0,0.8c0,0.2,0,0.4,0,0.6c0,0.2,0,0.4,0,0.6c0,0.1,0,0.3,0,0.4
						c0,0.1,0,0.2,0,0.2c0,0.1,0,0.3,0,0.4c0,0.1,0,0.3,0,0.4c0,0.1,0,0.3-0.1,0.4c-0.1,0.4-0.1,0.8-0.2,1.2
						c-0.1,0.3-0.1,0.6-0.2,0.8c0,0,0,0,0,0c0,0,0,0.1,0,0.1c0,0,0,0,0,0c0,0,0,0,0,0c0,0.1,0,0.1,0,0.2c0,0.1,0,0.1,0,0.2
						c0,0.1,0,0.1-0.1,0.2c0,0.1,0,0.2-0.1,0.3c0,0.1,0,0.1-0.1,0.2c0,0.1,0,0.1,0,0.1c-0.1,0.5-0.3,0.9-0.4,1.4
						c-0.1,0.2-0.1,0.4-0.2,0.6c0,0,0,0,0,0.1c-0.1,0.2-0.1,0.4-0.2,0.6c0,0.1,0,0.1-0.1,0.2c-0.1,0.2-0.1,0.4-0.2,0.6
						c-0.1,0.2-0.2,0.4-0.3,0.7c-0.1,0.2-0.2,0.4-0.3,0.6c0,0,0,0.1,0,0.1c-0.1,0.2-0.2,0.4-0.3,0.6c-0.1,0.2-0.2,0.4-0.3,0.6
						c-0.2,0.4-0.4,0.8-0.7,1.2l-0.3,0.6c-0.9,1.5-1.9,2.9-2.9,4.3c-0.1,0.2-0.3,0.4-0.4,0.6c-0.2,0.3-0.4,0.5-0.6,0.8
						c-0.2,0.2-0.4,0.4-0.6,0.6c-0.6,0.6-1.1,1.2-1.7,1.7c-0.1,0.1-0.2,0.2-0.4,0.3c-0.2,0.2-0.4,0.3-0.6,0.5
						c-0.2,0.1-0.3,0.3-0.5,0.4c-0.4,0.3-0.8,0.7-1.2,1c-0.2,0.1-0.3,0.3-0.5,0.4c-0.3,0.2-0.6,0.4-0.9,0.6
						c-0.2,0.1-0.3,0.2-0.5,0.3c-0.5,0.3-1.1,0.6-1.6,0.9c-0.1,0-0.1,0.1-0.1,0.1c-0.1,0.1-0.3,0.1-0.4,0.2
						c-0.1,0.1-0.3,0.1-0.4,0.2c-0.2,0.1-0.4,0.2-0.6,0.2c-0.1,0-0.1,0.1-0.2,0.1c-0.2,0.1-0.5,0.2-0.7,0.3
						c-0.3,0.1-0.6,0.2-0.8,0.3c-0.2,0.1-0.4,0.1-0.6,0.2c0,0,0,0,0,0c-0.2,0-0.4,0.1-0.6,0.1c-0.1,0-0.1,0-0.2,0
						c-0.2,0-0.3,0.1-0.5,0.1c-0.2,0-0.5,0.1-0.7,0.1c-0.1,0-0.2,0-0.2,0c-0.2,0-0.4,0-0.5,0h0c-0.2,0-0.4,0-0.5,0
						c-0.1,0-0.1,0-0.2,0c-0.2,0-0.3,0-0.5,0c0,0-0.1,0-0.1,0c-0.2,0-0.4-0.1-0.6-0.1c-0.2,0-0.4-0.1-0.6-0.1c-1-0.2-2-0.6-3-1
						c-0.3-0.2-0.7-0.3-1-0.5c-0.5-0.3-1.1-0.6-1.6-0.9c-0.4-0.3-0.9-0.6-1.3-0.9c-0.2-0.2-0.4-0.3-0.7-0.5c-0.7-0.5-1.4-1-2-1.6
						c-0.2-0.2-0.4-0.3-0.6-0.5c-0.2-0.2-0.4-0.3-0.5-0.5c-0.4-0.4-0.9-0.9-1.3-1.3c-0.2-0.2-0.3-0.4-0.5-0.6
						c-0.5-0.5-0.9-1-1.3-1.6c-0.2-0.2-0.3-0.4-0.5-0.6c-0.6-0.8-1.1-1.6-1.6-2.4c-0.1-0.2-0.3-0.5-0.4-0.7
						c-0.2-0.3-0.3-0.5-0.5-0.8c-0.6-1-1.1-2.1-1.6-3.2c-0.1-0.2-0.1-0.3-0.2-0.5c-0.1-0.2-0.2-0.4-0.2-0.6
						c-0.1-0.3-0.2-0.6-0.3-0.9c-0.1-0.3-0.2-0.6-0.3-0.9c-0.1-0.3-0.2-0.6-0.3-0.9c-0.1-0.3-0.2-0.6-0.3-1c0,0,0-0.1,0-0.1
						c-0.1-0.5-0.2-0.9-0.3-1.4c-0.1-0.6-0.2-1.3-0.3-1.9c0-0.2,0-0.4-0.1-0.6c0-0.2,0-0.4-0.1-0.6c0-0.4,0-0.8-0.1-1.2
						c0-0.3,0-0.5,0-0.8v-14c0-3.2,0.6-6.3,1.8-9c0-0.1,0.1-0.2,0.1-0.2c0.5-1,1-2.1,1.6-3c0.1-0.2,0.2-0.3,0.3-0.5
						c4.2-6.4,11.4-10.6,19.6-10.6h0c1.8,0,3.5,0.2,5.2,0.6c1.5,0.3,3,0.8,4.4,1.5c1.9,0.8,3.7,1.9,5.2,3.2c1.3,1.1,2.5,2.3,3.6,3.7
						c0.4,0.5,0.8,1.1,1.2,1.6c0.1,0.2,0.2,0.3,0.3,0.5c0.6,1,1.1,2,1.6,3l0.1,0.2c1.1,2.7,1.8,5.7,1.8,8.8
						C78.4,38.1,78.4,38.2,78.4,38.3z"/>
					<path class="st5" d="M78.4,52.3c0,0.3,0,0.5,0,0.8c0,0.2,0,0.4,0,0.6c0,0.2,0,0.4,0,0.6c0,0.1,0,0.3,0,0.4c0,0.1,0,0.2,0,0.2
						c0,0.1,0,0.3,0,0.4c0,0.1,0,0.3,0,0.4c0,0.1,0,0.3-0.1,0.4c-0.1,0.4-0.1,0.8-0.2,1.2c0,0.2-0.1,0.5-0.1,0.7c0,0.1,0,0.1,0,0.1
						c0,0,0,0.1,0,0.1c0,0,0,0,0,0c0,0,0,0,0,0c0,0,0,0,0,0c0,0.1,0,0.1,0,0.2c0,0.1,0,0.1,0,0.2c0,0.1,0,0.1-0.1,0.2
						c0,0.1-0.1,0.2-0.1,0.3c0,0.1,0,0.1,0,0.2c0,0.1,0,0.1,0,0.1c-0.1,0.5-0.3,0.9-0.4,1.4c-0.1,0.2-0.1,0.4-0.2,0.6c0,0,0,0,0,0.1
						c-0.1,0.2-0.1,0.4-0.2,0.6c0,0.1,0,0.1-0.1,0.2c-0.1,0.2-0.1,0.4-0.2,0.6c-0.1,0.2-0.2,0.4-0.3,0.7c-0.1,0.2-0.2,0.4-0.3,0.6
						c0,0,0,0.1,0,0.1c-0.1,0.2-0.2,0.4-0.3,0.6c-0.1,0.2-0.2,0.4-0.3,0.6c-0.2,0.4-0.4,0.8-0.7,1.2l-0.3,0.6
						c-0.9,1.5-1.9,2.9-2.9,4.3c-0.1,0.2-0.3,0.4-0.4,0.6c-0.2,0.3-0.4,0.5-0.6,0.8c-0.2,0.2-0.4,0.4-0.6,0.6
						c-0.6,0.6-1.1,1.2-1.7,1.7c-0.1,0.1-0.2,0.2-0.4,0.3c-0.2,0.2-0.4,0.3-0.6,0.5c-0.2,0.1-0.3,0.3-0.5,0.4
						c-0.4,0.3-0.8,0.7-1.2,1c-0.2,0.1-0.3,0.3-0.5,0.4c-0.3,0.2-0.6,0.4-0.9,0.6c-0.2,0.1-0.3,0.2-0.5,0.3
						c-0.5,0.3-1.1,0.6-1.6,0.9c-0.1,0-0.1,0.1-0.1,0.1c-0.1,0.1-0.3,0.1-0.4,0.2c-0.1,0.1-0.3,0.1-0.4,0.2
						c-0.2,0.1-0.4,0.2-0.6,0.2c-0.1,0-0.1,0.1-0.2,0.1c-0.2,0.1-0.5,0.2-0.7,0.3c-0.3,0.1-0.6,0.2-0.8,0.3
						c-0.2,0.1-0.4,0.1-0.6,0.2c0,0,0,0,0,0c-0.2,0-0.4,0.1-0.6,0.1c-0.1,0-0.1,0-0.2,0c-0.2,0-0.3,0.1-0.5,0.1
						c-0.2,0-0.5,0.1-0.7,0.1c-0.1,0-0.2,0-0.2,0c-0.2,0-0.4,0-0.5,0h0c-0.2,0-0.4,0-0.5,0c-0.1,0-0.1,0-0.2,0c-0.2,0-0.3,0-0.5,0
						c0,0-0.1,0-0.1,0c-0.2,0-0.4-0.1-0.6-0.1c-0.2,0-0.4-0.1-0.6-0.1c-1-0.2-2-0.6-3-1c-0.3-0.2-0.7-0.3-1-0.5
						c-0.5-0.3-1.1-0.6-1.6-0.9c-0.4-0.3-0.9-0.6-1.3-0.9c-0.2-0.2-0.4-0.3-0.7-0.5c-0.7-0.5-1.4-1-2-1.6c-0.2-0.2-0.4-0.3-0.6-0.5
						c-0.2-0.2-0.4-0.3-0.5-0.5c-0.4-0.4-0.9-0.9-1.3-1.3c-0.2-0.2-0.3-0.4-0.5-0.6c-0.5-0.5-0.9-1-1.3-1.6
						c-0.2-0.2-0.3-0.4-0.5-0.6c-0.6-0.8-1.1-1.6-1.6-2.4c-0.1-0.2-0.3-0.5-0.4-0.7c-0.2-0.3-0.3-0.5-0.5-0.8
						c-0.6-1-1.1-2.1-1.6-3.2c-0.1-0.2-0.1-0.3-0.2-0.5c-0.1-0.2-0.2-0.4-0.2-0.6c-0.1-0.3-0.2-0.6-0.3-0.9
						c-0.1-0.3-0.2-0.6-0.3-0.9c-0.1-0.3-0.2-0.6-0.3-0.9c-0.1-0.3-0.2-0.6-0.3-1c0,0,0-0.1,0-0.1c-0.1-0.5-0.2-0.9-0.3-1.4
						c-0.1-0.6-0.2-1.3-0.3-1.9c0-0.2,0-0.4-0.1-0.6c0-0.2,0-0.4-0.1-0.6c0-0.4,0-0.8-0.1-1.2c0-0.3,0-0.5,0-0.8l3.7,7.3l6.4,2.8
						l7.6,0.7h0l5.6,0.5h0l5.3,0.5c0,0,0,0,0,0L72,65.1L78.4,52.3z"/>
					<g>
						<path class="st5" d="M55,56l0,5.7v0l0,2v1.6l0,5.2v0l0,0h0l0,0l0,0L32.4,58.8c0,0,0-0.1,0-0.1c-0.1-0.5-0.2-0.9-0.3-1.4
							c-0.1-0.6-0.2-1.3-0.3-1.9c0-0.2,0-0.4-0.1-0.6c0-0.2,0-0.4-0.1-0.6c0-0.4,0-0.8-0.1-1.2c0-0.3,0-0.5,0-0.8v-6.9
							c0,0.1,0,0.2,0,0.3c0,0.1,0,0.1,0,0.2c0.1,1.6,0.3,3.4,0.8,5.1c0.4,1.4,0.9,2.8,1.5,3.9v0c1.5,3.1,3.5,5.2,5.4,5.6
							c0.1,0,0.2,0,0.3,0c0.7,0.1,1.5,0.1,2.2,0.1c2.9,0,5.5-2.4,7.2-3.3c0,0,0,0,0,0c0.1-0.1,0.2-0.1,0.2-0.2c0,0,0,0,0.1,0
							C50.8,56.5,52.8,56,55,56L55,56L55,56z"/>
						<path class="st5" d="M78.4,45.4l0,6.9c0,1.7-0.2,3.4-0.5,5c-0.1,0.7-0.3,1.3-0.4,1.9l-5.3,7.6L55,70.3h0l0,0v0L55,56h0
							c2.2,0,4.2,0.5,5.6,1.3c0,0,0,0,0.1,0c0.1,0.1,0.2,0.1,0.3,0.2c0,0,0,0,0,0c1.6,1,4.2,3.3,7.2,3.3c0.8,0,1.5,0,2.2-0.1
							c0.1,0,0.2,0,0.4,0c1.8-0.3,3.9-2.5,5.4-5.6v0c0.6-1.2,1.1-2.5,1.5-3.9c0.5-1.9,0.8-3.7,0.8-5.4
							C78.4,45.6,78.4,45.5,78.4,45.4z"/>
					</g>
					<ellipse class="st2" cx="55" cy="63.4" rx="5.7" ry="1.8"/>
					<path class="st6" d="M75.5,37.9c0-0.1-0.1-0.2-0.2-0.2c-0.8-0.1-4.5-0.6-8.5-0.6c-4.5,0-10.3,1.4-11.3,1.4h-0.9
						c-0.5,0-2-0.3-3.9-0.6c-2.2-0.4-5-0.8-7.4-0.8c-2.9,0-5.7,0.3-7.3,0.5c-0.6,0.1-1,0.1-1.2,0.2c-0.1,0-0.2,0.1-0.2,0.2l0,2.4
						c0,0.1,0.1,0.2,0.1,0.2l0.3,0.1c0.4,0.2,0.4,7.5,2.5,9.3c1.3,1.1,2.4,1.7,7.3,1.7c2.8,0,4.6-0.8,6.2-3c1.2-1.6,2.3-5.5,2.3-5.5
						c0.3-1.5,1.4-1.7,1.7-1.7c0,0,0,0,0,0h0c0,0,0,0,0,0c0,0,1.4,0,1.7,1.7c0,0,1.1,3.8,2.3,5.5c1.7,2.3,3.4,3,6.2,3
						c4.8,0,6-0.6,7.3-1.7c2.2-1.8,2.1-9.1,2.5-9.3l0.3-0.1c0.1,0,0.1-0.1,0.1-0.2L75.5,37.9z M51.1,46.6c-0.7,1.7-2.6,3.9-5.1,4
						c-7.8,0.4-8.1-1.8-8.6-3.5c-0.5-1.7-0.6-3.2-0.4-4.9c0.2-1.7,0.6-2.7,1.4-3.2c0.3-0.2,0.7-0.4,1.6-0.6c0.8-0.1,2.1-0.2,4.3-0.2
						c1.3,0,2.4,0.1,3.5,0.3c2.8,0.4,4.6,1.4,4.6,2.3C52.3,41.3,52.1,44.1,51.1,46.6z M72.8,47.1c-0.5,1.7-0.9,3.9-8.6,3.5
						c-2.6-0.1-4.4-2.3-5.1-4c-1.1-2.5-1.2-5.2-1.2-5.9c0-1.3,3.5-2.6,8.1-2.6c4.5,0,5.3,0.3,5.9,0.8c0.8,0.5,1.2,1.5,1.4,3.2
						C73.5,43.8,73.3,45.3,72.8,47.1z"/>
					<g>
						<path class="st5" d="M78.4,29.2C78.4,29.2,78.4,29.2,78.4,29.2l-46.8,0c0-16.5,11.1-15.9,23.3-14.5c0,0,0,0,0,0
							c0.9,0.1,1.7,0.2,2.6,0.3c9.1,1,16.6-2.9,20.3-6.4C83,12.2,83.9,25.5,78.4,29.2z"/>
						<path class="st5" d="M39.8,28.2l-0.1,0.4c-0.1,0.2-0.1,0.4-0.2,0.6c-0.1,0.2-0.1,0.3-0.2,0.5c-1.1,2.9-2.7,5.5-4.7,7.8
							c-1.4,1.7-2.8,4.3-2.9,8.4c0,0.2,0,0.5,0,0.7v-8.4c0-4.7,0-9,0-9l1.9-0.2l1.9-0.2l2.2-0.3L39.8,28.2z"/>
						<path class="st5" d="M78.5,29.2l-8.1-1l0.1,0.4c1.1,3.3,2.8,6.3,5.1,8.9c1.5,1.8,3,4.6,3,9.1C78.5,40.5,78.5,29.2,78.5,29.2z"
							/>
						<ellipse class="st5" cx="55" cy="28.2" rx="17.4" ry="3.3"/>
					</g>
				</g>
			</g>
		</g>
	</g>
</g>
</svg>
