<?xml version="1.0" encoding="utf-8"?>
<!-- Generator: Adobe Illustrator 22.0.1, SVG Export Plug-In . SVG Version: 6.00 Build 0)  -->
<svg version="1.1" id="Capa_1" xmlns="http://www.w3.org/2000/svg" xmlns:xlink="http://www.w3.org/1999/xlink" x="0px" y="0px"
	 viewBox="0 0 110 110" style="enable-background:new 0 0 110 110;" xml:space="preserve">
<style type="text/css">
	.st0{fill:#F3E4B2;}
	.st1{clip-path:url(#SVGID_3_);fill:#ECC19C;}
	.st2{clip-path:url(#SVGID_5_);fill:#ECC19C;}
	.st3{clip-path:url(#SVGID_7_);fill:#EB6D4A;}
	.st4{clip-path:url(#SVGID_9_);fill:#543E36;}
	.st5{clip-path:url(#SVGID_11_);}
	.st6{fill:#543E36;}
	.st7{clip-path:url(#SVGID_13_);fill:#ECC19C;}
	.st8{clip-path:url(#SVGID_15_);fill:#543E36;}
	.st9{clip-path:url(#SVGID_17_);}
	.st10{fill:#C34628;}
</style>
<g>
	<g>
		<g>
			<circle id="SVGID_1_" class="st0" cx="55" cy="55" r="52.5"/>
		</g>
		<g>
			<defs>
				<circle id="SVGID_2_" cx="55" cy="55" r="52.5"/>
			</defs>
			<clipPath id="SVGID_3_">
				<use xlink:href="#SVGID_2_"  style="overflow:visible;"/>
			</clipPath>
			<path class="st1" d="M78.4,32v17.4c0,0.3,0,0.5,0,0.8c0,0.2,0,0.4,0,0.6c0,0.2,0,0.4,0,0.6c0,0.1,0,0.3,0,0.4c0,0.1,0,0.2,0,0.2
				c0,0.1,0,0.3,0,0.4c0,0.3-0.1,0.5-0.1,0.8c0,0.1,0,0.1,0,0.2c0,0.1,0,0.3-0.1,0.4v0c0,0.2-0.1,0.4-0.1,0.6
				c-0.1,0.3-0.1,0.6-0.2,0.8c0,0,0,0,0,0c0,0,0,0.1,0,0.1c0,0,0,0,0,0c0,0.1-0.1,0.3-0.1,0.4c0,0.1,0,0.1,0,0.2
				c0,0.1,0,0.2-0.1,0.3c0,0.1,0,0.1-0.1,0.2c0,0.1,0,0.1,0,0.1c-0.1,0.5-0.3,0.9-0.4,1.4c-0.1,0.2-0.1,0.4-0.2,0.6c0,0,0,0,0,0.1
				c-0.1,0.2-0.1,0.4-0.2,0.6c0,0.1,0,0.1-0.1,0.2c-0.1,0.2-0.1,0.4-0.2,0.6c-0.1,0.2-0.2,0.4-0.3,0.7c-0.1,0.2-0.2,0.4-0.3,0.6
				c0,0,0,0.1,0,0.1c-0.1,0.2-0.2,0.4-0.3,0.6c-0.1,0.2-0.2,0.4-0.3,0.6c-0.2,0.4-0.4,0.8-0.7,1.2l-0.3,0.6
				c-0.9,1.5-1.9,2.9-2.9,4.3c-0.1,0.2-0.3,0.4-0.4,0.6c-0.2,0.3-0.4,0.5-0.6,0.8c-0.2,0.2-0.4,0.4-0.6,0.6
				c-0.6,0.6-1.1,1.2-1.7,1.7c-0.1,0.1-0.2,0.2-0.4,0.3c-0.2,0.2-0.4,0.3-0.6,0.5c-0.2,0.1-0.3,0.3-0.5,0.4c-0.4,0.3-0.8,0.7-1.2,1
				c-0.2,0.1-0.3,0.3-0.5,0.4c-0.3,0.2-0.6,0.4-0.9,0.6c-0.2,0.1-0.3,0.2-0.5,0.3c-0.6,0.4-1.2,0.7-1.8,1c-0.1,0.1-0.3,0.1-0.4,0.2
				c-0.1,0.1-0.3,0.1-0.4,0.2c-0.2,0.1-0.4,0.2-0.6,0.2c-0.1,0-0.1,0.1-0.2,0.1c-0.2,0.1-0.5,0.2-0.7,0.3c-0.3,0.1-0.6,0.2-0.8,0.3
				c-0.2,0.1-0.4,0.1-0.6,0.2c0,0,0,0,0,0c-0.2,0-0.4,0.1-0.6,0.1c-0.1,0-0.1,0-0.2,0c-0.2,0-0.3,0.1-0.5,0.1
				c-0.2,0-0.5,0.1-0.7,0.1c-0.1,0-0.2,0-0.2,0c-0.2,0-0.4,0-0.5,0h0c-0.2,0-0.4,0-0.5,0c-0.1,0-0.1,0-0.2,0c-0.2,0-0.3,0-0.5,0
				c0,0-0.1,0-0.1,0c-0.2,0-0.4-0.1-0.6-0.1c-0.2,0-0.4-0.1-0.6-0.1c-1-0.2-2-0.6-3-1c-0.9-0.4-1.8-0.8-2.6-1.4
				c-0.4-0.3-0.9-0.6-1.3-0.9c-0.2-0.2-0.4-0.3-0.7-0.5c-0.7-0.5-1.4-1-2-1.6c-0.2-0.2-0.4-0.3-0.6-0.5c-0.2-0.2-0.4-0.3-0.5-0.5
				c-0.4-0.4-0.9-0.9-1.3-1.3c-0.2-0.2-0.3-0.4-0.5-0.6c-0.5-0.5-0.9-1-1.3-1.6c-0.2-0.2-0.3-0.4-0.5-0.6c-0.6-0.8-1.1-1.6-1.6-2.4
				c-0.1-0.2-0.3-0.5-0.4-0.7c-0.2-0.3-0.3-0.5-0.5-0.8c-0.6-1-1.1-2.1-1.6-3.2c-0.1-0.2-0.1-0.3-0.2-0.5c-0.1-0.2-0.2-0.4-0.2-0.6
				c-0.1-0.3-0.2-0.6-0.3-0.9c-0.1-0.3-0.2-0.6-0.3-0.9c-0.1-0.3-0.2-0.6-0.3-0.9c-0.1-0.3-0.2-0.6-0.3-1c0,0,0-0.1,0-0.1
				c-0.1-0.5-0.2-0.9-0.3-1.4c-0.1-0.6-0.2-1.3-0.3-1.9c0-0.2,0-0.4-0.1-0.6c0-0.2,0-0.4-0.1-0.6c0-0.4,0-0.8-0.1-1.2
				c0-0.3,0-0.5,0-0.8V32C31.7,19.1,42.1,8.6,55,8.6h0c1.8,0,3.5,0.2,5.2,0.6c1.5,0.3,3,0.8,4.4,1.5c1.9,0.8,3.7,1.9,5.2,3.2
				c1.3,1.1,2.5,2.3,3.6,3.7c3.1,3.9,4.9,8.8,5,14.2C78.4,31.8,78.4,31.9,78.4,32z"/>
		</g>
		<g>
			<defs>
				<circle id="SVGID_4_" cx="55" cy="55" r="52.5"/>
			</defs>
			<clipPath id="SVGID_5_">
				<use xlink:href="#SVGID_4_"  style="overflow:visible;"/>
			</clipPath>
			<path class="st2" d="M85.5,114.5L85.5,114.5l-60.9,0v0c0-3.4,0.6-6.7,1.6-9.8c0.2-0.6,0.4-1.1,0.6-1.7v0c0.2-0.5,0.5-1.1,0.7-1.6
				c1-2.1,2.3-4.1,3.7-5.9c0.4-0.5,0.7-0.9,1.1-1.3c0.2-0.2,0.4-0.4,0.6-0.6c0.2-0.2,0.4-0.4,0.6-0.6c1-1,2.1-2,3.3-2.8
				c0.6-0.4,1.2-0.8,1.8-1.2c0.6-0.4,1.2-0.8,1.9-1.1c0,0,0,0,0,0c0.2-0.1,0.5-0.3,0.7-0.4c0.7-0.4,1.4-0.9,2.1-1.4
				c2.8-2.2,4.9-5.2,6.1-8.6c0.7-2,1.1-4.2,1.1-6.5l4.4,0l4.6,0c0,2.3,0.4,4.4,1.1,6.4c1.2,3.4,3.3,6.4,6.1,8.6
				c0.4,0.3,0.8,0.6,1.3,0.9c0,0,0.1,0.1,0.1,0.1c0.2,0.1,0.4,0.3,0.6,0.4c0.2,0.1,0.5,0.3,0.7,0.4c0,0,0.1,0,0.1,0.1
				c0.5,0.3,1,0.6,1.5,0.9c0.2,0.1,0.5,0.3,0.7,0.5c0.5,0.3,0.9,0.6,1.4,1c0,0,0,0,0,0h0c0.6,0.4,1.1,0.9,1.7,1.4
				c0.6,0.5,1.1,1,1.6,1.5C82,98.5,85.5,106.1,85.5,114.5z"/>
		</g>
		<g>
			<defs>
				<circle id="SVGID_6_" cx="55" cy="55" r="52.5"/>
			</defs>
			<clipPath id="SVGID_7_">
				<use xlink:href="#SVGID_6_"  style="overflow:visible;"/>
			</clipPath>
			<path class="st3" d="M85.5,114.5H24.6c0-3.4,0.6-6.7,1.6-9.8c0.2-0.6,0.4-1.1,0.6-1.7v0c0.2-0.5,0.5-1.1,0.7-1.6
				c1-2.1,2.3-4.1,3.7-5.9c0.4-0.5,0.7-0.9,1.1-1.3c0.2-0.2,0.4-0.4,0.6-0.6c0.2-0.2,0.4-0.4,0.6-0.6c1-1,2.1-2,3.3-2.8
				c0.6-0.4,1.2-0.8,1.8-1.2c0.3-0.2,0.6-0.4,1-0.6c0.3-0.2,0.6-0.4,0.9-0.5c0,0,0,0,0,0v0c0.2-0.1,0.5-0.3,0.7-0.4
				c0.7-0.4,1.4-0.9,2-1.4c0,0,0,0,0,0c3,3,7.1,4.9,11.7,4.9h0c4.6,0,8.7-1.9,11.7-4.9l0,0c0.4,0.3,0.8,0.7,1.3,0.9
				c0,0,0.1,0.1,0.1,0.1c0.2,0.1,0.4,0.3,0.6,0.4c0.2,0.1,0.5,0.3,0.7,0.4c0,0,0.1,0,0.1,0.1c0.3,0.1,0.5,0.3,0.8,0.5
				c0.2,0.1,0.5,0.3,0.7,0.4c0.2,0.1,0.5,0.3,0.7,0.5c0.5,0.3,0.9,0.6,1.4,1h0c0.6,0.4,1.1,0.9,1.7,1.4c0.6,0.5,1.1,1,1.6,1.5
				C82,98.5,85.5,106.1,85.5,114.5z"/>
		</g>
		<g>
			<defs>
				<circle id="SVGID_8_" cx="55" cy="55" r="52.5"/>
			</defs>
			<clipPath id="SVGID_9_">
				<use xlink:href="#SVGID_8_"  style="overflow:visible;"/>
			</clipPath>
			<path class="st4" d="M78.4,49.4c0,0.3,0,0.5,0,0.8c0,0.2,0,0.4,0,0.6c0,0.2,0,0.4,0,0.6c0,0.1,0,0.3,0,0.4c0,0.1,0,0.2,0,0.2
				c0,0.1,0,0.3,0,0.4c0,0.3-0.1,0.6-0.1,0.8c0,0.1,0,0.1,0,0.2c0,0.1,0,0.3-0.1,0.4c0,0.2-0.1,0.4-0.1,0.6c0,0.2-0.1,0.5-0.1,0.7
				c0,0.1,0,0.1,0,0.1c0,0,0,0.1,0,0.1c0,0,0,0,0,0c0,0,0,0.1,0,0.1c0,0.1-0.1,0.2-0.1,0.4c0,0.1,0,0.1,0,0.2c0,0.1-0.1,0.2-0.1,0.3
				c0,0.1,0,0.1,0,0.2c0,0.1,0,0.1,0,0.1c-0.1,0.5-0.3,0.9-0.4,1.4c-0.1,0.2-0.1,0.4-0.2,0.6c0,0,0,0,0,0.1
				c-0.1,0.2-0.1,0.4-0.2,0.6c0,0.1,0,0.1-0.1,0.2c-0.1,0.2-0.1,0.4-0.2,0.6c-0.1,0.2-0.2,0.4-0.3,0.7c-0.1,0.2-0.2,0.4-0.3,0.6
				c0,0,0,0.1,0,0.1c-0.1,0.2-0.2,0.4-0.3,0.6c-0.1,0.2-0.2,0.4-0.3,0.6c-0.2,0.4-0.4,0.8-0.7,1.2l-0.3,0.6
				c-0.9,1.5-1.9,2.9-2.9,4.3c-0.1,0.2-0.3,0.4-0.4,0.6c-0.2,0.3-0.4,0.5-0.6,0.8c-0.2,0.2-0.4,0.4-0.6,0.6
				c-0.6,0.6-1.1,1.2-1.7,1.7c-0.1,0.1-0.2,0.2-0.4,0.3c-0.2,0.2-0.4,0.3-0.6,0.5c-0.2,0.1-0.3,0.3-0.5,0.4c-0.4,0.3-0.8,0.7-1.2,1
				c-0.2,0.1-0.3,0.3-0.5,0.4c-0.3,0.2-0.6,0.4-0.9,0.6c-0.2,0.1-0.3,0.2-0.5,0.3c-0.6,0.4-1.2,0.7-1.8,1c-0.1,0.1-0.3,0.1-0.4,0.2
				c-0.1,0.1-0.3,0.1-0.4,0.2c-0.2,0.1-0.4,0.2-0.6,0.2c-0.1,0-0.1,0.1-0.2,0.1c-0.2,0.1-0.5,0.2-0.7,0.3c-0.3,0.1-0.6,0.2-0.8,0.3
				c-0.2,0.1-0.4,0.1-0.6,0.2c0,0,0,0,0,0c-0.2,0-0.4,0.1-0.6,0.1c-0.1,0-0.1,0-0.2,0c-0.2,0-0.3,0.1-0.5,0.1
				c-0.2,0-0.5,0.1-0.7,0.1c-0.1,0-0.2,0-0.2,0c-0.2,0-0.4,0-0.5,0h0c-0.2,0-0.4,0-0.5,0c-0.1,0-0.1,0-0.2,0c-0.2,0-0.3,0-0.5,0
				c0,0-0.1,0-0.1,0c-0.2,0-0.4-0.1-0.6-0.1c-0.2,0-0.4-0.1-0.6-0.1c-1-0.2-2-0.6-3-1c-0.9-0.4-1.8-0.8-2.6-1.4
				c-0.4-0.3-0.9-0.6-1.3-0.9c-0.2-0.2-0.4-0.3-0.7-0.5c-0.7-0.5-1.4-1-2-1.6c-0.2-0.2-0.4-0.3-0.6-0.5c-0.2-0.2-0.4-0.3-0.5-0.5
				c-0.4-0.4-0.9-0.9-1.3-1.3c-0.2-0.2-0.3-0.4-0.5-0.6c-0.5-0.5-0.9-1-1.3-1.6c-0.2-0.2-0.3-0.4-0.5-0.6c-0.6-0.8-1.1-1.6-1.6-2.4
				c-0.1-0.2-0.3-0.5-0.4-0.7c-0.2-0.3-0.3-0.5-0.5-0.8c-0.6-1-1.1-2.1-1.6-3.2c-0.1-0.2-0.1-0.3-0.2-0.5c-0.1-0.2-0.2-0.4-0.2-0.6
				c-0.1-0.3-0.2-0.6-0.3-0.9c-0.1-0.3-0.2-0.6-0.3-0.9c-0.1-0.3-0.2-0.6-0.3-0.9c-0.1-0.3-0.2-0.6-0.3-1c0,0,0-0.1,0-0.1
				c-0.1-0.5-0.2-0.9-0.3-1.4c-0.1-0.6-0.2-1.3-0.3-1.9c0-0.2,0-0.4-0.1-0.6c0-0.2,0-0.4-0.1-0.6c0-0.4,0-0.8-0.1-1.2
				c0-0.3,0-0.5,0-0.8l3.7,7.3l6.4,2.8l7.6,0.7h0l5.6,0.5h0l5.3,0.5c0,0,0,0,0,0L72,62.3L78.4,49.4z"/>
		</g>
		<g>
			<defs>
				<circle id="SVGID_10_" cx="55" cy="55" r="52.5"/>
			</defs>
			<clipPath id="SVGID_11_">
				<use xlink:href="#SVGID_10_"  style="overflow:visible;"/>
			</clipPath>
			<g class="st5">
				<path class="st6" d="M55,53.1l0,5.7v0l0,2v1.6l0,5.2v0l0,0h0l0,0L32.4,55.9c0,0,0-0.1,0-0.1c-0.1-0.5-0.2-0.9-0.3-1.4
					c-0.1-0.6-0.2-1.3-0.3-1.9c0-0.2,0-0.4-0.1-0.6c0-0.2,0-0.4-0.1-0.6c0-0.4,0-0.8-0.1-1.2c0-0.3,0-0.5,0-0.8v-6.9
					c0,0.1,0,0.2,0,0.3c0,1.7,0.3,3.5,0.8,5.3c0.4,1.4,0.9,2.8,1.5,3.9v0c1.5,3.1,3.5,5.2,5.4,5.6c0.1,0,0.2,0,0.3,0
					c0.7,0.1,1.5,0.1,2.2,0.1c2.9,0,5.5-2.4,7.2-3.3c0,0,0,0,0,0c0.1-0.1,0.2-0.1,0.2-0.2c0,0,0,0,0.1,0
					C50.8,53.6,52.8,53.1,55,53.1C55,53.1,55,53.1,55,53.1z"/>
				<path class="st6" d="M78.4,42.5l0,6.9c0,1.7-0.2,3.4-0.5,5c-0.1,0.7-0.3,1.3-0.4,1.9L72.2,64L55,67.4h0l0,0v0l0-14.4h0
					c2.2,0,4.2,0.5,5.6,1.3c0,0,0,0,0.1,0c0.1,0.1,0.2,0.1,0.3,0.2c0,0,0,0,0,0c1.6,1,4.2,3.3,7.2,3.3c0.8,0,1.5,0,2.2-0.1
					c0.1,0,0.2,0,0.4,0c1.8-0.3,3.9-2.5,5.4-5.6v0c0.6-1.2,1.1-2.5,1.5-3.9c0.5-1.9,0.8-3.7,0.8-5.4C78.4,42.7,78.4,42.6,78.4,42.5z
					"/>
			</g>
		</g>
		<g>
			<defs>
				<circle id="SVGID_12_" cx="55" cy="55" r="52.5"/>
			</defs>
			<clipPath id="SVGID_13_">
				<use xlink:href="#SVGID_12_"  style="overflow:visible;"/>
			</clipPath>
			<ellipse class="st7" cx="55" cy="60.5" rx="5.7" ry="1.8"/>
		</g>
		<g>
			<defs>
				<circle id="SVGID_14_" cx="55" cy="55" r="52.5"/>
			</defs>
			<clipPath id="SVGID_15_">
				<use xlink:href="#SVGID_14_"  style="overflow:visible;"/>
			</clipPath>
			<path class="st8" d="M55,8.6L55,8.6C42.1,8.6,31.7,19.1,31.7,32v10.3c0,0,1-6.1,3.6-9.1c2.8-3.2,2.1-8.2,8.5-8.2
				c4.1,0,4.3,1.5,11.3,1.5h0h0h0c6.9,0,7.2-1.5,11.3-1.5c6.4,0,5.6,4.9,8.5,8.2c2.6,3,3.6,9.1,3.6,9.1V32
				C78.4,19.1,67.9,8.6,55,8.6z"/>
		</g>
		<g>
			<defs>
				<circle id="SVGID_16_" cx="55" cy="55" r="52.5"/>
			</defs>
			<clipPath id="SVGID_17_">
				<use xlink:href="#SVGID_16_"  style="overflow:visible;"/>
			</clipPath>
			<g class="st9">
				<path class="st10" d="M70.4,88.3l-0.6,0.6c-3.9,4-9.2,6.2-14.8,6.2c-5.7,0-10.9-2.2-14.8-6.2l-0.6-0.6c0.3-0.2,0.6-0.4,0.9-0.5
					c0,0,0,0,0,0v0c0.2-0.1,0.5-0.3,0.7-0.4c0.7-0.4,1.4-0.9,2-1.4c0,0,0,0,0,0c3,3,7.1,4.9,11.7,4.9h0c4.6,0,8.7-1.9,11.7-4.9l0,0
					c0.4,0.3,0.8,0.7,1.3,0.9c0,0,0.1,0.1,0.1,0.1c0.2,0.1,0.4,0.3,0.6,0.4c0.2,0.1,0.5,0.3,0.7,0.4c0,0,0.1,0,0.1,0.1
					C69.9,88,70.2,88.1,70.4,88.3z"/>
			</g>
		</g>
	</g>
</g>
</svg>
