<?xml version="1.0" encoding="utf-8"?>
<!-- Generator: Adobe Illustrator 22.0.1, SVG Export Plug-In . SVG Version: 6.00 Build 0)  -->
<svg version="1.1" id="Layer_1" xmlns="http://www.w3.org/2000/svg" xmlns:xlink="http://www.w3.org/1999/xlink" x="0px" y="0px"
	 viewBox="0 0 110 110" style="enable-background:new 0 0 110 110;" xml:space="preserve">
<style type="text/css">
	.st0{fill:url(#SVGID_1_);}
	.st1{fill:#FFFFFF;}
	.st2{fill:url(#SVGID_2_);}
	.st3{fill:url(#SVGID_3_);}
	.st4{fill:#606060;}
	.st5{fill:#F3F3F3;}
	.st6{fill:#785448;}
	.st7{fill:#B9DDF9;}
	.st8{fill:#E1F1FB;}
	.st9{fill:url(#SVGID_4_);}
	.st10{fill:url(#SVGID_5_);}
	.st11{fill:#5C4036;}
	.st12{fill:#6C4C40;}
	.st13{fill:#E5E5E5;}
	.st14{fill:#747474;}
	.st15{fill:#FFD34E;}
	.st16{fill:#BBBBBB;}
	.st17{fill:url(#SVGID_6_);}
	.st18{fill:#7CB142;}
	.st19{fill:#FFFF00;}
	.st20{fill:#9BCB64;}
	.st21{fill:#4E342E;}
	.st22{fill:#424242;}
	.st23{fill:#FFE93A;}
	.st24{fill:#424242;fill-opacity:0.8;}
	.st25{fill:url(#SVGID_7_);}
	.st26{fill:#FBD734;}
	.st27{fill:#202020;}
	.st28{fill:#FF6E40;}
	.st29{fill:#8FC9F7;}
</style>
<g>
	<linearGradient id="SVGID_1_" gradientUnits="userSpaceOnUse" x1="3" y1="55.3" x2="108" y2="55.3">
		<stop  offset="0" style="stop-color:#158487"/>
		<stop  offset="1" style="stop-color:#49AFB7"/>
	</linearGradient>
	<path class="st0" d="M55.5,2.8c29,0,52.5,23.5,52.5,52.5c0,29-23.5,52.5-52.5,52.5C26.5,107.8,3,84.3,3,55.3
		C3,26.3,26.5,2.8,55.5,2.8z"/>
	<path class="st1" d="M46.8,13c0.6,0,1.3,0.2,1.8,0.4c0.6-0.6,1.4-0.9,2.3-0.9c1.5,0,2.8,1.1,3.2,2.5c0.8,0.2,1.4,0.8,1.7,1.6
		c0.1,0,0.2,0,0.3,0c1.4,0,2.6,1.2,2.6,2.6s-1.2,2.6-2.6,2.6c-0.4,0-0.9-0.1-1.2-0.3c-0.3,1.1-1.3,1.8-2.5,1.8
		c-0.7,0-1.4-0.3-1.8-0.8c-0.5,0.5-1.1,0.8-1.8,0.8c-0.7,0-1.3-0.3-1.8-0.7c-0.5,0.5-1.1,0.8-1.9,0.8c-0.7,0-1.3-0.3-1.8-0.7
		c-0.2,0-0.4,0.1-0.7,0.1c-1.7,0-3.1-1.4-3.1-3.1c0-1.7,1.4-3.1,3.1-3.1c0.1,0,0.2,0,0.3,0C43,14.6,44.7,13,46.8,13z"/>
	<g>
		<linearGradient id="SVGID_2_" gradientUnits="userSpaceOnUse" x1="5.1831" y1="10.2039" x2="119.3557" y2="79.2114">
			<stop  offset="0" style="stop-color:#E13635"/>
			<stop  offset="1" style="stop-color:#EB6651"/>
		</linearGradient>
		<polygon class="st2" points="64.7,68.5 93.4,68.5 93.4,41.2 64.7,41.2 		"/>
		<linearGradient id="SVGID_3_" gradientUnits="userSpaceOnUse" x1="-7.7228" y1="31.5566" x2="106.4498" y2="100.5641">
			<stop  offset="0" style="stop-color:#E13635"/>
			<stop  offset="1" style="stop-color:#EB6651"/>
		</linearGradient>
		<polygon class="st3" points="45.2,68.5 16.4,68.5 16.4,41.2 45.2,41.2 		"/>
	</g>
	<polygon class="st4" points="45.2,34.6 17.4,34.6 14.4,43.1 45.2,43.1 	"/>
	<polygon class="st5" points="45.2,68.5 16.4,68.5 16.4,72.4 45.2,72.4 	"/>
	<polygon class="st6" points="35.5,54.2 29.1,54.2 29.1,45.8 35.5,45.8 	"/>
	<polygon class="st7" points="35.1,53.8 29.4,53.8 29.4,46.2 35.1,46.2 	"/>
	<path class="st8" d="M30.9,46.2l2.1,7.5h1.8l-2.1-7.5H30.9z M32,53.8h-0.9l-1.7-6v-1.5h0.5L32,53.8z"/>
	<polygon class="st6" points="25.6,54.2 19.2,54.2 19.2,45.8 25.6,45.8 	"/>
	<polygon class="st7" points="25.3,53.8 19.6,53.8 19.6,46.2 25.3,46.2 	"/>
	<path class="st8" d="M21,46.2l2.1,7.5h1.8l-2.1-7.5H21z M22.1,53.8h-0.9l-1.7-6v-1.5H20L22.1,53.8z"/>
	<polygon class="st6" points="35.5,65.4 29.1,65.4 29.1,57.1 35.5,57.1 	"/>
	<polygon class="st7" points="35.1,65 29.4,65 29.4,57.5 35.1,57.5 	"/>
	<path class="st8" d="M30.9,57.5L33,65h1.8l-2.1-7.5H30.9z M32,65h-0.9l-1.7-6v-1.5h0.5L32,65z"/>
	<polygon class="st6" points="25.6,65.4 19.2,65.4 19.2,57.1 25.6,57.1 	"/>
	<polygon class="st7" points="25.3,65 19.6,65 19.6,57.5 25.3,57.5 	"/>
	<path class="st8" d="M21,57.5l2.1,7.5h1.8l-2.1-7.5H21z M22.1,65h-0.9l-1.7-6v-1.5H20L22.1,65z"/>
	<polygon class="st4" points="64.7,34.6 92.4,34.6 95.4,43.1 64.7,43.1 	"/>
	<g>
		<linearGradient id="SVGID_4_" gradientUnits="userSpaceOnUse" x1="40.5535" y1="37.276" x2="67.858" y2="37.276">
			<stop  offset="0" style="stop-color:#E13635"/>
			<stop  offset="1" style="stop-color:#EB6651"/>
		</linearGradient>
		<polygon class="st9" points="67.9,31.8 54.7,24.6 40.6,31.8 40.6,49.9 67.9,49.9 		"/>
		<polygon class="st4" points="69,33.9 54.6,26.1 39.2,33.7 36.9,31.9 54.7,23.2 71.5,32.1 		"/>
	</g>
	<linearGradient id="SVGID_5_" gradientUnits="userSpaceOnUse" x1="43.2449" y1="62.9542" x2="65.1666" y2="62.9542">
		<stop  offset="0" style="stop-color:#E13635"/>
		<stop  offset="1" style="stop-color:#EB6651"/>
	</linearGradient>
	<polygon class="st10" points="43.2,71.8 65.2,71.8 65.2,54.1 43.2,54.1 	"/>
	<g>
		<polygon class="st5" points="40.9,53.7 46.7,53.7 46.7,67.1 40.9,67.1 		"/>
		<polygon class="st5" points="61.5,53.7 67.3,53.7 67.3,67.1 61.5,67.1 		"/>
		<polygon class="st5" points="40.1,72.5 47.5,72.5 47.5,66.7 40.1,66.7 		"/>
	</g>
	<path class="st11" d="M49.4,71.8H59v-8.6c0-2.7-2.2-4.8-4.8-4.8l0,0c-2.7,0-4.8,2.2-4.8,4.8L49.4,71.8L49.4,71.8z"/>
	<path class="st12" d="M49.4,71.8h5.1V58.3c-0.1,0-0.2,0-0.3,0l0,0c-2.7,0-4.8,2.2-4.8,4.8V71.8z"/>
	<polygon class="st5" points="64.7,68.5 93.4,68.5 93.4,72.4 64.7,72.4 	"/>
	<polygon class="st13" points="40.4,53.7 47.1,53.7 47.1,55.1 40.4,55.1 	"/>
	<polygon class="st6" points="74.4,54.2 80.8,54.2 80.8,45.8 74.4,45.8 	"/>
	<polygon class="st13" points="61.1,53.7 67.8,53.7 67.8,55.1 61.1,55.1 	"/>
	<g>
		<polygon class="st5" points="39.7,49.9 68.7,49.9 68.7,54.1 39.7,54.1 		"/>
		<polygon class="st5" points="60.7,72.5 68.1,72.5 68.1,66.7 60.7,66.7 		"/>
	</g>
	<polygon class="st7" points="74.7,53.8 80.5,53.8 80.5,46.2 74.7,46.2 	"/>
	<path class="st8" d="M79,46.2l-2.1,7.5h-1.8l2.1-7.5H79z M77.9,53.8h0.9l1.7-6v-1.5H80L77.9,53.8z"/>
	<polygon class="st6" points="84.2,54.2 90.6,54.2 90.6,45.8 84.2,45.8 	"/>
	<polygon class="st7" points="84.5,53.8 90.3,53.8 90.3,46.2 84.5,46.2 	"/>
	<path class="st8" d="M88.8,46.2l-2.1,7.5h-1.8l2.1-7.5H88.8z M87.7,53.8h0.9l1.7-6v-1.5h-0.5L87.7,53.8z"/>
	<polygon class="st6" points="74.4,65.4 80.8,65.4 80.8,57.1 74.4,57.1 	"/>
	<polygon class="st7" points="74.7,65 80.5,65 80.5,57.5 74.7,57.5 	"/>
	<path class="st8" d="M79,57.5L76.9,65h-1.8l2.1-7.5H79z M77.9,65h0.9l1.7-6v-1.5H80L77.9,65z"/>
	<polygon class="st6" points="84.2,65.4 90.6,65.4 90.6,57.1 84.2,57.1 	"/>
	<polygon class="st7" points="84.5,65 90.3,65 90.3,57.5 84.5,57.5 	"/>
	<path class="st8" d="M88.8,57.5L86.7,65h-1.8l2.1-7.5H88.8z M87.7,65h0.9l1.7-6v-1.5h-0.5L87.7,65z"/>
	<polygon class="st6" points="43.5,46.8 47.9,46.8 47.9,38.5 43.5,38.5 	"/>
	<polygon class="st7" points="43.7,46.4 47.7,46.4 47.7,38.9 43.7,38.9 	"/>
	<path class="st8" d="M46.6,38.9l-1.4,7.5H44l1.4-7.5L46.6,38.9L46.6,38.9z M45.9,46.4h0.6l1.2-6v-1.5h-0.3L45.9,46.4z"/>
	<polygon class="st6" points="52,46.8 56.4,46.8 56.4,38.5 52,38.5 	"/>
	<polygon class="st7" points="52.2,46.4 56.2,46.4 56.2,38.9 52.2,38.9 	"/>
	<path class="st8" d="M55.2,38.9l-1.4,7.5h-1.2l1.4-7.5L55.2,38.9L55.2,38.9z M54.4,46.4H55l1.2-6v-1.5h-0.3L54.4,46.4z"/>
	<polygon class="st6" points="60.2,46.8 64.6,46.8 64.6,38.5 60.2,38.5 	"/>
	<polygon class="st7" points="60.4,46.4 64.3,46.4 64.3,38.9 60.4,38.9 	"/>
	<path class="st8" d="M63.3,38.9l-1.4,7.5h-1.2l1.4-7.5L63.3,38.9L63.3,38.9z M62.6,46.4h0.6l1.2-6v-1.5H64L62.6,46.4z"/>
	<path class="st14" d="M46.4,31.7H62c0.9,0,1.6,0.7,1.6,1.6v2c0,0.9-0.7,1.6-1.6,1.6H46.4c-0.9,0-1.6-0.7-1.6-1.6v-2
		C44.9,32.4,45.6,31.7,46.4,31.7z"/>
	<path class="st15" d="M47.4,32.3H61c1.1,0,2,0.9,2,2l0,0c0,1.1-0.9,2-2,2H47.4c-1.1,0-2-0.9-2-2l0,0C45.4,33.2,46.3,32.3,47.4,32.3
		z"/>
	<path class="st16" d="M54.7,16.7c0.2,0,0.4,0.2,0.4,0.4c0,0.2-0.2,0.4-0.4,0.4c-0.2,0-0.4-0.2-0.4-0.4
		C54.3,16.9,54.5,16.7,54.7,16.7z"/>
	<path class="st1" d="M49.1,33.5C49.1,33.5,49.1,33.6,49.1,33.5C49.1,33.6,49.1,33.6,49.1,33.5c-0.1,0.1-0.1,0.1-0.2,0
		c0,0-0.1,0-0.1-0.1c0,0-0.1,0-0.1-0.1c0,0-0.1,0-0.2,0c-0.1,0-0.1,0-0.2,0c0,0-0.1,0-0.1,0.1c0,0-0.1,0.1-0.1,0.1c0,0,0,0.1,0,0.1
		c0,0.1,0,0.1,0,0.1c0,0,0.1,0.1,0.1,0.1c0,0,0.1,0,0.2,0.1c0.1,0,0.1,0,0.2,0.1c0.1,0,0.1,0,0.2,0.1c0.1,0,0.1,0.1,0.2,0.1
		c0,0,0.1,0.1,0.1,0.2c0,0.1,0,0.1,0,0.2c0,0.1,0,0.2-0.1,0.3c0,0.1-0.1,0.2-0.2,0.2c-0.1,0.1-0.2,0.1-0.2,0.2
		c-0.1,0-0.2,0.1-0.3,0.1c-0.1,0-0.1,0-0.2,0c-0.1,0-0.1,0-0.2-0.1c-0.1,0-0.1-0.1-0.2-0.1c-0.1,0-0.1-0.1-0.2-0.1l0.1-0.2
		c0,0,0,0,0,0c0,0,0,0,0.1,0c0,0,0.1,0,0.1,0c0,0,0.1,0,0.1,0.1c0,0,0.1,0.1,0.1,0.1c0.1,0,0.1,0,0.2,0c0.1,0,0.2,0,0.3-0.1
		c0.1-0.1,0.1-0.1,0.1-0.2c0-0.1,0-0.1,0-0.1c0,0-0.1-0.1-0.1-0.1c0,0-0.1,0-0.2-0.1c-0.1,0-0.1,0-0.2-0.1c-0.1,0-0.1,0-0.2-0.1
		c-0.1,0-0.1-0.1-0.2-0.1c-0.1,0-0.1-0.1-0.1-0.2c0-0.1,0-0.2,0-0.3c0-0.1,0-0.2,0-0.2c0-0.1,0.1-0.1,0.1-0.2
		c0.1-0.1,0.1-0.1,0.2-0.1c0.1,0,0.2-0.1,0.3-0.1c0.1,0,0.3,0,0.4,0.1c0.1,0,0.2,0.1,0.3,0.2L49.1,33.5z M51.2,34.8
		C51.3,34.8,51.3,34.9,51.2,34.8l0.2,0.2c-0.1,0.1-0.2,0.2-0.3,0.3c-0.1,0.1-0.3,0.1-0.5,0.1c-0.2,0-0.3,0-0.5-0.1
		c-0.1-0.1-0.3-0.1-0.3-0.2c-0.1-0.1-0.2-0.2-0.2-0.4c-0.1-0.1-0.1-0.3-0.1-0.5c0-0.2,0-0.3,0.1-0.5c0.1-0.1,0.1-0.3,0.2-0.4
		c0.1-0.1,0.2-0.2,0.4-0.2c0.1-0.1,0.3-0.1,0.5-0.1c0.2,0,0.3,0,0.4,0.1c0.1,0.1,0.2,0.1,0.3,0.2l-0.1,0.2c0,0,0,0,0,0
		c0,0,0,0-0.1,0c0,0,0,0,0,0c0,0,0,0-0.1,0c0,0,0,0-0.1,0c0,0-0.1,0-0.1,0c0,0-0.1,0-0.1,0c0,0-0.1,0-0.2,0c-0.1,0-0.2,0-0.3,0.1
		c-0.1,0-0.2,0.1-0.2,0.2c-0.1,0.1-0.1,0.2-0.1,0.3c0,0.1-0.1,0.2-0.1,0.3c0,0.1,0,0.2,0.1,0.3c0,0.1,0.1,0.2,0.1,0.3
		c0.1,0.1,0.1,0.1,0.2,0.2c0.1,0,0.2,0.1,0.3,0.1c0.1,0,0.1,0,0.2,0c0,0,0.1,0,0.1,0c0,0,0.1,0,0.1-0.1
		C51.1,34.9,51.1,34.9,51.2,34.8C51.2,34.9,51.2,34.9,51.2,34.8C51.2,34.9,51.2,34.8,51.2,34.8z M53.7,33.1v2.3h-0.4v-1h-1.1v1h-0.4
		v-2.3h0.4v1h1.1v-1H53.7z M56.4,34.2c0,0.2,0,0.3-0.1,0.5c-0.1,0.1-0.1,0.3-0.2,0.4c-0.1,0.1-0.2,0.2-0.4,0.2
		c-0.1,0.1-0.3,0.1-0.5,0.1c-0.2,0-0.3,0-0.5-0.1c-0.1-0.1-0.3-0.1-0.4-0.2c-0.1-0.1-0.2-0.2-0.2-0.4c-0.1-0.1-0.1-0.3-0.1-0.5
		c0-0.2,0-0.3,0.1-0.5c0.1-0.1,0.1-0.3,0.2-0.4c0.1-0.1,0.2-0.2,0.4-0.2c0.1-0.1,0.3-0.1,0.5-0.1c0.1,0,0.2,0,0.3,0
		c0.1,0,0.2,0.1,0.3,0.1c0.1,0,0.2,0.1,0.2,0.2c0.1,0.1,0.1,0.1,0.2,0.2c0,0.1,0.1,0.2,0.1,0.3C56.4,34,56.4,34.1,56.4,34.2z
		 M56,34.2c0-0.1,0-0.2,0-0.3c0-0.1-0.1-0.2-0.1-0.3c-0.1-0.1-0.1-0.1-0.2-0.2c-0.1,0-0.2-0.1-0.3-0.1c-0.1,0-0.2,0-0.3,0.1
		c-0.1,0-0.2,0.1-0.2,0.2c-0.1,0.1-0.1,0.2-0.1,0.3c0,0.1-0.1,0.2-0.1,0.3c0,0.1,0,0.2,0.1,0.3c0,0.1,0.1,0.2,0.1,0.3
		c0.1,0.1,0.1,0.1,0.2,0.2c0.1,0,0.2,0.1,0.3,0.1c0.1,0,0.2,0,0.3-0.1c0.1,0,0.2-0.1,0.2-0.2c0.1-0.1,0.1-0.2,0.1-0.3
		C55.9,34.5,56,34.4,56,34.2z M58.9,34.2c0,0.2,0,0.3-0.1,0.5c-0.1,0.1-0.1,0.3-0.2,0.4c-0.1,0.1-0.2,0.2-0.4,0.2
		c-0.1,0.1-0.3,0.1-0.5,0.1c-0.2,0-0.3,0-0.5-0.1c-0.1-0.1-0.3-0.1-0.4-0.2c-0.1-0.1-0.2-0.2-0.2-0.4c-0.1-0.1-0.1-0.3-0.1-0.5
		c0-0.2,0-0.3,0.1-0.5c0.1-0.1,0.1-0.3,0.2-0.4c0.1-0.1,0.2-0.2,0.4-0.2c0.1-0.1,0.3-0.1,0.5-0.1c0.1,0,0.2,0,0.3,0
		c0.1,0,0.2,0.1,0.3,0.1c0.1,0,0.2,0.1,0.2,0.2c0.1,0.1,0.1,0.1,0.2,0.2c0,0.1,0.1,0.2,0.1,0.3C58.9,34,58.9,34.1,58.9,34.2z
		 M58.5,34.2c0-0.1,0-0.2-0.1-0.3c0-0.1-0.1-0.2-0.1-0.3c-0.1-0.1-0.1-0.1-0.2-0.2c-0.1,0-0.2-0.1-0.3-0.1c-0.1,0-0.2,0-0.3,0.1
		c-0.1,0-0.2,0.1-0.2,0.2c-0.1,0.1-0.1,0.2-0.1,0.3c0,0.1-0.1,0.2-0.1,0.3c0,0.1,0,0.2,0.1,0.3c0,0.1,0.1,0.2,0.1,0.3
		c0.1,0.1,0.1,0.1,0.2,0.2c0.1,0,0.2,0.1,0.3,0.1c0.1,0,0.2,0,0.3-0.1c0.1,0,0.2-0.1,0.2-0.2c0.1-0.1,0.1-0.2,0.1-0.3
		C58.5,34.5,58.5,34.4,58.5,34.2z M60.7,35v0.4h-1.3v-2.3h0.4V35H60.7L60.7,35z"/>
	<path class="st14" d="M49.7,50.8h9c0.7,0,1.3,0.6,1.3,1.3v0c0,0.7-0.6,1.3-1.3,1.3h-9c-0.7,0-1.3-0.6-1.3-1.3v0
		C48.4,51.4,49,50.8,49.7,50.8z"/>
	<polygon class="st13" points="54.3,17.1 55.1,17.1 55.1,23.4 54.3,23.4 	"/>
	<linearGradient id="SVGID_6_" gradientUnits="userSpaceOnUse" x1="55.0798" y1="18.9541" x2="60.831" y2="18.9541">
		<stop  offset="0" style="stop-color:#E13635"/>
		<stop  offset="1" style="stop-color:#EB6651"/>
	</linearGradient>
	<polygon class="st17" points="55.1,17.6 55.1,20.3 58.1,19.6 57.6,19.2 60.8,19.9 58.2,18.1 58.3,18.6 	"/>
	<path class="st16" d="M5.2,70.4h100.6c-0.3,0.9-0.6,1.9-0.9,2.8H6.1C5.8,72.2,5.5,71.3,5.2,70.4z"/>
	<path class="st4" d="M17,91H94c4.8-5.1,8.5-11.2,10.9-17.9H6.1C8.5,79.9,12.3,85.9,17,91z"/>
	<g>
		<path class="st1" d="M10.8,82.8h11.4v-1.5H10.3V82C10.5,82.3,10.6,82.6,10.8,82.8z"/>
		<polygon class="st1" points="25.2,82.8 37.1,82.8 37.1,81.3 25.2,81.3 		"/>
		<polygon class="st1" points="40.1,82.8 52,82.8 52,81.3 40.1,81.3 		"/>
		<polygon class="st1" points="55,82.8 66.9,82.8 66.9,81.3 55,81.3 		"/>
		<polygon class="st1" points="69.8,82.8 81.8,82.8 81.8,81.3 69.8,81.3 		"/>
		<path class="st1" d="M95.7,82.8h4.5c0.3-0.5,0.6-1,0.9-1.5h-5.4V82.8z"/>
	</g>
	<path class="st18" d="M94,91H17c9.6,10.3,23.3,16.8,38.5,16.8C70.7,107.8,84.4,101.3,94,91z"/>
	<path class="st1" d="M86.3,21c0.6,0,1.3,0.2,1.8,0.4c0.6-0.6,1.4-0.9,2.3-0.9c1.5,0,2.8,1.1,3.2,2.5c0.8,0.2,1.4,0.8,1.7,1.6
		c0.1,0,0.2,0,0.3,0c1.4,0,2.6,1.2,2.6,2.6c0,1.4-1.2,2.6-2.6,2.6c-0.4,0-0.9-0.1-1.2-0.3c-0.3,1.1-1.3,1.8-2.5,1.8
		c-0.7,0-1.4-0.3-1.8-0.8c-0.5,0.5-1.1,0.8-1.8,0.8c-0.7,0-1.3-0.3-1.8-0.7c-0.5,0.5-1.1,0.8-1.9,0.8c-0.7,0-1.3-0.3-1.8-0.7
		c-0.2,0-0.4,0.1-0.7,0.1c-1.7,0-3.1-1.4-3.1-3.1c0-1.7,1.4-3.1,3.1-3.1c0.1,0,0.2,0,0.3,0C82.5,22.6,84.2,21,86.3,21z"/>
	<path class="st19" d="M78.7,17c3,0,5.3,2.4,5.3,5.3s-2.4,5.3-5.3,5.3s-5.3-2.4-5.3-5.3S75.8,17,78.7,17z"/>
	<g>
		<path class="st20" d="M103.2,62.9c0,0.1-0.1,0.2-0.1,0.2c0.2-0.1,0.2,0,0.2,0c0.2,0,0,0.2,0,0.2c-0.1,0-0.1-0.1-0.1-0.1
			c-0.2,0.1-0.1,0.2-0.1,0.2c0.2,0,0.1,0.1,0.1,0.1l-0.1,0l-0.1,0.1l0,0l0.1,0l0,0.1l-0.1,0l0,0.1c0.1,0.2-0.3,0.3-0.3,0.3
			c-0.1,0.5-0.6,0.3-0.7,0.3c-0.1,0-0.2,0.1-0.3,0.1c-0.3,0-0.5,0-0.7-0.2c-0.1,0-0.3,0-0.3,0c-0.2,0-0.1-0.2-0.1-0.2
			c-0.1,0.3-0.3,0-0.3,0c-0.2-0.2,0-0.3,0-0.3c-0.1-0.1,0-0.2,0-0.2c-0.3-0.1-0.3-0.2-0.4-0.3c-0.1,0-0.2-0.1-0.3-0.1
			c-0.2,0.1-0.5,0.2-0.7,0.2c-0.6,0.1-1.2-0.1-1.7-0.4c-0.4,0.1-0.8,0-0.8,0c-0.4,0-0.3-0.6-0.3-0.6c-0.2,0.5-0.5,0.3-0.7,0.2
			c0,0.1-0.3,0.2-0.3,0.2c-0.1,0.5-0.6,0.3-0.7,0.3c-0.1,0-0.2,0.1-0.3,0.1c-0.3,0-0.5,0-0.7-0.2c-0.1,0-0.3,0-0.3,0
			c-0.2,0-0.1-0.2-0.1-0.2c-0.1,0.3-0.3,0-0.3,0c-0.2-0.2,0-0.3,0-0.3c-0.1-0.1,0-0.2,0-0.2c-0.4-0.1-0.4-0.4-0.4-0.4
			c-0.2-0.2,0-0.5,0-0.5c0,0,0,0-0.1-0.1c-0.2,0-0.5,0-0.6-0.2c-0.1,0-0.3,0-0.3,0c-0.2,0-0.1-0.2-0.1-0.2c-0.1,0.3-0.3,0-0.3,0
			c-0.2-0.2,0-0.3,0-0.3c-0.1-0.1,0-0.2,0-0.2c-0.4-0.1-0.4-0.4-0.4-0.4c-0.2-0.2,0-0.5,0-0.5c-0.2-0.1,0-0.3,0-0.3
			c-0.1-0.2,0.2-0.2,0.2-0.2c-0.2-0.4,0.2-0.5,0.2-0.5c0.1-0.2,0.3-0.1,0.3-0.1c0.1-0.2,0.4-0.1,0.4-0.1c-0.1-0.2,0.2-0.2,0.2-0.2
			c0.1,0,0.1,0,0.2,0c0,0,0,0,0,0c-0.2-0.2,0-0.5,0-0.5c-0.2-0.1,0-0.3,0-0.3c0-0.1,0-0.1,0-0.1c-0.2-0.4,0.1-0.8,0.1-0.8
			c-0.3-0.3,0-0.6,0-0.6c-0.1-0.3,0.4-0.3,0.4-0.3c-0.5-0.9,0.4-1,0.4-1c0.2-0.4,0.5-0.2,0.5-0.2c0.2-0.5,0.9-0.1,0.9-0.1
			c-0.2-0.4,0.4-0.4,0.4-0.4c0.4-0.2,0.7,0.3,0.7,0.3c0.3-0.3,0.5-0.4,0.6-0.5c-0.1-0.5,0.3-0.5,0.3-0.5c0.1-0.3,0.4-0.1,0.4-0.1
			c0.1-0.3,0.6-0.1,0.6-0.1c-0.1-0.3,0.3-0.3,0.3-0.3c0.3-0.2,0.5,0.2,0.5,0.2c0.5-0.7,0.8,0,0.8,0c0.9-0.4,1,0.4,1,0.4
			c0.2-0.2,0.4,0,0.6,0.3c0.1,0.2,0.1,0.4,0,0.5c0.1,0.1,0.2,0.2,0.2,0.2c0.7-0.9,1,0,1,0c1.1-0.6,1.3,0.5,1.3,0.5
			c0.2-0.3,0.5,0,0.8,0.4c0.3,0.4-0.1,0.8-0.1,0.8c0.3,0.3-0.2,0.5-0.2,0.5c0.3,0.2,0,0.5-0.1,0.5c0.3-0.2,0.4,0.1,0.4,0.1
			c0.4,0.1,0,0.4,0,0.4c-0.2,0.1-0.3-0.1-0.3-0.1c-0.2,0.1-0.3,0.2-0.2,0.2c0.6-0.1,0.7,0.4,0.7,0.4c0.2-0.2,0.4,0,0.6,0.3
			c0.2,0.3-0.1,0.5-0.1,0.5c0.2,0.2-0.1,0.3-0.1,0.3c0.2,0.2,0,0.3,0,0.4c0.2-0.2,0.3,0,0.3,0c0.3,0,0,0.3,0,0.3
			c-0.1,0-0.2-0.1-0.2-0.1c-0.1,0-0.1,0.1-0.1,0.1c0.2,0.1,0.2,0.3,0.2,0.3c0.1-0.2,0.3,0,0.5,0.2c0.2,0.2-0.1,0.4-0.1,0.4
			c0.2,0.1-0.1,0.2-0.1,0.2c0.1,0.1,0,0.3,0,0.3c0.2-0.1,0.2,0,0.2,0c0.2,0,0,0.2,0,0.2c-0.1,0-0.1-0.1-0.1-0.1
			c-0.2,0.1-0.1,0.2-0.1,0.2c0.2,0,0.1,0.1,0.1,0.1l-0.1,0l-0.1,0.1l0,0l0.1,0l0,0.1l-0.1,0l0,0.1c0.1,0.2-0.3,0.3-0.3,0.3
			c-0.1,0.5-0.6,0.3-0.7,0.3c-0.1,0-0.2,0.1-0.3,0.1C103.6,63.1,103.4,63,103.2,62.9L103.2,62.9z"/>
		<path class="st21" d="M98.3,71.2c0,0,0-0.3,0-1.1l-0.2-2.8c0,0,0-1,0.1-1.3c0,0,2-2,2.4-2.1c0,0,0.3-2.6,0.7-2.6l-0.4-0.2
			c0,0-0.3,2.4-0.6,2.8c0,0-0.9-3.5-0.8-3.9l-0.1,0.1c0,0,0.4,3.5,0.4,3.7l-0.6,0.6c0,0-0.2,0.6-0.3,0.3c0,0-1.1-0.7-0.6-4.3
			l-0.5-0.3l-0.4,2.4c0,0,0.3,0,0.1,0.6c0,0,0.5,1.5,0.4,1.6c0,0-0.1,0.7-0.4,0.5l-0.6-1.5c0,0-0.5-2.1-0.2-2.5l-0.1-0.2
			c0,0-0.2,1.1,0,1.8c0,0-1-1.1-1.3-1.1l0,0.2c0,0,0.2-0.4,1.2,1.1c0,0,0.7,1.9,0.7,2.3c0,0-0.1,1.2,0,1.4c0,0,0.6,3.1-0.4,4
			L98.3,71.2z"/>
	</g>
	<g>
		<polygon class="st1" points="49.4,70.4 59,70.4 59,71.1 49.4,71.1 		"/>
		<polygon class="st1" points="48.1,71.1 60.3,71.1 60.3,71.9 48.1,71.9 		"/>
		<polygon class="st1" points="46.8,71.9 61.6,71.9 61.6,73.2 46.8,73.2 		"/>
	</g>
	<g>
		<path class="st7" d="M50.1,75.4c0,0.5,0.2,0.9,0.4,0.9c0.2,0,0.4-0.4,0.4-0.9c0-0.5-0.2-0.9-0.4-0.9C50.2,74.6,50.1,75,50.1,75.4z
			"/>
		<path class="st4" d="M43.6,69.4h-1.2c-0.1,0-0.1-0.1-0.1-0.1c0-0.1,0.1-0.1,0.1-0.1h1.2c0.1,0,0.2,0.1,0.3,0.1l0,0
			c0.1,0.1,0.1,0.2,0.1,0.3c0,0.1-0.1,0.1-0.1,0.1c-0.1,0-0.1-0.1-0.1-0.1c0-0.1,0-0.1-0.1-0.1C43.7,69.5,43.6,69.4,43.6,69.4z"/>
		<g>
			<path class="st22" d="M34.1,78.9c0,0.2,0.1,0.3,0.3,0.3h6.3c0.2,0,0.3-0.1,0.3-0.3v-0.5c0-0.2-0.1-0.3-0.3-0.3h-6.3
				c-0.2,0-0.3,0.1-0.3,0.3V78.9z"/>
			<path class="st22" d="M50.5,76.2c0,0.2-0.2,0.4-0.4,0.4h-0.3c-0.2,0-0.4-0.2-0.4-0.4v-1.6c0-0.2,0.2-0.4,0.4-0.4h0.3
				c0.2,0,0.4,0.2,0.4,0.4V76.2z"/>
		</g>
		<path class="st23" d="M47.9,72H43v5.7h6.5V74C49.5,72.9,49,72,47.9,72z"/>
		<polygon class="st22" points="50,78.4 9.8,78.4 9.8,77.3 50,77.3 		"/>
		<path class="st23" d="M41.2,66.9H11.8c-1.1,0-2,0.9-2,2v9.2h33.3v-9.2C43.1,67.8,42.2,66.9,41.2,66.9z"/>
		<g>
			<polygon class="st22" points="43,76.1 9.8,76.1 9.8,75.5 43,75.5 			"/>
			<polygon class="st22" points="43,74.9 9.8,74.9 9.8,74.3 43,74.3 			"/>
			<polygon class="st24" points="43.1,69 9.8,69 9.8,68.7 43.1,68.7 			"/>
		</g>
		
			<linearGradient id="SVGID_7_" gradientUnits="userSpaceOnUse" x1="77.7491" y1="-12905.0264" x2="77.7491" y2="-12906.5283" gradientTransform="matrix(4.600000e-03 0 0 4.600000e-03 -298.6216 -479.0916)">
			<stop  offset="0" style="stop-color:#0C0C0C"/>
			<stop  offset="5.100000e-02" style="stop-color:#0C0C0C"/>
			<stop  offset="0.631" style="stop-color:#525252"/>
			<stop  offset="1" style="stop-color:#818181"/>
		</linearGradient>
		<path class="st25" d="M10.5,78.6c0,0-0.3,0-0.6,0c-0.3,0-0.4-0.1-0.4-0.4c0-0.3,0-1.2,0-1.2H11L10.5,78.6z"/>
		<path class="st4" d="M22,75.3c-1.7,0-3.1,1.4-3.1,3.1h6.2C25.1,76.7,23.7,75.3,22,75.3z"/>
		<path class="st26" d="M19,78.5c0.2-1.6,1.5-2.9,3-2.9c1.6,0,2.9,1.3,3,2.9h0.2c0,0,0,0,0,0c0-1.8-1.4-3.3-3.2-3.3
			c-1.8,0-3.2,1.6-3.2,3.3c0,0,0,0,0,0H19z"/>
		<path class="st27" d="M24.4,78.4c0,1.3-1.1,2.4-2.5,2.3c-1.3,0-2.4-1.1-2.3-2.5c0-1.3,1.1-2.4,2.5-2.3
			C23.4,76,24.4,77.1,24.4,78.4z"/>
		<path class="st1" d="M23.7,78.4c0,0.9-0.8,1.7-1.7,1.6c-0.9,0-1.7-0.8-1.6-1.7c0-0.9,0.8-1.7,1.7-1.6C23,76.7,23.7,77.5,23.7,78.4
			z"/>
		<path class="st23" d="M9.8,68.7h33.3c-0.1-1-0.9-1.8-1.9-1.8H11.8C10.7,66.9,9.9,67.7,9.8,68.7z"/>
		<path class="st28" d="M11.8,77c0-0.1,0-0.1,0.1-0.1h0.7c0.1,0,0.1,0,0.1,0.1v0.4c0,0.1,0,0.1-0.1,0.1h-0.7c-0.1,0-0.1,0-0.1-0.1
			V77z"/>
		<path class="st4" d="M44.3,71.6c0,0.1-0.1,0.3-0.3,0.3h-0.2c-0.1,0-0.3-0.1-0.3-0.3v-1.7c0-0.1,0.1-0.3,0.3-0.3h0.2
			c0.1,0,0.3,0.1,0.3,0.3V71.6z"/>
		<path class="st26" d="M43.6,73.6h5.7l0,0c0.4,0,0.8,0.3,0.8,0.8v3.7h-8.4v-2.6C41.6,74.5,42.5,73.6,43.6,73.6z"/>
		<path class="st22" d="M49.2,78.6c0,0,0.7,0,1,0c0.3,0,0.4-0.1,0.4-0.4c0-0.3,0-1.2,0-1.2h-1.8L49.2,78.6z"/>
		<path class="st4" d="M45.3,75.3c-1.7,0-3.1,1.4-3.1,3.1h6.2C48.4,76.7,47,75.3,45.3,75.3z"/>
		<path class="st23" d="M42.3,78.5c0.2-1.6,1.5-2.9,3-2.9s2.9,1.3,3,2.9h0.2c0,0,0,0,0,0c0-1.8-1.4-3.3-3.2-3.3s-3.2,1.6-3.2,3.3
			c0,0,0,0,0,0H42.3z"/>
		<path class="st27" d="M47.7,78.4c0,1.3-1.1,2.4-2.5,2.3c-1.3,0-2.4-1.1-2.3-2.5c0-1.3,1.1-2.4,2.5-2.3
			C46.7,76,47.8,77.1,47.7,78.4z"/>
		<path class="st1" d="M47,78.4c0,0.9-0.8,1.7-1.7,1.6c-0.9,0-1.7-0.8-1.6-1.7c0-0.9,0.8-1.7,1.7-1.6C46.3,76.7,47,77.5,47,78.4z"/>
	</g>
	<g>
		<path class="st29" d="M11.3,72.7h3.4c0.2,0,0.3-0.1,0.3-0.3v-2.2c0-0.2-0.1-0.3-0.3-0.3h-3.4c-0.2,0-0.3,0.1-0.3,0.3v2.2
			C11,72.5,11.1,72.7,11.3,72.7z"/>
		<path class="st29" d="M17.1,70.1v2.2c0,0.2,0.1,0.3,0.3,0.3h3.4c0.2,0,0.3-0.1,0.3-0.3v-2.2c0-0.2-0.1-0.3-0.3-0.3h-3.4
			C17.3,69.8,17.1,69.9,17.1,70.1z"/>
		<path class="st29" d="M23.3,70.1v2.2c0,0.2,0.1,0.3,0.3,0.3h3.4c0.2,0,0.3-0.1,0.3-0.3v-2.2c0-0.2-0.1-0.3-0.3-0.3h-3.4
			C23.5,69.8,23.3,69.9,23.3,70.1z"/>
		<path class="st29" d="M29.5,70.1v2.2c0,0.2,0.1,0.3,0.3,0.3h3.4c0.2,0,0.3-0.1,0.3-0.3v-2.2c0-0.2-0.1-0.3-0.3-0.3h-3.4
			C29.7,69.8,29.5,69.9,29.5,70.1z"/>
		<path class="st29" d="M35.5,70.1v2.2c0,0.2,0.1,0.3,0.3,0.3h3.4c0.2,0,0.3-0.1,0.3-0.3v-2.2c0-0.2-0.1-0.3-0.3-0.3h-3.4
			C35.7,69.8,35.5,69.9,35.5,70.1z"/>
		<path class="st29" d="M41,70v2.2c0,0.2,0.1,0.3,0.3,0.3h0.9c0.2,0,0.3-0.1,0.3-0.3V70c0-0.2-0.1-0.3-0.3-0.3h-0.9
			C41.2,69.7,41,69.9,41,70z"/>
	</g>
	<path class="st1" d="M84.7,85.3h10l-0.6-1.5h-9.4L84.7,85.3z M96.1,88.6c-0.4,0.5-0.8,1-1.3,1.5H84.7l-0.1-0.3l0-1.2L96.1,88.6
		L96.1,88.6z M93.1,81.3h-8.5l0,1.5h9.1L93.1,81.3z M84.6,75.6h6.2l-0.6-1.5l-5.6,0L84.6,75.6z M84.6,80.4h8.1l-0.6-1.5h-7.5
		L84.6,80.4z M84.6,78h7.1l-0.6-1.5h-6.5L84.6,78z M84.7,87.7h11l-0.6-1.5H84.7L84.7,87.7z"/>
</g>
</svg>
