<?xml version="1.0" encoding="utf-8"?>
<!-- Generator: Adobe Illustrator 22.0.1, SVG Export Plug-In . SVG Version: 6.00 Build 0)  -->
<svg version="1.1" id="Capa_1" xmlns="http://www.w3.org/2000/svg" xmlns:xlink="http://www.w3.org/1999/xlink" x="0px" y="0px"
	 viewBox="0 0 110 110" style="enable-background:new 0 0 110 110;" xml:space="preserve">
<style type="text/css">
	.st0{fill:#D4DCE6;}
	.st1{clip-path:url(#SVGID_3_);}
	.st2{fill:#421800;}
	.st3{fill:#F0D0B4;}
	.st4{fill:#B34FC5;}
	.st5{fill:#E7ECF2;}
</style>
<g>
	<g>
		<g>
			<circle id="SVGID_1_" class="st0" cx="55" cy="55" r="52.5"/>
		</g>
		<g>
			<defs>
				<circle id="SVGID_2_" cx="55" cy="55" r="52.5"/>
			</defs>
			<clipPath id="SVGID_3_">
				<use xlink:href="#SVGID_2_"  style="overflow:visible;"/>
			</clipPath>
			<g class="st1">
				<polygon class="st2" points="86,57.1 86,105.8 24.2,104.8 24.2,56 				"/>
				<path class="st3" d="M78.4,35v14.4c0,0.3,0,0.5,0,0.8c0,0.2,0,0.4,0,0.6c0,0.2,0,0.4,0,0.6c0,0.1,0,0.3,0,0.4c0,0.1,0,0.2,0,0.2
					c0,0.1,0,0.3,0,0.4c0,0.3-0.1,0.5-0.1,0.8c0,0.1,0,0.1,0,0.2c0,0.1,0,0.3-0.1,0.4v0c0,0.2-0.1,0.4-0.1,0.6
					c-0.1,0.3-0.1,0.6-0.2,0.8c0,0,0,0,0,0c0,0,0,0.1,0,0.1c0,0,0,0,0,0c0,0.1-0.1,0.3-0.1,0.4c0,0.1,0,0.1,0,0.2
					c0,0.1,0,0.2-0.1,0.3c0,0.1,0,0.1-0.1,0.2c0,0.1,0,0.1,0,0.1c-0.1,0.5-0.3,0.9-0.4,1.4c-0.1,0.2-0.1,0.4-0.2,0.6c0,0,0,0,0,0.1
					c-0.1,0.2-0.1,0.4-0.2,0.6c0,0.1,0,0.1-0.1,0.2c-0.1,0.2-0.1,0.4-0.2,0.6c-0.1,0.2-0.2,0.4-0.3,0.7c-0.1,0.2-0.2,0.4-0.3,0.6
					c0,0,0,0.1,0,0.1c-0.1,0.2-0.2,0.4-0.3,0.6c-0.1,0.2-0.2,0.4-0.3,0.6c-0.2,0.4-0.4,0.8-0.7,1.2l-0.3,0.6
					c-0.9,1.5-1.9,2.9-2.9,4.3c-0.1,0.2-0.3,0.4-0.4,0.6c-0.2,0.3-0.4,0.5-0.6,0.8c-0.2,0.2-0.4,0.4-0.6,0.6c0,0,0,0,0,0
					c-0.6,0.6-1.1,1.2-1.7,1.7c-0.1,0.1-0.2,0.2-0.4,0.3c-0.2,0.2-0.4,0.4-0.6,0.5c-0.2,0.1-0.3,0.3-0.5,0.4c-0.4,0.3-0.8,0.7-1.2,1
					c-0.2,0.1-0.4,0.3-0.5,0.4c-0.3,0.2-0.6,0.4-0.9,0.6c-0.2,0.1-0.3,0.2-0.5,0.3c-0.6,0.4-1.2,0.7-1.8,1c-0.1,0.1-0.3,0.1-0.4,0.2
					c-0.1,0.1-0.3,0.1-0.4,0.2c-0.2,0.1-0.4,0.2-0.6,0.2c-0.1,0-0.1,0.1-0.2,0.1c-0.2,0.1-0.5,0.2-0.7,0.3c-0.3,0.1-0.6,0.2-0.8,0.3
					c-0.2,0.1-0.4,0.1-0.6,0.2c0,0,0,0,0,0c-0.2,0-0.4,0.1-0.6,0.1c-0.1,0-0.1,0-0.2,0c-0.2,0-0.3,0.1-0.5,0.1
					c-0.2,0-0.5,0.1-0.7,0.1c-0.1,0-0.2,0-0.2,0c-0.2,0-0.4,0-0.5,0h0c-0.2,0-0.4,0-0.5,0c-0.1,0-0.1,0-0.2,0c-0.2,0-0.3,0-0.5,0
					c0,0-0.1,0-0.1,0c-0.2,0-0.4-0.1-0.6-0.1c-0.2,0-0.4-0.1-0.6-0.1c-1-0.2-2-0.6-3-1c-0.9-0.4-1.8-0.8-2.6-1.4
					c-0.4-0.3-0.9-0.6-1.3-0.9c-0.2-0.2-0.4-0.3-0.7-0.5c-0.7-0.5-1.4-1-2-1.6c-0.2-0.2-0.4-0.3-0.6-0.5c-0.2-0.2-0.4-0.3-0.5-0.5
					c-0.4-0.4-0.8-0.8-1.2-1.3c0,0-0.1-0.1-0.1-0.1c-0.2-0.2-0.3-0.4-0.5-0.6c-0.5-0.5-0.9-1.1-1.3-1.6c-0.2-0.2-0.3-0.4-0.5-0.6
					c-0.6-0.8-1.1-1.6-1.6-2.4c-0.1-0.2-0.3-0.5-0.4-0.7c-0.2-0.3-0.3-0.5-0.5-0.8c-0.6-1-1.1-2.1-1.6-3.2c-0.1-0.2-0.1-0.3-0.2-0.5
					c-0.1-0.2-0.2-0.4-0.2-0.6c-0.1-0.3-0.2-0.6-0.3-0.9c-0.1-0.3-0.2-0.6-0.3-0.9c-0.1-0.3-0.2-0.6-0.3-0.9c-0.1-0.3-0.2-0.6-0.3-1
					c0,0,0-0.1,0-0.1c-0.1-0.5-0.2-0.9-0.3-1.4c-0.1-0.6-0.2-1.3-0.3-1.9c0-0.2,0-0.4-0.1-0.6c0-0.2,0-0.4-0.1-0.6
					c0-0.4,0-0.8-0.1-1.2c0-0.3,0-0.5,0-0.8V35c0-12.5,9.8-22.7,22.1-23.3c0,0,0,0,0.1,0c0.2,0,0.3,0,0.5,0c0.2,0,0.5,0,0.7,0h0
					c0.2,0,0.5,0,0.7,0c0.2,0,0.4,0,0.6,0h0c1.3,0.1,2.6,0.3,3.8,0.5c1.5,0.3,3,0.8,4.4,1.5c1.9,0.8,3.7,1.9,5.2,3.2
					c1.3,1.1,2.5,2.3,3.6,3.7c3.1,3.9,4.9,8.8,5,14.2C78.4,34.9,78.4,35,78.4,35z"/>
				<path class="st3" d="M85.4,114.5L85.4,114.5l-60.9,0v0c0-3.4,0.6-6.7,1.6-9.7c0,0,0-0.1,0-0.1c0.2-0.6,0.4-1.1,0.6-1.7v0
					c0.2-0.5,0.5-1.1,0.7-1.6c1-2.1,2.3-4.1,3.7-5.9c0.4-0.5,0.7-0.9,1.1-1.3c0.2-0.2,0.4-0.4,0.6-0.6c0.2-0.2,0.4-0.4,0.6-0.6
					c1-1,2.1-2,3.3-2.8c0.6-0.4,1.2-0.8,1.8-1.2c0.1-0.1,0.2-0.1,0.2-0.1c0.2-0.1,0.4-0.3,0.7-0.4c0.3-0.2,0.6-0.4,0.9-0.5
					c0,0,0,0,0,0c0.2-0.1,0.5-0.3,0.7-0.4c0.7-0.4,1.4-0.9,2.1-1.4c2.8-2.2,4.9-5.2,6.1-8.6c0.4-1,0.6-2,0.8-3.1
					c0.2-1.1,0.3-2.2,0.3-3.4l4.4,0h0.1l4.5,0c0,1.1,0.1,2.2,0.3,3.3c0.2,1.1,0.5,2.1,0.8,3.1c1.2,3.4,3.3,6.4,6.1,8.6
					c0.4,0.3,0.8,0.6,1.3,0.9c0,0,0.1,0.1,0.1,0.1c0.2,0.1,0.4,0.3,0.6,0.4c0.2,0.1,0.5,0.3,0.7,0.4c0,0,0.1,0,0.1,0.1
					c0.5,0.3,1,0.6,1.5,0.9c0,0,0.1,0,0.1,0.1c0.2,0.1,0.4,0.2,0.6,0.4c0.5,0.3,0.9,0.6,1.4,1c0,0,0,0,0,0h0
					c0.6,0.4,1.1,0.9,1.7,1.4c0.6,0.5,1.1,1,1.6,1.5c3.3,3.3,5.8,7.3,7.4,11.8C84.9,107.8,85.4,111.1,85.4,114.5z"/>
				<path class="st4" d="M85.4,114.5H24.6c0-3.4,0.6-6.7,1.6-9.7c0,0,0-0.1,0-0.1c0.2-0.6,0.4-1.1,0.6-1.7v0
					c0.2-0.5,0.5-1.1,0.7-1.6c1-2.1,2.3-4.1,3.7-5.9c0.4-0.5,0.7-0.9,1.1-1.3c0.2-0.2,0.4-0.4,0.6-0.6c0.2-0.2,0.4-0.4,0.6-0.6
					c1-1,2.1-2,3.3-2.8c0.6-0.4,1.2-0.8,1.8-1.2c0.1-0.1,0.2-0.1,0.2-0.1c0.2-0.1,0.4-0.3,0.7-0.4c0.3-0.2,0.6-0.4,0.9-0.5
					c0,0,0,0,0,0v0c0.2-0.1,0.5-0.3,0.7-0.4c0.7-0.4,1.4-0.9,2-1.4c0,0,0,0,0,0c3,3,7.1,4.9,11.7,4.9h0.1c4.6,0,8.7-1.9,11.7-4.9
					l0,0c0.4,0.3,0.8,0.7,1.3,0.9c0,0,0.1,0.1,0.1,0.1c0.2,0.1,0.4,0.3,0.6,0.4c0.2,0.1,0.5,0.3,0.7,0.4c0,0,0.1,0,0.1,0.1
					c0.5,0.3,1,0.6,1.5,0.9c0,0,0.1,0,0.1,0.1c0.2,0.1,0.4,0.2,0.6,0.4c0.5,0.3,0.9,0.6,1.4,1h0c0.6,0.4,1.1,0.9,1.7,1.4
					c0.6,0.5,1.1,1,1.6,1.5c3.3,3.3,5.8,7.3,7.4,11.8C84.9,107.8,85.4,111.1,85.4,114.5z"/>
				<path class="st2" d="M86.1,97.7c0,0-0.1,0-0.1,0c-3,0.8-14.9-13.6-15-28.6c0-1.2,0.1-2.4,0.2-3.6c0.4-3.2,2-6.4,3.3-9.5
					c1-2.5,1.9-5,1.9-7.5c0-13.8-4-9.3-15.1-16.7c-2.7-1.8-4.6-3.3-6.1-4.5c-4.1-3.3-5.2-4.5-10.9-4.5c-7.2,0-10.1,12.5-10.9,17.9
					c-0.9,5.8-0.9,15.1,2.7,24c2.8,6.9,2.8,13.7-2.7,21.2c-2.1,2.8-5.2,12.3-9.1,15.4c-1.2,1-2.5,1.3-3.9,0.6
					C9.6,96.4,16,78.8,19.2,67.8C22.7,56,23.7,44,26.2,32c2.8-13.5,14.4-21.7,19-18.4c1.6-2.8,5.6-3.8,9.8-3.8c3,0,6.2,0.6,8.4,1.4
					c17,6.6,17.3,22.4,18.2,28.9C82.4,45.6,85,50.7,86,56v0c0.2,1.1,0.3,2.3,0.3,3.4c0,6.3-0.7,10.5,4.1,15.7
					C94,79.1,91.2,95.4,86.1,97.7z"/>
				<g>
					<path class="st5" d="M55.1,90.9L55.1,90.9L55.1,90.9c-1.6,2.6-4.3,3.9-7,3.9c-2.2,0-4.4-0.9-6.1-2.6l-3.1-3.3
						c0.5-0.3,1.1-0.7,1.6-1c0,0,0,0,0,0v0c0.2-0.1,0.5-0.3,0.7-0.4c0.7-0.4,1.4-0.9,2-1.4c0,0,0,0,0,0C46.3,89,50.4,90.9,55.1,90.9
						L55.1,90.9L55.1,90.9z"/>
					<path class="st5" d="M71.2,88.8l-3.1,3.3c-1.7,1.8-3.9,2.6-6.1,2.6c-2.7,0-5.4-1.3-7-3.8l0,0l0,0c4.6,0,8.7-1.9,11.7-4.9l0,0
						c0.4,0.3,0.8,0.7,1.3,0.9c0,0,0.1,0.1,0.1,0.1c0.2,0.1,0.4,0.3,0.6,0.4c0.2,0.1,0.5,0.3,0.7,0.4c0,0,0.1,0,0.1,0.1
						c0.5,0.3,1,0.6,1.5,0.9C71.1,88.7,71.2,88.8,71.2,88.8z"/>
				</g>
			</g>
		</g>
	</g>
</g>
</svg>
