<?xml version="1.0" encoding="utf-8"?>
<!-- Generator: Adobe Illustrator 22.0.1, SVG Export Plug-In . SVG Version: 6.00 Build 0)  -->
<svg version="1.1" id="Layer_1" xmlns="http://www.w3.org/2000/svg" xmlns:xlink="http://www.w3.org/1999/xlink" x="0px" y="0px"
	 viewBox="0 0 110 110" style="enable-background:new 0 0 110 110;" xml:space="preserve">
<style type="text/css">
	.st0{fill:#2D4452;}
	.st1{fill:#233540;}
	.st2{fill:#FFD464;}
	.st3{fill:#F2C95F;}
	.st4{fill:#FFC066;}
	.st5{fill:#F2B661;}
	.st6{fill:#E78244;}
	.st7{fill:#D97A40;}
	.st8{fill:#F5F5F5;}
	.st9{fill:#242424;}
</style>
<g>
	<circle class="st0" cx="55" cy="55" r="52.5"/>
	<path class="st1" d="M103.7,74.7c-0.1-0.2-0.1-0.3-0.2-0.5c-0.1-0.2-0.1-0.4-0.2-0.5c-0.1-0.2-0.1-0.3-0.2-0.5
		c-0.1-0.2-0.1-0.4-0.2-0.5c-0.1-0.2-0.1-0.4-0.2-0.5c-0.1-0.2-0.1-0.4-0.2-0.5c-0.1-0.2-0.1-0.3-0.2-0.5c-0.1-0.2-0.1-0.4-0.2-0.5
		c-0.1-0.2-0.1-0.4-0.2-0.5c-0.1-0.2-0.1-0.4-0.2-0.5c-0.1-0.2-0.1-0.3-0.2-0.5c-0.1-0.2-0.1-0.4-0.2-0.5c-0.1-0.2-0.1-0.3-0.2-0.5
		c-0.1-0.2-0.1-0.4-0.2-0.5c-0.1-0.2-0.1-0.4-0.2-0.5c-0.1-0.2-0.1-0.3-0.2-0.5c-0.1-0.2-0.1-0.4-0.2-0.5c-0.1-0.2-0.1-0.4-0.2-0.5
		c-0.1-0.2-0.1-0.4-0.2-0.5c-0.1-0.2-0.1-0.4-0.2-0.5c-0.1-0.2-0.1-0.4-0.2-0.5c-0.1-0.2-0.1-0.4-0.2-0.5c-0.1-0.2-0.1-0.4-0.2-0.5
		c-0.1-0.2-0.1-0.4-0.2-0.5c-0.1-0.2-0.1-0.4-0.2-0.5c-0.1-0.2-0.1-0.4-0.2-0.5c-0.1-0.2-0.1-0.4-0.2-0.5c-0.1-0.2-0.1-0.4-0.2-0.5
		c-0.1-0.2-0.1-0.3-0.2-0.5c-0.1-0.2-0.1-0.3-0.2-0.5c-0.1-0.2-0.1-0.4-0.2-0.5c-0.1-0.2-0.1-0.4-0.2-0.5c-0.1-0.2-0.1-0.3-0.2-0.5
		c-0.1-0.2-0.1-0.4-0.2-0.5c-0.1-0.2-0.1-0.4-0.2-0.5c-0.1-0.2-0.1-0.4-0.2-0.5c-0.1-0.2-0.1-0.4-0.2-0.5c-0.1-0.2-0.1-0.3-0.2-0.5
		c-0.1-0.2-0.1-0.4-0.2-0.5c-0.1-0.2-0.1-0.4-0.2-0.5c-0.1-0.2-0.1-0.4-0.2-0.5c-0.1-0.2-0.1-0.3-0.2-0.5c-0.1-0.2-0.1-0.4-0.2-0.5
		c-0.1-0.2-0.1-0.4-0.2-0.5c-0.1-0.2-0.1-0.4-0.2-0.5c-0.1-0.2-0.1-0.3-0.2-0.5c-0.1-0.2-0.1-0.4-0.2-0.5c-0.1-0.2-0.1-0.4-0.2-0.5
		c-0.1-0.2-0.1-0.4-0.2-0.5c-0.1-0.2-0.1-0.3-0.2-0.5c-0.1-0.2-0.1-0.4-0.2-0.5c-0.1-0.2-0.1-0.4-0.2-0.5c-0.1-0.2-0.1-0.4-0.2-0.5
		c-0.1-0.2-0.1-0.4-0.2-0.5c-0.1-0.2-0.1-0.3-0.2-0.5c-0.1-0.2-0.1-0.4-0.2-0.5c-0.1-0.2-0.1-0.4-0.2-0.5c-0.1-0.2-0.1-0.4-0.2-0.5
		c-0.1-0.2-0.1-0.3-0.2-0.5c-0.1-0.2-0.1-0.4-0.2-0.5c-0.1-0.2-0.1-0.4-0.2-0.5c-0.1-0.2-0.1-0.4-0.2-0.5C91,43.3,91,43.2,90.9,43
		c-0.1-0.2-0.1-0.4-0.2-0.5c-0.1-0.2-0.1-0.4-0.2-0.5c-0.1-0.2-0.1-0.4-0.2-0.5c-0.1-0.2-0.1-0.3-0.2-0.5c-0.1-0.2-0.1-0.4-0.2-0.5
		c-0.1-0.2-0.1-0.4-0.2-0.5c-0.1-0.2-0.1-0.4-0.2-0.5c-0.1-0.2-0.1-0.4-0.2-0.5c-0.1-0.2-0.1-0.3-0.2-0.5c-0.1-0.2-0.1-0.4-0.2-0.5
		c-0.3-0.8-0.8-1.4-1.5-1.4c-0.2,0-0.4,0-0.6,0.1c-1.5,0.3-2.6,1.7-4.3,1.8c-0.4,0-0.7,0-1-0.1c-0.2-0.1-0.3-0.1-0.5-0.2
		c0,0,0,0,0,0c-0.5-0.3-0.9-0.6-1.3-1c0,0,0,0,0,0c-0.2-0.3-0.5-0.6-0.7-0.8c0,0,0,0,0,0c-0.1-0.1-0.2-0.3-0.3-0.4
		c0-0.1-0.1-0.1-0.1-0.2c0,0,0,0,0,0c-0.1-0.2-0.1-0.3-0.2-0.5c-0.1-0.2-0.1-0.3-0.2-0.5c-1.7-4.6-6.3-8-11.9-8
		c-6.9,0-12.5,5.2-12.5,11.7c0,1.5,0.3,2.9,0.9,4.2c0.1,0.2,0.1,0.3,0.2,0.5c0.1,0.2,0.1,0.3,0.2,0.5c0.1,0.2,0.1,0.3,0.2,0.5
		c0.1,0.2,0.1,0.3,0.2,0.5c0.1,0.2,0.1,0.3,0.2,0.5c0.1,0.2,0.1,0.3,0.2,0.5c0.1,0.2,0.1,0.3,0.2,0.5c0.1,0.2,0.1,0.3,0.2,0.5
		c0.1,0.2,0.1,0.3,0.2,0.5c0.1,0.2,0.1,0.3,0.2,0.5c0.1,0.2,0.1,0.3,0.2,0.5c0.1,0.2,0.1,0.3,0.2,0.5c0.1,0.2,0.1,0.3,0.2,0.5
		c0.1,0.2,0.1,0.3,0.2,0.5c0.1,0.2,0.1,0.3,0.2,0.5c0.1,0.2,0.1,0.3,0.2,0.5c0.1,0.2,0.1,0.3,0.2,0.5c0.1,0.2,0.1,0.3,0.2,0.5
		c0.1,0.2,0.1,0.3,0.2,0.5c0,0.1,0.1,0.2,0.1,0.4c-0.1,2.5-1.3,4.1-2.2,5.1c-0.5,0.5-1,0.7-1.7,0.7v0H22.9c-1.1,0-2,0.6-2,1.7
		c0,1.1,0.2,2.2,0.7,3.2c0.1,0.2,0.1,0.3,0.2,0.5c0.1,0.2,0.1,0.3,0.2,0.5c0.1,0.2,0.1,0.3,0.2,0.5c0.1,0.2,0.1,0.3,0.2,0.5
		c0.1,0.2,0.1,0.3,0.2,0.5c0.1,1.4,0.3,2.8,0.3,3.9c0,1.1,0.3,2.4,0.8,3.8c0.1,0.2,0.1,0.3,0.2,0.5c0.1,0.2,0.1,0.3,0.2,0.5
		c0.1,0.2,0.1,0.3,0.2,0.5c0.1,0.2,0.1,0.3,0.2,0.5c0.1,0.2,0.1,0.3,0.2,0.5c0.1,0.2,0.1,0.3,0.2,0.5c0.1,0.2,0.1,0.3,0.2,0.5
		c0.1,0.2,0.1,0.3,0.2,0.5c0.1,0.2,0.1,0.3,0.2,0.5c0.1,0.2,0.1,0.3,0.2,0.5c0.1,0.2,0.1,0.3,0.2,0.5c0.1,0.2,0.1,0.3,0.2,0.5
		c0.1,0.2,0.1,0.3,0.2,0.5c0.1,0.2,0.1,0.3,0.2,0.5c0.1,0.2,0.1,0.3,0.2,0.5c0.1,0.2,0.1,0.3,0.2,0.5c0.1,0.2,0.1,0.3,0.2,0.5
		c0.1,0.2,0.1,0.3,0.2,0.5c0.1,0.2,0.1,0.3,0.2,0.5c0.1,0.2,0.1,0.3,0.2,0.5c0.1,0.2,0.1,0.3,0.2,0.5c0.1,0.2,0.1,0.3,0.2,0.5
		c0.1,0.2,0.1,0.3,0.2,0.5c0.1,0.2,0.1,0.3,0.2,0.5c0.1,0.2,0.1,0.3,0.2,0.5c0.1,0.2,0.1,0.3,0.2,0.5c0.1,0.2,0.1,0.3,0.2,0.5
		c0.1,0.2,0.1,0.3,0.2,0.5c0.1,0.2,0.1,0.3,0.2,0.5c0.1,0.2,0.1,0.3,0.2,0.5c0.1,0.2,0.1,0.3,0.2,0.5c0.1,0.2,0.1,0.3,0.2,0.5
		c0.1,0.2,0.1,0.3,0.2,0.5c0.1,0.2,0.1,0.3,0.2,0.5c0.1,0.2,0.1,0.3,0.2,0.5c0.1,0.2,0.1,0.3,0.2,0.5c0.1,0.2,0.1,0.3,0.2,0.5
		c0.1,0.2,0.1,0.3,0.2,0.5c0.1,0.2,0.1,0.3,0.2,0.5c0.1,0.2,0.1,0.3,0.2,0.5c0.1,0.2,0.1,0.3,0.2,0.5c0.1,0.2,0.1,0.3,0.2,0.5
		c0.1,0.2,0.1,0.3,0.2,0.5c0.1,0.2,0.1,0.3,0.2,0.5c0.1,0.2,0.1,0.3,0.2,0.5c0.1,0.2,0.1,0.3,0.2,0.5c0.1,0.2,0.1,0.3,0.2,0.5
		c0.1,0.2,0.1,0.3,0.2,0.5c0.1,0.2,0.1,0.3,0.2,0.5c0.1,0.2,0.1,0.3,0.2,0.5c0.1,0.2,0.1,0.3,0.2,0.5c0.1,0.2,0.1,0.3,0.2,0.5
		c0.1,0.2,0.1,0.3,0.2,0.5c0.1,0.2,0.1,0.3,0.2,0.5c0.1,0.2,0.1,0.3,0.2,0.5c0.1,0.2,0.1,0.3,0.2,0.5c0.1,0.2,0.1,0.3,0.2,0.5
		c0.1,0.2,0.1,0.3,0.2,0.5c0.1,0.2,0.1,0.3,0.2,0.5c0.1,0.2,0.1,0.3,0.2,0.5c0.1,0.1,0.1,0.3,0.2,0.4c5.9,2.3,12.2,3.6,18.9,3.6
		C77,107.5,95.9,93.9,103.7,74.7z"/>
	<path class="st2" d="M72.6,47.5L68.7,48c0,0.1-5.8-1.8-6-5.4c0-0.3,0-0.6,0-0.8h-4c0,0.2-4,1.2-3.7,1.5c6,8.1,3.3,12.3,1.4,14.2
		c-0.5,0.5-1,0.7-1.7,0.7v3.4H24.9c-3.5,0-2,5.2-2,8c0,5.2,5,13.9,23.9,13.9c16.9,0,27.8-5.5,27.8-13.9
		C74.6,63.6,72.7,48.1,72.6,47.5z"/>
	<path class="st3" d="M72.6,47.5l-3.7,0.5c0.6,4.7,1.7,15,1.7,19.7c0,8.5-10.9,13.9-27.8,13.9c-5.8,0-10.3-0.8-13.8-2.1
		c3.7,2.4,9.3,4.1,17.7,4.1c16.9,0,27.8-5.5,27.8-13.9C74.6,63.6,72.7,48.1,72.6,47.5z"/>
	<path class="st4" d="M41,71.1c-11.8,0-20-4.4-20-11.2c0-1.1,0.9-1.7,2-1.7h35.8c1.1,0,2,0.6,2,1.7C60.7,66.8,52.8,71.1,41,71.1z"/>
	<path class="st5" d="M58.7,58.3h-2.5c1.1,0,2,0.6,2,1.7c0,6.7-7.5,10.9-18.7,11.2c0.5,0,0.9,0,1.4,0c11.8,0,19.7-4.3,19.7-11.2
		C60.7,58.9,59.8,58.3,58.7,58.3z"/>
	<ellipse class="st2" cx="66.3" cy="38.2" rx="12.5" ry="11.7"/>
	<path class="st3" d="M66.3,26.5c-0.4,0-0.8,0-1.2,0.1c6.3,0.6,11.3,5.6,11.3,11.7s-5,11.1-11.3,11.7c0.4,0,0.8,0.1,1.2,0.1
		c6.9,0,12.5-5.2,12.5-11.7S73.2,26.5,66.3,26.5z"/>
	<path class="st6" d="M78.4,35.3c-0.2,3.1-5.9,6-1.5,9c0.8,0.3,3.5,1.1,5.9,0.8c4.2-0.5,6.2-2.9,6.2-5.7c0-1.6-0.6-2.9-1.7-2.9
		c-1.8,0-2.9,1.7-4.9,1.8C80.4,38.5,79.3,36.5,78.4,35.3z"/>
	<g>
		<path class="st7" d="M80.9,38.3c0.2,0,0.4-0.1,0.6-0.1c-1.5-0.4-2.4-2-3.1-2.9c0,0.5-0.2,1-0.5,1.5C78.7,37.7,79.6,38.4,80.9,38.3
			z"/>
		<path class="st7" d="M87.4,36.5c-0.4,0-0.7,0.1-1,0.2c0.7,0.4,1.1,1.5,1.1,2.7c0,2.8-2,5.2-6.2,5.7c-0.1,0-0.2,0-0.3,0
			c0.7,0,1.3,0.1,2,0c4.2-0.5,6.2-2.9,6.2-5.7C89.1,37.9,88.4,36.5,87.4,36.5z"/>
	</g>
	<circle class="st8" cx="68.4" cy="35.7" r="2.5"/>
	<circle class="st9" cx="68.4" cy="35.7" r="1.6"/>
</g>
</svg>
