<?xml version="1.0" encoding="utf-8"?>
<!-- Generator: Adobe Illustrator 22.0.1, SVG Export Plug-In . SVG Version: 6.00 Build 0)  -->
<svg version="1.1" id="Layer_1" xmlns="http://www.w3.org/2000/svg" xmlns:xlink="http://www.w3.org/1999/xlink" x="0px" y="0px"
	 viewBox="0 0 110 110" style="enable-background:new 0 0 110 110;" xml:space="preserve">
<style type="text/css">
	.st0{clip-path:url(#SVGID_2_);fill:none;}
	.st1{clip-path:url(#SVGID_2_);}
	.st2{fill:#AF8066;}
	.st3{fill:#7F5B53;}
	.st4{fill:#FDD7AD;}
	.st5{fill:#F09372;}
	.st6{fill:#285680;}
	.st7{fill:#2C3E50;}
	.st8{fill:#ECF0F1;}
	.st9{fill:#9FC9D3;}
	.st10{fill:#35495E;}
	.st11{fill:#67B9CC;}
</style>
<g>
	<defs>
		<circle id="SVGID_1_" cx="55.5" cy="55.3" r="52.5"/>
	</defs>
	<use xlink:href="#SVGID_1_"  style="overflow:visible;fill:#A3D49C;"/>
	<clipPath id="SVGID_2_">
		<use xlink:href="#SVGID_1_"  style="overflow:visible;"/>
	</clipPath>
	<circle class="st0" cx="55.5" cy="55.3" r="52.5"/>
	<g class="st1">
		<path class="st2" d="M76.3,64.5c1.4,0,2.5-1.1,2.5-2.5c0-1.4-1.1-2.4-2.5-2.5h0c0-0.2,0-1.6,0-1.8c-0.2-11.4-9.5-20.4-20.9-20.3
			c-11.4-0.2-20.7,8.9-20.9,20.3c0,0.2,0,1.6,0,1.8h0c-1.4,0-2.4,1.1-2.5,2.5c0,1.4,1.1,2.5,2.5,2.5c0,0,1.2,6.1-1.2,11.1
			c-2.2,4.4-1.5,9.7,2.2,12.6l0,0c1.9-1.8,4.1-3,6.6-3.6h4.4l8,7.4l0.9,0.8l0.9-0.9l7.3-7.3h5.2c2.5,0.6,4.7,1.8,6.6,3.6l3.3-9.5
			c-0.2-1.1-0.5-2.1-1-3C75.1,70.6,76.3,64.5,76.3,64.5z"/>
		<path class="st3" d="M78.6,78.6l-3.3,9.5c-1.8-1.7-4.1-3-6.6-3.6h-5.2l-7.3,7.3l-0.9,0.9l-0.9-0.8l-8-7.4h-4.4
			c-2.5,0.6-4.8,1.8-6.6,3.6l0,0c-3.7-2.9-4.4-8.2-2.2-12.6c2.5-4.9,1.2-11.1,1.2-11.1h2.8c-0.1-0.3-0.1-0.5-0.1-0.8
			c0,0.2,0.1,0.5,0.1,0.7c0.1,0.6,0.3,1.2,0.5,1.8l0.2,0.6c0.1,0.2,0.2,0.4,0.2,0.6c0.7,1.6,1.6,3.1,2.8,4.3
			c0.3,0.3,0.6,0.6,0.9,0.9c0.1,0.1,0.3,0.3,0.4,0.4c0.3,0.3,0.6,0.5,0.9,0.8c0,0,0,0,0.1,0c0.3,0.3,0.7,0.5,1,0.7
			c0.4,0.2,0.7,0.5,1.1,0.7c0.4,0.2,0.8,0.4,1.2,0.6c0.3,0.2,0.7,0.3,1,0.5l0.4,0.2c0.3,0.1,0.6,0.2,0.8,0.3
			c0.1,0.1,0.2,0.1,0.4,0.1c0.3,0.1,0.6,0.2,0.9,0.3c0.1,0,0.3,0.1,0.4,0.1c0.1,0,0.1,0,0.2,0c0.3,0.1,0.5,0.1,0.8,0.2
			c0.2,0,0.4,0.1,0.6,0.1c0.2,0,0.5,0.1,0.7,0.1c0.2,0,0.4,0.1,0.7,0.1c0.3,0,0.6,0,0.9,0.1c0.3,0,0.6,0,0.9,0s0.6,0,0.9,0
			c0.3,0,0.6,0,0.9-0.1c0.2,0,0.4,0,0.7-0.1c0.2,0,0.5-0.1,0.7-0.1c0.2,0,0.4-0.1,0.6-0.1c0.3,0,0.5-0.1,0.8-0.2c0.1,0,0.1,0,0.2,0
			c0.1,0,0.3-0.1,0.4-0.1c0.4-0.1,0.7-0.2,1-0.3c0,0,0,0,0,0c0.4-0.1,0.8-0.3,1.1-0.4c0.1,0,0.2-0.1,0.3-0.1
			c0.7-0.3,1.4-0.7,2.1-1.1c0.7-0.4,1.4-0.9,2.1-1.4c0,0,0.1-0.1,0.1-0.1c0.3-0.2,0.6-0.5,0.9-0.8c0.3-0.3,0.6-0.6,0.9-0.9
			c0.3-0.3,0.6-0.6,0.8-0.9c0.2-0.2,0.4-0.5,0.6-0.7c0.7-0.9,1.3-1.9,1.7-3c0.1-0.2,0.2-0.4,0.2-0.6c0.3-0.8,0.6-1.6,0.7-2.4h2.8
			c0,0-1.2,6.1,1.2,11.1C78,76.5,78.4,77.5,78.6,78.6z"/>
		<path class="st4" d="M60.9,84.5l-1.8,2.7l-3.7,5.5l-3.7-5.5L50,84.5H60.9z"/>
		<path class="st4" d="M51.7,77.7h7.4v9.5h-7.4V77.7z"/>
		<path class="st5" d="M51.7,88.4c-0.7,0-1.2-0.6-1.2-1.2v-9.5c0-0.7,0.6-1.2,1.2-1.2c0.7,0,1.2,0.6,1.2,1.2v9.5
			C53,87.9,52.4,88.4,51.7,88.4z"/>
		<path class="st5" d="M59.1,88.4c-0.7,0-1.2-0.6-1.2-1.2v-9.5c0-0.7,0.6-1.2,1.2-1.2c0.7,0,1.2,0.6,1.2,1.2v9.5
			C60.3,87.9,59.8,88.4,59.1,88.4z"/>
		<path class="st6" d="M80,104.3v2c0,1.4-1.1,2.5-2.5,2.5H33.3c-1.4,0-2.5-1.1-2.5-2.5v-7.4c0-6.8,4.7-12.7,11.3-14.3h4.4l8,7.4
			l0.9,0.8l0.9-0.9l7.3-7.3h5.2c2.5,0.6,4.7,1.8,6.6,3.6c0.3,0.3,0.7,0.6,1,1l2.7,10.9L80,104.3z"/>
		<path class="st5" d="M59.1,77.7v2.4c-2.4,0.5-4.9,0.5-7.4,0v-2.4H59.1z"/>
		<path class="st7" d="M56.7,92.7v16h-2.5v-16c0-0.3,0.1-0.6,0.3-0.8l0.9,0.8l0.9-0.9C56.5,92.1,56.6,92.4,56.7,92.7z"/>
		<path class="st8" d="M55.4,92.7l-3.8,4.7c-0.3,0.3-0.6,0.5-1,0.5c-0.4,0-0.8-0.3-1-0.6l-7-12c-0.2-0.3-0.2-0.7-0.1-1
			c0.1-0.3,0.4-0.6,0.7-0.7l3.9-1.6c0.5-0.2,1.2,0,1.5,0.5l1.4,2l1.8,2.7L55.4,92.7z"/>
		<path class="st8" d="M68.2,85.4l-7,12c-0.2,0.3-0.6,0.6-1,0.6c-0.4,0-0.8-0.1-1-0.5l-3.8-4.7l3.7-5.5l1.8-2.7l1.4-2
			c0.3-0.5,0.9-0.7,1.5-0.5l3.9,1.6c0.3,0.1,0.6,0.4,0.7,0.7C68.4,84.7,68.4,85.1,68.2,85.4z"/>
		<path class="st4" d="M37.9,66.2c-0.2-0.6-0.4-1.2-0.5-1.8c-0.1-0.3-0.1-0.5-0.1-0.8c0,0.2,0.1,0.5,0.1,0.7
			C37.5,65,37.7,65.6,37.9,66.2z"/>
		<path class="st2" d="M76.3,57.7c0,0.2,0,1.6,0,1.8h-2.5c0-0.4-0.1-0.9-0.2-1.3c-0.1-0.3-0.1-0.7-0.2-1c0,0,0,0,0,0v0
			c-0.8-1.8-1.9-3.5-3.2-5c-10.2,0.8-15.7-3-18.1-5.4c-0.6-0.6-1.1-1.2-1.6-1.9c-0.2,0.5-0.4,1-0.7,1.4c-1.1,1.8-3.9,5-10.3,6.8
			c-0.4,0.1-0.8,0.2-1.3,0.4L37.6,57v0c-0.1,0.4-0.2,0.8-0.3,1.3c-0.1,0.4-0.1,0.9-0.2,1.3h-2.5c0-0.2,0-1.6,0-1.8
			c0.2-11.4,9.5-20.4,20.9-20.3C66.8,37.3,76.1,46.3,76.3,57.7z"/>
		<path class="st4" d="M73.9,61.1c0,0.6,0,1.2-0.1,1.7c-0.1,0.5-0.1,1.1-0.3,1.6c-0.2,0.8-0.4,1.6-0.7,2.4c-0.1,0.2-0.2,0.4-0.2,0.6
			c-0.5,1.1-1,2.1-1.7,3c-0.2,0.3-0.4,0.5-0.6,0.7c-0.3,0.3-0.6,0.6-0.8,0.9c-0.3,0.3-0.6,0.6-0.9,0.9c-0.3,0.3-0.6,0.5-0.9,0.8
			c0,0-0.1,0.1-0.1,0.1c-0.7,0.5-1.3,1-2.1,1.4c-0.7,0.4-1.4,0.8-2.1,1.1c-0.1,0-0.2,0.1-0.3,0.1c-0.4,0.1-0.7,0.3-1.1,0.4
			c0,0,0,0,0,0c-0.3,0.1-0.7,0.2-1,0.3c-0.1,0-0.3,0.1-0.4,0.1c-0.1,0-0.1,0-0.2,0c-0.3,0.1-0.5,0.1-0.8,0.2c-0.2,0-0.4,0.1-0.6,0.1
			c-0.2,0-0.5,0.1-0.7,0.1c-0.2,0-0.4,0.1-0.7,0.1c-0.3,0-0.6,0-0.9,0.1c-0.3,0-0.6,0-0.9,0s-0.6,0-0.9,0c-0.3,0-0.6,0-0.9-0.1
			c-0.2,0-0.4,0-0.7-0.1c-0.2,0-0.5-0.1-0.7-0.1c-0.2,0-0.4-0.1-0.6-0.1c-0.3,0-0.5-0.1-0.8-0.2c-0.1,0-0.1,0-0.2,0
			c-0.1,0-0.3-0.1-0.4-0.1c-0.3-0.1-0.6-0.2-0.9-0.3c-0.1,0-0.2-0.1-0.4-0.1c-0.3-0.1-0.6-0.2-0.8-0.3l-0.4-0.2
			c-0.3-0.1-0.7-0.3-1-0.5c-0.4-0.2-0.8-0.4-1.2-0.6c-0.4-0.2-0.7-0.5-1.1-0.7c-0.3-0.2-0.7-0.5-1-0.7c0,0,0,0-0.1,0
			c-0.3-0.2-0.6-0.5-0.9-0.8c-0.1-0.1-0.3-0.3-0.4-0.4c-0.3-0.3-0.6-0.6-0.9-0.9C40,70.5,39,69,38.3,67.4c-0.1-0.2-0.2-0.4-0.2-0.6
			l-0.2-0.6c-0.2-0.6-0.4-1.2-0.5-1.8c0-0.2-0.1-0.5-0.1-0.7c0-0.3-0.1-0.5-0.1-0.8C37,62.3,37,61.7,37,61.1c0-0.5,0-1.1,0.1-1.6
			c0-0.4,0.1-0.9,0.2-1.3c0.1-0.4,0.2-0.8,0.3-1.3v0l0.7-3.5c0.4-0.1,0.9-0.2,1.3-0.4c6.4-1.9,9.2-5,10.3-6.8
			c0.3-0.4,0.5-0.9,0.7-1.4c0.4,0.7,1,1.4,1.6,1.9c2.4,2.5,7.9,6.3,18.1,5.4c1.3,1.5,2.3,3.2,3.2,5v0c0,0,0,0,0,0
			c0.1,0.3,0.2,0.7,0.2,1c0.1,0.4,0.1,0.9,0.2,1.3C73.8,60.1,73.9,60.6,73.9,61.1z"/>
		<path class="st8" d="M61.6,103.8c0,0.7-0.6,1.2-1.2,1.2c-0.7,0-1.2-0.6-1.2-1.2c0-0.7,0.6-1.2,1.2-1.2
			C61,102.6,61.6,103.1,61.6,103.8z"/>
		<path class="st5" d="M37.3,64.5h-2.8c-1.4,0-2.5-1.1-2.5-2.5c0-1.4,1.1-2.4,2.5-2.5h2.5C37,60.1,37,60.6,37,61.1
			c0,0.6,0,1.2,0.1,1.7c0,0.3,0.1,0.5,0.1,0.8C37.2,63.9,37.3,64.2,37.3,64.5z"/>
		<path class="st9" d="M53,59.6c0,1.3-0.5,2.6-1.4,3.5c-0.9,0.9-2.2,1.4-3.5,1.4c-1,0-1.9-0.3-2.8-0.8c-1.7-1.2-2.5-3.3-2-5.3
			s2.2-3.5,4.3-3.7s4,0.9,4.9,2.8C52.8,58.1,53,58.8,53,59.6z"/>
		<path class="st9" d="M67.7,59.6c0,1.3-0.5,2.6-1.4,3.5c-0.9,0.9-2.2,1.4-3.5,1.4c-2.7,0-4.9-2.2-4.9-4.9c0-2.3,1.6-4.3,3.8-4.8
			c2.2-0.5,4.5,0.6,5.5,2.7C67.5,58.1,67.7,58.8,67.7,59.6z"/>
		<path class="st10" d="M44.4,59.6c0,0.7-0.6,1.2-1.2,1.2c-1.9,0-3.8,0.4-5.6,1.1C37.4,62,37.2,62,37,62c0-0.3,0-0.6,0-0.9
			c0-0.5,0-1.1,0.1-1.6c0,0,0-0.1,0-0.1c1.9-0.7,4-1.1,6-1.1C43.8,58.3,44.4,58.9,44.4,59.6z"/>
		<path class="st10" d="M73.9,61.1c0,0.3,0,0.6,0,0.9c-0.2,0-0.4,0-0.5-0.1c-1.8-0.7-3.7-1.1-5.6-1.1c-0.7,0-1.2-0.6-1.2-1.2
			c0-0.7,0.6-1.2,1.2-1.2c2.1,0,4.1,0.4,6,1.1c0,0,0,0.1,0,0.1C73.8,60.1,73.9,60.6,73.9,61.1z"/>
		<path class="st10" d="M57.9,60.8c-0.3,0-0.6-0.1-0.9-0.4c-0.4-0.4-1-0.7-1.6-0.9c-0.6,0.1-1.2,0.4-1.6,0.9c-0.5,0.5-1.3,0.5-1.7,0
			c-0.5-0.5-0.5-1.2,0-1.7c0.9-0.9,2.1-1.5,3.3-1.6c1.3,0.1,2.4,0.7,3.3,1.6c0.4,0.4,0.5,0.9,0.3,1.3C58.8,60.5,58.4,60.8,57.9,60.8
			z"/>
		<path class="st11" d="M53,59.6c0,1.3-0.5,2.6-1.4,3.5c-0.9,0.9-2.2,1.4-3.5,1.4c-1,0-1.9-0.3-2.8-0.8c0.5-2.5,2.2-5.6,7.2-6.2
			C52.8,58.1,53,58.8,53,59.6z"/>
		<path class="st11" d="M67.7,59.6c0,1.3-0.5,2.6-1.4,3.5c-0.9,0.9-2.2,1.4-3.5,1.4c-0.9,0-1.9-0.3-2.7-0.8c0.6-3.5,3.6-6.1,7.1-6.2
			C67.5,58.1,67.7,58.8,67.7,59.6z"/>
		<path class="st10" d="M48.1,65.7c-3.4,0-6.1-2.8-6.1-6.1c0-3.4,2.8-6.1,6.1-6.1c3.4,0,6.1,2.8,6.1,6.1
			C54.2,62.9,51.4,65.7,48.1,65.7z M48.1,55.9c-2,0-3.7,1.7-3.7,3.7c0,2,1.7,3.7,3.7,3.7c2,0,3.7-1.7,3.7-3.7
			C51.7,57.5,50.1,55.9,48.1,55.9z"/>
		<path class="st10" d="M62.8,65.7c-3.4,0-6.1-2.8-6.1-6.1c0-3.4,2.8-6.1,6.1-6.1c3.4,0,6.1,2.8,6.1,6.1
			C68.9,62.9,66.2,65.7,62.8,65.7z M62.8,55.9c-2,0-3.7,1.7-3.7,3.7c0,2,1.7,3.7,3.7,3.7c2,0,3.7-1.7,3.7-3.7
			C66.5,57.5,64.8,55.9,62.8,55.9z"/>
	</g>
</g>
</svg>
