<?xml version="1.0" encoding="utf-8"?>
<!-- Generator: Adobe Illustrator 22.0.1, SVG Export Plug-In . SVG Version: 6.00 Build 0)  -->
<svg version="1.1" id="Layer_1" xmlns="http://www.w3.org/2000/svg" xmlns:xlink="http://www.w3.org/1999/xlink" x="0px" y="0px"
	 viewBox="0 0 110 110" style="enable-background:new 0 0 110 110;" xml:space="preserve">
<style type="text/css">
	.st0{fill:#C2D5D8;}
	.st1{fill:#B7C9CC;}
	.st2{fill:#E6E6E6;}
	.st3{fill:#CCCCCC;}
	.st4{fill:#F5F5F5;}
	.st5{fill:#242424;}
	.st6{fill:#CC803D;}
	.st7{fill:#B37035;}
	.st8{fill:#B36624;}
</style>
<circle class="st0" cx="55" cy="55" r="52.5"/>
<path class="st1" d="M104.9,71.3c0-0.1-0.1-0.2-0.1-0.2c0-0.2-0.1-0.3-0.2-0.5c0-0.2-0.1-0.3-0.2-0.5c0-0.2-0.1-0.3-0.2-0.5
	c0-0.2-0.1-0.3-0.2-0.5c0-0.2-0.1-0.3-0.2-0.5c0-0.2-0.1-0.3-0.2-0.5c0-0.2-0.1-0.3-0.2-0.5c0-0.2-0.1-0.3-0.2-0.5
	c0-0.2-0.1-0.3-0.2-0.5c0-0.2-0.1-0.3-0.2-0.5c0-0.2-0.1-0.3-0.2-0.5c0-0.2-0.1-0.3-0.2-0.5c0-0.2-0.1-0.3-0.2-0.5
	c0-0.2-0.1-0.3-0.2-0.5c0-0.2-0.1-0.3-0.2-0.5c0-0.2-0.1-0.3-0.2-0.5c0-0.2-0.1-0.3-0.2-0.5c0-0.2-0.1-0.3-0.2-0.5
	c0-0.2-0.1-0.3-0.2-0.5c0-0.2-0.1-0.3-0.2-0.5c0-0.2-0.1-0.3-0.2-0.5c0-0.2-0.1-0.3-0.2-0.5c0-0.2-0.1-0.3-0.2-0.5
	c0-0.2-0.1-0.3-0.2-0.5c0-0.2-0.1-0.3-0.2-0.5c0-0.2-0.1-0.3-0.2-0.5c0-0.2-0.1-0.3-0.2-0.5c0-0.2-0.1-0.3-0.2-0.5
	c0-0.2-0.1-0.3-0.2-0.5c0-0.2-0.1-0.3-0.2-0.5c0-0.2-0.1-0.3-0.2-0.5c0-0.2-0.1-0.3-0.2-0.5c0-0.2-0.1-0.3-0.2-0.5
	c0-0.2-0.1-0.3-0.2-0.5c0-0.2-0.1-0.3-0.2-0.5c0-0.2-0.1-0.3-0.2-0.5c0-0.2-0.1-0.3-0.2-0.5c0-0.2-0.1-0.3-0.2-0.5
	c0-0.2-0.1-0.3-0.2-0.5c0-0.2-0.1-0.3-0.2-0.5c0-0.2-0.1-0.3-0.2-0.5c0-0.2-0.1-0.3-0.2-0.5c0-0.2-0.1-0.3-0.2-0.5
	c0-0.2-0.1-0.3-0.2-0.5c0-0.2-0.1-0.3-0.2-0.5c0-0.2-0.1-0.3-0.2-0.5c0-0.2-0.1-0.3-0.2-0.5c0-0.2-0.1-0.3-0.2-0.5
	c0-0.2-0.1-0.3-0.2-0.5c0-0.2-0.1-0.3-0.2-0.5c0-0.2-0.1-0.3-0.2-0.5c0-0.2-0.1-0.3-0.2-0.5c0-0.2-0.1-0.3-0.2-0.5
	c0-0.2-0.1-0.3-0.2-0.5c0-0.2-0.1-0.3-0.2-0.5c0-0.2-0.1-0.3-0.2-0.5c0-0.2-0.1-0.3-0.2-0.5c0-0.2-0.1-0.3-0.2-0.5
	c0-0.2-0.1-0.3-0.2-0.5c0-0.2-0.1-0.3-0.2-0.5c0-0.2-0.1-0.3-0.2-0.5c0-0.2-0.1-0.3-0.2-0.5c0-0.2-0.1-0.3-0.2-0.5
	c0-0.2-0.1-0.3-0.2-0.5c0-0.2-0.1-0.3-0.2-0.5c0-0.2-0.1-0.3-0.2-0.5c0-0.2-0.1-0.3-0.2-0.5c0-0.2-0.1-0.3-0.2-0.5
	c0-0.2-0.1-0.3-0.2-0.5c0-0.2-0.1-0.3-0.2-0.5c0-0.2-0.1-0.3-0.2-0.5c0-0.2-0.1-0.3-0.2-0.5c0-0.2-0.1-0.3-0.2-0.5
	c0-0.2-0.1-0.3-0.2-0.5c0-0.2-0.1-0.3-0.2-0.5c0-0.2-0.1-0.3-0.2-0.5c0-0.2-0.1-0.3-0.2-0.5c0-0.2-0.1-0.3-0.2-0.5
	c0-0.2-0.1-0.3-0.2-0.5c0-0.2-0.1-0.3-0.2-0.5c0-0.2-0.1-0.3-0.2-0.5c0-0.2-0.1-0.3-0.2-0.5c0-0.2-0.1-0.3-0.2-0.5
	c0-0.2-0.1-0.3-0.2-0.5c0-0.2-0.1-0.3-0.2-0.5c0-0.2-0.1-0.3-0.2-0.5c0-0.2-0.1-0.3-0.2-0.5c0-0.2-0.1-0.3-0.2-0.5
	c0-0.2-0.1-0.3-0.2-0.5c0-0.2-0.1-0.3-0.2-0.5c0-0.2-0.1-0.3-0.2-0.5c0-0.2-0.1-0.3-0.2-0.5c0-0.2-0.1-0.3-0.2-0.5
	c0-0.2-0.1-0.3-0.2-0.5c-0.1-0.3-0.3-0.7-0.5-0.9c-0.4-0.4-0.9-0.6-1.5-0.6c-0.3,0-0.6,0-0.9,0c-0.3,0-0.6,0-0.9,0.1c0,0,0,0,0,0
	c-6.2,0.6-15.2,4.4-21,9.7c-0.4-0.2-0.8-0.4-1.2-0.6c-0.1,0-0.1-0.1-0.2-0.1c-0.1-0.1-0.2-0.1-0.4-0.1c-0.2-0.1-0.4-0.1-0.6-0.2
	c0,0,0,0,0,0c-0.9-0.3-1.9-0.5-2.9-0.5c-0.2-0.1-0.5-0.1-0.7-0.1c-0.4,0-0.8,0-1.2,0.1c0,0,0,0,0,0c-1.7,0.2-3.3,0.7-4.6,1.5
	c-1.3-1.1-2.7-2.2-4.1-3.2c-6.1-4.1-13.4-6.6-18.7-6.6c-0.1,0-0.2,0-0.3,0c-0.1,0-0.2,0-0.3,0.1l0,0c-0.3,0.1-0.6,0.3-0.8,0.5
	c-0.4,0.4-0.6,0.9-0.6,1.5c0.1,4.8,2.3,10.7,4.3,15.9c0.7,1.7,1.3,3.4,1.8,4.9v11.6v2.5c0,0.4,0,0.8,0,1.1c0,0.1,0,0.2,0,0.3
	c0,0.3,0.1,0.5,0.1,0.8c0,0.1,0,0.2,0.1,0.4c0.1,0.3,0.1,0.6,0.2,0.9c0,0.1,0,0.1,0,0.2c0.1,0.3,0.2,0.7,0.3,1
	c0,0.1,0.1,0.2,0.1,0.4c0.1,0.2,0.2,0.4,0.3,0.7c0,0.1,0.1,0.2,0.1,0.2c0,0.1,0.1,0.2,0.1,0.3c0,0.1,0.1,0.2,0.1,0.2
	c0,0.1,0.1,0.2,0.1,0.3c0,0.1,0.1,0.2,0.1,0.2c0,0.1,0.1,0.2,0.1,0.3c0,0.1,0.1,0.2,0.1,0.2c0,0.1,0.1,0.2,0.1,0.3
	c0,0.1,0.1,0.2,0.1,0.2c0,0.1,0.1,0.2,0.1,0.3c0,0.1,0.1,0.2,0.1,0.2c0,0.1,0.1,0.2,0.1,0.3c0,0.1,0.1,0.2,0.1,0.2
	c0,0.1,0.1,0.2,0.1,0.3c0,0.1,0.1,0.2,0.1,0.2c0,0.1,0.1,0.2,0.1,0.3c0,0.1,0.1,0.2,0.1,0.2c0,0.1,0.1,0.2,0.1,0.3
	c0,0.1,0.1,0.2,0.1,0.2c0,0.1,0.1,0.2,0.1,0.3c0,0.1,0.1,0.2,0.1,0.2c0,0.1,0.1,0.2,0.1,0.3c0,0.1,0.1,0.2,0.1,0.3
	c0,0.1,0.1,0.2,0.1,0.2c0,0.1,0.1,0.2,0.1,0.2c0,0.1,0.1,0.2,0.1,0.3c0,0.1,0.1,0.2,0.1,0.2c0,0.1,0.1,0.2,0.1,0.3
	c0,0.1,0.1,0.2,0.1,0.2c0,0.1,0.1,0.2,0.1,0.3c0,0.1,0.1,0.2,0.1,0.2c0,0.1,0.1,0.2,0.1,0.3c0,0.1,0.1,0.2,0.1,0.2
	c0,0.1,0.1,0.2,0.1,0.3c0,0.1,0.1,0.2,0.1,0.2c0,0.1,0.1,0.2,0.1,0.3c0,0.1,0.1,0.2,0.1,0.2c0,0.1,0.1,0.2,0.1,0.3
	c0,0.1,0.1,0.2,0.1,0.2c0,0.1,0.1,0.2,0.1,0.3c0,0.1,0.1,0.2,0.1,0.2c0,0.1,0.1,0.2,0.1,0.3c0,0.1,0.1,0.2,0.1,0.2
	c0,0.1,0.1,0.2,0.1,0.3c0,0.1,0.1,0.2,0.1,0.2c0,0.1,0.1,0.2,0.1,0.3c0,0.1,0.1,0.2,0.1,0.2c0,0.1,0.1,0.2,0.1,0.3
	c0,0.1,0.1,0.2,0.1,0.2c0,0.1,0.1,0.2,0.1,0.3c0,0.1,0.1,0.2,0.1,0.2c0,0.1,0.1,0.2,0.1,0.3c0,0.1,0.1,0.2,0.1,0.2
	c0,0.1,0.1,0.2,0.1,0.3c0,0.1,0.1,0.2,0.1,0.2c0,0.1,0.1,0.2,0.1,0.3c0,0.1,0.1,0.2,0.1,0.2c0,0.1,0.1,0.2,0.1,0.3
	c0,0.1,0.1,0.2,0.1,0.2c0,0.1,0.1,0.2,0.1,0.3c0,0.1,0.1,0.2,0.1,0.2c0,0.1,0.1,0.2,0.1,0.3c0,0.1,0.1,0.2,0.1,0.2
	c0,0.1,0.1,0.2,0.1,0.3c0,0.1,0.1,0.2,0.1,0.2c0,0.1,0.1,0.2,0.1,0.3c0,0.1,0.1,0.2,0.1,0.2c0,0.1,0.1,0.2,0.1,0.3
	c0,0.1,0.1,0.2,0.1,0.2c0,0.1,0.1,0.2,0.1,0.3c0,0.1,0.1,0.2,0.1,0.2c0,0.1,0.1,0.2,0.1,0.3c0,0.1,0.1,0.2,0.1,0.2
	c0,0.1,0.1,0.2,0.1,0.3c0,0.1,0.1,0.2,0.1,0.2c0,0.1,0.1,0.2,0.1,0.3c0,0.1,0.1,0.2,0.1,0.2c0,0.1,0.1,0.2,0.1,0.3
	c0,0.1,0.1,0.2,0.1,0.2c0,0.1,0.1,0.2,0.1,0.3c0,0.1,0.1,0.2,0.1,0.2c0,0.1,0.1,0.2,0.1,0.3c0,0.1,0.1,0.2,0.1,0.2
	c0,0.1,0.1,0.2,0.1,0.3c0,0.1,0.1,0.2,0.1,0.2c0,0.1,0.1,0.2,0.1,0.3c0,0.1,0.1,0.2,0.1,0.2c0,0.1,0.1,0.2,0.1,0.3
	c0,0.1,0.1,0.2,0.1,0.2c0,0.1,0.1,0.2,0.1,0.3c0,0.1,0.1,0.2,0.1,0.2c0,0.1,0.1,0.2,0.1,0.3c0,0.1,0.1,0.2,0.1,0.2
	c0,0.1,0.1,0.2,0.1,0.3c0,0.1,0.1,0.2,0.1,0.2c0,0.1,0.1,0.2,0.1,0.3c0,0.1,0.1,0.2,0.1,0.2c0,0.1,0.1,0.2,0.1,0.3
	c0,0.1,0.1,0.2,0.1,0.2c0,0.1,0.1,0.2,0.1,0.3c0,0.1,0.1,0.2,0.1,0.2c0,0.1,0.1,0.2,0.1,0.3c0,0.1,0.1,0.2,0.1,0.2
	c0,0.1,0.1,0.2,0.1,0.3c0,0.1,0.1,0.2,0.1,0.2c0,0.1,0.1,0.2,0.1,0.3c0,0.1,0.1,0.2,0.1,0.2c0,0.1,0.1,0.2,0.1,0.3
	c0,0.1,0.1,0.2,0.1,0.2c0,0.1,0.1,0.2,0.1,0.3c0,0.1,0.1,0.2,0.1,0.2c0,0.1,0.1,0.2,0.1,0.3c0,0.1,0.1,0.2,0.1,0.2
	c0,0.1,0.1,0.2,0.1,0.3c0,0.1,0.1,0.2,0.1,0.2c0,0.1,0.1,0.2,0.1,0.3c0,0.1,0.1,0.2,0.1,0.2c0,0.1,0.1,0.2,0.1,0.3
	c0,0.1,0.1,0.2,0.1,0.2c0,0.1,0.1,0.2,0.1,0.3c0,0.1,0.1,0.2,0.1,0.2c0,0.1,0.1,0.2,0.1,0.3c0,0.1,0.1,0.2,0.1,0.2
	c0,0.1,0.1,0.2,0.1,0.3c0,0.1,0.1,0.2,0.1,0.2c0,0.1,0.1,0.2,0.1,0.3c0,0.1,0.1,0.2,0.1,0.2c0,0.1,0.1,0.2,0.1,0.3
	c0,0.1,0.1,0.2,0.1,0.2c0,0.1,0.1,0.2,0.1,0.3c0,0.1,0.1,0.2,0.1,0.2c0,0.1,0.1,0.2,0.1,0.3c0,0.1,0.1,0.2,0.1,0.2
	c0,0.1,0.1,0.2,0.1,0.3c0,0.1,0.1,0.2,0.1,0.2c0,0.1,0.1,0.2,0.1,0.3c0,0.1,0.1,0.2,0.1,0.2c0,0.1,0.1,0.2,0.1,0.3
	c0,0.1,0.1,0.2,0.1,0.2c0,0.1,0.1,0.2,0.1,0.3c0,0.1,0.1,0.2,0.1,0.2c0,0.1,0.1,0.2,0.1,0.3c0,0.1,0.1,0.2,0.1,0.2
	c0,0.1,0.1,0.2,0.1,0.3c0,0.1,0.1,0.2,0.1,0.2c0,0.1,0.1,0.2,0.1,0.3c0,0.1,0.1,0.2,0.1,0.2c0,0.1,0.1,0.2,0.1,0.3
	c0,0.1,0.1,0.2,0.1,0.2c0,0.1,0.1,0.2,0.1,0.3c0,0.1,0.1,0.2,0.1,0.2c0,0.1,0.1,0.2,0.1,0.3c0,0.1,0.1,0.2,0.1,0.2
	c0,0.1,0.1,0.2,0.1,0.3c0,0.1,0.1,0.2,0.1,0.2c0,0.1,0.1,0.2,0.1,0.3c0,0.1,0.1,0.2,0.1,0.2c0,0.1,0.1,0.2,0.1,0.3
	c0,0.1,0.1,0.2,0.1,0.2c0,0.1,0.1,0.2,0.1,0.3c0,0.1,0.1,0.2,0.1,0.2c0,0.1,0.1,0.2,0.1,0.3c0,0.1,0.1,0.2,0.1,0.2
	c0,0.1,0.1,0.2,0.1,0.3c0,0.1,0.1,0.2,0.1,0.2c0,0.1,0.1,0.2,0.1,0.3c0,0.1,0.1,0.2,0.1,0.2c0,0.1,0.1,0.1,0.1,0.2
	c2.1,0.3,4.2,0.4,6.4,0.4C78.3,107.5,98,92.3,104.9,71.3z"/>
<path class="st2" d="M81.7,59.1c-1.1-2.9-2.1-6.9-2.1-14.1H55H30.4c0,7.1-0.9,11.1-2.1,14.1c-1.1,2.9,2.3,5.4,4.7,7.3
	c9.4,7.2,10.2,14.8,22,14.8s12.6-7.6,22-14.8C79.4,64.6,82.8,62.1,81.7,59.1z"/>
<path class="st3" d="M81.7,59.1c-1.1-2.9-2.1-6.9-2.1-14.1h-2.5c0,7.1,0.9,11.1,2.1,14.1c1.1,2.9-2.3,5.4-4.7,7.3
	c-9,7-10.1,14.3-20.7,14.8c0.4,0,0.8,0,1.2,0c11.8,0,12.6-7.6,22-14.8C79.4,64.6,82.8,62.1,81.7,59.1z"/>
<circle class="st4" cx="63.8" cy="55.2" r="4.1"/>
<circle class="st5" cx="63.8" cy="55.2" r="2.5"/>
<circle class="st4" cx="45.8" cy="55.2" r="4.1"/>
<circle class="st5" cx="45.8" cy="55.2" r="2.5"/>
<path class="st6" d="M85.2,22.8c-0.4-0.4-0.9-0.6-1.5-0.6c-6.1,0-16.4,3.9-22.8,9.8c-1.6-1-3.6-1.6-5.9-1.6S50.8,31,49.1,32
	c-6.5-5.9-16.7-9.8-22.8-9.8c-0.6,0-1.1,0.2-1.5,0.6c-0.4,0.4-0.6,0.9-0.6,1.5c0.1,4.8,2.3,10.7,4.3,15.9c0.7,1.7,1.3,5.9,1.8,7.4
	C52.1,47.1,50.9,67,50.9,73.5h8.2c0-6.4-1.2-26.3,20.5-25.9v-2.5c0.5-1.5,1.2-3.2,1.8-4.9c2-5.2,4.2-11,4.3-15.9
	C85.8,23.7,85.6,23.2,85.2,22.8z"/>
<g>
	<path class="st7" d="M60,32.8c0.3-0.3,0.6-0.5,0.9-0.8c-1.6-1-3.9-1.6-5.9-1.6c-0.4,0-0.8,0-1.2,0.1C55.5,30.6,58.7,32,60,32.8z"/>
	<path class="st7" d="M85.2,22.8c-0.4-0.4-0.9-0.6-1.5-0.6c-0.6,0-1.2,0-1.8,0.1c0.3,0.1,0.6,0.3,0.8,0.5c0.4,0.4,0.6,0.9,0.6,1.5
		C83.2,29.1,81,35,79,40.1c-0.7,1.7-1.3,3.4-1.8,4.9v2.5C55.4,47.1,56.7,67,56.7,73.5h2.5c0-6.4-1.2-26.3,20.5-25.9v-2.5
		c0.5-1.5,1.2-3.2,1.8-4.9c2-5.2,4.2-11,4.3-15.9C85.8,23.7,85.6,23.2,85.2,22.8z"/>
	<path class="st7" d="M47.5,32.8c0.5-0.3,1.1-0.5,1.7-0.8c-6.6-6-16.8-9.8-22.8-9.8c-0.2,0-0.4,0-0.6,0.1
		C31.8,22.9,41.6,27.4,47.5,32.8z"/>
</g>
<path class="st5" d="M55,79.6c-2.1-2.1-4.1-3.9-4.1-6.2c0-2.3,1.8-4.1,4.1-4.1s4.1,1.8,4.1,4.1C59.1,75.7,57.1,77.6,55,79.6z"/>
<g>
	<path class="st8" d="M81.7,26.3c-2.1,0-12.3,2.1-14.4,6.2c2.1,2.1,10.3,8.2,10.3,8.2C79.6,36.5,81.7,28.3,81.7,26.3z"/>
	<path class="st8" d="M28.3,26.3c2.1,0,12.3,2.1,14.4,6.2c-2.1,2.1-10.3,8.2-10.3,8.2C30.4,36.5,28.3,28.3,28.3,26.3z"/>
</g>
</svg>
