<?xml version="1.0" encoding="utf-8"?>
<!-- Generator: Adobe Illustrator 22.0.1, SVG Export Plug-In . SVG Version: 6.00 Build 0)  -->
<svg version="1.1" id="Layer_1" xmlns="http://www.w3.org/2000/svg" xmlns:xlink="http://www.w3.org/1999/xlink" x="0px" y="0px"
	 viewBox="0 0 110 110" style="enable-background:new 0 0 110 110;" xml:space="preserve">
<style type="text/css">
	.st0{fill:url(#SVGID_1_);}
	.st1{clip-path:url(#SVGID_3_);}
	.st2{fill:#FFD7A3;}
	.st3{fill:#FDC88E;}
	.st4{fill:#734A3E;}
	.st5{fill:#623F33;}
	.st6{fill:#FFE1B2;}
	.st7{fill:#E4B07B;}
	.st8{fill:#B97E63;}
	.st9{fill:#FFA64E;}
	.st10{fill:#FF8C51;}
</style>
<linearGradient id="SVGID_1_" gradientUnits="userSpaceOnUse" x1="2.9991" y1="55.3371" x2="107.9991" y2="55.3371">
	<stop  offset="0.1784" style="stop-color:#DD4B47"/>
	<stop  offset="0.5784" style="stop-color:#E96250"/>
</linearGradient>
<circle class="st0" cx="55.5" cy="55.3" r="52.5"/>
<g>
	<defs>
		<circle id="SVGID_2_" cx="55.5" cy="55.3" r="52.5"/>
	</defs>
	<clipPath id="SVGID_3_">
		<use xlink:href="#SVGID_2_"  style="overflow:visible;"/>
	</clipPath>
	<g class="st1">
		<path class="st2" d="M83.1,108.6l-1.8-14.5c-0.3-2.2-1.8-4-3.9-4.7l-7-2.3c-1-0.3-2-0.1-2.7,0.5l-2.1-0.7c-1.2-0.4-2-1.5-2-2.7
			v-4.6l6.2-2.6c3.2-1.3,5.3-4.4,5.3-7.9v-1.4c2.4,0,4.3-1.9,4.3-4.3c0-1.2-0.5-2.2-1.2-3l1.5-12c0.7-5.6-1.9-11.1-6.7-14.2
			c-2.3-1.4-5-2.2-7.7-2.2c0,0-20.4,0-20.5,0c-3,0.1-5.6,1.8-7,4.3h-0.4c-4.2,0-7.7,3.6-7.3,7.8c0,0,0,0.1,0,0.1l2,16.3
			c-0.8,0.8-1.2,1.8-1.2,3c0,2.4,1.9,4.3,4.3,4.3v1.4c0,3.5,2.1,6.6,5.3,7.9l6.2,2.6v4.6c0,1.2-0.8,2.3-2,2.7l-2.1,0.7
			c-0.7-0.6-1.8-0.8-2.7-0.5l-7,2.3c-2.1,0.7-3.6,2.5-3.9,4.7l-1.8,14.5c-0.3,2.6,1.7,4.8,4.3,4.8h0h47.3h0
			C81.4,113.4,83.4,111.2,83.1,108.6z"/>
		<path class="st3" d="M46.5,84.2C46.5,84.2,46.5,84.2,46.5,84.2c0,0.1,0,0.1,0,0.2c0,0,0,0.1,0,0.1c0,0,0,0.1,0,0.1
			c0,0.1,0,0.1,0,0.2c0,0,0,0,0,0c-0.2,0.8-0.6,1.5-1.3,1.9c11.9,2.1,18.5-7.2,18.5-7.2H46.5L46.5,84.2L46.5,84.2z"/>
		<path class="st4" d="M72.9,34.2c-2.3-1.4-5-2.2-7.7-2.2h-0.1v30h12.9l1.7-13.6C80.4,42.8,77.7,37.3,72.9,34.2z"/>
		<g>
			<path class="st5" d="M30,44.1C30,44.1,30,44.2,30,44.1L32.3,62h8.6V36.3h-3.5C33.1,36.3,29.5,39.9,30,44.1z"/>
		</g>
		<path class="st6" d="M75.1,59.2v-2.9c0-3.9-3.2-7.1-7.1-7.1H42.2c-3.9,0-7.1,3.2-7.1,7.1v2.9c-2.4,0-4.3,1.9-4.3,4.3
			c0,2.4,1.9,4.3,4.3,4.3v1.4c0,3.5,2.1,6.6,5.3,7.9l9.2,3.8c1.7,0.7,3.6,1.1,5.5,1.1l0,0c1.9,0,3.8-0.4,5.5-1.1l9.2-3.8
			c3.2-1.3,5.3-4.4,5.3-7.9v-1.4c2.4,0,4.3-1.9,4.3-4.3C79.4,61.1,77.5,59.2,75.1,59.2z"/>
		<g>
			<path class="st5" d="M45.1,64.9L45.1,64.9c-0.8,0-1.4-0.6-1.4-1.4V62c0-0.8,0.6-1.4,1.4-1.4l0,0c0.8,0,1.4,0.6,1.4,1.4v1.4
				C46.5,64.2,45.9,64.9,45.1,64.9z"/>
		</g>
		<g>
			<path class="st5" d="M65.1,64.9L65.1,64.9c-0.8,0-1.4-0.6-1.4-1.4V62c0-0.8,0.6-1.4,1.4-1.4l0,0c0.8,0,1.4,0.6,1.4,1.4v1.4
				C66.5,64.2,65.9,64.9,65.1,64.9z"/>
		</g>
		<g>
			<g>
				<path class="st7" d="M55.1,74.9c-2.5,0-4.9-0.6-6.5-1.7c-0.7-0.4-0.8-1.3-0.4-2c0.4-0.7,1.3-0.8,2-0.4c1.1,0.8,3,1.2,4.9,1.2
					s3.8-0.5,4.9-1.2c0.7-0.4,1.5-0.3,2,0.4c0.4,0.7,0.3,1.5-0.4,2C60,74.3,57.6,74.9,55.1,74.9z"/>
			</g>
		</g>
		<path class="st2" d="M68,49.2H42.2c-0.5,0-1,0.1-1.4,0.1v0c-3.3,0.7-5.7,3.5-5.7,7v2.9c-2.4,0-4.3,1.9-4.3,4.3s1.9,4.3,4.3,4.3
			v1.4c0,3.5,2.1,6.6,5.3,7.9l9.2,3.8c0.5,0.2,0.9,0.4,1.4,0.5c-4.1-3-6.8-5.6-8.4-7.3c-1.2-1.2-1.8-2.9-1.8-4.6V53.4
			c7.9,6.3,25,5.8,34.3,5.8v-2.9C75.1,52.4,71.9,49.2,68,49.2z"/>
		<path class="st4" d="M65.1,32h-20c-4.7,0-8.6,3.8-8.6,8.6l0,0c0,8.3,7.9,13.3,14.3,15.7c0,0-0.7-1.3-1.7-3.2
			c5.7,1.9,14.5,3.2,26.5,3.2c0,0,0-3.1,0-4.1C75.6,31.4,65.1,32,65.1,32z"/>
		<path class="st4" d="M75.1,57.7h-7.3c0,0,0,0,0,0C67,57.3,66.1,57,65.1,57c-2.6,0-4.9,1.8-5.5,4.2c-0.8-1.7-2.5-2.8-4.5-2.8
			s-3.7,1.1-4.5,2.8C50,58.8,47.7,57,45.1,57c-1,0-1.9,0.3-2.8,0.7h-7.2c-0.4,0-0.7,0.3-0.7,0.7c0,0.4,0.3,0.7,0.7,0.7h5.5
			c-0.8,1-1.3,2.2-1.3,3.6c0,3.1,2.6,5.7,5.7,5.7c2.7,0,4.9-1.8,5.5-4.3c0.1,0,0.1,0,0.2,0c0.4,0,0.7-0.3,0.7-0.7
			c0-2,1.6-3.6,3.6-3.6s3.6,1.6,3.6,3.6c0,0.4,0.3,0.7,0.7,0.7c0.1,0,0.1,0,0.2,0c0.6,2.5,2.9,4.3,5.5,4.3c3.1,0,5.7-2.6,5.7-5.7
			c0-1.4-0.5-2.6-1.3-3.6h5.6c0.4,0,0.7-0.3,0.7-0.7C75.9,58.1,75.5,57.7,75.1,57.7z M45.1,67c-2.4,0-4.3-1.9-4.3-4.3
			c0-2.4,1.9-4.3,4.3-4.3s4.3,1.9,4.3,4.3C49.4,65.1,47.5,67,45.1,67z M65.1,67c-2.4,0-4.3-1.9-4.3-4.3c0-2.4,1.9-4.3,4.3-4.3
			c2.4,0,4.3,1.9,4.3,4.3C69.4,65.1,67.5,67,65.1,67z"/>
		<path class="st8" d="M55.1,95.9c5.8,0,10.9-3.2,13.5-8l-3-1c-0.3-0.1-0.6-0.2-0.8-0.4c-2,3.3-5.6,5.5-9.7,5.5s-7.7-2.2-9.7-5.5
			c-0.2,0.2-0.5,0.3-0.8,0.4l-3,1C44.2,92.7,49.3,95.9,55.1,95.9z"/>
		<g>
			<path class="st9" d="M83.1,108.6l-1.8-14.5c-0.3-2.2-1.8-4-3.9-4.7l-7-2.3c-1.2-0.4-2.6,0-3.3,1.1c-2.5,4-7,6.6-12.1,6.6
				s-9.5-2.6-12.1-6.6c-0.7-1.1-2.1-1.5-3.3-1.1l-7,2.3c-2.1,0.7-3.6,2.5-3.9,4.7l-1.8,14.5c-0.3,2.6,1.7,4.8,4.3,4.8h47.4
				C81.4,113.4,83.4,111.2,83.1,108.6z"/>
		</g>
		<g>
			<path class="st10" d="M30.1,91.3c-0.6,0.8-1.1,1.8-1.2,2.8l-1.8,14.5c-0.3,2.6,1.7,4.8,4.3,4.8h8v-9.3c0-1.4-0.5-2.7-1.4-3.7
				L30.1,91.3z"/>
		</g>
		<g>
			<path class="st10" d="M80.1,91.3c0.6,0.8,1.1,1.8,1.2,2.8l1.8,14.5c0.3,2.6-1.7,4.8-4.3,4.8h-8v-9.3c0-1.4,0.5-2.7,1.4-3.7
				L80.1,91.3z"/>
		</g>
	</g>
</g>
</svg>
