<?xml version="1.0" encoding="utf-8"?>
<!-- Generator: Adobe Illustrator 22.0.1, SVG Export Plug-In . SVG Version: 6.00 Build 0)  -->
<svg version="1.1" id="Layer_1" xmlns="http://www.w3.org/2000/svg" xmlns:xlink="http://www.w3.org/1999/xlink" x="0px" y="0px"
	 viewBox="0 0 110 110" style="enable-background:new 0 0 110 110;" xml:space="preserve">
<style type="text/css">
	.st0{fill:#F2CF61;}
	.st1{fill:#E6C45C;}
	.st2{fill:#A67C52;}
	.st3{fill:#99724C;}
	.st4{fill:#F5F5F5;}
	.st5{fill:#EDEDED;}
	.st6{fill:#242424;}
</style>
<g>
	<circle class="st0" cx="55" cy="55" r="52.5"/>
	<path class="st1" d="M100.4,81.4c0-0.1-0.1-0.2-0.1-0.3c0,0,0-0.1,0-0.1c-0.1-0.1-0.1-0.3-0.2-0.4c0,0,0-0.1,0-0.1
		c-0.1-0.1-0.1-0.3-0.2-0.4c0,0,0-0.1,0-0.1c-0.1-0.1-0.1-0.3-0.2-0.4c0,0,0-0.1,0-0.1c-0.1-0.1-0.1-0.3-0.2-0.4c0,0,0-0.1,0-0.1
		c-0.1-0.1-0.1-0.3-0.2-0.4c0,0,0-0.1,0-0.1c-0.1-0.1-0.1-0.3-0.2-0.4c0,0,0-0.1,0-0.1c-0.1-0.1-0.1-0.3-0.2-0.4c0,0,0-0.1,0-0.1
		c-0.1-0.1-0.1-0.3-0.2-0.4c0,0,0-0.1,0-0.1c0-0.1-0.1-0.3-0.2-0.4c0,0,0-0.1,0-0.1c0-0.1-0.1-0.3-0.2-0.4c0,0,0-0.1,0-0.1
		c0-0.1-0.1-0.3-0.2-0.4c0,0,0-0.1,0-0.1c0-0.1-0.1-0.3-0.2-0.4c0,0,0-0.1,0-0.1c0-0.1-0.1-0.3-0.2-0.4c0,0,0-0.1,0-0.1
		c0-0.1-0.1-0.3-0.2-0.4c0,0,0-0.1,0-0.1c0-0.1-0.1-0.3-0.2-0.4c0,0,0-0.1,0-0.1c0-0.1-0.1-0.3-0.2-0.4c0,0,0-0.1,0-0.1
		c0-0.1-0.1-0.3-0.2-0.4c0,0,0-0.1,0-0.1c-0.1-0.1-0.1-0.3-0.2-0.4c0,0,0-0.1,0-0.1c-0.1-0.1-0.1-0.3-0.2-0.4c0,0,0-0.1,0-0.1
		c-0.1-0.1-0.1-0.3-0.2-0.4c0,0,0-0.1,0-0.1c-0.1-0.1-0.1-0.3-0.2-0.4c0,0,0-0.1,0-0.1c-0.1-0.1-0.1-0.3-0.2-0.4c0,0,0-0.1,0-0.1
		c-0.1-0.1-0.1-0.3-0.2-0.4c0,0,0-0.1,0-0.1c-0.1-0.1-0.1-0.3-0.2-0.4c0,0,0-0.1,0-0.1c-0.1-0.1-0.1-0.3-0.2-0.4c0,0,0-0.1,0-0.1
		C95.1,68.1,95,68,95,67.9c0,0,0-0.1,0-0.1c-0.1-0.1-0.1-0.3-0.2-0.4c0,0,0-0.1,0-0.1c-0.1-0.1-0.1-0.3-0.2-0.4c0,0,0-0.1,0-0.1
		c0-0.1-0.1-0.3-0.2-0.4c0,0,0-0.1,0-0.1c0-0.1-0.1-0.3-0.2-0.4c0,0,0-0.1,0-0.1c-0.1-0.1-0.1-0.3-0.2-0.4c0,0,0-0.1,0-0.1
		c-0.1-0.1-0.1-0.3-0.2-0.4c0,0,0-0.1,0-0.1c-0.1-0.1-0.1-0.3-0.2-0.4c0,0,0-0.1,0-0.1c-0.1-0.1-0.1-0.3-0.2-0.4c0,0,0-0.1,0-0.1
		c-0.1-0.1-0.1-0.3-0.2-0.4c0,0,0-0.1,0-0.1C93,63.1,93,63,92.9,62.8c0,0,0-0.1,0-0.1c-0.1-0.1-0.1-0.3-0.2-0.4c0,0,0-0.1,0-0.1
		c-0.1-0.1-0.1-0.3-0.2-0.4c0,0,0-0.1,0-0.1c0-0.1-0.1-0.3-0.2-0.4c0,0,0-0.1,0-0.1c0-0.1-0.1-0.3-0.2-0.4c0,0,0-0.1,0-0.1
		c0-0.1-0.1-0.3-0.2-0.4c0,0,0-0.1,0-0.1c0-0.1-0.1-0.3-0.2-0.4c0,0,0-0.1,0-0.1c-0.1-0.1-0.1-0.3-0.2-0.4c0,0,0-0.1,0-0.1
		c-0.1-0.1-0.1-0.3-0.2-0.4c0,0,0-0.1,0-0.1c-0.1-0.1-0.1-0.3-0.2-0.4c0,0,0-0.1,0-0.1c-0.1-0.1-0.1-0.3-0.2-0.4c0,0,0-0.1,0-0.1
		c-0.1-0.1-0.1-0.3-0.2-0.4c0,0,0-0.1,0-0.1c-0.1-0.1-0.1-0.3-0.2-0.4c0,0,0-0.1,0-0.1c-0.1-0.1-0.1-0.3-0.2-0.4c0,0,0-0.1,0-0.1
		c-0.1-0.1-0.1-0.3-0.2-0.4c0,0,0-0.1,0-0.1c0-0.1-0.1-0.3-0.2-0.4c0,0,0-0.1,0-0.1c0-0.1-0.1-0.3-0.2-0.4c0,0,0-0.1,0-0.1
		c0-0.1-0.1-0.3-0.2-0.4c0,0,0-0.1,0-0.1c0-0.1-0.1-0.3-0.2-0.4c0,0,0-0.1,0-0.1c0-0.1-0.1-0.3-0.2-0.4c0,0,0-0.1,0-0.1
		c0-0.1-0.1-0.3-0.2-0.4c0,0,0-0.1,0-0.1c0-0.1-0.1-0.3-0.2-0.4c0,0,0-0.1,0-0.1c0-0.1-0.1-0.3-0.2-0.4c0,0,0-0.1,0-0.1
		c0-0.1-0.1-0.3-0.2-0.4c0,0,0-0.1,0-0.1c-0.1-0.1-0.1-0.3-0.2-0.4c0,0,0-0.1,0-0.1c-0.1-0.1-0.1-0.3-0.2-0.4c0,0,0-0.1,0-0.1
		c-0.1-0.1-0.1-0.3-0.2-0.4c0,0,0-0.1,0-0.1c-0.1-0.1-0.1-0.3-0.2-0.4c0,0,0-0.1,0-0.1c-0.1-0.1-0.1-0.3-0.2-0.4c0,0,0-0.1,0-0.1
		c-0.1-0.1-0.1-0.3-0.2-0.4c0,0,0-0.1,0-0.1c-0.1-0.1-0.1-0.3-0.2-0.4c0,0,0-0.1,0-0.1c-0.1-0.1-0.1-0.3-0.2-0.4c0,0,0-0.1,0-0.1
		c-0.1-0.1-0.1-0.3-0.2-0.4c0,0,0-0.1,0-0.1c0-0.1-0.1-0.3-0.2-0.4c0,0,0-0.1,0-0.1c0-0.1-0.1-0.3-0.2-0.4c0,0,0-0.1,0-0.1
		c0-0.1-0.1-0.3-0.2-0.4c0,0,0-0.1,0-0.1c0-0.1-0.1-0.3-0.2-0.4c0,0,0-0.1,0-0.1c0-0.1-0.1-0.3-0.2-0.4c0,0,0-0.1,0-0.1
		c-0.1-0.1-0.1-0.3-0.2-0.4c0,0,0-0.1,0-0.1c-0.1-0.1-0.1-0.3-0.2-0.4c0,0,0-0.1,0-0.1c-0.1-0.1-0.1-0.3-0.2-0.4c0,0,0-0.1,0-0.1
		c-0.1-0.1-0.1-0.3-0.2-0.4c0,0,0-0.1,0-0.1c-0.1-0.1-0.1-0.3-0.2-0.4c0,0,0-0.1,0-0.1c0-0.1-0.1-0.3-0.2-0.4c0,0,0-0.1,0-0.1
		c-0.2-0.4-0.3-0.8-0.5-1.2c-0.1-0.1-0.1-0.2-0.2-0.3c-0.1-0.3-0.3-0.5-0.5-0.8c-0.1-0.1-0.2-0.2-0.2-0.3c-0.2-0.2-0.3-0.4-0.5-0.6
		c-0.1-0.1-0.2-0.2-0.3-0.3c-0.2-0.2-0.4-0.4-0.6-0.6c-0.1-0.1-0.2-0.2-0.3-0.2c-0.2-0.2-0.4-0.3-0.6-0.5c-0.1-0.1-0.2-0.1-0.3-0.2
		c-0.2-0.1-0.4-0.3-0.6-0.4c-0.1-0.1-0.2-0.1-0.4-0.2c-0.2-0.1-0.4-0.2-0.6-0.3c-0.1-0.1-0.3-0.1-0.4-0.2c-0.2-0.1-0.4-0.2-0.6-0.2
		c-0.2-0.1-0.3-0.1-0.5-0.2c-0.2-0.1-0.4-0.1-0.5-0.2c-0.2-0.1-0.3-0.1-0.5-0.1c-0.2,0-0.3-0.1-0.5-0.1c-0.2,0-0.4-0.1-0.6-0.1
		c-0.1,0-0.2,0-0.4-0.1c-0.2,0-0.4-0.1-0.6-0.1c-0.1,0-0.2,0-0.2,0c-0.2,0-0.5,0-0.7,0c0,0-0.1,0-0.1,0c-0.1,0-0.3,0-0.4,0
		c-0.1,0-0.2,0-0.3,0c0,0,0,0,0,0c0,0,0,0,0,0c-0.1,0-0.2,0-0.3,0c-0.1,0-0.2,0-0.3,0c0,0,0,0,0,0c-0.1,0-0.1,0-0.2,0
		c-0.2,0-0.3,0.1-0.4,0.1c0,0,0,0,0,0.1c-3.5-3.9-8.6-6.5-14.3-7c-0.1,0-0.2,0-0.3,0c-0.5,0-0.9,0-1.4,0c-0.5,0-0.9,0-1.4,0
		c-0.1,0-0.2,0-0.3,0c-5.7,0.4-10.8,3-14.3,6.9c0,0,0,0,0,0c-0.1,0-0.3-0.1-0.4-0.1c-0.1,0-0.1,0-0.2,0c-0.1,0-0.2,0-0.3,0
		c-0.1,0-0.2,0-0.3,0c-0.1,0-0.2,0-0.3,0c-0.1,0-0.3,0-0.4,0c0,0,0,0,0,0c-3.4,0.1-9.3,1.8-11.3,7.2c-2.4,6.8-1,16.6-2.5,20.7
		c-0.5,1.5-0.4,2.6,0,3.4c0.1,0.2,0.1,0.4,0.2,0.5c0.1,0.2,0.1,0.4,0.2,0.5c0.1,0.2,0.1,0.3,0.2,0.5c0.1,0.2,0.1,0.4,0.2,0.5
		c0.1,0.2,0.1,0.4,0.2,0.5c0.1,0.2,0.1,0.4,0.2,0.5c0.1,0.2,0.1,0.4,0.2,0.5c0.1,0.2,0.1,0.3,0.2,0.5c0.1,0.2,0.1,0.4,0.2,0.5
		c0.1,0.2,0.1,0.3,0.2,0.5c0.1,0.2,0.1,0.4,0.2,0.5c0.1,0.2,0.1,0.3,0.2,0.5c0.1,0.2,0.1,0.3,0.2,0.5c0.1,0.2,0.1,0.3,0.2,0.5
		c0.1,0.2,0.1,0.4,0.2,0.5c0.1,0.2,0.1,0.3,0.2,0.5c0.1,0.2,0.1,0.4,0.2,0.5c0.1,0.2,0.1,0.4,0.2,0.5c0.1,0.2,0.1,0.4,0.2,0.5
		c0.1,0.2,0.1,0.3,0.2,0.5c0.1,0.2,0.1,0.3,0.2,0.5c0.1,0.2,0.1,0.3,0.2,0.5c0.1,0.2,0.1,0.3,0.2,0.5c0.1,0.2,0.1,0.4,0.2,0.5
		c0.1,0.2,0.1,0.3,0.2,0.5c0.1,0.2,0.1,0.3,0.2,0.5c0.1,0.2,0.1,0.3,0.2,0.5c0.1,0.2,0.1,0.3,0.2,0.5c0.1,0.2,0.1,0.3,0.2,0.5
		c0.1,0.2,0.1,0.3,0.2,0.5c0.1,0.2,0.1,0.3,0.2,0.5c0.1,0.2,0.1,0.4,0.2,0.5c0.1,0.2,0.1,0.3,0.2,0.5c0.1,0.2,0.1,0.4,0.2,0.5
		c0.1,0.2,0.1,0.3,0.2,0.5c0.1,0.2,0.1,0.4,0.2,0.5c0.1,0.2,0.1,0.3,0.2,0.5c0.1,0.2,0.1,0.3,0.2,0.5c0.1,0.2,0.1,0.3,0.2,0.5
		c0.1,0.2,0.1,0.4,0.2,0.5c0.1,0.2,0.1,0.3,0.2,0.5c0.1,0.2,0.1,0.3,0.2,0.5c0.1,0.2,0.1,0.3,0.2,0.5c0.1,0.2,0.1,0.4,0.2,0.5
		c0.1,0.2,0.1,0.3,0.2,0.5c0.1,0.2,0.1,0.3,0.2,0.5c0.1,0.2,0.1,0.4,0.2,0.5c0.1,0.2,0.1,0.3,0.2,0.5c0.1,0.2,0.1,0.4,0.2,0.5
		c0.1,0.2,0.1,0.4,0.2,0.5c0.1,0.2,0.1,0.3,0.2,0.5c0.1,0.2,0.1,0.3,0.2,0.5c0.1,0.2,0.1,0.4,0.2,0.5c0.1,0.2,0.1,0.4,0.2,0.5
		c0.1,0.2,0.1,0.3,0.2,0.5c0.1,0.2,0.1,0.4,0.2,0.5c0.1,0.2,0.1,0.3,0.2,0.5c0.1,0.2,0.1,0.4,0.2,0.5c0.1,0.2,0.1,0.3,0.2,0.5
		c0.1,0.2,0.1,0.3,0.2,0.5c0.1,0.2,0.1,0.4,0.2,0.5c0.1,0.2,0.1,0.3,0.2,0.5c0.1,0.2,0.1,0.4,0.2,0.5c0.1,0.2,0.1,0.3,0.2,0.5
		c0.1,0.2,0.1,0.4,0.2,0.5c0.1,0.2,0.1,0.3,0.2,0.5c0.1,0.2,0.1,0.4,0.2,0.5c0.1,0.2,0.1,0.3,0.2,0.5c0.1,0.2,0.1,0.3,0.2,0.5
		c0.1,0.2,0.1,0.3,0.2,0.5c0.1,0.2,0.1,0.4,0.2,0.5c0.1,0.2,0.1,0.3,0.2,0.5c0.1,0.2,0.1,0.4,0.2,0.5c0.1,0.2,0.1,0.3,0.2,0.5
		c0.1,0.2,0.1,0.3,0.2,0.5c0.1,0.2,0.1,0.4,0.2,0.5c0.1,0.2,0.1,0.3,0.2,0.5c0.1,0.2,0.1,0.4,0.2,0.5c0.1,0.2,0.1,0.3,0.2,0.5
		c0,0.1,0,0.1,0.1,0.2c4.9,1.7,10.1,2.5,15.5,2.5C74.4,107.5,91.3,97,100.4,81.4z"/>
	<g>
		<path class="st2" d="M55,27.1c-11.5,0-20.8,8.8-20.8,19.7c0,2.9,0,10.3,0,13.5c0,0.2,0,0.4,0,0.5c0.2,7.9,5.2,22,20.8,22
			c16.4,0,20.6-14.1,20.8-22c0-0.2,0-0.3,0-0.5c0-3.3,0-10.6,0-13.5C75.8,35.9,66.5,27.1,55,27.1z"/>
		<path class="st2" d="M70.9,34.1c2.2-0.8,10.8,0.3,13.2,7c2.4,6.8,1,16.6,2.5,20.7c1.5,4.1-1.9,5.3-3.1,5.2
			c-1.2-0.1-8.6,0.5-9.2-11.7C73.7,43.1,70.9,34.1,70.9,34.1z"/>
	</g>
	<g>
		<path class="st3" d="M86.6,61.8c-1.5-4.1-0.1-13.9-2.5-20.7c-2.4-6.7-10.8-7.7-13.1-7.1c3.4,0.6,7.8,2.5,9.5,7.1
			c2.4,6.8,1,16.6,2.5,20.7c1.1,3-0.5,4.5-1.9,5c1.1,0.2,2,0.2,2.4,0.2C84.7,67.1,88.1,65.9,86.6,61.8z"/>
		<path class="st3" d="M55,27.1c-0.4,0-0.7,0-1.1,0c11,0.5,19.8,9.1,19.8,19.7c0,2.9,0,10.3,0,13.5c0,0.2,0,0.4,0,0.5
			c-0.2,7.7-4.2,21.4-19.7,22c0.3,0,0.7,0,1,0c16.4,0,20.6-14.1,20.8-22c0-0.2,0-0.3,0-0.5c0-3.3,0-10.6,0-13.5
			C75.8,35.9,66.5,27.1,55,27.1z"/>
		<path class="st3" d="M72.8,33.9c-0.8,0-1.5,0.1-1.9,0.2c0,0,0,0,0,0.1c3,3.4,4.9,7.8,4.9,12.6c0,2.9,0,10.3,0,13.5
			c0,0.2,0,0.4,0,0.5c0,0.4,0,0.8-0.1,1.3c0.5,1.1,1.1,2,1.8,2.7c0.2-1.4,0.4-2.8,0.4-4c0-0.2,0-0.3,0-0.5c0-3.3,0-10.6,0-13.5
			C78,41.9,76,37.3,72.8,33.9z"/>
	</g>
	<path class="st4" d="M55,27.1c-1,0-2,0.1-3,0.2c0.7,3.1,1.3,7,1.3,9.6c0,23.9-11.7,31-11.9,40.9c3.2,3,7.6,5,13.5,5
		c6,0,10.4-1.9,13.5-4.7c0.1-10.1-11.9-17.1-11.9-41.3c0-2.6,0.7-6.5,1.3-9.6C57,27.2,56,27.1,55,27.1z"/>
	<path class="st5" d="M49.3,55.3c0,2.1-1.7,3.8-3.8,3.8c-2.1,0-3.8-1.7-3.8-3.8c0-2.1,1.7-3.8,3.8-3.8
		C47.6,51.5,49.3,53.2,49.3,55.3z"/>
	<circle class="st6" cx="45.5" cy="55.3" r="1.9"/>
	<path class="st5" d="M68.2,55.3c0,2.1-1.7,3.8-3.8,3.8c-2.1,0-3.8-1.7-3.8-3.8c0-2.1,1.7-3.8,3.8-3.8
		C66.5,51.5,68.2,53.2,68.2,55.3z"/>
	<circle class="st6" cx="64.5" cy="55.3" r="1.9"/>
	<path class="st2" d="M39.1,34.1c-2.2-0.8-10.8,0.3-13.2,7c-2.4,6.8-1,16.6-2.5,20.7c-1.5,4.1,1.9,5.3,3.1,5.2
		c1.2-0.1,8.6,0.5,9.2-11.7C36.3,43.1,39.1,34.1,39.1,34.1z"/>
	<path class="st6" d="M56.3,74.6L62,69c0.5-0.5,0.7-1.2,0.5-1.9c-0.2-0.7-0.7-1.2-1.4-1.3c-5.7-1.2-6.5-1.2-12.2,0
		c-0.7,0.1-1.2,0.7-1.4,1.3c-0.2,0.7,0,1.4,0.5,1.9l5.7,5.7c0.2,0.2,0.3,0.3,0.5,0.4v0.6c-1.9,0.4-3.3,2-3.3,4
		c0,0.5,0.4,0.8,0.8,0.8c0.5,0,0.8-0.4,0.8-0.8c0-1.4,1.1-2.5,2.5-2.5c1.4,0,2.5,1.1,2.5,2.5c0,0.5,0.4,0.8,0.8,0.8
		c0.5,0,0.8-0.4,0.8-0.8c0-2-1.4-3.6-3.3-4V75C56,74.9,56.2,74.8,56.3,74.6z"/>
	<path class="st3" d="M34.2,60.9c0-0.2,0-0.3,0-0.5c0-3.3,0-10.6,0-13.5c0-4.8,1.9-9.3,4.9-12.7c0,0,0,0,0,0
		c-0.4-0.1-1.1-0.2-1.9-0.2c-3.2,3.5-5.1,8-5.1,12.9c0,2.9,0,10.3,0,13.5c0,0.2,0,0.4,0,0.5c0,1.2,0.2,2.5,0.5,3.9
		c0.6-0.7,1.2-1.5,1.8-2.6C34.2,61.7,34.2,61.3,34.2,60.9z"/>
</g>
</svg>
