<?xml version="1.0" encoding="utf-8"?>
<!-- Generator: Adobe Illustrator 22.0.1, SVG Export Plug-In . SVG Version: 6.00 Build 0)  -->
<svg version="1.1" id="Layer_1" xmlns="http://www.w3.org/2000/svg" xmlns:xlink="http://www.w3.org/1999/xlink" x="0px" y="0px"
	 viewBox="0 0 110 110" style="enable-background:new 0 0 110 110;" xml:space="preserve">
<style type="text/css">
	.st0{fill:#B2E3FF;}
	.st1{fill:#A9D8F2;}
	.st2{fill:#FFD464;}
	.st3{fill:#E6BF5A;}
	.st4{fill:#F5F5F5;}
	.st5{fill:#242424;}
	.st6{fill:#1A1A1A;}
</style>
<g>
	<circle class="st0" cx="55" cy="55" r="52.5"/>
	<path class="st1" d="M86.7,96.9c0,0,0-0.1,0-0.1c-0.1-0.2-0.1-0.3-0.2-0.5c-0.1-0.2-0.1-0.3-0.2-0.5c-0.1-0.2-0.1-0.3-0.2-0.5
		c-0.1-0.2-0.1-0.3-0.2-0.5c-0.1-0.2-0.1-0.3-0.2-0.5c-0.1-0.2-0.1-0.3-0.2-0.5c-0.1-0.2-0.1-0.3-0.2-0.5c-0.1-0.2-0.1-0.3-0.2-0.5
		c-0.1-0.2-0.1-0.3-0.2-0.5c-0.1-0.2-0.1-0.3-0.2-0.5c-0.1-0.2-0.1-0.3-0.2-0.5c-0.1-0.2-0.1-0.3-0.2-0.5c-0.1-0.2-0.1-0.4-0.2-0.5
		c-0.1-0.2-0.1-0.3-0.2-0.5c-0.1-0.2-0.1-0.3-0.2-0.5c-0.1-0.2-0.1-0.3-0.2-0.5c-0.1-0.2-0.1-0.3-0.2-0.5C83.1,88,83,87.8,83,87.7
		c-0.1-0.2-0.1-0.3-0.2-0.5c-0.1-0.2-0.1-0.3-0.2-0.5c-0.1-0.2-0.1-0.3-0.2-0.5c-0.1-0.2-0.1-0.3-0.2-0.5c-0.1-0.2-0.1-0.3-0.2-0.5
		c-0.1-0.2-0.1-0.3-0.2-0.5c-0.1-0.2-0.1-0.3-0.2-0.5c-0.1-0.2-0.1-0.3-0.2-0.5c-0.1-0.2-0.1-0.4-0.2-0.5c-0.1-0.2-0.1-0.3-0.2-0.5
		c-0.1-0.2-0.1-0.3-0.2-0.5c-0.1-0.2-0.1-0.3-0.2-0.5c-0.1-0.2-0.1-0.3-0.2-0.5c-0.1-0.2-0.1-0.3-0.2-0.5c-0.1-0.2-0.1-0.3-0.2-0.5
		c-0.1-0.2-0.1-0.3-0.2-0.5c-0.1-0.2-0.1-0.3-0.2-0.5c-0.1-0.2-0.1-0.3-0.2-0.5c-0.1-0.2-0.1-0.3-0.2-0.5c-0.1-0.2-0.1-0.3-0.2-0.5
		c-0.1-0.2-0.1-0.3-0.2-0.5c-0.1-0.2-0.1-0.3-0.2-0.5c-0.1-0.2-0.1-0.4-0.2-0.5c-0.1-0.2-0.1-0.3-0.2-0.5c-0.1-0.2-0.1-0.3-0.2-0.5
		c-0.1-0.2-0.1-0.3-0.2-0.5c-0.1-0.2-0.1-0.3-0.2-0.5c-0.1-0.2-0.1-0.3-0.2-0.5c-0.1-0.2-0.1-0.3-0.2-0.5c-0.1-0.2-0.1-0.3-0.2-0.5
		c-0.1-0.2-0.1-0.3-0.2-0.5c-0.1-0.2-0.1-0.3-0.2-0.5c-0.1-0.2-0.1-0.3-0.2-0.5c-0.1-0.2-0.1-0.3-0.2-0.5c-0.1-0.2-0.1-0.3-0.2-0.5
		c-0.1-0.2-0.1-0.3-0.2-0.5c-0.1-0.2-0.1-0.4-0.2-0.5c-0.1-0.2-0.1-0.3-0.2-0.5c-0.1-0.2-0.1-0.3-0.2-0.5c-0.1-0.2-0.1-0.3-0.2-0.5
		c-0.1-0.2-0.1-0.3-0.2-0.5c-0.1-0.2-0.1-0.3-0.2-0.5c-0.1-0.2-0.1-0.3-0.2-0.5c-0.1-0.2-0.1-0.3-0.2-0.5c-0.1-0.2-0.1-0.3-0.2-0.5
		c-0.1-0.2-0.1-0.3-0.2-0.5c-0.1-0.2-0.1-0.3-0.2-0.5c-0.1-0.2-0.1-0.3-0.2-0.5c-0.1-0.2-0.1-0.3-0.2-0.5c-0.1-0.2-0.1-0.4-0.2-0.5
		c-0.1-0.2-0.1-0.3-0.2-0.5c-0.1-0.2-0.1-0.3-0.2-0.5c-0.1-0.2-0.1-0.3-0.2-0.5c-0.1-0.2-0.1-0.3-0.2-0.5c-0.1-0.2-0.1-0.3-0.2-0.5
		c-0.1-0.2-0.1-0.3-0.2-0.5c-0.1-0.2-0.1-0.3-0.2-0.5c-0.1-0.2-0.1-0.3-0.2-0.5C71.1,58.3,71,58.1,71,58c-0.1-0.2-0.1-0.3-0.2-0.5
		c-0.1-0.2-0.1-0.3-0.2-0.5c-0.1-0.2-0.1-0.3-0.2-0.5c-0.1-0.2-0.1-0.3-0.2-0.5c-0.1-0.2-0.1-0.4-0.2-0.5c-0.1-0.2-0.1-0.3-0.2-0.5
		c-0.1-0.2-0.1-0.3-0.2-0.5c-0.1-0.2-0.1-0.3-0.2-0.5c-0.1-0.2-0.1-0.3-0.2-0.5c-0.1-0.2-0.1-0.3-0.2-0.5c-0.1-0.2-0.1-0.3-0.2-0.5
		c-0.1-0.2-0.1-0.3-0.2-0.5c-0.1-0.2-0.1-0.3-0.2-0.5c-0.1-0.2-0.1-0.3-0.2-0.5c-0.1-0.2-0.1-0.3-0.2-0.5c-0.1-0.2-0.1-0.3-0.2-0.5
		c-0.1-0.2-0.1-0.3-0.2-0.5c-0.1-0.2-0.1-0.3-0.2-0.5c-0.1-0.2-0.1-0.4-0.2-0.5C67,48.2,67,48,66.9,47.9c-0.1-0.2-0.1-0.3-0.2-0.5
		c-0.1-0.2-0.1-0.3-0.2-0.5c-0.1-0.2-0.1-0.3-0.2-0.5c-0.1-0.2-0.1-0.3-0.2-0.5c-0.1-0.2-0.1-0.3-0.2-0.5c-0.1-0.2-0.1-0.3-0.2-0.5
		c-0.1-0.2-0.1-0.3-0.2-0.5c-0.1-0.2-0.1-0.3-0.2-0.5c-0.1-0.2-0.1-0.3-0.2-0.5c-0.1-0.2-0.1-0.3-0.2-0.5c-0.1-0.2-0.1-0.3-0.2-0.5
		c-0.1-0.2-0.1-0.4-0.2-0.5c-0.1-0.2-0.1-0.3-0.2-0.5c-0.1-0.2-0.1-0.3-0.2-0.5c-0.1-0.2-0.1-0.3-0.2-0.5c-0.1-0.2-0.1-0.3-0.2-0.5
		c-0.1-0.2-0.1-0.3-0.2-0.5c-0.1-0.2-0.1-0.3-0.2-0.5c-0.1-0.2-0.1-0.3-0.2-0.5c-0.1-0.2-0.1-0.3-0.2-0.5c-0.1-0.2-0.1-0.3-0.2-0.5
		c-0.1-0.2-0.1-0.3-0.2-0.5c-0.1-0.2-0.1-0.3-0.2-0.5c-0.1-0.2-0.1-0.3-0.2-0.5c-0.1-0.2-0.1-0.3-0.2-0.5c-0.1-0.2-0.1-0.4-0.2-0.5
		c-0.1-0.2-0.1-0.3-0.2-0.5c-0.1-0.2-0.1-0.3-0.2-0.5c-0.1-0.2-0.1-0.3-0.2-0.5c-0.1-0.2-0.1-0.3-0.2-0.5c-0.1-0.2-0.1-0.3-0.2-0.5
		c-1.3-3.3-2.7-5.8-4-7.1c-2-1.9-4.7-2.9-7.8-2.9c0,0,0,0,0,0c-5.5,0.1-9.6,4.6-9.7,4.8c-0.3,0.3-0.5,0.7-0.5,1.2
		c0,0.4-0.1,0.7-0.1,1.1c0,0,0,0,0,0c0,0-0.1,0.1-0.1,0.1c-0.1,0.1-0.2,0.1-0.4,0.2c0,0,0,0-0.1,0c-0.2,0.1-0.3,0.2-0.5,0.3
		c0,0-0.1,0-0.1,0c-0.2,0.1-0.3,0.2-0.5,0.3c0,0,0,0-0.1,0c-3.3,2-8.3,5.2-8.3,6.3c0,0.1,0.1,0.2,0.3,0.3c0,0.1,0,0.1,0,0.2
		c0,0.1,0.1,0.2,0.3,0.3c0,0.1,0,0.1,0,0.2c0,0.1,0.1,0.2,0.3,0.3c0,0.1,0,0.1,0,0.2c0,0.1,0.1,0.2,0.3,0.3c0,0.1,0,0.1,0,0.2
		c0,0.1,0.1,0.2,0.3,0.3c0,0.1,0,0.1,0,0.2c0,0.1,0.1,0.2,0.3,0.3c0,0.1,0,0.1,0,0.2c0,0.1,0.1,0.2,0.3,0.3c0,0.1,0,0.1,0,0.2
		c0,0.1,0.1,0.2,0.3,0.3c0,0.1,0,0.1,0,0.2c0,0.1,0.1,0.2,0.3,0.3c0,0.1,0,0.1,0,0.2c0,0.1,0.1,0.2,0.3,0.3c0,0.1,0,0.1,0,0.2
		c0,0.1,0.1,0.2,0.3,0.3c0,0.1,0,0.1,0,0.2c0,0.1,0.1,0.2,0.3,0.3c0,0.1,0,0.1,0,0.2c0,0.1,0.1,0.2,0.3,0.3c0,0.1,0,0.1,0,0.2
		c0,0.1,0.1,0.2,0.3,0.3c0,0.1,0,0.1,0,0.2c0,0.1,0.1,0.2,0.3,0.3c0,0.1,0,0.1,0,0.2c0,0.1,0.1,0.2,0.3,0.3c0,0.1,0,0.1,0,0.2
		c0,0.1,0.1,0.2,0.3,0.3c0,0.1,0,0.1,0,0.2c0,0.1,0.1,0.2,0.3,0.3c0,0.1,0,0.1,0,0.2c0,0.1,0.1,0.2,0.3,0.3c0,0.1,0,0.1,0,0.2
		c0,0.1,0.1,0.2,0.3,0.3c0,0.1,0,0.1,0,0.2c0,0.1,0.1,0.2,0.3,0.3c0,0.1,0,0.1,0,0.2c0,0.1,0.1,0.2,0.3,0.3c0,0.1,0,0.1,0,0.2
		c0,0.1,0.1,0.2,0.3,0.3c0,0.1,0,0.1,0,0.2c0,0.1,0.1,0.2,0.3,0.3c0,0.1,0,0.1,0,0.2c0,0.1,0.1,0.2,0.3,0.3c0,0.1,0,0.1,0,0.2
		c0,0.1,0.1,0.2,0.3,0.3c0,0.1,0,0.1,0,0.2c0,0.1,0.1,0.2,0.3,0.3c0,0.1,0,0.1,0,0.2c0,0.1,0.1,0.2,0.3,0.3c0,0.1,0,0.1,0,0.2
		c0,0.1,0.1,0.2,0.3,0.3c0,0.1,0,0.1,0,0.2c0,0.1,0.1,0.2,0.3,0.3c0,0.1,0,0.1,0,0.2c0,0.1,0.1,0.2,0.3,0.3c0,0.1,0,0.1,0,0.2
		c0,0.1,0.1,0.2,0.3,0.3c0,0.1,0,0.1,0,0.2c0,0.1,0.1,0.2,0.3,0.3c0,0.1,0,0.1,0,0.2c0,0.1,0.1,0.2,0.3,0.3c0,0.1,0,0.1,0,0.2
		c0,0.1,0.1,0.2,0.3,0.3c0,0.1,0,0.1,0,0.2c0,0.1,0.1,0.2,0.3,0.3c0,0.1,0,0.1,0,0.2c0,0.1,0.1,0.2,0.3,0.3c0,0.1,0,0.1,0,0.2
		c0,0.1,0.1,0.2,0.3,0.3c0,0.1,0,0.1,0,0.2c0,0.1,0.1,0.2,0.3,0.3c0,0.1,0,0.1,0,0.2c0,0.1,0.1,0.2,0.3,0.3c0,0.1,0,0.1,0,0.2
		c0,0.1,0.1,0.2,0.3,0.3c0,0.1,0,0.1,0,0.2c0,0.1,0.1,0.2,0.3,0.3c0,0.1,0,0.1,0,0.2c0,0.1,0.1,0.2,0.3,0.3c0,0.1,0,0.1,0,0.2
		c0,0.1,0.1,0.2,0.3,0.3c0,0.1,0,0.1,0,0.2c0,0.1,0.1,0.2,0.3,0.3c0,0.1,0,0.1,0,0.2c0,0.1,0.1,0.2,0.3,0.3c0,0.1,0,0.1,0,0.2
		c0,0.1,0.1,0.2,0.3,0.3c0,0.1,0,0.1,0,0.2c0,0.1,0.1,0.2,0.3,0.3c0,0.1,0,0.1,0,0.2c0,0.1,0.1,0.2,0.3,0.3c0,0.1,0,0.1,0,0.2
		c0,0.1,0.1,0.2,0.3,0.3c0,0.1,0,0.1,0,0.2c0,0.1,0.1,0.2,0.3,0.3c0,0.1,0,0.1,0,0.2c0,0.1,0.1,0.2,0.3,0.3c0,0.1,0,0.1,0,0.2
		c0,0.1,0.1,0.2,0.2,0.3c0,0.1,0,0.1,0,0.2c0,0,0,0.1,0,0.1c0,0,0,0.1,0.1,0.1c0.7,3.5,1.6,6.6,2.8,9.3c0.1,0.2,0.1,0.3,0.2,0.5
		c0.1,0.2,0.1,0.3,0.2,0.5c0.1,0.2,0.1,0.3,0.2,0.5c0.1,0.2,0.1,0.3,0.2,0.5c0.1,0.2,0.1,0.3,0.2,0.5c0.1,0.2,0.1,0.3,0.2,0.5
		c0.1,0.2,0.1,0.3,0.2,0.5c0.1,0.2,0.1,0.3,0.2,0.5c0.1,0.2,0.1,0.3,0.2,0.5c0.1,0.2,0.1,0.3,0.2,0.5c0.1,0.2,0.1,0.3,0.2,0.5
		c0.1,0.2,0.1,0.3,0.2,0.5c0.1,0.2,0.1,0.3,0.2,0.5c0.1,0.2,0.1,0.3,0.2,0.5c0,0.1,0,0.1,0.1,0.2l-0.1,0l0,0l-5.5,4.1
		c-0.7,0.5-1,1.5-0.7,2.3c0,0.1,0.1,0.3,0.2,0.4c0,0,0,0.1,0,0.1c0,0.1,0.1,0.3,0.2,0.4c0,0,0,0.1,0,0.1c0,0.1,0.1,0.3,0.2,0.4
		c0,0,0,0.1,0,0.1c0,0.1,0.1,0.3,0.2,0.4c0,0,0,0.1,0,0.1c0,0.1,0.1,0.3,0.2,0.4c0,0,0,0.1,0,0.1c0,0.1,0.1,0.3,0.2,0.4
		c0,0,0,0.1,0,0.1c0,0.1,0.1,0.3,0.2,0.4c0,0,0,0.1,0,0.1c0,0.1,0.1,0.3,0.2,0.4c0,0,0,0.1,0,0.1c0,0.1,0.1,0.3,0.2,0.4
		c0,0,0,0.1,0,0.1c0,0.1,0.1,0.3,0.2,0.4c0,0,0,0.1,0,0.1c0,0.1,0.1,0.3,0.2,0.4c0,0,0,0.1,0,0.1c0,0.1,0.1,0.3,0.2,0.4
		c0,0,0,0.1,0,0.1c0,0.1,0.1,0.3,0.2,0.4c0,0,0,0.1,0,0.1c0,0.1,0.1,0.3,0.2,0.4c0,0,0,0.1,0,0.1c0,0.1,0.1,0.3,0.2,0.4
		c0,0,0,0.1,0,0.1c0,0.1,0.1,0.3,0.2,0.4c0,0,0,0.1,0,0.1c0,0.1,0.1,0.3,0.2,0.4c0,0,0,0.1,0,0.1c0,0.1,0.1,0.3,0.2,0.4
		c0,0,0,0.1,0,0.1c0,0.1,0.1,0.3,0.2,0.4c0,0,0,0.1,0,0.1c0,0.1,0.1,0.3,0.2,0.4c0,0,0,0.1,0,0.1c0,0.1,0.1,0.3,0.2,0.4
		c0,0,0,0.1,0,0.1c0,0.1,0.1,0.3,0.2,0.4c0,0,0,0.1,0,0.1c0,0.1,0.1,0.3,0.2,0.4c0,0,0,0.1,0,0.1c0,0.1,0.1,0.3,0.2,0.4
		c0,0,0,0.1,0,0.1c0,0.1,0.1,0.3,0.2,0.4c0,0,0,0.1,0,0.1c0,0.1,0.1,0.3,0.2,0.4c0,0,0,0.1,0,0.1c0,0.1,0.1,0.3,0.2,0.4
		c0,0,0,0.1,0,0.1c0,0.1,0.1,0.3,0.2,0.4c0,0,0,0.1,0,0.1c0,0.1,0.1,0.3,0.2,0.4c0,0,0,0.1,0,0.1c0,0.1,0.1,0.3,0.2,0.4
		c0,0,0,0.1,0,0.1c0,0.1,0.1,0.3,0.2,0.4c0,0,0,0.1,0,0.1c0,0.1,0.1,0.3,0.2,0.4c0,0,0,0.1,0,0.1c0,0.1,0.1,0.3,0.2,0.4
		c0,0,0,0.1,0,0.1c0,0.1,0.1,0.3,0.2,0.4c0,0,0,0.1,0,0.1c0,0.1,0.1,0.3,0.2,0.4c0,0,0,0.1,0,0.1c0,0.1,0.1,0.3,0.2,0.4
		c0,0,0,0.1,0,0.1c0,0.1,0.1,0.3,0.2,0.4c0,0,0,0.1,0,0.1c0,0.1,0.1,0.3,0.2,0.4c0,0,0,0.1,0,0.1c0,0.1,0.1,0.3,0.2,0.4
		c0,0,0,0.1,0,0.1c0,0.1,0.1,0.3,0.2,0.4c0,0,0,0.1,0,0.1c0,0.1,0.1,0.2,0.2,0.3c2.6,0.4,5.3,0.6,8.1,0.6
		C66.9,107.5,77.9,103.5,86.7,96.9z"/>
	<path class="st2" d="M38.5,40.6c-0.2,0-0.4,0-0.6-0.1c0,0-9.6-3.2-9.6-4c0-1.7,11.2-8,11.2-8c1-0.6,2.2-0.2,2.8,0.7
		c0.6,1,0.2,2.2-0.7,2.8l-2.5,4.5c1.1,0.3,1.7,1.4,1.4,2.5C40.3,40,39.4,40.6,38.5,40.6z"/>
	<path class="st3" d="M39.6,28.6c0,0-1.2,0.7-2.8,1.6c-0.3,3.4-0.5,6.6-0.6,9.7c1.1,0.4,1.8,0.6,1.8,0.6c0.2,0.1,0.4,0.1,0.6,0.1
		c0.9,0,1.7-0.6,2-1.5c0.3-1.1-0.3-2.2-1.4-2.5l2.5-4.5c1-0.6,1.3-1.8,0.7-2.8C41.8,28.4,40.5,28,39.6,28.6z"/>
	<path class="st2" d="M63.1,87.8H40.6c-0.9,0-1.7-0.6-1.9-1.4c-0.3-0.8,0-1.8,0.7-2.3l8.2-6.2l2.5,3.3l13.1,2.5L63.1,87.8L63.1,87.8
		z"/>
	<path class="st3" d="M47.6,78l-2.7,2c1.6,1.8,3.4,3.3,5.5,4.5c4.7,2.7,9.2,3.2,11.6,3.4h1.2v-4.1L50,81.2L47.6,78z"/>
	<path class="st4" d="M64.5,87.8c-2,0-7.1-0.3-12.5-3.4c-10.3-5.9-14.9-19.9-14.2-43.6c0-1.6,10-3.5,16.2,5.8
		c11.5,11.2,15.7,41.1,15.7,41.1h-4.5C65.2,87.8,64.9,87.8,64.5,87.8z"/>
	<path class="st5" d="M80.5,83.9c-2.5-1.7-6.4-4.5-7.6-5.6c-0.6-1.3-2.2-7.9-3.5-13.7c0-0.2-0.1-0.4-0.1-0.6c0,0,0,0,0,0
		c-0.4-1.6-0.8-3.2-1.1-4.8c-0.1-0.2-0.1-0.5-0.2-0.7C64.1,42.2,60.5,29,56.5,25.1c-2-1.9-4.7-2.9-7.8-2.9c0,0,0,0,0,0
		c-5.5,0.1-9.6,4.6-9.7,4.8c-0.3,0.3-0.5,0.7-0.5,1.2c-0.4,4.5-0.7,8.7-0.8,12.7c0.8-0.1,1.7-0.2,2.8-0.2c2.6,0,6.2,0.8,6.2,8.2
		c0,0.1,0,0.2,0,0.3c1,6.1,4.8,26,11.6,28.3c0.2,0.1,0.4,0.1,0.6,0.1c0.4,0,0.8-0.1,1.1-0.3c0.5-0.3,0.9-0.9,0.9-1.5
		c0.9-7,1-11.4,0.9-14.5c1.2,7.7,2.4,21.3,7.7,26.6h9.8c0,0,0,0,0,0c1.1,0,2.1-0.9,2.1-2C81.6,84.9,81.2,84.2,80.5,83.9z"/>
	<g>
		<path class="st6" d="M62,61.5c0.1,3.1-2.5,7.3-3.4,14.3c-0.1,0.6-0.4,1.1-0.9,1.4c0.2,0.1,0.4,0.2,0.6,0.3
			c0.2,0.1,0.4,0.1,0.6,0.1c0.4,0,0.8-0.1,1.1-0.3c0.5-0.3,0.9-0.9,0.9-1.5C61.2,74.9,62.9,67.9,62,61.5z"/>
		<path class="st6" d="M80.5,83.9c-2.5-1.7-6.4-4.5-7.6-5.6c-0.6-1.3-2.2-7.9-3.5-13.7c0-0.2-0.1-0.4-0.1-0.6c0,0,0,0,0,0
			c-0.4-1.6-0.8-3.2-1.1-4.8c-0.1-0.2-0.1-0.5-0.2-0.7C64.1,42.2,60.5,29,56.5,25.1c-2-1.9-4.7-2.9-7.8-2.9c0,0,0,0,0,0
			c-0.4,0-0.8,0-1.1,0.1c2.5,0.3,4.8,1.3,6.4,2.9c4,3.8,7.6,17.1,11.5,33.4c0.1,0.2,0.1,0.5,0.2,0.7c0.4,1.6,0.7,3.2,1.1,4.8
			c0,0,0,0,0,0c0,0.2,0.1,0.4,0.1,0.6c1.3,5.8,2.9,12.3,3.5,13.7c1.2,1.1,5.1,3.9,7.6,5.6c0.7,0.3,1.1,1,1.1,1.8
			c0,1.1-0.9,2.1-2.1,2.1h2.4c0,0,0,0,0,0c1.1,0,2.1-0.9,2.1-2.1C81.6,84.9,81.2,84.2,80.5,83.9z"/>
	</g>
	<path class="st4" d="M44.7,34.9c-0.7,0-1.3-0.2-1.7-0.7c-0.5-0.4-0.7-1.1-0.7-1.8c0-0.6,0.2-1.3,0.7-1.8c0.9-0.9,2.6-0.9,3.5,0
		c0.4,0.4,0.7,1.1,0.7,1.7c0,0.7-0.3,1.3-0.7,1.8C46,34.7,45.3,34.9,44.7,34.9z"/>
	<path class="st5" d="M44.7,34.1c-0.4,0-0.9-0.2-1.2-0.5c-0.3-0.3-0.5-0.7-0.5-1.2c0-0.4,0.2-0.9,0.5-1.2c0.6-0.6,1.7-0.6,2.3,0
		c0.3,0.3,0.5,0.7,0.5,1.2c0,0.4-0.2,0.9-0.5,1.2C45.5,33.9,45.1,34.1,44.7,34.1z"/>
</g>
</svg>
