<?xml version="1.0" encoding="utf-8"?>
<!-- Generator: Adobe Illustrator 22.0.1, SVG Export Plug-In . SVG Version: 6.00 Build 0)  -->
<svg version="1.1" id="Layer_1" xmlns="http://www.w3.org/2000/svg" xmlns:xlink="http://www.w3.org/1999/xlink" x="0px" y="0px"
	 viewBox="0 0 110 110" style="enable-background:new 0 0 110 110;" xml:space="preserve">
<style type="text/css">
	.st0{fill:#4AB8A1;}
	.st1{fill:#43A691;}
	.st2{fill:#FFD464;}
	.st3{fill:#F2C95F;}
	.st4{fill:#C23527;}
	.st5{fill:#B33124;}
	.st6{fill:#F5F5F5;}
	.st7{fill:#406A80;}
	.st8{fill:#395F73;}
	.st9{fill:#242424;}
	.st10{fill:#70CCBD;}
</style>
<g>
	<circle class="st0" cx="55" cy="55" r="52.5"/>
	<path class="st1" d="M103.9,74.1c0-0.1-0.1-0.1-0.1-0.2c-0.1-0.2-0.1-0.3-0.2-0.5c-0.1-0.2-0.1-0.3-0.2-0.5
		c-0.1-0.2-0.1-0.3-0.2-0.5c-0.1-0.2-0.1-0.3-0.2-0.5c-0.1-0.2-0.1-0.3-0.2-0.5c-0.1-0.2-0.1-0.3-0.2-0.5c-0.1-0.2-0.1-0.3-0.2-0.5
		c-0.1-0.2-0.1-0.3-0.2-0.5c-0.1-0.2-0.1-0.3-0.2-0.5c-0.1-0.2-0.1-0.3-0.2-0.5c-0.1-0.2-0.1-0.3-0.2-0.5c-0.1-0.2-0.1-0.3-0.2-0.5
		c-0.1-0.2-0.1-0.3-0.2-0.5c-0.1-0.2-0.1-0.3-0.2-0.5c-0.1-0.2-0.1-0.3-0.2-0.5c-0.1-0.2-0.1-0.3-0.2-0.5c-0.1-0.2-0.1-0.3-0.2-0.5
		c-0.1-0.2-0.1-0.3-0.2-0.5c-0.1-0.2-0.1-0.3-0.2-0.5c-0.1-0.2-0.1-0.3-0.2-0.5c-0.1-0.2-0.1-0.3-0.2-0.5c-0.1-0.2-0.1-0.3-0.2-0.5
		c-0.1-0.2-0.1-0.3-0.2-0.5c-0.1-0.2-0.1-0.3-0.2-0.5c-0.1-0.2-0.1-0.3-0.2-0.5c-0.1-0.2-0.1-0.3-0.2-0.5c-0.1-0.2-0.1-0.3-0.2-0.5
		c-0.1-0.2-0.1-0.3-0.2-0.5c-0.1-0.2-0.1-0.3-0.2-0.5c-0.1-0.2-0.1-0.3-0.2-0.5c-0.1-0.2-0.1-0.3-0.2-0.5c-0.1-0.2-0.1-0.3-0.2-0.5
		c-0.1-0.2-0.1-0.3-0.2-0.5c-0.1-0.2-0.1-0.3-0.2-0.5c-0.1-0.2-0.1-0.3-0.2-0.5c-0.1-0.2-0.1-0.3-0.2-0.5c-0.1-0.2-0.1-0.3-0.2-0.5
		c-0.1-0.2-0.1-0.3-0.2-0.5c-0.1-0.2-0.1-0.3-0.2-0.5c-0.1-0.2-0.1-0.3-0.2-0.5c-0.1-0.2-0.1-0.3-0.2-0.5c-0.1-0.2-0.1-0.3-0.2-0.5
		c-0.1-0.2-0.1-0.3-0.2-0.5c-0.1-0.2-0.1-0.3-0.2-0.5c-0.1-0.2-0.1-0.3-0.2-0.5c-0.1-0.2-0.1-0.3-0.2-0.5c-0.1-0.2-0.1-0.3-0.2-0.5
		c-0.1-0.2-0.1-0.3-0.2-0.5c-0.1-0.2-0.1-0.3-0.2-0.5c-0.1-0.2-0.1-0.3-0.2-0.5c-0.1-0.2-0.1-0.3-0.2-0.5c-0.1-0.2-0.1-0.3-0.2-0.5
		c-0.1-0.2-0.1-0.3-0.2-0.5c-0.1-0.2-0.1-0.3-0.2-0.5c-0.1-0.2-0.1-0.3-0.2-0.5c-0.1-0.2-0.1-0.3-0.2-0.5c-0.1-0.2-0.1-0.3-0.2-0.5
		c-0.1-0.2-0.1-0.3-0.2-0.5c-0.1-0.2-0.1-0.3-0.2-0.5c-0.1-0.2-0.1-0.3-0.2-0.5c-0.1-0.2-0.1-0.3-0.2-0.5c-0.1-0.2-0.1-0.4-0.2-0.5
		c-0.1-0.2-0.1-0.3-0.2-0.5c-0.1-0.2-0.1-0.3-0.2-0.5c-0.1-0.2-0.1-0.3-0.2-0.5c-0.1-0.2-0.1-0.3-0.2-0.5c-0.1-0.2-0.1-0.3-0.2-0.5
		c-0.1-0.2-0.1-0.3-0.2-0.5c-0.1-0.2-0.1-0.3-0.2-0.5c-0.1-0.2-0.1-0.3-0.2-0.5c-0.1-0.2-0.1-0.3-0.2-0.5c-0.1-0.2-0.1-0.3-0.2-0.5
		c-0.1-0.2-0.1-0.3-0.2-0.5c-0.9-2.5-2.9-4.7-6.8-4.7c-1.5,0-3.2,0.3-5.3,1c-2.1,0.7-4.5,1.9-6.8,3.5c0,0-0.1-0.1-0.1-0.1
		c0-0.1,0-0.2-0.1-0.3c0-0.1-0.1-0.1-0.1-0.2c0-0.1,0-0.2-0.1-0.3c0-0.1-0.1-0.1-0.1-0.2c0-0.1,0-0.2-0.1-0.3c0-0.1-0.1-0.1-0.1-0.2
		c0-0.1,0-0.2-0.1-0.3c0-0.1-0.1-0.1-0.1-0.2c0-0.1,0-0.2-0.1-0.3c0-0.1-0.1-0.1-0.1-0.2c0-0.1,0-0.2-0.1-0.3c0-0.1-0.1-0.1-0.1-0.2
		c0-0.1,0-0.2-0.1-0.3c0-0.1-0.1-0.1-0.1-0.2c0-0.1,0-0.2-0.1-0.3c0-0.1-0.1-0.1-0.1-0.2c0-0.1,0-0.2-0.1-0.3c0-0.1-0.1-0.1-0.1-0.2
		c0-0.1,0-0.2-0.1-0.3c0-0.1-0.1-0.1-0.1-0.2c0-0.1,0-0.2-0.1-0.3c0-0.1-0.1-0.1-0.1-0.2c0-0.1,0-0.2-0.1-0.3c0-0.1-0.1-0.1-0.1-0.2
		c0-0.1,0-0.2-0.1-0.3c0-0.1-0.1-0.1-0.1-0.2c0-0.1,0-0.2-0.1-0.3c0-0.1-0.1-0.1-0.1-0.2c0-0.1,0-0.2-0.1-0.3
		C66.9,29,66.4,28.8,66,29c-3.7,1.7-6.7,5.8-7.5,9.8c-1-0.7-2.2-1.1-3.5-1.1c-0.3,0-0.6,0-0.8,0.1c0,0,0,0,0,0
		c-0.9,0.1-1.8,0.4-2.5,0.9c0-0.1-0.1-0.3-0.2-0.4c-0.1-0.2-0.1-0.3-0.2-0.5c-0.1-0.2-0.1-0.3-0.2-0.5C51,37.1,51,37,50.9,36.8
		c-1.3-3.3-3.8-6.3-6.9-7.8c-0.4-0.2-0.9,0-1.1,0.4c-0.1,0.3-0.1,0.7,0.1,0.9c0,0.2,0.1,0.4,0.2,0.5c0,0.2,0.1,0.4,0.2,0.5
		c0,0.2,0.1,0.4,0.2,0.5c0,0.2,0.1,0.4,0.2,0.5c0,0.2,0.1,0.4,0.2,0.5c0,0.2,0.1,0.4,0.2,0.5c0,0.2,0.1,0.4,0.2,0.5
		c0,0.2,0.1,0.4,0.2,0.5c0,0.2,0.1,0.4,0.2,0.5c0,0.2,0.1,0.4,0.2,0.5c0,0.2,0.1,0.4,0.2,0.5c0,0.2,0.1,0.4,0.2,0.5
		c0,0.2,0.1,0.4,0.2,0.5c0,0.2,0.1,0.4,0.2,0.5c0,0.2,0.1,0.4,0.2,0.5c0,0.2,0.1,0.4,0.2,0.5c0,0.2,0.1,0.4,0.2,0.5
		c0,0.2,0.1,0.4,0.2,0.5c0,0.2,0.1,0.4,0.2,0.5c0,0.2,0.1,0.4,0.2,0.5c0,0.2,0.1,0.4,0.2,0.5c0,0.2,0.1,0.4,0.2,0.5
		c0,0.2,0.1,0.4,0.2,0.5c0,0.2,0.1,0.4,0.2,0.5c0,0.2,0.1,0.4,0.2,0.5c0,0.2,0.1,0.4,0.2,0.5c0,0.2,0.1,0.4,0.2,0.5
		c0,0.2,0.1,0.4,0.2,0.5c0,0.1,0,0.2,0,0.2c0,0,0,0.1,0,0.1c-0.5-0.6-1-1.2-1.6-1.7c0,0,0,0,0,0c-4.4-4.5-9.8-8.2-14.1-9.6
		c-2-0.7-3.8-1-5.3-1c-7.7,0-7.7,8.4-7.7,11.1c0,3.7,0.6,6.6,1.5,8.9c0.1,0.2,0.1,0.3,0.2,0.5c0.1,0.2,0.1,0.3,0.2,0.5
		c0.1,0.2,0.1,0.3,0.2,0.5c0.1,0.2,0.1,0.3,0.2,0.5c0.1,0.2,0.1,0.3,0.2,0.5c0.1,0.2,0.1,0.3,0.2,0.5c0.1,0.2,0.1,0.3,0.2,0.5
		c0.1,0.2,0.1,0.3,0.2,0.5c0.1,0.2,0.1,0.3,0.2,0.5c0.1,0.2,0.1,0.3,0.2,0.5c0.1,0.2,0.1,0.3,0.2,0.5c0.1,0.2,0.1,0.3,0.2,0.5
		c0.1,0.2,0.1,0.3,0.2,0.5c0.1,0.2,0.1,0.3,0.2,0.5c0.1,0.2,0.1,0.3,0.2,0.5c0.1,0.2,0.1,0.3,0.2,0.5c0.1,0.2,0.1,0.3,0.2,0.5
		c0.1,0.2,0.1,0.3,0.2,0.5c0.1,0.2,0.1,0.3,0.2,0.5c0.1,0.2,0.1,0.3,0.2,0.5c0.1,0.2,0.1,0.3,0.2,0.5c0.1,0.2,0.1,0.3,0.2,0.5
		c0.1,0.2,0.1,0.3,0.2,0.5c0.1,0.2,0.1,0.3,0.2,0.5c0.1,0.2,0.1,0.3,0.2,0.5c0.1,0.2,0.1,0.3,0.2,0.5c0.1,0.2,0.1,0.3,0.2,0.5
		c0.1,0.2,0.1,0.3,0.2,0.5c0,0,0,0.1,0,0.1c-0.3,1.9,0,3.8,0.8,5.8c0.1,0.2,0.1,0.3,0.2,0.5c0.1,0.2,0.1,0.3,0.2,0.5
		c0.1,0.2,0.1,0.3,0.2,0.5c0.1,0.2,0.1,0.3,0.2,0.5c0.1,0.2,0.1,0.3,0.2,0.5c0.1,0.2,0.1,0.3,0.2,0.5c0.1,0.2,0.1,0.3,0.2,0.5
		c0.1,0.2,0.1,0.3,0.2,0.5c0.1,0.2,0.1,0.3,0.2,0.5c0.1,0.2,0.1,0.3,0.2,0.5c0.1,0.2,0.1,0.3,0.2,0.5c0.1,0.2,0.1,0.3,0.2,0.5
		c0.1,0.2,0.1,0.3,0.2,0.5c0.1,0.2,0.1,0.3,0.2,0.5c0.1,0.2,0.1,0.3,0.2,0.5c0.1,0.2,0.1,0.3,0.2,0.5c0.1,0.2,0.1,0.3,0.2,0.5
		c0.1,0.2,0.1,0.3,0.2,0.5c0.1,0.2,0.1,0.3,0.2,0.5c0.1,0.2,0.1,0.3,0.2,0.5c0.1,0.2,0.1,0.3,0.2,0.5c0.1,0.2,0.1,0.3,0.2,0.5
		c0.1,0.2,0.1,0.3,0.2,0.5c0.1,0.2,0.1,0.3,0.2,0.5c0.1,0.2,0.1,0.3,0.2,0.5c0.1,0.2,0.1,0.3,0.2,0.5c0.1,0.2,0.1,0.3,0.2,0.5
		c0.1,0.2,0.1,0.3,0.2,0.5c0.1,0.2,0.1,0.3,0.2,0.5c0.1,0.2,0.1,0.3,0.2,0.5c0.1,0.2,0.1,0.3,0.2,0.5c0.1,0.2,0.1,0.3,0.2,0.5
		c0.1,0.2,0.1,0.3,0.2,0.5c0.1,0.2,0.1,0.3,0.2,0.5c0.1,0.2,0.1,0.3,0.2,0.5c0.1,0.2,0.1,0.3,0.2,0.5c0.1,0.2,0.1,0.3,0.2,0.5
		c0.1,0.2,0.1,0.3,0.2,0.5c0.1,0.2,0.1,0.3,0.2,0.5c0.1,0.2,0.1,0.3,0.2,0.5c0.1,0.2,0.1,0.3,0.2,0.5c0.1,0.2,0.1,0.3,0.2,0.5
		c0.1,0.2,0.1,0.3,0.2,0.5c0.1,0.2,0.1,0.3,0.2,0.5c0.1,0.2,0.1,0.3,0.2,0.5c0.1,0.2,0.1,0.3,0.2,0.5c0.1,0.2,0.1,0.3,0.2,0.5
		c0.1,0.2,0.1,0.3,0.2,0.5c0.1,0.2,0.1,0.3,0.2,0.5c0.1,0.2,0.1,0.3,0.2,0.5c0.1,0.2,0.1,0.3,0.2,0.5c0.1,0.2,0.1,0.3,0.2,0.5
		c0.1,0.2,0.1,0.3,0.2,0.5c0.1,0.2,0.1,0.3,0.2,0.5c0.1,0.2,0.1,0.3,0.2,0.5c0.1,0.2,0.1,0.3,0.2,0.5c0.1,0.2,0.1,0.3,0.2,0.5
		c0.1,0.2,0.1,0.3,0.2,0.5c0.1,0.2,0.1,0.3,0.2,0.5c0.1,0.2,0.1,0.3,0.2,0.5c0.1,0.2,0.1,0.3,0.2,0.5c0.1,0.2,0.1,0.3,0.2,0.5
		c0.1,0.2,0.1,0.3,0.2,0.5c0.1,0.2,0.1,0.3,0.2,0.5c0.1,0.2,0.1,0.3,0.2,0.5c0.1,0.2,0.1,0.3,0.2,0.5c0,0.1,0,0.1,0.1,0.2
		c4.2,1.1,8.7,1.7,13.3,1.7C77.3,107.5,96.3,93.6,103.9,74.1z"/>
	<g>
		<path class="st2" d="M89.9,43.5c0-2.8,0-11.1-7.7-11.1c-1.5,0-3.2,0.3-5.3,1c-6.6,2.2-15.6,9.6-19.9,17.1v21.8
			c4.5,7.1,9.2,8.7,12.7,8.7c5.4,0,9.8-4,11.8-7.9c1.4-3,1.7-5.8,0.7-8.5c-0.6-1.7-1.8-3.3-3.4-4.7C84.4,58.9,89.9,55,89.9,43.5z"/>
		<path class="st2" d="M20.1,43.5c0-2.8,0-11.1,7.7-11.1c1.5,0,3.2,0.3,5.3,1c6.6,2.2,15.6,9.6,19.9,17.1v21.8
			c-4.5,7.1-9.2,8.7-12.7,8.7c-5.4,0-9.8-4-11.8-7.9c-1.4-3-1.7-5.8-0.7-8.5c0.6-1.7,1.8-3.3,3.4-4.7C25.6,58.9,20.1,55,20.1,43.5z"
			/>
	</g>
	<g>
		<path class="st3" d="M47.1,43.9c0,5,1.8,29.7,2.3,32.8c0,0,0,0.1,0,0.1c1.2-1.2,2.3-2.6,3.5-4.5V50.5c-1.4-2.6-3.5-5.1-5.7-7.5
			C47.2,43.3,47.1,43.6,47.1,43.9z"/>
		<path class="st3" d="M89.9,43.5c0-2.8,0-11.1-7.7-11.1c-0.4,0-0.8,0-1.3,0.1c6.5,0.8,6.5,8.5,6.5,11.1c0,11.4-5.5,15.4-11.1,16.4
			c1.6,1.4,2.7,3,3.4,4.7c1,2.7,0.8,5.5-0.7,8.5c-1.8,3.6-5.7,7.3-10.5,7.8c0.4,0.1,0.8,0.1,1.2,0.1c5.4,0,9.8-4,11.8-7.9
			c1.4-3,1.7-5.8,0.7-8.5c-0.6-1.7-1.8-3.3-3.4-4.7C84.4,58.9,89.9,55,89.9,43.5z"/>
	</g>
	<path class="st4" d="M82.1,64.7c-0.6-1.7-1.8-3.3-3.4-4.7c0.1,0,0.2,0,0.3-0.1c-5.8-3.8-13.5-6.1-22-6.1v18.6
		c4.5,7.1,9.2,8.7,12.7,8.7c5.4,0,9.8-4,11.8-7.9C82.9,70.2,83.1,67.3,82.1,64.7z"/>
	<path class="st5" d="M78.7,60c0.1,0,0.2,0,0.3-0.1c-0.2-0.2-0.5-0.3-0.7-0.4c-0.7,0.2-1.3,0.4-2,0.5c1.6,1.4,2.7,3,3.4,4.7
		c1,2.7,0.8,5.5-0.7,8.5c-1.8,3.6-5.7,7.3-10.5,7.8c0.4,0.1,0.8,0.1,1.2,0.1c5.4,0,9.8-4,11.8-7.9c1.4-3,1.7-5.8,0.7-8.5
		C81.5,63,80.3,61.4,78.7,60z"/>
	<path class="st4" d="M27.9,64.7c0.6-1.7,1.8-3.3,3.4-4.7c-0.1,0-0.2,0-0.3-0.1c5.8-3.8,13.5-6.1,22-6.1v18.6
		c-4.5,7.1-9.2,8.7-12.7,8.7c-5.4,0-9.8-4-11.8-7.9C27.1,70.2,26.9,67.3,27.9,64.7z"/>
	<path class="st5" d="M49.4,76.7c0,0,0,0.1,0,0.1c0,0,0,0,0,0c0.3-0.3,0.6-0.6,0.9-0.9c0,0,0,0,0,0c0.3-0.3,0.5-0.6,0.8-1
		c0,0,0,0,0.1-0.1c0.3-0.3,0.5-0.7,0.8-1c0-0.1,0.1-0.1,0.1-0.2c0.3-0.4,0.6-0.8,0.9-1.3V53.8c-1.8,0-3.6,0.1-5.3,0.3
		C48.2,63.1,49.1,74.7,49.4,76.7z"/>
	<g>
		<circle class="st6" cx="69.4" cy="68.1" r="4.1"/>
		<circle class="st6" cx="38.6" cy="68.1" r="4.1"/>
	</g>
	<g>
		<circle class="st4" cx="30.4" cy="45.6" r="6.2"/>
		<circle class="st4" cx="79.6" cy="45.6" r="6.2"/>
	</g>
	<path class="st7" d="M55,37.7c-3.4,0-6.2,2.8-6.2,6.2c0,5,1.8,29.7,2.3,32.8c0,2.2,1.8,3.9,3.9,3.9s3.9-1.8,3.9-3.9
		c0.5-3.1,2.3-27.8,2.3-32.8C61.2,40.5,58.4,37.7,55,37.7z"/>
	<path class="st8" d="M55,37.7c-0.3,0-0.6,0-0.8,0.1c3,0.4,5.4,3,5.4,6.2c0,5-1.8,29.7-2.3,32.8c0,1.9-1.3,3.5-3.1,3.8
		c0.3,0.1,0.5,0.1,0.8,0.1c2.2,0,3.9-1.8,3.9-3.9c0.5-3.1,2.3-27.8,2.3-32.8C61.2,40.5,58.4,37.7,55,37.7z"/>
	<g>
		<path class="st9" d="M50.9,41.7c-0.5,0-0.8-0.4-0.8-0.8c0-4-3-8.6-6.8-10.4c-0.4-0.2-0.6-0.7-0.4-1.1c0.2-0.4,0.7-0.6,1.1-0.4
			c4.3,2,7.7,7.3,7.7,11.9C51.7,41.3,51.4,41.7,50.9,41.7z"/>
		<path class="st9" d="M59.1,41.7c0.5,0,0.8-0.4,0.8-0.8c0-4,3-8.6,6.8-10.4c0.4-0.2,0.6-0.7,0.4-1.1C66.9,29,66.4,28.8,66,29
			c-4.3,2-7.7,7.3-7.7,11.9C58.3,41.3,58.6,41.7,59.1,41.7z"/>
	</g>
	<g>
		<path class="st10" d="M55,71.4c-1.7,0-3.2-0.2-4.5-0.5c0,0.3,0.1,0.6,0.1,0.9c1.3,0.3,2.8,0.5,4.4,0.5s3.1-0.2,4.4-0.5
			c0-0.3,0-0.6,0.1-0.9C58.2,71.2,56.7,71.4,55,71.4z"/>
		<path class="st10" d="M59.2,74c0-0.3,0.1-0.6,0.1-0.9c-1.2,0.3-2.7,0.5-4.3,0.5s-3.1-0.2-4.3-0.5c0,0.3,0.1,0.6,0.1,0.9
			c1.2,0.3,2.7,0.5,4.2,0.5S58,74.3,59.2,74z"/>
		<path class="st10" d="M55,55.9c-2,0-4-0.2-5.7-0.6c0,0.3,0,0.6,0.1,0.9c1.7,0.4,3.6,0.6,5.6,0.6s3.9-0.2,5.6-0.6
			c0-0.3,0-0.6,0.1-0.9C59,55.6,57,55.9,55,55.9z"/>
		<path class="st10" d="M55,69.2c-1.8,0-3.4-0.2-4.7-0.6c0,0.3,0,0.6,0.1,0.9c1.4,0.3,2.9,0.5,4.6,0.5s3.3-0.2,4.6-0.5
			c0-0.3,0-0.6,0.1-0.9C58.4,69,56.8,69.2,55,69.2z"/>
		<path class="st10" d="M55,53.6c-2.1,0-4.1-0.2-5.8-0.7c0,0.3,0,0.6,0.1,0.9c1.7,0.4,3.7,0.6,5.7,0.6c2.1,0,4-0.2,5.7-0.6
			c0-0.3,0-0.6,0.1-0.9C59.1,53.4,57.1,53.6,55,53.6z"/>
		<path class="st10" d="M49.5,57.4c0,0.3,0,0.6,0.1,0.9c1.6,0.4,3.5,0.6,5.5,0.6s3.8-0.2,5.5-0.6c0-0.3,0-0.6,0.1-0.9
			c-1.6,0.4-3.5,0.6-5.5,0.6S51.1,57.8,49.5,57.4z"/>
		<path class="st10" d="M55,64.7c-1.8,0-3.6-0.2-5-0.6c0,0.3,0,0.6,0.1,0.9c1.5,0.4,3.2,0.6,5,0.6s3.5-0.2,5-0.6
			c0-0.3,0-0.6,0.1-0.9C58.6,64.5,56.8,64.7,55,64.7z"/>
		<path class="st10" d="M55,67c-1.8,0-3.4-0.2-4.9-0.6c0,0.3,0,0.6,0.1,0.9c1.4,0.3,3.1,0.5,4.8,0.5s3.4-0.2,4.8-0.5
			c0-0.3,0-0.6,0.1-0.9C58.4,66.8,56.8,67,55,67z"/>
		<path class="st10" d="M59,76.2c0-0.2,0.1-0.5,0.1-0.9c-1.1,0.3-2.5,0.5-4.1,0.5s-2.9-0.2-4.1-0.5c0,0.3,0.1,0.6,0.1,0.9
			c1.2,0.3,2.5,0.5,4,0.5S57.8,76.5,59,76.2z"/>
		<path class="st10" d="M55,51.4c-2.1,0-4.2-0.2-5.9-0.7c0,0.3,0,0.6,0.1,0.9c1.8,0.4,3.8,0.6,5.9,0.6s4.1-0.2,5.9-0.6
			c0-0.3,0-0.6,0.1-0.9C59.2,51.2,57.1,51.4,55,51.4z"/>
		<path class="st10" d="M55,62.5c-1.9,0-3.7-0.2-5.2-0.6c0,0.3,0,0.6,0.1,0.9c1.5,0.4,3.3,0.6,5.1,0.6s3.6-0.2,5.1-0.6
			c0-0.3,0-0.6,0.1-0.9C58.7,62.3,56.9,62.5,55,62.5z"/>
		<path class="st10" d="M55,60.3c-1.9,0-3.8-0.2-5.4-0.6c0,0.3,0,0.6,0.1,0.9c1.6,0.4,3.4,0.6,5.3,0.6s3.7-0.2,5.3-0.6
			c0-0.3,0-0.6,0.1-0.9C58.8,60.1,56.9,60.3,55,60.3z"/>
	</g>
</g>
</svg>
