<?xml version="1.0" encoding="utf-8"?>
<!-- Generator: Adobe Illustrator 22.0.1, SVG Export Plug-In . SVG Version: 6.00 Build 0)  -->
<svg version="1.1" id="Layer_1" xmlns="http://www.w3.org/2000/svg" xmlns:xlink="http://www.w3.org/1999/xlink" x="0px" y="0px"
	 viewBox="0 0 110 110" style="enable-background:new 0 0 110 110;" xml:space="preserve">
<style type="text/css">
	.st0{clip-path:url(#SVGID_2_);}
	.st1{fill:#D65128;}
	.st2{fill:#FDCC9B;}
	.st3{fill:#FCBC85;}
	.st4{fill:#916A50;}
	.st5{fill:#3B2519;}
	.st6{fill:#FFFFFF;}
	.st7{fill:#D96E27;}
	.st8{fill:#F7945E;}
	.st9{fill:#F9AA8D;}
	.st10{fill:#F6A2B1;}
	.st11{fill:#F38191;}
	.st12{clip-path:url(#SVGID_2_);fill:none;}
</style>
<g>
	<defs>
		<circle id="SVGID_1_" cx="55.5" cy="55.3" r="52.5"/>
	</defs>
	<use xlink:href="#SVGID_1_"  style="overflow:visible;fill:#F3E3B1;"/>
	<clipPath id="SVGID_2_">
		<use xlink:href="#SVGID_1_"  style="overflow:visible;"/>
	</clipPath>
	<g class="st0">
		<path class="st1" d="M30,76.5c0,0,3.2,6.6,2.4,12.2c-0.8,5.6-5.2,8.2-7.1,4.7c0,0-9.3,13.2,30.6,13.2V70.5L30,76.5z"/>
		<path class="st1" d="M82.2,74.9c0,0-4,8.2-3.2,13.8c0.8,5.6,5.2,8.2,7.1,4.7c0,0,9.3,13.2-30.6,13.2V70.5L82.2,74.9z"/>
		<g>
			<g>
				<rect x="50.7" y="88.7" class="st2" width="10.5" height="11.7"/>
				<path class="st3" d="M50.7,90.1c0,0,4.4,2.8,10.5,2.2v-3.5H50.7V90.1z"/>
				<ellipse class="st4" cx="35.6" cy="70.5" rx="5.1" ry="5.8"/>
				<ellipse class="st4" cx="76.3" cy="70.5" rx="5.1" ry="5.8"/>
				<path class="st2" d="M76.3,59.3c0-8.6-6.3-14.9-20.3-14.9c-14,0-20.3,6.3-20.3,14.9S34.2,90.6,56,90.6
					C77.8,90.6,76.3,67.9,76.3,59.3z"/>
				<g>
					<g>
						<ellipse class="st5" cx="46.1" cy="69.1" rx="2.2" ry="2.4"/>
						<circle class="st6" cx="45.1" cy="68" r="0.7"/>
					</g>
					<path class="st7" d="M42.6,63.9c1,0.4,2.7-1.4,6.5,0.2c0.7,0.3,1.1-2.4-3-2.4C42.6,61.7,41.9,63.6,42.6,63.9z"/>
					<g>
						<ellipse class="st5" cx="66.2" cy="69.1" rx="2.2" ry="2.4"/>
						<circle class="st6" cx="65.2" cy="68" r="0.7"/>
					</g>
					<path class="st7" d="M69.4,63.9c-1,0.4-2.7-1.4-6.5,0.2c-0.7,0.3-1.1-2.4,3-2.4C69.4,61.7,70,63.6,69.4,63.9z"/>
				</g>
				<path class="st3" d="M56,77.6c-2.2,0-3.5-1.6-3.5-0.8c0,0.8,0.6,2.3,3.5,2.3s3.5-1.5,3.5-2.3C59.5,75.9,58.2,77.6,56,77.6z"/>
				<path class="st3" d="M56,84.8c-0.8,0-1.2-0.6-1.2-0.3c0,0.3,0.2,0.8,1.2,0.8s1.2-0.5,1.2-0.8C57.2,84.2,56.7,84.8,56,84.8z"/>
				<path class="st8" d="M56,82.8c-3.4,0-5.5-1.4-5.5-1c0,0.4,1,1.8,5.5,1.8s5.5-1.4,5.5-1.8S59.4,82.8,56,82.8z"/>
			</g>
			<circle class="st9" cx="43.3" cy="76.8" r="3"/>
			<circle class="st9" cx="69.1" cy="76.8" r="3"/>
		</g>
		<path class="st10" d="M56,93.4v13.2H33C33,101.2,43.9,93.4,56,93.4z"/>
		<path class="st10" d="M56,93.4v13.2h22.9C78.9,101.2,68,93.4,56,93.4z"/>
		<path class="st2" d="M50.7,93.8l5.2,9.4c0.3,0,5.2-9.4,5.2-9.4S55.8,91.9,50.7,93.8z"/>
		<path class="st11" d="M50.7,92.3l3,3.2l2.2,7.7l-3.1-4.7l-3.5,1.9l-3.1-5.5C46.2,94.9,48.9,92.5,50.7,92.3z"/>
		<path class="st11" d="M61.2,92.3l-3,3.2l-2.2,7.7l3.1-4.7l3.5,1.9l3.1-5.5C65.7,94.9,63.1,92.5,61.2,92.3z"/>
		<polygon class="st11" points="56,106.6 56,103.2 54.3,100.6 		"/>
		<polygon class="st11" points="56,106.6 56,103.2 57.6,100.6 		"/>
		<path class="st7" d="M71.2,39c0,0-12.6-9.5-28-4.7c-14.6,4.6-14.9,23.9-14.5,34.8c0.5,10.9,4.2,12.2,8,10.7c5-2,0-8.3,0-8.3
			c2.4-2.4,1.4-6.8,1.4-6.8c3.7-0.1,5-6.1,5-6.1c7.2,2.8,9.2-2.7,9.2-2.7c6.7,3.6,12-2.8,12-2.8s3.3,6.9,7.5,6.1
			c0,0-1.1,6.6,1.5,7.5c0,0-2.8,8.5,0.9,11.1c3.7,2.6,9.7,0,9.5-13.1C83.8,51.5,81.4,37.8,71.2,39z"/>
	</g>
	<circle class="st12" cx="55.5" cy="55.3" r="52.5"/>
</g>
</svg>
