<?xml version="1.0" encoding="utf-8"?>
<!-- Generator: Adobe Illustrator 22.0.1, SVG Export Plug-In . SVG Version: 6.00 Build 0)  -->
<svg version="1.1" id="Layer_1" xmlns="http://www.w3.org/2000/svg" xmlns:xlink="http://www.w3.org/1999/xlink" x="0px" y="0px"
	 viewBox="0 0 110 110" style="enable-background:new 0 0 110 110;" xml:space="preserve">
<style type="text/css">
	.st0{clip-path:url(#SVGID_2_);}
	.st1{fill:#E4EAEF;}
	.st2{fill:#592918;}
	.st3{fill:#F5AD94;}
	.st4{fill:#289983;}
	.st5{fill:#2EAF96;}
	.st6{fill:#E0896D;}
	.st7{opacity:0.1;fill:#231F20;enable-background:new    ;}
	.st8{fill:#6B3D29;}
	.st9{fill:#9A543B;}
	.st10{fill:#F4866C;}
	.st11{fill:#60322D;}
	.st12{clip-path:url(#SVGID_4_);}
	.st13{fill:#FFFFFF;}
	.st14{fill:#F2757C;}
	.st15{fill:#231F20;}
	.st16{fill:#1080B2;}
	.st17{fill:#2499DC;}
	.st18{fill:#1C687C;}
	.st19{fill:#50B6E2;}
	.st20{fill:#B22410;}
	.st21{fill:#DD5848;}
	.st22{fill:#7C241C;}
	.st23{fill:#E37269;}
	.st24{opacity:0.2;fill:#FFFFFF;enable-background:new    ;}
	.st25{fill:none;stroke:#2A0000;stroke-width:3;stroke-miterlimit:10;}
	.st26{fill:none;stroke:#2A0000;stroke-width:2;stroke-miterlimit:10;}
	.st27{fill:#2A0000;}
</style>
<g>
	<defs>
		<circle id="SVGID_1_" cx="55.5" cy="55.3" r="52.5"/>
	</defs>
	<use xlink:href="#SVGID_1_"  style="overflow:visible;fill:#EB6651;"/>
	<clipPath id="SVGID_2_">
		<use xlink:href="#SVGID_1_"  style="overflow:visible;"/>
	</clipPath>
	<g class="st0">
		<path class="st1" d="M55.6,94.8c1.8-0.1,3.7-0.1,5.4,0.6c0.8,0.3,2,1.2,2.1,2.2c0.1,1.1-1,2-1.7,2.7c-1.2,1-2.6,1.8-4.1,2.2
			c-2.1,0.6-4.4,0.7-6.7,0.6c-0.5,0-1-0.1-1.4-0.5c-0.2-0.2-0.3-0.6-0.4-0.9c-0.5-1.7,0.2-3.6,1.3-5c1-1.4,2.8-1.7,4.4-1.8
			C54.8,94.9,55.2,94.8,55.6,94.8z"/>
		<path class="st2" d="M79.8,42.4c0.1,0.3,0.3,0.6,0.4,0.9c0.8,2.4,0.9,5.2-0.8,7.2c-1.3,1.6-3.2,2.2-5.2,2.4
			c-4.7,0.5-9.3-1.5-13.3-4.1c-1.3-0.8-2.6-1.7-3.5-2.9c-2.2-2.8-1.5-6.2,1.5-8.1c1.3-0.8,2.7-1.2,4.2-1.5c3.8-0.7,8.1-0.5,11.7,1.1
			C76.8,38.4,78.7,40.2,79.8,42.4z"/>
		<g>
			<path class="st3" d="M47.7,102.3c-0.1-0.1-0.2-0.1-0.3-0.1c-2.4,0.1-4.6,1.1-6.5,2.5c-3,2.1-5.4,5.1-8,7.6
				c-1.6,1.6-3.3,3.1-4.9,4.7c-1.7,1.6-3.3,3.5-5.3,4.7c-0.5,0.3-1.2,0.5-1.8,0.5c-0.8-0.1-1.5-0.6-2.1-1.1
				c-2.3-1.8-4.5-3.8-6.6-5.9c-1.1-1.1-2.1-2.2-3.1-3.3c-0.7-0.8-2.5-2.8-2.5-2.8s-2.5,2.7-1.9,4c0.7,1.4,2.2,2.8,3.2,3.9
				c1.2,1.3,2.4,2.6,3.6,3.9c1.4,1.5,2.9,3,4.3,4.5c1.1,1.1,2.1,2.7,3.7,3.2c1.9,0.7,3.8-0.8,5.2-1.9c2.2-1.7,4.3-3.5,6.3-5.4
				c4.1-3.7,8.1-7.5,12-11.5c1.6-1.7,5.1-4.5,5-7.1C47.9,102.5,47.8,102.4,47.7,102.3z"/>
		</g>
		<g>
			<path class="st2" d="M70.3,79.5c-0.5,0-0.6-0.6-0.7-1.3c-0.3-7.1,1.1-14.2,0.6-21.3c-0.2-2.7-1.1-5.1-1.6-7.7
				c-0.1-0.4-0.1-0.9,0.2-1.2c0.2-0.2,0.4-0.2,0.6-0.3c3-0.7,6.6,1.2,8.8,3.3c4.3,4.2,4,11.3,2,16.5c-1,2.6-2.2,4.8-4.2,6.8
				c-1.2,1.2-2.5,2.2-3.6,3.3c-0.5,0.4-1.2,1.6-1.8,1.8C70.5,79.4,70.4,79.4,70.3,79.5z"/>
		</g>
		<path class="st4" d="M38.7,104.6c-3.7,3.5-7,7.4-10.5,11.1c-1.2,1.3-2.4,2.5-3.6,3.7c-0.6,0.6-1.3,1.2-1.9,1.7
			c-0.5,0.4-1.2,1.2-2,0.9c-0.5-0.2-1.1-0.7-1.5-1.1c-0.9-0.8-2.8-2.7-2.8-2.7s-1.8,1.1-2.6,1.7c-0.8,0.5-2.2,1.7-2.2,1.7
			s1.5,1.6,1.7,1.8c1.5,1.6,3,3.2,4.6,4.7c0.5,0.4,1,0.9,1.6,1.2c0.8,0.4,1.7,0.4,2.6,0.1c2.4-0.8,4.2-2.5,5.9-4.2
			c4.4-4.5,9.4-8.7,13.1-13.9c1.2-1.6,2.2-3.3,3.1-5.1c0.5-0.9,0.9-1.9,1.4-2.7c0.5-0.7,1-1.3,1.5-1.9c0.3-0.4,0.5-0.9,0.2-1.3
			c-0.1-0.2-0.3-0.2-0.5-0.3c-1.6-0.3-3.2,0.5-4.6,1.5c-0.1,0.1-0.2,0.1-0.2,0.2C40.8,102.6,39.7,103.6,38.7,104.6z"/>
		<g>
			<path class="st2" d="M42.5,73.5c0.7-1.4,1.2-2.8,1.7-4.3c0.6-1.9,0.6-4.1,0.6-6.1c0-3.2,0.5-5.7,2.2-8.5c1.5-2.4,3.5-4.5,5.8-6.2
				c1.6-1.2,3.4-2.3,4-4.2c0-0.2-6.2,0-6.7,0.1c-3.9,0.5-7.9,1.8-10.8,4.5c-3.6,3.3-3.9,8.6-3.4,13.2c0.2,2.1,0.7,4.2,1.2,6.2
				c0.3,1.4,0.7,2.9,1,4.3c0.3,1.2,0.6,2.4,1.1,3.5c0.1,0.3,0.3,0.5,0.5,0.7c0.6,0.3,1.3-0.4,1.7-1C41.7,75.1,42.1,74.3,42.5,73.5z"
				/>
		</g>
		<path class="st5" d="M42.6,130c0.8-3.7,0-7.3-1.5-10.7c-0.7-1.5-1.6-2.8-1.9-4.5c-0.3-1.7-0.2-3.5,0.3-5.1
			c0.3-0.8,0.7-1.6,1.1-2.4c0.8-1.5,1.7-3.1,2.6-4.6c0.5-0.8,0.9-1.6,1.5-2.3c0.9-0.8,1.8-0.7,3-0.6c1.8,0.1,3.5,0.2,5.3,0.2
			c2.5,0,5,0,7.4,0c1.2,0,2.5,0.2,3.7,0.1c1.2-0.1,4.3-0.2,5.5-0.1c0.4,0.1,0.7,4.6,0.8,5.1c0.3,2.9,0.1,4.9-0.3,8.1
			c-0.3,2.6-2.7,5-3.4,7.3c-0.8,2.4-1,4.9-0.8,7.4c0.1,1.2,0.4,2.3,0.7,3.5c0.3,1.2,1,2.1,1.5,3.2c0,0.1,0.1,0.2,0.1,0.2
			c0,0.1-0.1,0.1-0.1,0.2c-0.6,0.7-1.5,1.2-2.4,1.4c-1.8,0.5-3.8,0.5-5.6,0.6c-2.6,0.1-5.3,0.1-7.9-0.1c-3-0.1-6.1-0.2-9-1.1
			c-0.7-0.2-1.3-0.4-1.9-0.8c-0.1-0.1-0.2-0.1-0.2-0.2c-0.1-0.1,0-0.3,0-0.4c0.3-1.2,0.7-2.5,1.1-3.7
			C42.5,130.6,42.6,130.3,42.6,130z"/>
		<path class="st3" d="M60.6,104c-1.8,2.4-3.4,5.9-6.8,5.5c-0.2,0-0.4,0-0.5-0.1c-0.9-0.4-1.1-1.3-1.5-2.1c-0.5-0.9-1.1-1.7-1.6-2.7
			c-0.6-1-2.1-4-1.1-5.1c0.6-0.7,1.7-0.7,2.3-1.6c0.6-0.7,0.9-1.7,1-2.6c0.2-1.3,0.2-2.6,0.2-3.9c0-1.2,0-2.5,0-3.7
			c0-0.1,7.2,0,7.2,0c0,2.6-1.2,7.7,0.4,10c0.3,0.5,0.9,0.9,1.4,1.2c0.5,0.3,0.9,0.9,1.6,0.9c0.2,0.6-0.7,1.6-1,2
			C61.7,102.7,61.1,103.4,60.6,104z"/>
		<path class="st3" d="M35.4,70c-2.2,2.3-1.6,8.4,2.1,8.8c3.8,0.4,3.3-4.6,2.6-6.9c-0.4-1.2-1-2.4-2.4-2.7
			C36.7,69.1,35.9,69.4,35.4,70z"/>
		<path class="st6" d="M39.1,72.9c-0.4-0.7-1.3-1.6-2.2-1.4c-0.2,0-0.4,0.1-0.5,0.3c-1.2,0.9-1,2.6-0.3,3.8c0.3,0.6,0.9,1,1.6,1.1
			C39.7,76.9,39.7,74.1,39.1,72.9z"/>
		<path class="st7" d="M59.4,95c-0.1-2.4,0.4-5.3,0.4-7.1h-7.2c0,1.2,0,2.5,0,3.7c0,1.3,0,2.6-0.2,3.9c0,0.3-0.1,0.6-0.2,0.8
			c0.5,0.2,1,0.3,1.6,0.3c1.2,0.1,2.5-0.3,3.6-0.7C58.1,95.6,58.8,95.3,59.4,95z"/>
		<path class="st3" d="M74.5,70.3c2.2,2.3,1.7,8.5-2.2,9c-3.9,0.4-3.4-4.7-2.6-7c0.4-1.2,1-2.5,2.4-2.7
			C73.1,69.3,73.9,69.7,74.5,70.3z"/>
		<path class="st6" d="M70.6,73.2c0.4-0.7,1.3-1.6,2.2-1.5c0.2,0,0.4,0.1,0.5,0.3c1.2,1,1,2.7,0.3,3.9C73.3,76.5,72.7,77,72,77
			C70,77.3,70,74.4,70.6,73.2z"/>
		<path class="st3" d="M68.1,85.9c3.4-3.7,3.6-8.2,2.7-12.9c-0.6-2.7-0.8-5.4-0.9-8.2c-0.1-3.2-1-6.7-4.1-9c-4-3.1-9.4-3.8-14.8-3.5
			c-2.8,0.2-5.8,0.7-7.9,2.1c-2.2,1.4-2.9,3.5-3,5.6c-0.1,3.4,0.7,7.2-0.4,10.5c-0.4,1.2-1.2,2.3-1.7,3.5c-1.1,3,0,6.1,1.7,8.8
			c2.4,4,6,6.9,9.9,9.3c1.3,0.8,2.6,1.5,4.1,1.6c1.2,0.1,2.5-0.3,3.6-0.7c2-0.8,3.8-2.1,5.7-3.1C65,88.7,66.7,87.4,68.1,85.9z"/>
		<path class="st7" d="M65.8,55.7c-4-3.1-9.4-3.8-14.8-3.5c-2.8,0.2-5.8,0.7-7.9,2.1c-2.2,1.4-2.9,3.5-3,5.6c0,0.6,0,1.2,0,1.8
			c0.8-0.3,1.6-0.7,2.3-1c1.8-0.6,3.6-1.2,5.5-1.6c4-0.9,8.2-1.1,12.2-1.8c0.3,0,0.6-0.1,0.9-0.2c1.5-0.3,3.3-0.6,5-1.3
			C65.9,55.8,65.9,55.8,65.8,55.7z"/>
		<path class="st6" d="M52.9,79.1c0.1-0.2,0-0.3-0.2-0.4c-0.1-0.1-0.3-0.1-0.4-0.2c-0.6-0.3-0.9-0.8-1-1.4c0-0.2,0-0.4-0.2-0.5
			c-0.1,0-0.2-0.1-0.2-0.1c-0.5,0-0.9,0.4-1,0.9c-0.1,0.6,0.3,1.2,0.8,1.5c0.5,0.3,1.1,0.4,1.7,0.4C52.6,79.3,52.7,79.3,52.9,79.1
			L52.9,79.1z"/>
		<path class="st8" d="M59.8,56.7c0.3,0,0.6-0.1,0.9-0.1c3.3-0.3,8-0.9,9.6-4.3c0.2-0.4,0.3-0.9,0.3-1.4c0-4.9-7.5-6.8-11.2-7.4
			c-6-1-12.2-0.3-17.7,2c-3.1,1.3-6.3,3.1-8.7,5.4c-1.5,1.5-2.8,3.5-2.4,5.7c0.5,2.5,3.6,3.9,5.9,3.6c1.8-0.2,3.6-1.1,5.3-1.5
			c1.8-0.5,3.7-0.9,5.6-1.2C51.5,56.9,55.7,57,59.8,56.7z"/>
		<g>
			<path class="st9" d="M59.6,63c0-0.9,0.8-1.8,1.7-2c0.9-0.3,1.8-0.2,2.6,0.1s1.5,0.9,2,1.7c0.4,0.8,0.6,1.8,0,2.6
				c-0.7-0.6-1.2-0.8-1.7-1c-0.5-0.2-0.9-0.3-1.4-0.5l-1.3-0.6C61,63.2,60.6,63,59.6,63z"/>
		</g>
		<g>
			<path class="st9" d="M48.8,63.9c-0.9-0.1-1.4,0.1-1.8,0.2l-1.1,0.4l-1.2,0.4c-0.5,0.2-1,0.4-1.9,0.7c-0.7-1.7,0.5-3.4,2.1-4
				c0.8-0.3,1.8-0.3,2.6,0.1C48.3,62.2,49,63,48.8,63.9z"/>
		</g>
		<ellipse transform="matrix(0.9912 -0.1325 0.1325 0.9912 -9.4507 9.3554)" class="st10" cx="65.6" cy="75.7" rx="2.4" ry="1.8"/>
		<path class="st10" d="M40,75.4c-0.1,1,0.9,1.9,2.2,2.1c1.4,0.2,2.6-0.5,2.7-1.5c0.1-1-0.9-1.9-2.2-2.1
			C41.4,73.8,40.2,74.4,40,75.4z"/>
		<path class="st8" d="M70,70.3c-1.5-3-2.5-5.9-3.6-9.1c-1-2.8-1.4-5.8-0.8-8.7c0.5-2.3,2.1-4.8,4.8-4.8C76,47.9,76,55,75.4,59
			c-0.3,1.9-0.8,3.8-1.7,5.6c-0.4,0.9-0.9,1.8-1.4,2.6c-0.4,0.7-0.6,0.9-1.1,1.7c-0.2,0.3-1,1.5-0.9,1.7
			C70.3,70.5,70.1,70.5,70,70.3z"/>
		<g>
			<g>
				<path id="SVGID_3_" class="st11" d="M47.9,82.5c0.1,0.8,0.3,1.6,0.6,2.4s0.9,1.6,1.6,2.1c0.8,0.6,1.6,0.6,2.6,0.7
					c1.9,0.1,4-0.5,5.4-1.9c0.7-0.6,1.3-1.4,1.7-2.2c0.2-0.4,0.4-0.8,0.6-1.1c0.2-0.3,0.3-0.7,0.6-1l0.3-0.2
					c-2.4,1.4-5.5,1.6-8.2,1.2c-0.9-0.1-1.9-0.4-2.7-0.1C49.6,82.6,48.7,82.7,47.9,82.5"/>
			</g>
			<g>
				<defs>
					<path id="SVGID_9_" d="M47.9,82.5c0.1,0.8,0.3,1.6,0.6,2.4s0.9,1.6,1.6,2.1c0.8,0.6,1.6,0.6,2.6,0.7c1.9,0.1,4-0.5,5.4-1.9
						c0.7-0.6,1.3-1.4,1.7-2.2c0.2-0.4,0.4-0.8,0.6-1.1c0.2-0.3,0.3-0.7,0.6-1l0.3-0.2c-2.4,1.4-5.5,1.6-8.2,1.2
						c-0.9-0.1-1.9-0.4-2.7-0.1C49.6,82.6,48.7,82.7,47.9,82.5"/>
				</defs>
				<clipPath id="SVGID_4_">
					<use xlink:href="#SVGID_9_"  style="overflow:visible;"/>
				</clipPath>
				<g class="st12">
					<path class="st13" d="M55.5,84.7c1.5-0.1,2.9-0.4,4.1-1.3c0.5-0.4,0.9-0.7,1.3-1.2c0.1-0.2,0.4-0.5,0.3-0.7
						c-0.1-0.2-0.5-0.3-0.7-0.4c-1.8-0.3-3.6-0.3-5.4-0.2c-1.8,0.1-3.6,0-5.4,0.2c-0.3,0-0.6,0.1-0.9,0.3c-0.5,0.4-0.1,1,0.1,1.5
						c0.1,0.4,0.3,0.8,0.6,1.1c0.3,0.4,0.8,0.5,1.3,0.6c0.8,0.2,1.5,0.2,2.3,0.1C53.8,84.7,54.7,84.7,55.5,84.7z"/>
					<path class="st13" d="M50.5,87.4c-0.6-0.2-1.1-0.9-1-1.5c0.1-0.4,0.3-0.7,0.5-1c0.1-0.1,0.1-0.2,0.2-0.3
						c0.1-0.1,0.2-0.1,0.4-0.2c0.6-0.2,1.2-0.2,1.8-0.2c1.5,0,3,0,4.5,0.1c0.3,0,0.6,0,0.8,0.1c0.3,0.1,0.7,0.2,0.9,0.4
						c0.2,0.2,0.4,0.6,0.3,0.9c-0.1,0.5-0.6,0.6-1,0.8c-0.4,0.3-0.8,0.6-1.3,0.7c-1.1,0.3-2.2,0.3-3.3,0.3
						C52.3,87.7,51.4,87.7,50.5,87.4z"/>
				</g>
			</g>
			<g>
				<path class="st14" d="M46,81.4c0.6,0.3,1.2,0.5,1.8,0.7c0.6,0.2,1.2,0.1,1.8-0.1c0.3-0.1,0.6-0.2,1-0.3s0.7-0.1,1.1-0.1
					c0.7,0.1,1.3,0.2,2,0.2c1.3,0.1,2.6,0.2,3.8,0.1c1.3-0.1,2.5-0.4,3.8-0.9c-1,0.8-2.3,1.4-3.7,1.6c-1.3,0.3-2.7,0.3-4.1,0.2
					c-0.7-0.1-1.3-0.2-1.9-0.3c-0.3,0-0.6-0.1-0.9,0c-0.2,0-0.6,0.1-1,0.2c-0.7,0.1-1.5,0.1-2.1-0.2C47.1,82.3,46.5,81.9,46,81.4z"
					/>
			</g>
			<g>
				<path class="st14" d="M48,82.4c0.5,1.5,1,3.1,2.1,3.9c0.6,0.4,1.2,0.6,1.9,0.7c0.8,0.1,1.5,0.1,2.2-0.1c1.5-0.2,2.8-0.9,3.9-1.9
					c0.5-0.5,1-1.1,1.5-1.7l0.6-1c0.2-0.3,0.4-0.7,0.7-0.9c-0.4,0.7-0.6,1.5-0.9,2.2c-0.4,0.7-0.8,1.4-1.3,2
					c-1.1,1.3-2.7,2.1-4.3,2.3c-0.8,0.1-1.7,0.1-2.5,0s-1.7-0.4-2.4-1c-0.6-0.6-1.1-1.3-1.3-2.1C48.1,83.9,48,83.2,48,82.4z"/>
			</g>
		</g>
		<g>
			<path class="st2" d="M36.5,58.5c0.7-2.5,2.7-4.7,5-6c2.4-1.4,5.1-2,7.7-2.1c1.3-0.1,2.7,0,4,0.1c1.3,0.2,2.6,0.4,3.9,0.7
				c2.5,0.6,4.9,1.3,7.5,1.6c-2.6,0.5-5.3,0.2-7.8-0.1s-5-0.5-7.5-0.4c-2.5,0.1-4.9,0.6-7.1,1.5C40,54.8,37.9,56.3,36.5,58.5z"/>
		</g>
		<g>
			<path class="st2" d="M35.6,52.3c1.6-2.2,3.7-4.1,6.3-5.4s5.4-1.9,8.2-2c2.8-0.1,5.6,0.3,8.3,1.1s5.2,2.2,7.2,4
				c-2.5-1.1-5-2-7.6-2.5c-1.3-0.2-2.6-0.5-3.9-0.6c-1.3-0.1-2.6-0.2-3.9-0.1c-2.6,0.1-5.2,0.6-7.6,1.4C40,49.2,37.8,50.7,35.6,52.3
				z"/>
		</g>
		<g>
			<path class="st2" d="M69.3,51.3c0.3,1.3,0.5,2.5,0.7,3.8l0.5,3.6l0.5,3.7c0.2,1.2,0.3,2.5,0.4,3.8c-0.8-1-1.4-2.2-1.9-3.4
				s-0.8-2.5-1-3.8c-0.2-1.3-0.2-2.6-0.1-3.9C68.5,53.8,68.8,52.5,69.3,51.3z"/>
		</g>
		<g>
			<path class="st2" d="M73.5,52.3c0.6,0.8,0.9,1.6,1.1,2.5s0.3,1.8,0.3,2.7s-0.1,1.8-0.4,2.7s-0.6,1.7-1.2,2.5
				c-0.2-0.9-0.3-1.8-0.4-2.7s-0.1-1.7-0.1-2.5s0-1.7,0.1-2.5C73.2,54.1,73.3,53.2,73.5,52.3z"/>
		</g>
		<g>
			<path class="st8" d="M78,56.1c0.7,0.9,1.1,2,1.3,3.2c0.2,1.1,0.1,2.3-0.2,3.4c-0.3,1.1-0.7,2.2-1.4,3.1c-0.6,0.9-1.3,1.7-2.3,2.4
				c0.3-1.1,0.6-2.1,0.9-3.1s0.6-1.9,0.8-2.9c0.2-1,0.4-1.9,0.6-2.9C77.9,58.2,77.9,57.2,78,56.1z"/>
		</g>
		<path class="st15" d="M62.7,70.8c0,1.5-0.6,2.7-1.4,2.7c-0.8,0-1.4-1.2-1.4-2.7s0.6-2.7,1.4-2.7C62.1,68.2,62.7,69.4,62.7,70.8z"
			/>
		<path class="st4" d="M81.3,110.9c2.1,2.6,4.2,5.2,6.4,7.7c2,2.5,4.1,4.9,5.8,7.6c0.6,1.1,1,2.8,0,3.8c-0.3,0.3-0.8,0.5-1.3,0.7
			c-1.6,0.6-3.3,0.7-4.9,1.1c-1.7,0.5-3.5,0.9-5.2,1.2c-0.9,0.2-1.8,0.3-2.7,0.5c-0.5,0.1-1.7,0.4-1.7,0.3c0,0-0.3-1.1-0.4-1.7
			c-0.3-1.2-0.7-2.3-1-3.5c0,0,3.4-0.6,4.1-0.7c1.1-0.2,2.3-0.4,3.4-0.7c0.5-0.1,2.7-0.6,1.9-1.5c-1.2-1.2-2.5-2.3-3.7-3.4
			c-2.8-2.4-5.8-4.7-8.6-7.2c-1.1-1-2.4-2-3.4-3.1c-1.7-2-2.7-4.3-2.7-7c0-1.6,0.2-4.5,2.1-5c0.9-0.3,1.7,0.5,2.4,1
			c0.8,0.6,1.5,1.2,2.3,1.9c1.6,1.4,3,2.8,4.4,4.4C79.4,108.5,80.4,109.7,81.3,110.9z"/>
		<path class="st1" d="M53.1,116.3c1.1-1.3,2.1-2.7,3-4.2c1.1-1.7,2.2-3.3,3.3-5c1-1.5,2-3,2.7-4.7c-0.7,0.1-1.2,0.7-1.6,1.2
			c-0.9,1.1-1.7,2.3-2.8,3.3c-0.5,0.5-1.2,1-1.8,1.5c-0.2,0.2-1.4,1.5-1.8,1.3l-0.1-0.1c-0.7-1-1.1-2.1-1.7-3.2
			c-0.6-1.1-1.2-2.2-1.8-3.3c-0.1-0.7-0.5-1.3-1.1-1.6c-0.4-0.2-1.1-0.1-1.4,0.3c-0.4,0.5,0,1.2,0.2,1.7c0.5,1.5,1.1,3,1.6,4.6
			c0.2,0.7,0.5,1.4,0.7,2c0.3,0.7,0.7,1.3,1,1.9C52.1,113.4,52.6,114.8,53.1,116.3z"/>
		<g>
			<path class="st16" d="M78.8,139.6H77c0,0-20.1-25.1-20.3-25.6c-0.3-0.5,0.7-2.3,1.5-2.3c0.9,0,21.3-0.5,21.3-0.5L78.8,139.6z"/>
			<path class="st13" d="M78.4,139.6l-1.6,1.1l-1.7-0.7c0,0-17.4-26.1-17.6-26.2c-0.2-0.1,0.2-1.5,1.2-1.5s20.2-0.6,20.2-0.6
				L78.4,139.6z"/>
			<polygon class="st17" points="77.1,140.8 57.8,141.6 56.6,113.9 77.2,113.6 			"/>
			<polygon class="st18" points="72.1,124 61.8,124.4 61.5,118.6 72,117.9 			"/>
			<polygon class="st19" points="72.3,124.2 62,124.5 61.7,118.7 72.3,118.1 			"/>
		</g>
		<g>
			<path class="st20" d="M76.9,141.3l-1.8,0.3c0,0-23.5-21.9-23.9-22.4s0.4-2.3,1.2-2.5c0.9-0.1,21-3.6,21-3.6L76.9,141.3z"/>
			<path class="st13" d="M76.5,141.4l-1.4,1.3l-1.8-0.5c0,0-21.1-23.2-21.2-23.3c-0.2-0.1-0.1-1.5,0.9-1.7s19.9-3.5,19.9-3.5
				L76.5,141.4z"/>
			<polygon class="st21" points="75.4,142.8 56.4,146.3 51.2,119.1 71.5,115.8 			"/>
			<polygon class="st22" points="67.9,126.9 57.8,128.7 56.7,123 67,120.8 			"/>
			<polygon class="st23" points="68.2,127 58.1,128.8 56.9,123.1 67.3,120.9 			"/>
		</g>
		<path class="st15" d="M47.5,70.8c0,1.5-0.6,2.7-1.4,2.7c-0.8,0-1.4-1.2-1.4-2.7s0.6-2.7,1.4-2.7C46.8,68.2,47.5,69.4,47.5,70.8z"
			/>
		<path class="st13" d="M60.7,100.3c0.7-1,1.4-2.2,1.4-3.3c0-0.1-0.1-0.9-0.2-0.9c0.9,0.6,1.8,1.1,2.6,1.8c0.8,0.7,1.6,1.4,2.3,2.2
			c0,0-0.8,1-0.9,1c-0.4,0.4-5.6,9.7-5.4,9.9c-0.7-0.6-1.4-1.2-2.1-1.6c-0.5-0.3-1-0.6-1.6-0.6c-0.9,0-1.6,0.8-2.5,1
			c0.3-0.9,0.9-1.6,1.4-2.4s3.1-4.6,4-5.7C60,101.2,60.4,100.8,60.7,100.3z"/>
		<path class="st13" d="M52.5,105.5c0.6,1.5,1.3,2.8,1.8,4.1c-0.3-0.1-0.5-0.4-0.7-0.6c-0.9-0.9-2-1.3-3.1-0.8
			c-0.8,0.3-1.4,1-1.7,1.7c-0.9-3.1-1.9-6.2-1.9-9.5c0-0.3,0-0.6,0.1-0.9s0.3-0.6,0.5-0.8c1-1.4,2.6-2.7,3.8-3.2
			c-0.7,0.5-0.9,1.4-1,2.1C50,100.5,51.5,103,52.5,105.5z"/>
		<path class="st24" d="M43.6,77.5h-1c-2.7,0-5.1-2-5.5-4.7L37,72.1c-0.4-2.4,1.4-4.6,3.9-4.6H46c1.9,0,3.5,1.6,3.3,3.5l-0.1,1.1
			C49,75.2,46.5,77.5,43.6,77.5z"/>
		<path class="st24" d="M60,77.5h1c2.7,0,5.1-2,5.5-4.7l0.1-0.7c0.4-2.4-1.4-4.6-3.9-4.6h-5.1c-1.9,0-3.5,1.6-3.3,3.5l0.1,1.1
			C54.6,75.2,57,77.5,60,77.5z"/>
		<path class="st3" d="M78.8,128.9c-0.1,0-0.2,0-0.3,0.1c-3.9,0.9-7.7,1.7-11.7,2.3c-0.7,0.1-1.4,0.3-2,0.6c-0.6,0.4-1.1,1-1.1,1.7
			c0,0.8,0.6,1.4,1.3,1.6c0.7,0.3,1.5,0.3,2.2,0.2c1.8-0.1,3.6-0.5,5.4-0.8c2.9-0.6,5.8-1.1,8.7-1.8"/>
		<polygon class="st5" points="76.3,128.8 77.7,134 82.6,133.7 79.1,128 		"/>
		<path class="st24" d="M57.7,67.7c-1.9,0-3.5,1.6-3.3,3.5l0.1,1.1c0,0.3,0.1,0.6,0.1,0.9c0.7,0.2,1.5,0.2,2.2,0.2
			c4,0,7.2-2.2,7.2-4.8c0-0.3,0-0.5-0.1-0.8c-0.4-0.1-0.7-0.2-1.2-0.2L57.7,67.7L57.7,67.7z"/>
		<path class="st24" d="M40.8,67.7c-2.4,0-4.3,2.2-3.9,4.6L37,73c0,0.1,0,0.2,0.1,0.3c0.6,0.1,1.3,0.2,2,0.2c4,0,7.2-2.2,7.2-4.8
			c0-0.3-0.1-0.6-0.1-1c-0.1,0-0.2,0-0.4,0H40.8z"/>
		<g>
			<g>
				<path class="st25" d="M49.2,70.6c1.3-1.3,3.8-1.4,5.1,0"/>
				<path class="st26" d="M43.6,77.5h-1c-2.7,0-5.1-2-5.5-4.7L37,72.1c-0.4-2.4,1.4-4.6,3.9-4.6H46c1.9,0,3.5,1.6,3.3,3.5l-0.1,1.1
					C49,75.2,46.5,77.5,43.6,77.5z"/>
				<path class="st26" d="M60,77.5h1c2.7,0,5.1-2,5.5-4.7l0.1-0.7c0.4-2.4-1.4-4.6-3.9-4.6h-5.1c-1.9,0-3.5,1.6-3.3,3.5l0.1,1.1
					C54.6,75.2,57,77.5,60,77.5z"/>
			</g>
		</g>
		<polygon class="st5" points="17.7,119.1 13.1,124.9 10.5,120.6 15.3,116.9 		"/>
		<g>
			<path class="st27" d="M66.6,71.2l-0.2-1.6l4.8-1.3c0.8-0.2,1.6,0.3,1.8,1.1l0,0L66.6,71.2z"/>
		</g>
		<path class="st3" d="M54.4,136.8C54.4,136.9,54.4,136.9,54.4,136.8c0.1,0.1,0.2,0.1,0.2,0.1c0,0.1,0,0.2,0,0.3
			c0,0.3,0.2,0.5,0.4,0.6c0.5,0.3,1,0.4,1.5,0.4s1.1,0.1,1.6,0.1c1.3,0,2.6-0.2,3.8-0.7c1.9-0.9,3.8-1.6,5.6-2.6c0,0,0.1,0,0.1-0.1
			c0.1-0.1,0-0.2,0-0.3c-0.4-0.6-0.9-1.1-1.2-1.8c-0.1-0.2-0.2-0.4-0.2-0.7c0-0.1,0.2-1,0.3-1c-0.3,0.1-0.5,0.1-0.8,0.2
			c-0.3,0.1-0.5,0.1-0.8,0.1c-0.4,0-0.6-0.2-0.8-0.4c-0.1,0-0.1-0.1-0.2-0.2c-0.3-0.3-0.6-0.6-0.9-0.9c-1.3-1.2-3.1-2.1-4.9-2.2
			c-0.1,0-0.3,0-0.4,0s-0.2,0.2-0.2,0.3s0.1,0.2,0.1,0.2c0.2,0.2,0.5,0.4,0.8,0.6c0.6,0.4,1.1,0.8,1.6,1.3c0.4,0.4,1,0.8,0.6,1.4
			c-0.2,0.2-0.5,0.3-0.8,0.4c-1,0.2-2.1,0-3.1-0.1c-1.2-0.2-2.7-0.3-3.5-1.2c-0.2,0-0.4,0.2-0.5,0.4c-0.1,0.2-0.1,0.4-0.1,0.6
			c0,0.3,0.2,0.7,0.4,0.9c-0.5,0.2-0.6,0.9-0.4,1.4c0.2,0.6,0.8,0.9,1.3,1.1C53.1,135.5,54,136.6,54.4,136.8z"/>
		<g>
			<path class="st6" d="M53.1,132.9c0.8,0,1.4,0.1,2,0.3s1.2,0.4,1.8,0.8c-0.7,0.4-1.4,0.4-2.1,0.2
				C54.1,133.9,53.5,133.5,53.1,132.9z"/>
		</g>
		<g>
			<path class="st6" d="M54,135.4c0.3-0.1,0.5-0.2,0.8-0.3c0.1,0,0.3-0.1,0.4-0.1c0.1,0,0.3,0,0.4,0c0.2,0,0.5,0,0.8,0.1
				c0.3,0.1,0.5,0.2,0.8,0.4c-0.3,0.2-0.5,0.3-0.8,0.4c-0.3,0.1-0.5,0.1-0.8,0.1c-0.1,0-0.3,0-0.4-0.1l-0.4-0.1
				C54.5,135.7,54.2,135.6,54,135.4z"/>
		</g>
		<g>
			<path class="st6" d="M54.5,137c0.5-0.3,0.8-0.3,1.2-0.3s0.7,0.1,1.2,0.4c-0.3,0.5-0.8,0.6-1.2,0.6
				C55.3,137.7,54.8,137.5,54.5,137z"/>
		</g>
		<g>
			<path class="st3" d="M-4.1,101.3c-1.1-0.2-2.2-0.3-3.2-0.3c-0.7,0-1.7,0.1-2.1,0.9c-0.1,0.1-0.1,0.3,0.1,0.4c0,0,0.1,0.1,0.2,0.1
				c1.2,0.4,2.5,0.2,3.6,0.8c-0.3-0.2-1-0.2-1.4-0.2c-0.5-0.1-1-0.1-1.4-0.1c-0.8,0-1.6,0-2.4,0.4c-0.2,0.1-0.4,0.3-0.4,0.5
				c-0.1,0.3,0.1,0.7,0.4,0.9c0.3,0.2,0.6,0.2,1,0.3c0.3,0,0.5,0.1,0.8,0.1c-0.5,0-1.2,0-1.7,0.2c-0.4,0.2-0.6,0.7-0.4,1.1
				c0.2,0.3,0.6,0.4,1,0.4c0.5,0.1,1.1,0.2,1.6,0.4c-0.3-0.1-0.8,0.2-1,0.5s-0.3,0.6-0.2,1c0,0.1,0.1,0.3,0.2,0.4
				c0.1,0.1,0.3,0.2,0.5,0.2c1.1,0.3,2.3,0.5,3.4,0.8c1.8,0.4,3.5,0.6,5.3,1.1c0.6,0.2,1.3,0.4,1.9,0.7c1,0.5,2.3,0.8,3,1.6
				c0.6,0.7,2.1,2.2,3,2.4c1.3,0.3,1.2,0,1.7-1c0.5-1.4-1.3-3.4-1.9-4.5c-0.4-0.7-0.2-1.9-0.4-2.7c-0.2-0.8-0.5-1.5-0.9-2.2
				c-0.3-0.5-0.7-1-1.1-1.4s-0.8-0.6-1.2-0.9c-0.8-0.6-1.3-1.5-1.9-2.4c-0.4-0.6-0.9-1.2-1.7-1.1c-0.5,0.1-0.9,0.4-1.1,0.8
				c-0.2,0.5,0,0.7,0.3,1.1c0.2,0.3,0.6,1.1,0.9,1.2C-1.1,102.2-2.6,101.7-4.1,101.3z"/>
			<g>
				<path class="st6" d="M4.4,108.9c-1.1-0.4-2.1-0.8-3.2-1.1c-1-0.3-2.1-0.4-3.3-0.5c1-0.7,2.3-0.8,3.5-0.5
					C2.7,107.2,3.8,107.9,4.4,108.9z"/>
			</g>
			<g>
				<path class="st6" d="M-2.2,104.1c-0.8,0.1-1.4,0-2-0.2s-1.2-0.4-1.8-0.8c0.7-0.3,1.4-0.3,2.1-0.1
					C-3.3,103.2-2.7,103.5-2.2,104.1z"/>
			</g>
			<g>
				<path class="st6" d="M-3.1,105.7c-1.1,0.1-2.1,0-3.2,0c-1-0.1-2.1-0.1-3.2-0.5c1.1-0.4,2.2-0.5,3.3-0.5S-4,105-3.1,105.7z"/>
			</g>
			<g>
				<path class="st6" d="M-3.7,107.8c-0.9,0.1-1.7,0-2.5,0c-0.8-0.1-1.6-0.2-2.5-0.5c0.8-0.4,1.7-0.5,2.5-0.5
					C-5.3,106.8-4.4,107.1-3.7,107.8z"/>
			</g>
		</g>
	</g>
</g>
</svg>
