<?xml version="1.0" encoding="utf-8"?>
<!-- Generator: Adobe Illustrator 22.0.1, SVG Export Plug-In . SVG Version: 6.00 Build 0)  -->
<svg version="1.1" id="Layer_1" xmlns="http://www.w3.org/2000/svg" xmlns:xlink="http://www.w3.org/1999/xlink" x="0px" y="0px"
	 viewBox="0 0 110 110" style="enable-background:new 0 0 110 110;" xml:space="preserve">
<style type="text/css">
	.st0{fill:#FD8469;}
	.st1{fill:#84DBFF;}
	.st2{fill:#FFFFFF;}
	.st3{fill:#54C0EB;}
	.st4{fill:#324A5E;}
</style>
<g>
	<circle class="st0" cx="55" cy="55" r="52.5"/>
	<g>
		<path class="st1" d="M55.2,77.5c-0.1,0-0.2,0.1-0.2,0.1s-0.2-0.1-0.2-0.1H55.2z"/>
		<path class="st1" d="M95.8,88.1c-9.6,11.8-24.3,19.4-40.8,19.4s-31.2-7.6-40.8-19.4c6.9-9.2,17.4-13.7,26-16
			c-0.7,5.5,2.1,12.7,2.2,12.6c2.9-6.6,12.6-7.2,12.6-7.2s9.7,0.6,12.5,7.2c0.1,0.2,3-7.1,2.2-12.6C78.4,74.3,89,78.9,95.8,88.1z"/>
	</g>
	<path class="st2" d="M66.8,67C66.8,67,66.8,67,66.8,67c0,0.9-0.4,6.2-11.6,10.4h-0.5c-11.2-4.2-11.6-9.5-11.6-10.3
		c0-0.1,0-0.1,0-0.1c0-1.1,0.2-2.1,0.5-3.2c3.2,4.1,7.1,6.8,11.3,6.8s8.1-2.7,11.3-6.8C66.6,64.8,66.8,65.9,66.8,67z"/>
	<g>
		<path class="st3" d="M66.8,67c0,0,0.6,6-11.8,10.6c0,0,9.7,0.6,12.5,7.2C67.6,84.9,73.2,70.5,66.8,67z"/>
		<path class="st3" d="M43.2,67c-6.4,3.6-0.8,17.9-0.7,17.7c2.9-6.6,12.5-7.2,12.5-7.2C42.6,72.9,43.2,67,43.2,67z"/>
	</g>
	<g>
		<path class="st2" d="M72.4,46.1c-0.7,5.1-3,9.9-6.7,13.6c-0.7,0.7-1.4,1.3-2.2,1.9l-1.3-4.2H47.9l-1.3,4.2
			c-2.6-2-8.2-7.5-8.3-12.7C36,19.1,58.7,25.4,58.7,25.4C74,24.3,73.5,37.8,72.4,46.1z"/>
		<path class="st2" d="M75.4,51.4c-1.2,1.9-2.7,3.2-4.2,3.7c0.6-1.3,1.1-2.7,1.5-4.1c0,0,0,0,0-0.1c0.3-1.2,0.7-2.5,1-3.7h-0.1
			c0.3-1.2,0.7-2.5,0.9-3.7c0.3,0,0.7,0.2,1,0.3C77.3,45,77.2,48.4,75.4,51.4z"/>
		<path class="st2" d="M38.8,55.2c-1.5-0.5-3.1-1.8-4.2-3.7c-1.9-3.1-1.9-6.4-0.1-7.5c0.2-0.1,0.2-0.2,0.4-0.2
			c1,3.9,2.1,6.8,2.4,7.4C37.7,52.4,38.2,53.8,38.8,55.2z"/>
	</g>
	<path id="SVGCleanerId_0" class="st4" d="M64,17.1C64.7,9.5,52.6,10,52.6,10c-18.3,2.6-20.3,19.7-20.3,19.7l2.5-3
		c-3.9,8.5,2,23.1,2.5,24.3c3.1,10.2,9.8,19.5,17.7,19.5S69.6,61.2,72.7,51l0,0c0,0,0,0,0-0.1c0.3-1.2,0.7-2.5,0.9-3.7h-0.1
		c1.7-6.6,3.5-13.3,3.5-13.3C81.7,10.2,64,17.1,64,17.1z M72.4,46.1c-0.7,5.1-3,9.9-6.7,13.6c-0.7,0.7-1.5,1.3-2.2,1.9l-1.3-4.1
		H47.9l-1.3,4.2c-2.6-2-4.9-4.7-6.7-7.9c-0.8-1.7-1.3-3.4-1.6-4.9C36,19.2,58.7,25.5,58.7,25.5C74,24.3,73.5,37.8,72.4,46.1z"/>
	<g>
		<path id="SVGCleanerId_0_1_" class="st4" d="M64,17.1C64.7,9.5,52.6,10,52.6,10c-18.3,2.6-20.3,19.7-20.3,19.7l2.5-3
			c-3.9,8.5,2,23.1,2.5,24.3c3.1,10.2,9.8,19.5,17.7,19.5S69.6,61.2,72.7,51l0,0c0,0,0,0,0-0.1c0.3-1.2,0.7-2.5,0.9-3.7h-0.1
			c1.7-6.6,3.5-13.3,3.5-13.3C81.7,10.2,64,17.1,64,17.1z M72.4,46.1c-0.7,5.1-3,9.9-6.7,13.6c-0.7,0.7-1.5,1.3-2.2,1.9l-1.3-4.1
			H47.9l-1.3,4.2c-2.6-2-4.9-4.7-6.7-7.9c-0.8-1.7-1.3-3.4-1.6-4.9C36,19.2,58.7,25.5,58.7,25.5C74,24.3,73.5,37.8,72.4,46.1z"/>
	</g>
	<path class="st4" d="M64,17.1C64.7,9.5,52.6,10,52.6,10c-18.3,2.6-20.3,19.7-20.3,19.7l2.5-3c-3.9,8.5,2,23.1,2.5,24.3
		c3.1,10.2,9.8,19.5,17.7,19.5S69.6,61.2,72.7,51l0,0c0,0,0,0,0-0.1c0.3-1.2,0.7-2.5,0.9-3.7h-0.1c1.7-6.6,3.5-13.3,3.5-13.3
		C81.7,10.2,64,17.1,64,17.1z M72.4,46.1c-0.7,5.1-3,9.9-6.7,13.6c-0.7,0.7-1.5,1.3-2.2,1.9l-1.3-4.1H47.9l-1.3,4.2
		c-2.6-2-8.2-7.5-8.3-12.7C36,19.2,58.7,25.5,58.7,25.5C74,24.3,73.5,37.8,72.4,46.1z"/>
	<path class="st2" d="M49.2,60.2c1.4,1.6,3.5,2.6,5.8,2.6c2.3,0,4.4-1,5.8-2.6H49.2z"/>
</g>
</svg>
