<?xml version="1.0" encoding="utf-8"?>
<!-- Generator: Adobe Illustrator 22.0.1, SVG Export Plug-In . SVG Version: 6.00 Build 0)  -->
<svg version="1.1" id="Layer_1" xmlns="http://www.w3.org/2000/svg" xmlns:xlink="http://www.w3.org/1999/xlink" x="0px" y="0px"
	 viewBox="0 0 100 100" style="enable-background:new 0 0 100 100;" xml:space="preserve">
<style type="text/css">
	.st0{fill:url(#SVGID_1_);}
</style>
<linearGradient id="SVGID_1_" gradientUnits="userSpaceOnUse" x1="137.1421" y1="49.9469" x2="-23.4457" y2="49.9469">
	<stop  offset="0" style="stop-color:#5CBA47"/>
	<stop  offset="1" style="stop-color:#3F9D46"/>
</linearGradient>
<path class="st0" d="M50,98.9c-27.1,0-49-21.9-49-49s21.9-49,49-49s49,21.9,49,49S77.1,98.9,50,98.9z M70.8,34.7L44.9,60.6
	L29.5,45.2c-1.2-1.2-3.1-1.2-4.3,0s-1.2,3.1,0,4.3l17.6,17.6c1.2,1.2,3.1,1.2,4.3,0L75.1,39c1.2-1.2,1.2-3.1,0-4.3
	C73.9,33.5,72,33.5,70.8,34.7z"/>
</svg>
