<?xml version="1.0" encoding="utf-8"?>
<!-- Generator: Adobe Illustrator 22.0.1, SVG Export Plug-In . SVG Version: 6.00 Build 0)  -->
<svg version="1.1" id="Layer_1" xmlns="http://www.w3.org/2000/svg" xmlns:xlink="http://www.w3.org/1999/xlink" x="0px" y="0px"
	 viewBox="0 0 100 100" style="enable-background:new 0 0 100 100;" xml:space="preserve">
<style type="text/css">
	.st0{fill:url(#SVGID_1_);}
	.st1{fill:url(#SVGID_2_);}
	.st2{fill:url(#SVGID_3_);}
	.st3{fill:url(#SVGID_4_);}
</style>
<linearGradient id="SVGID_1_" gradientUnits="userSpaceOnUse" x1="1.1" y1="50.3" x2="99.1" y2="50.3">
	<stop  offset="0" style="stop-color:#E13635"/>
	<stop  offset="0.8216" style="stop-color:#E96250"/>
</linearGradient>
<path class="st0" d="M50.1,86.9c-3.1,0-6.2-0.3-9.1-0.8l-21.5,13V77.5C8.3,69.6,1.1,57.7,1.1,44.2c0-23.6,21.9-42.7,49-42.7
	s49,19.1,49,42.7S77.2,86.9,50.1,86.9z M50.1,6.1C25.6,6.1,5.7,23.1,5.7,44c0,12.9,7.5,24.2,19,31l-0.2,14.7l14.9-8.9
	c3.4,0.7,7,1.2,10.7,1.2c24.5,0,44.4-17,44.4-37.9S74.6,6.1,50.1,6.1z M72,48.5c-2.5,0-4.4-2-4.4-4.3c0-2.5,2-4.3,4.4-4.3
	s4.4,2,4.4,4.3S74.5,48.5,72,48.5z M51,48.5c-2.5,0-4.4-2-4.4-4.3c0-2.5,2-4.3,4.4-4.3s4.4,2,4.4,4.3S53.4,48.5,51,48.5z M30,48.5
	c-2.5,0-4.4-2-4.4-4.3c0-2.5,2-4.3,4.4-4.3s4.4,2,4.4,4.3C34.3,46.6,32.4,48.5,30,48.5z"/>
<g>
	<g>
		<g>
			<linearGradient id="SVGID_2_" gradientUnits="userSpaceOnUse" x1="25.6" y1="44.3" x2="34.4" y2="44.3">
				<stop  offset="0" style="stop-color:#E13635"/>
				<stop  offset="0.8216" style="stop-color:#E96250"/>
			</linearGradient>
			<circle class="st1" cx="30" cy="44.3" r="4.4"/>
		</g>
		<g>
			<linearGradient id="SVGID_3_" gradientUnits="userSpaceOnUse" x1="46.6" y1="44.3" x2="55.4" y2="44.3">
				<stop  offset="0" style="stop-color:#E13635"/>
				<stop  offset="0.8216" style="stop-color:#E96250"/>
			</linearGradient>
			<circle class="st2" cx="51" cy="44.3" r="4.4"/>
		</g>
		<g>
			<linearGradient id="SVGID_4_" gradientUnits="userSpaceOnUse" x1="67.6" y1="44.3" x2="76.4" y2="44.3">
				<stop  offset="0" style="stop-color:#E13635"/>
				<stop  offset="0.8216" style="stop-color:#E96250"/>
			</linearGradient>
			<circle class="st3" cx="72" cy="44.3" r="4.4"/>
		</g>
	</g>
</g>
</svg>
