<?xml version="1.0" encoding="utf-8"?>
<!-- Generator: Adobe Illustrator 22.0.1, SVG Export Plug-In . SVG Version: 6.00 Build 0)  -->
<svg version="1.1" id="Layer_1" xmlns="http://www.w3.org/2000/svg" xmlns:xlink="http://www.w3.org/1999/xlink" x="0px" y="0px"
	 viewBox="0 0 100 100" style="enable-background:new 0 0 100 100;" xml:space="preserve">
<style type="text/css">
	.st0{fill:none;stroke:url(#SVGID_1_);stroke-width:4;stroke-miterlimit:10;}
	.st1{fill:none;stroke:url(#SVGID_2_);stroke-width:4;stroke-miterlimit:10;}
	.st2{fill:none;stroke:url(#SVGID_3_);stroke-width:4;stroke-miterlimit:10;}
	.st3{fill:none;stroke:url(#SVGID_4_);stroke-width:4;stroke-miterlimit:10;}
</style>
<g>
	<linearGradient id="SVGID_1_" gradientUnits="userSpaceOnUse" x1="0.8461" y1="58.2006" x2="31.4" y2="58.2006">
		<stop  offset="0" style="stop-color:#E13635"/>
		<stop  offset="0.8216" style="stop-color:#E96250"/>
	</linearGradient>
	<path class="st0" d="M11.3,75.7H4.6c0,0-2.7,0.2-1.4-4.7s4.5-13.3,11.9-14.7c0,0-3.5-2.3-3.5-7.4c0-2,1.6-8.2,9.2-8.2
		c1.8,0,8.6,1,8.6,9.6c0,2.5-1.8,5.1-5.7,7.9C22.4,59.7,15.8,61.6,11.3,75.7z"/>
	<linearGradient id="SVGID_2_" gradientUnits="userSpaceOnUse" x1="68.5" y1="58.2006" x2="99.0539" y2="58.2006">
		<stop  offset="0" style="stop-color:#E13635"/>
		<stop  offset="0.8216" style="stop-color:#E96250"/>
	</linearGradient>
	<path class="st1" d="M88.7,75.7h6.6c0,0,2.7,0.2,1.4-4.7c-1.4-4.9-4.5-13.3-11.9-14.7c0,0,3.5-2.3,3.5-7.4c0-2-1.6-8.2-9.2-8.2
		c-1.8,0-8.6,1-8.6,9.6c0,2.5,1.8,5.1,5.7,7.9C77.6,59.7,84.2,61.6,88.7,75.7z"/>
	<linearGradient id="SVGID_3_" gradientUnits="userSpaceOnUse" x1="18.4" y1="67.2004" x2="80.627" y2="67.2004">
		<stop  offset="0" style="stop-color:#E13635"/>
		<stop  offset="0.8216" style="stop-color:#E96250"/>
	</linearGradient>
	<path class="st2" d="M26.8,81.8c0,0-6.4,0.2-6.4-6.1c0-1,6.1-23.1,29.1-23.1c3.3,0,24,0.6,29.1,24c-0.2,1.6-0.8,5.1-5.7,5.1
		S26.8,81.8,26.8,81.8z"/>
	<linearGradient id="SVGID_4_" gradientUnits="userSpaceOnUse" x1="34.7" y1="34.3" x2="65.3" y2="34.3">
		<stop  offset="0" style="stop-color:#E13635"/>
		<stop  offset="0.8216" style="stop-color:#E96250"/>
	</linearGradient>
	<circle class="st3" cx="50" cy="34.3" r="13.3"/>
</g>
</svg>
