<?xml version="1.0" encoding="utf-8"?>
<!-- Generator: Adobe Illustrator 22.0.1, SVG Export Plug-In . SVG Version: 6.00 Build 0)  -->
<svg version="1.1" id="Layer_1" xmlns="http://www.w3.org/2000/svg" xmlns:xlink="http://www.w3.org/1999/xlink" x="0px" y="0px"
	 viewBox="0 0 100 100" style="enable-background:new 0 0 100 100;" xml:space="preserve">
<style type="text/css">
	.st0{fill:none;stroke:#7E858F;stroke-width:4;stroke-miterlimit:10;}
</style>
<g>
	<path class="st0" d="M11.3,75.7H4.6c0,0-2.7,0.2-1.4-4.7s4.5-13.3,11.9-14.7c0,0-3.5-2.3-3.5-7.4c0-2,1.6-8.2,9.2-8.2
		c1.8,0,8.6,1,8.6,9.6c0,2.5-1.8,5.1-5.7,7.9C22.4,59.7,15.8,61.6,11.3,75.7z"/>
	<path class="st0" d="M88.7,75.7h6.6c0,0,2.7,0.2,1.4-4.7c-1.4-4.9-4.5-13.3-11.9-14.7c0,0,3.5-2.3,3.5-7.4c0-2-1.6-8.2-9.2-8.2
		c-1.8,0-8.6,1-8.6,9.6c0,2.5,1.8,5.1,5.7,7.9C77.6,59.7,84.2,61.6,88.7,75.7z"/>
	<path class="st0" d="M26.8,81.8c0,0-6.4,0.2-6.4-6.1c0-1,6.1-23.1,29.1-23.1c3.3,0,24,0.6,29.1,24c-0.2,1.6-0.8,5.1-5.7,5.1
		S26.8,81.8,26.8,81.8z"/>
	<circle class="st0" cx="50" cy="34.3" r="13.3"/>
</g>
</svg>
