<?xml version="1.0" encoding="utf-8"?>
<!-- Generator: Adobe Illustrator 22.0.1, SVG Export Plug-In . SVG Version: 6.00 Build 0)  -->
<svg version="1.1" id="Layer_1" xmlns="http://www.w3.org/2000/svg" xmlns:xlink="http://www.w3.org/1999/xlink" x="0px" y="0px"
	 viewBox="0 0 100 100" style="enable-background:new 0 0 100 100;" xml:space="preserve">
<style type="text/css">
	.st0{fill:#92979E;}
	.st1{fill:#7F858F;}
</style>
<g>
	<g>
		<ellipse transform="matrix(0.9732 -0.2298 0.2298 0.9732 -5.1236 6.6031)" class="st0" cx="25.8" cy="25.3" rx="10.1" ry="10.1"/>
		<path class="st0" d="M82.1,15.3H46.6c-1.4,0-2.5,1.2-2.5,2.5V18c0,1.4,1.2,2.5,2.5,2.5h35.6c1.5,0,2.6-1.2,2.5-2.5v-0.1
			C84.7,16.5,83.5,15.3,82.1,15.3z"/>
		<path class="st0" d="M82.1,30.2H46.6c-1.4,0-2.5,1.2-2.5,2.5v0.1c0,1.4,1.2,2.5,2.5,2.5h35.6c1.5,0,2.6-1.2,2.5-2.5v-0.1
			C84.7,31.4,83.5,30.2,82.1,30.2z"/>
	</g>
	<path class="st1" d="M99,83.9c0,0,0-52.3,0-67.5C99,1.2,83.2,1,83.2,1S35.9,1,18.3,1C0.8,1,1,16.4,1,16.4s0,46,0,64.2
		S15.7,99,15.7,99s50.2,0,66.8,0S99,83.9,99,83.9z M93.3,83.2c0,0-1.1,9.9-9,9.9s-65.6,0-65.6,0S6.7,94.6,6.7,80.6s0-30.9,0-30.9
		h86.6V83.2z M93.3,44.1H6.7V16.4c0,0,1.1-9.9,9-9.9s65.6,0,65.6,0s12.1-1.6,12.1,12.4S93.3,44.1,93.3,44.1z"/>
</g>
</svg>
