<?xml version="1.0" encoding="utf-8"?>
<!-- Generator: Adobe Illustrator 22.0.1, SVG Export Plug-In . SVG Version: 6.00 Build 0)  -->
<svg version="1.1" id="Layer_1" xmlns="http://www.w3.org/2000/svg" xmlns:xlink="http://www.w3.org/1999/xlink" x="0px" y="0px"
	 viewBox="0 0 100 100" style="enable-background:new 0 0 100 100;" xml:space="preserve">
<style type="text/css">
	.st0{fill:url(#SVGID_1_);}
	.st1{fill:url(#SVGID_2_);}
	.st2{fill:url(#SVGID_3_);}
	.st3{fill:url(#SVGID_4_);}
	.st4{fill:url(#SVGID_5_);}
</style>
<g>
	<linearGradient id="SVGID_1_" gradientUnits="userSpaceOnUse" x1="3.3992" y1="53.2" x2="97.1004" y2="53.2">
		<stop  offset="0" style="stop-color:#E13635"/>
		<stop  offset="0.8216" style="stop-color:#E96250"/>
	</linearGradient>
	<path class="st0" d="M97.1,85c0,0,0-49.1,0-63.2S82,7.3,82,7.3s-45.4,0-62.2,0S3.4,21.6,3.4,21.6s0,43.1,0,60.2s14,17.3,14,17.3
		s48,0,64,0S97.1,85,97.1,85z M91.8,65.7h-0.2v18.6c0,0-1.1,9.2-8.6,9.2s-62.7,0-62.7,0S8.8,95,8.8,81.8c0-5.3,0-11.1,0-16.1H8.6
		V30.2h0.2v-8.5c0,0,1.1-9.2,8.6-9.2s62.7,0,62.7,0S91.7,11,91.7,24.2c0,2.1,0,4.1,0,6h0.2L91.8,65.7L91.8,65.7z"/>
	<linearGradient id="SVGID_2_" gradientUnits="userSpaceOnUse" x1="20.6" y1="45.15" x2="78.8" y2="45.15">
		<stop  offset="0" style="stop-color:#E13635"/>
		<stop  offset="0.8216" style="stop-color:#E96250"/>
	</linearGradient>
	<rect x="20.6" y="41.2" class="st1" width="58.2" height="7.9"/>
	<linearGradient id="SVGID_3_" gradientUnits="userSpaceOnUse" x1="20.6" y1="60.75" x2="61.4" y2="60.75">
		<stop  offset="0" style="stop-color:#E13635"/>
		<stop  offset="0.8216" style="stop-color:#E96250"/>
	</linearGradient>
	<rect x="20.6" y="56.8" class="st2" width="40.8" height="7.9"/>
	<g>
		<linearGradient id="SVGID_4_" gradientUnits="userSpaceOnUse" x1="20.6" y1="10" x2="29.6" y2="10">
			<stop  offset="0" style="stop-color:#E13635"/>
			<stop  offset="0.8216" style="stop-color:#E96250"/>
		</linearGradient>
		<rect x="20.6" y="1.1" class="st3" width="9" height="17.8"/>
		<linearGradient id="SVGID_5_" gradientUnits="userSpaceOnUse" x1="69.8" y1="10" x2="78.8" y2="10">
			<stop  offset="0" style="stop-color:#E13635"/>
			<stop  offset="0.8216" style="stop-color:#E96250"/>
		</linearGradient>
		<rect x="69.8" y="1.1" class="st4" width="9" height="17.8"/>
	</g>
</g>
</svg>
