<?xml version="1.0" encoding="utf-8"?>
<!-- Generator: Adobe Illustrator 22.0.1, SVG Export Plug-In . SVG Version: 6.00 Build 0)  -->
<svg version="1.1" id="Layer_1" xmlns="http://www.w3.org/2000/svg" xmlns:xlink="http://www.w3.org/1999/xlink" x="0px" y="0px"
	 viewBox="0 0 100 100" style="enable-background:new 0 0 100 100;" xml:space="preserve">
<style type="text/css">
	.st0{fill:#92979E;}
	.st1{fill:#7F858F;}
</style>
<g>
	<path class="st0" d="M32.7,38.5H18.9c-1.9,0-3.5,1.1-3.5,2.5c0,1.4,1.6,2.5,3.5,2.5h13.9c1.9,0,3.5-1.1,3.5-2.5
		C36.2,39.7,34.6,38.5,32.7,38.5z M32.7,53.5H18.9c-1.9,0-3.5,1.1-3.5,2.5c0,1.4,1.6,2.5,3.5,2.5h13.9c1.9,0,3.5-1.1,3.5-2.5
		C36.2,54.6,34.6,53.5,32.7,53.5z M81.4,38.6H67.5c-1.9,0-3.5,1.1-3.5,2.5s1.6,2.5,3.5,2.5h13.9c1.9,0,3.5-1.1,3.5-2.5
		S83.3,38.6,81.4,38.6z M81.4,53.6H67.5c-1.9,0-3.5,1.1-3.5,2.5c0,1.4,1.6,2.5,3.5,2.5h13.9c1.9,0,3.5-1.1,3.5-2.5
		C84.9,54.7,83.3,53.6,81.4,53.6z"/>
	<path class="st1" d="M98.7,80.9V17.2c0.1-5.5-2.5-10.8-9.9-10.7h-20c-9,0-15.5,3.3-18.8,5.5c-3.2-2.1-9.7-5.5-18.8-5.5h-20
		c-5.4,0-10,4.2-9.8,10.7v63.7c0,5.5,4.4,9.2,9.8,9.2h20c11.4,0.2,15.1,2.6,15.8,3.6c0.7,1,1.6,1.8,3,1.8c1.5,0,2.8-1.4,2.8-1.4
		s1.6-3,15.4-3.8c0.1,0,20.4-0.2,20.4-0.2C94.3,90.1,99.1,87.4,98.7,80.9z M22.3,85.6c-5.3,0-13.6-0.2-13.6-0.2
		c-3.9,0-3.2-4.3-3.2-4.3l0-66.6c-0.1-3.1,2.7-3.4,3.4-3.5h21.8c10.5-0.4,16.1,4.8,16.9,5.3l0.1,72.5C46.8,88.4,37.5,85.2,22.3,85.6
		L22.3,85.6z M91.4,85.5c0,0-12.8-0.1-21.7,0.3C64.6,85.4,56,87,52.3,88.7l0.1-72.3c2.9-4.8,12.1-5.5,16.9-5.5h22
		c3.8,0,3.2,4.7,3.2,4.7v66.6C94.6,82.2,95.3,86.3,91.4,85.5L91.4,85.5z"/>
</g>
</svg>
