<?xml version="1.0" encoding="utf-8"?>
<!-- Generator: Adobe Illustrator 22.0.1, SVG Export Plug-In . SVG Version: 6.00 Build 0)  -->
<svg version="1.1" id="Layer_1" xmlns="http://www.w3.org/2000/svg" xmlns:xlink="http://www.w3.org/1999/xlink" x="0px" y="0px"
	 viewBox="0 0 100 100" style="enable-background:new 0 0 100 100;" xml:space="preserve">
<style type="text/css">
	.st0{fill:url(#SVGID_1_);}
	.st1{fill:url(#SVGID_2_);}
	.st2{fill:url(#SVGID_3_);}
	.st3{fill:url(#SVGID_4_);}
</style>
<g>
	<g>
		<linearGradient id="SVGID_1_" gradientUnits="userSpaceOnUse" x1="15.7001" y1="25.304" x2="35.888" y2="25.304">
			<stop  offset="0" style="stop-color:#E13635"/>
			<stop  offset="0.8216" style="stop-color:#E96250"/>
		</linearGradient>
		<circle class="st0" cx="25.8" cy="25.3" r="10.1"/>
		<linearGradient id="SVGID_2_" gradientUnits="userSpaceOnUse" x1="44.022" y1="17.905" x2="84.6977" y2="17.905">
			<stop  offset="0" style="stop-color:#E13635"/>
			<stop  offset="0.8216" style="stop-color:#E96250"/>
		</linearGradient>
		<path class="st1" d="M82.1,15.3H46.6c-1.4,0-2.5,1.2-2.5,2.5V18c0,1.4,1.2,2.5,2.5,2.5h35.6c1.5,0,2.6-1.2,2.5-2.5v-0.1
			C84.7,16.5,83.5,15.3,82.1,15.3z"/>
		<linearGradient id="SVGID_3_" gradientUnits="userSpaceOnUse" x1="44.022" y1="32.801" x2="84.6977" y2="32.801">
			<stop  offset="0" style="stop-color:#E13635"/>
			<stop  offset="0.8216" style="stop-color:#E96250"/>
		</linearGradient>
		<path class="st2" d="M82.1,30.2H46.6c-1.4,0-2.5,1.2-2.5,2.5v0.1c0,1.4,1.2,2.5,2.5,2.5h35.6c1.5,0,2.6-1.2,2.5-2.5v-0.1
			C84.7,31.4,83.5,30.2,82.1,30.2z"/>
	</g>
	<linearGradient id="SVGID_4_" gradientUnits="userSpaceOnUse" x1="1" y1="50" x2="99" y2="50">
		<stop  offset="0" style="stop-color:#E13635"/>
		<stop  offset="0.8216" style="stop-color:#E96250"/>
	</linearGradient>
	<path class="st3" d="M99,83.9c0,0,0-52.3,0-67.5C99,1.2,83.2,1,83.2,1S35.9,1,18.3,1C0.8,1,1,16.4,1,16.4s0,46,0,64.2
		S15.7,99,15.7,99s50.2,0,66.8,0S99,83.9,99,83.9z M93.3,83.2c0,0-1.1,9.9-9,9.9s-65.6,0-65.6,0S6.7,94.6,6.7,80.6s0-30.9,0-30.9
		h86.6V83.2z M93.3,44.1H6.7V16.4c0,0,1.1-9.9,9-9.9s65.6,0,65.6,0s12.1-1.6,12.1,12.4S93.3,44.1,93.3,44.1z"/>
</g>
</svg>
