<?xml version="1.0" encoding="utf-8"?>
<!-- Generator: Adobe Illustrator 22.0.1, SVG Export Plug-In . SVG Version: 6.00 Build 0)  -->
<svg version="1.1" id="Layer_1" xmlns="http://www.w3.org/2000/svg" xmlns:xlink="http://www.w3.org/1999/xlink" x="0px" y="0px"
	 viewBox="0 0 100 100" style="enable-background:new 0 0 100 100;" xml:space="preserve">
<style type="text/css">
	.st0{fill:#7F858F;}
</style>
<path class="st0" d="M97.1,85c0,0,0-49.1,0-63.2S82,7.3,82,7.3s-45.4,0-62.2,0S3.4,21.6,3.4,21.6s0,43.1,0,60.2s14,17.3,14,17.3
	s48,0,64,0S97.1,85,97.1,85z M91.8,65.7h-0.2v18.6c0,0-1.1,9.2-8.6,9.2s-62.7,0-62.7,0S8.8,95,8.8,81.8c0-5.3,0-11.1,0-16.1H8.6
	V30.2h0.2v-8.5c0,0,1.1-9.2,8.6-9.2s62.7,0,62.7,0s11.6-1.5,11.6,11.7c0,2.1,0,4.1,0,6h0.2L91.8,65.7L91.8,65.7z"/>
<rect x="20.6" y="41.2" class="st0" width="58.2" height="7.9"/>
<rect x="20.6" y="56.8" class="st0" width="40.8" height="7.9"/>
<g>
	<rect x="20.6" y="1.1" class="st0" width="9" height="17.8"/>
	<rect x="69.8" y="1.1" class="st0" width="9" height="17.8"/>
</g>
</svg>
