<?xml version="1.0" encoding="utf-8"?>
<!-- Generator: Adobe Illustrator 22.0.1, SVG Export Plug-In . SVG Version: 6.00 Build 0)  -->
<svg version="1.1" id="Layer_1" xmlns="http://www.w3.org/2000/svg" xmlns:xlink="http://www.w3.org/1999/xlink" x="0px" y="0px"
	 viewBox="0 0 100 100" style="enable-background:new 0 0 100 100;" xml:space="preserve">
<style type="text/css">
	.st0{fill:#363636;}
</style>
<path class="st0" d="M50,57.3l40.2,40.2c2,2,5.3,2,7.3,0c2-2,2-5.3,0-7.3L57.3,50L97.5,9.8c2-2,2-5.3,0-7.3s-5.3-2-7.3,0L50,42.7
	L9.8,2.5c-2-2-5.3-2-7.3,0C1.5,3.5,1,4.8,1,6.2s0.5,2.6,1.5,3.6L42.7,50L2.5,90.2c-1,1-1.5,2.3-1.5,3.6c0,1.3,0.5,2.6,1.5,3.6
	c2,2,5.3,2,7.3,0L50,57.3z"/>
</svg>
