<?xml version="1.0" encoding="utf-8"?>
<!-- Generator: Adobe Illustrator 22.0.1, SVG Export Plug-In . SVG Version: 6.00 Build 0)  -->
<svg version="1.1" id="Layer_1" xmlns="http://www.w3.org/2000/svg" xmlns:xlink="http://www.w3.org/1999/xlink" x="0px" y="0px"
	 viewBox="0 0 100 100" style="enable-background:new 0 0 100 100;" xml:space="preserve">
<style type="text/css">
	.st0{fill:#363636;}
</style>
<path class="st0" d="M97.8,92.1L73.3,67.6c5.7-6.9,9.4-15.9,9.4-25.7C82.7,19.4,64.3,1,41.8,1S1,19.4,1,41.8s18.4,40.8,40.8,40.8
	c9.8,0,18.8-3.3,25.7-9.4l24.5,24.5c0.8,0.8,2,1.2,2.9,1.2c0.8,0,2-0.4,2.9-1.2C99.4,96.1,99.4,93.7,97.8,92.1L97.8,92.1z
	 M41.8,74.5c-18,0-32.7-14.7-32.7-32.7S23.9,9.2,41.8,9.2s32.7,14.7,32.7,32.7S59.8,74.5,41.8,74.5z"/>
</svg>
