<?xml version="1.0" encoding="utf-8"?>
<!-- Generator: Adobe Illustrator 22.0.1, SVG Export Plug-In . SVG Version: 6.00 Build 0)  -->
<svg version="1.1" id="Layer_1" xmlns="http://www.w3.org/2000/svg" xmlns:xlink="http://www.w3.org/1999/xlink" x="0px" y="0px"
	 viewBox="0 0 100 100" style="enable-background:new 0 0 100 100;" xml:space="preserve">
<style type="text/css">
	.st0{fill:#363636;}
</style>
<g>
	<g>
		<path class="st0" d="M53.9,48.7c6.1,0,11.1-5,11.1-11.1s-5-11.1-11.1-11.1c-6.1,0-11.1,5-11.1,11.1C42.8,43.7,47.7,48.7,53.9,48.7
			z M53.9,31c3.6,0,6.5,2.9,6.5,6.5s-2.9,6.5-6.5,6.5c-3.6,0-6.5-2.9-6.5-6.5C47.4,34,50.3,31,53.9,31z"/>
		<path class="st0" d="M53.9,52.4c-9.5,0-17,7.7-17,17.6c0,1.3,1,2.3,2.3,2.3h29.5c1.3,0,2.3-1,2.3-2.3
			C70.9,60.2,63.4,52.4,53.9,52.4z M41.6,67.8c1-6.3,5.9-10.7,12.3-10.7c6.3,0,11.3,4.5,12.3,10.7H41.6z"/>
	</g>
	<path class="st0" d="M8.6,35.3h13.8c1.3,0,2.3-1,2.3-2.3v0c0-1.3-1-2.3-2.3-2.3H8.6c-1.3,0-2.3,1-2.3,2.3v0
		C6.3,34.2,7.4,35.3,8.6,35.3z"/>
	<path class="st0" d="M8.6,49.7h13.8c1.3,0,2.3-1,2.3-2.3v0c0-1.3-1-2.3-2.3-2.3H8.6c-1.3,0-2.3,1-2.3,2.3v0
		C6.3,48.7,7.4,49.7,8.6,49.7z"/>
	<path class="st0" d="M8.6,64.1h13.8c1.3,0,2.3-1,2.3-2.3v0c0-1.3-1-2.3-2.3-2.3H8.6c-1.3,0-2.3,1-2.3,2.3v0
		C6.3,63.1,7.4,64.1,8.6,64.1z"/>
	<path class="st0" d="M79.5,1.1H24.3c-6.4,0-11.7,5.2-11.7,11.7v5h0v3.5h4.7v-3.5v-4.1v-0.9c0-3.9,3.1-7,7-7h55.1c3.9,0,7,3.1,7,7
		v74.7c0,3.9-3.1,7-7,7H24.3c-3.9,0-7-3.1-7-7v-2.9v-2.1v-3.5h-4.7v3.5v2.9v2.2c0,6.4,5.2,11.7,11.7,11.7h55.1
		c6.4,0,11.7-5.2,11.7-11.7V12.7C91.1,6.3,85.9,1.1,79.5,1.1z"/>
</g>
</svg>
