<?xml version="1.0" encoding="utf-8"?>
<!-- Generator: Adobe Illustrator 22.0.1, SVG Export Plug-In . SVG Version: 6.00 Build 0)  -->
<svg version="1.1" id="Layer_1" xmlns="http://www.w3.org/2000/svg" xmlns:xlink="http://www.w3.org/1999/xlink" x="0px" y="0px"
	 viewBox="0 0 100 100" style="enable-background:new 0 0 100 100;" xml:space="preserve">
<style type="text/css">
	.st0{fill:#363636;}
</style>
<g>
	<g>
		<g>
			<g>
				<g>
					<path class="st0" d="M55.5,98H45.2c-1.5,0-2.1,0-7.4-13.1l-4.1-1.7c-11.1,5-12.4,5-12.9,5H20l-0.7-0.6L12,80.6
						c-1.1-1.1-1.5-1.5,4.2-14.4l-1.7-3.9c-13.4-4.8-13.4-5.4-13.4-7V45.2c0-1.6,0-2.1,13.4-7.3l1.7-3.9c-6-12.7-5.6-13.1-4.4-14.2
						l7.9-7.7l1,0c1.2,0,5.6,1.6,13.1,4.8l4.1-1.7C42.6,2,43.2,2,44.7,2H55c1.5,0,2.1,0,7.4,13.1l4.1,1.6c11.1-5,12.4-5,12.9-5h0.8
						l0.7,0.6l7.3,7.1c1.1,1.1,1.5,1.5-4.2,14.4l1.7,4c13.4,4.8,13.4,5.3,13.4,6.9v10.1c0,1.5,0,2.1-13.4,7.3L84.1,66
						c6,12.7,5.6,13.1,4.5,14.2L80.6,88l-1,0c-1.2,0-5.6-1.6-13.1-4.8l-4.1,1.7C57.6,98,57,98,55.5,98z M46.2,93.8h8.1
						c0.9-1.9,2.9-6.9,4.6-11.3l0.3-0.9l7.4-3l0.8,0.3c4.4,1.9,9.6,4,11.7,4.6l5.7-5.6c-0.7-2-2.9-6.9-4.9-11.1l-0.4-0.8l3.1-7.3
						l0.8-0.3c4.5-1.7,9.6-3.8,11.5-4.8v-7.8c-2-0.9-7.1-2.9-11.5-4.4l-0.9-0.3l-3.1-7.3l0.4-0.8c1.9-4.3,4-9.3,4.7-11.4L78.8,16
						c-1.8,0.6-7,2.9-11.4,4.9l-0.8,0.4l-7.4-3l-0.3-0.8C57.1,13.1,54.9,8,54,6.2h-8.1c-0.9,1.9-2.9,6.9-4.6,11.3L41,18.3l-7.4,3
						L32.8,21c-4.4-1.9-9.6-4-11.7-4.6l-5.7,5.6c0.7,2,2.9,6.9,4.9,11.1l0.4,0.8l-3.1,7.3l-0.8,0.3c-4.4,1.7-9.6,3.8-11.5,4.8v7.9
						c2,0.9,7.1,2.9,11.5,4.5l0.9,0.3l3.1,7.3L20.4,67c-1.9,4.3-4,9.3-4.7,11.3l5.7,5.6c1.8-0.7,7-2.9,11.4-4.9l0.8-0.4l7.4,3
						l0.3,0.8C43.1,86.9,45.3,92,46.2,93.8z M50.1,66.8C40.7,66.8,33,59.3,33,50c0-9.3,7.7-16.8,17.1-16.8c9.4,0,17.1,7.5,17.1,16.8
						C67.2,59.3,59.5,66.8,50.1,66.8z M50.1,37.4c-7.1,0-13,5.7-13,12.6c0,7,5.8,12.6,13,12.6C57.2,62.6,63,57,63,50
						C63,43,57.2,37.4,50.1,37.4z"/>
				</g>
			</g>
		</g>
	</g>
</g>
</svg>
