<?xml version="1.0" encoding="utf-8"?>
<!-- Generator: Adobe Illustrator 22.0.1, SVG Export Plug-In . SVG Version: 6.00 Build 0)  -->
<svg version="1.1" id="Layer_1" xmlns="http://www.w3.org/2000/svg" xmlns:xlink="http://www.w3.org/1999/xlink" x="0px" y="0px"
	 viewBox="0 0 100 100" style="enable-background:new 0 0 100 100;" xml:space="preserve">
<style type="text/css">
	.st0{fill:#363636;}
</style>
<path class="st0" d="M94.6,43.7H17.6l29.9-30.1c1.9-1.9,1.9-4.9,0-6.8c-1.9-1.9-4.9-1.9-6.8,0l0,0l-38,38.2c0,0-0.1,0.1-0.1,0.1
	c-0.2,0.2-0.3,0.4-0.5,0.6C2.1,45.9,2,46.1,2,46.2c-0.1,0.1-0.2,0.3-0.2,0.4c-0.1,0.2-0.1,0.3-0.2,0.5c0,0.1-0.1,0.3-0.1,0.4
	c-0.1,0.6-0.1,1.3,0,1.9c0,0.1,0.1,0.3,0.1,0.4c0,0.2,0.1,0.3,0.2,0.5c0.1,0.2,0.1,0.3,0.2,0.4C2,50.8,2.1,51,2.2,51.1
	c0.1,0.2,0.3,0.4,0.5,0.6c0,0,0.1,0.1,0.1,0.1l38,38.2c0.9,0.9,2.1,1.4,3.4,1.4c2.6,0,4.8-2.1,4.8-4.8c0-1.3-0.5-2.5-1.4-3.4
	L17.6,53.2h76.9c2.6,0,4.8-2.1,4.8-4.8C99.4,45.8,97.2,43.7,94.6,43.7z"/>
</svg>
