<?xml version="1.0" encoding="utf-8"?>
<!-- Generator: Adobe Illustrator 22.0.1, SVG Export Plug-In . SVG Version: 6.00 Build 0)  -->
<svg version="1.1" id="Layer_1" xmlns="http://www.w3.org/2000/svg" xmlns:xlink="http://www.w3.org/1999/xlink" x="0px" y="0px"
	 viewBox="0 0 100 100" style="enable-background:new 0 0 100 100;" xml:space="preserve">
<style type="text/css">
	.st0{fill:#363636;}
</style>
<path class="st0" d="M88.3,69.8l-4-6.4c-1-1.6-2-4.8-2.2-6.8l-1.7-22.5c-1-12.4-9.7-23.3-21.7-27.4C57.6,3.3,54.3,1,50.5,1
	c-3.7,0-7,2.4-8.2,5.7c-12,4.1-20.7,15-21.7,27.4l-1.7,22.5c-0.2,2.1-1.2,5.2-2.2,6.8l-4,6.4c-2.2,3.5-2.6,7-1.1,9.7
	c1.5,2.7,4.7,4.2,8.8,4.2h60.1c4.1,0,7.2-1.5,8.7-4.2C90.8,76.9,90.5,73.4,88.3,69.8z M85.5,77.5c-0.7,1.3-2.5,2-4.9,2H20.4
	c-2.5,0-4.2-0.8-5-2.1c-0.7-1.3-0.3-3.3,1-5.3l4-6.4c1.3-2.2,2.5-6,2.8-8.7L25,34.4c0.9-11,9-20.8,19.8-24c0.8-0.2,1.4-1,1.5-1.7
	c0.3-1.9,2.1-3.4,4.1-3.4s3.9,1.5,4.1,3.4c0.1,0.9,0.8,1.5,1.5,1.7c10.8,3.2,18.9,13.1,19.8,24L77.7,57c0.2,2.7,1.5,6.5,2.8,8.7
	l4,6.4C85.9,74.3,86.2,76.2,85.5,77.5z M62.7,89.2c-0.5,1-5.9,9.8-12.2,9.8s-11.7-8.8-12.2-9.8c-0.7-1.1-0.2-2.4,0.8-2.9
	c1.1-0.7,2.4-0.2,2.9,0.8c1.5,2.5,5.4,7.6,8.5,7.6c3,0,7-5.1,8.5-7.6c0.7-1.1,2-1.4,2.9-0.8C63,86.8,63.4,88.2,62.7,89.2z"/>
</svg>
