<?xml version="1.0" encoding="utf-8"?>
<!-- Generator: Adobe Illustrator 22.0.1, SVG Export Plug-In . SVG Version: 6.00 Build 0)  -->
<svg version="1.1" id="Layer_1" xmlns="http://www.w3.org/2000/svg" xmlns:xlink="http://www.w3.org/1999/xlink" x="0px" y="0px"
	 viewBox="0 0 100 100" style="enable-background:new 0 0 100 100;" xml:space="preserve">
<style type="text/css">
	.st0{fill:#363636;}
</style>
<g>
	<path class="st0" d="M94.1,24.4H5.9c-2.7,0-4.9-2.2-4.9-4.9v0c0-2.7,2.2-4.9,4.9-4.9h88.3c2.7,0,4.9,2.2,4.9,4.9v0
		C99,22.2,96.8,24.4,94.1,24.4z"/>
	<path class="st0" d="M94.1,54.9H5.9C3.2,54.9,1,52.7,1,50v0c0-2.7,2.2-4.9,4.9-4.9h88.3c2.7,0,4.9,2.2,4.9,4.9v0
		C99,52.7,96.8,54.9,94.1,54.9z"/>
	<path class="st0" d="M94.1,85.3H5.9c-2.7,0-4.9-2.2-4.9-4.9v0c0-2.7,2.2-4.9,4.9-4.9h88.3c2.7,0,4.9,2.2,4.9,4.9v0
		C99,83.2,96.8,85.3,94.1,85.3z"/>
</g>
</svg>
