<?xml version="1.0" encoding="utf-8"?>
<!-- Generator: Adobe Illustrator 22.0.1, SVG Export Plug-In . SVG Version: 6.00 Build 0)  -->
<svg version="1.1" id="Layer_1" xmlns="http://www.w3.org/2000/svg" xmlns:xlink="http://www.w3.org/1999/xlink" x="0px" y="0px"
	 viewBox="0 0 1000 855" style="enable-background:new 0 0 1000 855;" xml:space="preserve">
<style type="text/css">
	.st0{fill:url(#SVGID_3_);}
	.st1{fill:#E6E79C;}
	.st2{fill:#C6E18F;}
	.st3{fill:url(#SVGID_5_);}
	.st4{opacity:0.1;fill:#231F20;enable-background:new    ;}
	.st5{fill:url(#SVGID_6_);}
	.st6{fill:#016A6C;}
	.st7{fill:#FFFFFF;}
	.st8{opacity:0.3;enable-background:new    ;}
	.st9{fill:#E7E7E7;}
	.st10{fill:#FBDC56;}
	.st11{fill:#FDB939;}
	.st12{fill:#FDAE32;}
	.st13{fill:#FCFCFC;}
	.st14{fill:#81352C;}
	.st15{fill:#F29D61;}
	.st16{fill:#689E93;}
	.st17{fill:#F7BC80;}
	.st18{fill:url(#SVGID_7_);}
	.st19{fill:#B8433A;}
	.st20{fill:#BA947D;}
	.st21{fill:url(#SVGID_8_);}
	.st22{fill:url(#SVGID_9_);}
	.st23{fill:url(#SVGID_10_);}
	.st24{fill:url(#SVGID_11_);}
	.st25{fill:url(#SVGID_12_);}
	.st26{fill:#CB5545;}
	.st27{fill:#FDC439;}
	.st28{fill:#2D6E82;}
	.st29{fill:url(#SVGID_13_);}
	.st30{fill:url(#SVGID_14_);}
	.st31{fill:url(#SVGID_15_);}
	.st32{fill:url(#SVGID_16_);}
	.st33{fill:url(#SVGID_17_);}
	.st34{fill:url(#SVGID_18_);}
	.st35{fill:url(#SVGID_19_);}
	.st36{fill:#977A62;}
	.st37{fill:#EDB850;}
	.st38{fill:url(#SVGID_20_);}
	.st39{fill:url(#SVGID_21_);}
	.st40{fill:#ADAD3E;}
	.st41{fill:url(#SVGID_22_);}
	.st42{fill:url(#SVGID_23_);}
	.st43{fill:url(#SVGID_24_);}
	.st44{fill:url(#SVGID_25_);}
	.st45{fill:url(#SVGID_26_);}
	.st46{fill:url(#SVGID_27_);}
	.st47{fill:#73C0D1;}
	.st48{opacity:0.4;fill:#8E3B00;enable-background:new    ;}
	.st49{fill:#1D2647;}
	.st50{clip-path:url(#SVGID_30_);}
	.st51{clip-path:url(#SVGID_31_);fill:url(#SVGID_32_);}
	.st52{opacity:0.3;fill:url(#SVGID_33_);enable-background:new    ;}
	.st53{fill:#E68063;}
	.st54{fill:#B46A4F;}
	.st55{fill:#EDA260;}
	.st56{fill:#FDF7E7;}
	.st57{fill:#4C2E21;}
	.st58{fill:#ABCFE3;}
	.st59{fill:#FFF1DA;}
	.st60{fill:url(#SVGID_34_);}
	.st61{fill:url(#SVGID_35_);}
	.st62{fill:url(#SVGID_36_);}
	.st63{fill:#F07066;}
	.st64{clip-path:url(#SVGID_39_);}
	.st65{clip-path:url(#SVGID_40_);fill:url(#SVGID_41_);}
	.st66{opacity:0.3;fill:url(#SVGID_42_);enable-background:new    ;}
	.st67{fill:#B87C63;}
	.st68{fill:#663E22;}
	.st69{fill:#A6CDE3;}
	.st70{fill:#532C23;}
	.st71{fill:#FDEFD0;}
	.st72{fill:#FCCECA;}
	.st73{fill:#E3A724;}
	.st74{fill:#BA8622;}
	.st75{fill:#FDEB69;}
	.st76{fill:#FFFFFF;stroke:#E0E0E0;stroke-miterlimit:10;}
	.st77{fill:url(#SVGID_43_);}
	.st78{fill:#F4AB92;}
	.st79{fill:#231715;}
	.st80{fill:#91382A;}
	.st81{fill:url(#SVGID_44_);}
	.st82{fill:url(#SVGID_45_);}
	.st83{fill:url(#SVGID_46_);}
	.st84{fill:url(#SVGID_47_);}
	.st85{fill:#123055;}
	.st86{fill:#E2E8ED;}
	.st87{fill:#E3AC4F;}
	.st88{fill:#FCCF76;}
	.st89{fill:#4D9982;}
	.st90{fill:#222C49;}
	.st91{fill:url(#SVGID_48_);}
	.st92{fill:#DE876D;}
	.st93{fill:#F2846C;}
	.st94{fill:#5F322D;}
	.st95{clip-path:url(#SVGID_50_);}
	.st96{fill:#F0757C;}
	.st97{fill:#293451;}
	.st98{fill:#231F20;}
	.st99{fill:none;stroke:#E3AC4F;stroke-miterlimit:10;}
	.st100{fill:url(#SVGID_51_);}
	.st101{fill:url(#SVGID_52_);}
	.st102{fill:#B02410;}
	.st103{fill:url(#SVGID_53_);}
	.st104{fill:#7C241C;}
	.st105{opacity:0.2;fill:#FFFFFF;enable-background:new    ;}
	.st106{fill:#59AA94;}
	.st107{fill:none;stroke:#2B0000;stroke-width:3;stroke-miterlimit:10;}
	.st108{fill:none;stroke:#2B0000;stroke-width:2;stroke-miterlimit:10;}
	.st109{fill:#2B0000;}
	.st110{fill:#163D69;}
	.st111{fill:#443C43;}
	.st112{fill:#2C282E;}
	.st113{fill:#561304;}
	.st114{fill:url(#SVGID_54_);}
	.st115{fill:url(#SVGID_55_);}
	.st116{fill:url(#SVGID_56_);}
	.st117{fill:url(#SVGID_57_);}
	.st118{fill:url(#SVGID_58_);}
	.st119{fill:#DB6E57;}
	.st120{fill:#FDCC9F;}
	.st121{fill:#F88B5D;}
	.st122{fill:url(#SVGID_59_);}
	.st123{fill:#C6C2BA;}
	.st124{fill:url(#SVGID_60_);}
	.st125{fill:url(#SVGID_61_);}
</style>
<g>
	<g>
		<g>
			
				<linearGradient id="SVGID_3_" gradientUnits="userSpaceOnUse" x1="908.8187" y1="-14.5161" x2="-38.5353" y2="826.0941" gradientTransform="matrix(1 0 0 -1 0 853.4645)">
				<stop  offset="0" style="stop-color:#C3E18E"/>
				<stop  offset="0.927" style="stop-color:#E7E89D"/>
			</linearGradient>
			<path class="st0" d="M328.2,39.2c0,0,187.5-19,338.4,195.2c44.2,63.1,81.9,84.1,223.1,129.1c22.7,6,105.6,38,105.6,161.2
				c0,20-46.4,310.2-427.9,327.2c-41,0-484.8,6.9-559.7-440.5C7.9,413.2-36.8,64.9,328.2,39.2z"/>
			<path class="st1" d="M994.7,506.5c0,0-486.4-19.2-619.4,318.7c0,1.4,247.1,87,462.4-56.6C860.2,751.5,994.7,636.1,994.7,506.5z"
				/>
			<path class="st2" d="M92.1,625.1l732.2,151.9c0,0-189.4,143.7-491.9,34.2C275,786.1,169.4,745.4,92.1,625.1z"/>
			
				<linearGradient id="SVGID_5_" gradientUnits="userSpaceOnUse" x1="508.3181" y1="-33.9233" x2="819.9" y2="169.2452" gradientTransform="matrix(1 0 0 -1 0 853.4645)">
				<stop  offset="0" style="stop-color:#43AD85"/>
				<stop  offset="1" style="stop-color:#A7D26F"/>
			</linearGradient>
			<path class="st3" d="M538.7,851.8c0,0-3.4-60.6,66.2-43.4c-7.8-21.4-22.4-59.2,17.2-92.9c6.9-5.8,56-35.3,95.5,15.6
				c13.8-13.1,55.1-46.8,92,4.9c6-2.5,53.3,15,53.3,15S742.5,861.1,538.7,851.8z"/>
			<path class="st4" d="M665.3,626.3c0,5,40,8.9,89.1,8.9s89.1-4,89.1-8.9c0-5-40-8.9-89.1-8.9C705.2,617.3,665.3,621.3,665.3,626.3
				z"/>
			<path class="st4" d="M797.5,638.4c0,6.5,24.7,11.7,55,11.7c30.3,0,55-5.2,55-11.7s-24.7-11.7-55-11.7
				C822.1,626.7,797.5,631.9,797.5,638.4z"/>
			<g>
				<g>
					<ellipse class="st4" cx="481.4" cy="662.8" rx="194.9" ry="13"/>
					
						<linearGradient id="SVGID_6_" gradientUnits="userSpaceOnUse" x1="677.6286" y1="858.6578" x2="282.3463" y2="176.1206" gradientTransform="matrix(1 0 0 -1 0 853.4645)">
						<stop  offset="0" style="stop-color:#043940"/>
						<stop  offset="0.5757" style="stop-color:#115E64"/>
						<stop  offset="1" style="stop-color:#02333A"/>
					</linearGradient>
					<path class="st5" d="M586.9,664.9H375.8c-29.4,0-53.5-24.1-53.5-53.5V56.1c0-29.4,24.1-53.5,53.5-53.5h211.1
						c29.4,0,53.5,24.1,53.5,53.5v555.2C640.4,640.8,616.3,664.9,586.9,664.9z"/>
					<path class="st6" d="M499.9,597.2c-27.1-20.7-57.8,10-37.1,37.2C489.9,655.1,520.6,624.4,499.9,597.2z M497.3,631.8
						c-23.3,17.7-49.5-8.6-31.8-31.9C488.7,582.2,515,608.5,497.3,631.8z"/>
					<ellipse class="st6" cx="437" cy="34.6" rx="4.7" ry="4.7"/>
					<path class="st6" d="M506.5,36.6l-50.2,0.1c-0.3,0-0.6-0.3-0.6-0.6v-3.7c0-0.3,0.3-0.6,0.6-0.6l50.2-0.1c0.3,0,0.6,0.3,0.6,0.6
						V36C507.1,36.4,506.8,36.6,506.5,36.6z"/>
					<path class="st7" d="M338.1,62.8v503.9h286.5V62.8L338.1,62.8L338.1,62.8z"/>
				</g>
				<g>
					<g>
						<rect x="299.5" y="101.8" class="st8" width="259.8" height="129.2"/>
						<rect x="311" y="94.1" class="st9" width="259.8" height="129.2"/>
						<rect x="388.6" y="250" class="st8" width="265.7" height="119.3"/>
						<rect x="382.5" y="245.1" class="st9" width="265.7" height="119.3"/>
						<rect x="337.8" y="388.1" class="st8" width="265.7" height="119.3"/>
						<rect x="344.7" y="381.9" class="st9" width="265.7" height="119.3"/>
					</g>
					<g>
						<g>
							<g>
								<path class="st10" d="M373.9,438l4.5-8.9c0,0,2-2.8,4.4,0c0.9,2.1,3.9,8.9,3.9,8.9l10.2,1.6c0,0,2.5,0.5,1.3,3.7
									c-1.6,1.9-6,6-6,6s-1.5,0.9-0.9,3.1c0.5,2.1,2.5,7.5,0.4,9.6c-0.1-0.1-0.9,1.9-3.9,0c-2.9-1.9-7.1-4-7.1-4l-8.6,4.8
									c0,0-2.9,0.7-3.6-2c0-1.7,1.6-10.5,1.6-10.5l-6.9-6.5c0,0-2.1-3.5,0.8-3.9C367,439.4,373.9,438,373.9,438z"/>
								<path class="st11" d="M379.7,428c0,0,2-1.7,4.2,3.3c2.2,5,2.9,6.6,2.9,6.6l1.3,0.2c0,0,0.4,5.8-5.1,11.4
									c-2.3,2-6.7,5.4-13.4,4.2l0.6-3.5l-6.9-6.5c0,0-3.2-2.9,2-4s8.6-1.7,8.6-1.7S378.4,428.2,379.7,428z"/>
								<path class="st10" d="M362.7,440.7c0,0,8.2,2.7,13.1-1.7c1.1-1.1,5.8-5.2,3.9-11c0.2-0.1-0.7,0.1-2.6,3.7s-3.2,6.3-3.2,6.3
									l-8.6,1.7C365.3,439.6,362.8,439.9,362.7,440.7z"/>
								<path class="st12" d="M388,438.2l8.9,1.4c0,0,2.5,0.4,1.3,3.7c-1.2,1.3-6,6-6,6s-1.5,1-0.9,3.1c0.6,2,1.3,6.7,1.3,6.7
									s0.7,4.6-3.3,3.6c-3.1-1.7-8.6-4.7-8.6-4.7l-8.6,4.8c0,0-2.7,1.1-3.6-2c0.6-4.5,1-7,1-7s7.7,2.5,13.4-4.2
									C385.3,446.7,388.8,441.5,388,438.2z"/>
								
									<ellipse transform="matrix(0.6843 -0.7292 0.7292 0.6843 -197.0267 427.7074)" class="st13" cx="395.4" cy="441.4" rx="1" ry="1.3"/>
							</g>
							<g>
								<path class="st10" d="M419.6,438l4.5-8.9c0,0,2-2.8,4.4,0c0.9,2.1,3.9,8.9,3.9,8.9l10.2,1.6c0,0,2.5,0.5,1.3,3.7
									c-1.6,1.9-6,6-6,6s-1.5,0.9-0.9,3.1c0.5,2.1,2.5,7.5,0.4,9.6c-0.1-0.1-0.9,1.9-3.9,0c-2.9-1.9-7.1-4-7.1-4l-8.6,4.8
									c0,0-2.9,0.7-3.6-2c0-1.7,1.6-10.5,1.6-10.5l-6.9-6.5c0,0-2.1-3.5,0.8-3.9C412.7,439.4,419.6,438,419.6,438z"/>
								<path class="st11" d="M425.3,428c0,0,2-1.7,4.2,3.3c2.2,5,2.9,6.6,2.9,6.6l1.3,0.2c0,0,0.4,5.8-5.1,11.4
									c-2.3,2-6.7,5.4-13.4,4.2l0.6-3.5l-6.9-6.5c0,0-3.2-2.9,2-4s8.6-1.7,8.6-1.7S424.1,428.2,425.3,428z"/>
								<path class="st10" d="M408.3,440.7c0,0,8.2,2.7,13.1-1.7c1.1-1.1,5.8-5.2,3.9-11c0.2-0.1-0.7,0.1-2.6,3.7s-3.2,6.3-3.2,6.3
									l-8.6,1.7C410.9,439.6,408.4,439.9,408.3,440.7z"/>
								<path class="st12" d="M433.7,438.2l8.9,1.4c0,0,2.5,0.4,1.3,3.7c-1.2,1.3-6,6-6,6s-1.5,1-0.9,3.1c0.6,2,1.3,6.7,1.3,6.7
									s0.7,4.6-3.3,3.6c-3.1-1.7-8.6-4.7-8.6-4.7l-8.6,4.8c0,0-2.7,1.1-3.6-2c0.6-4.5,1-7,1-7s7.7,2.5,13.4-4.2
									C430.9,446.7,434.5,441.5,433.7,438.2z"/>
								
									<ellipse transform="matrix(0.6843 -0.7292 0.7292 0.6843 -182.6685 460.9654)" class="st13" cx="441" cy="441.4" rx="1" ry="1.3"/>
							</g>
							<g>
								<path class="st10" d="M465.1,438l4.5-8.9c0,0,2-2.8,4.4,0c0.9,2.1,3.9,8.9,3.9,8.9l10.2,1.6c0,0,2.5,0.5,1.3,3.7
									c-1.6,1.9-6,6-6,6s-1.5,0.9-0.9,3.1c0.5,2.1,2.5,7.5,0.4,9.6c-0.1-0.1-0.9,1.9-3.9,0c-2.9-1.9-7.1-4-7.1-4l-8.6,4.8
									c0,0-2.9,0.7-3.6-2c0-1.7,1.6-10.5,1.6-10.5l-6.9-6.5c0,0-2.1-3.5,0.8-3.9C458.2,439.4,465.1,438,465.1,438z"/>
								<path class="st11" d="M470.9,428c0,0,2-1.7,4.2,3.3c2.2,5,2.9,6.6,2.9,6.6l1.3,0.2c0,0,0.4,5.8-5.1,11.4
									c-2.3,2-6.7,5.4-13.4,4.2l0.6-3.5l-6.9-6.5c0,0-3.2-2.9,2-4s8.6-1.7,8.6-1.7S469.6,428.2,470.9,428z"/>
								<path class="st10" d="M453.9,440.7c0,0,8.2,2.7,13.1-1.7c1.1-1.1,5.8-5.2,3.9-11c0.2-0.1-0.7,0.1-2.6,3.7s-3.2,6.3-3.2,6.3
									l-8.6,1.7C456.5,439.6,454,439.9,453.9,440.7z"/>
								<path class="st12" d="M479.3,438.2l8.9,1.4c0,0,2.5,0.4,1.3,3.7c-1.2,1.3-6,6-6,6s-1.5,1-0.9,3.1c0.6,2,1.3,6.7,1.3,6.7
									s0.7,4.6-3.3,3.6c-3.1-1.7-8.6-4.7-8.6-4.7l-8.6,4.8c0,0-2.7,1.1-3.6-2c0.6-4.5,1-7,1-7s7.7,2.5,13.4-4.2
									C476.5,446.7,480,441.5,479.3,438.2z"/>
								
									<ellipse transform="matrix(0.6843 -0.7292 0.7292 0.6843 -168.2357 494.2501)" class="st13" cx="486.7" cy="441.4" rx="1" ry="1.3"/>
							</g>
							<g>
								<path class="st10" d="M510.8,438l4.5-8.9c0,0,2-2.8,4.4,0c0.9,2.1,3.9,8.9,3.9,8.9l10.2,1.6c0,0,2.5,0.5,1.3,3.7
									c-1.6,1.9-6,6-6,6s-1.5,0.9-0.9,3.1c0.5,2.1,2.5,7.5,0.4,9.6c-0.1-0.1-0.9,1.9-3.9,0c-3-1.9-7.1-4-7.1-4l-8.6,4.8
									c0,0-2.9,0.7-3.6-2c0-1.7,1.6-10.5,1.6-10.5l-6.9-6.5c0,0-2.1-3.5,0.8-3.9C503.9,439.4,510.8,438,510.8,438z"/>
								<path class="st11" d="M516.6,428c0,0,2-1.7,4.2,3.3c2.2,5,2.9,6.6,2.9,6.6l1.3,0.2c0,0,0.4,5.8-5.1,11.4
									c-2.3,2-6.7,5.4-13.4,4.2l0.6-3.5l-6.9-6.5c0,0-3.2-2.9,2-4s8.6-1.7,8.6-1.7S515.3,428.2,516.6,428z"/>
								<path class="st10" d="M499.6,440.7c0,0,8.2,2.7,13.1-1.7c1.1-1.1,5.8-5.2,3.9-11c0.2-0.1-0.7,0.1-2.6,3.7s-3.2,6.3-3.2,6.3
									l-8.6,1.7C502.2,439.6,499.7,439.9,499.6,440.7z"/>
								<path class="st12" d="M524.9,438.2l8.9,1.4c0,0,2.5,0.4,1.3,3.7c-1.2,1.3-6,6-6,6s-1.5,1-0.9,3.1s1.3,6.7,1.3,6.7
									s0.7,4.6-3.3,3.6c-3.1-1.7-8.6-4.7-8.6-4.7l-8.6,4.8c0,0-2.7,1.1-3.6-2c0.6-4.5,1-7,1-7s7.7,2.5,13.4-4.2
									C522.2,446.7,525.7,441.5,524.9,438.2z"/>
								
									<ellipse transform="matrix(0.6843 -0.7292 0.7292 0.6843 -153.8028 527.5348)" class="st13" cx="532.3" cy="441.4" rx="1" ry="1.3"/>
							</g>
							<g>
								<path class="st14" d="M556.4,436.7l4.5-8.9c0,0,2-2.8,4.4,0c0.9,2.1,3.9,8.9,3.9,8.9l10.2,1.6c0,0,2.5,0.5,1.3,3.7
									c-1.6,1.9-6,6-6,6s-1.5,0.9-0.9,3.1c0.5,2.1,2.5,7.5,0.4,9.6c-0.1-0.1-0.9,1.9-3.9,0c-2.9-1.9-7.1-4-7.1-4l-8.6,4.8
									c0,0-2.9,0.7-3.6-2c0-1.7,1.6-10.5,1.6-10.5l-6.9-6.5c0,0-2.1-3.5,0.8-3.9C549.5,438.2,556.4,436.7,556.4,436.7z"/>
							</g>
						</g>
						<g>
							<path class="st10" d="M566,423.6l2.5-9.7c0,0,1.4-3.2,4.3-0.9c1.4,1.9,5.7,7.9,5.7,7.9l10.3-0.6c0,0,2.6,0,2.1,3.4
								c-1.2,2.2-4.6,7.1-4.6,7.1s-1.2,1.2-0.3,3.2c1,2,4,6.8,2.4,9.3c-0.2-0.1-0.5,2-3.8,0.8c-3.3-1.2-7.7-2.4-7.7-2.4l-7.4,6.5
								c0,0-2.7,1.3-3.9-1.2c-0.4-1.7-0.7-10.6-0.7-10.6l-8.1-4.9c0,0-2.8-2.9,0-3.9C559.6,426.5,566,423.6,566,423.6z"/>
							<path class="st11" d="M569.5,412.7c0,0,1.6-2,4.8,2.4c3.2,4.4,4.2,5.9,4.2,5.9l1.3-0.1c0,0,1.6,5.6-2.5,12.2
								c-1.8,2.4-5.4,6.7-12.2,6.9l-0.1-3.6l-8.1-4.9c0,0-3.7-2.2,1.1-4.4c4.8-2.2,8.1-3.5,8.1-3.5S568.3,413.2,569.5,412.7z"/>
							<path class="st10" d="M555.6,428.7c0,0,8.6,0.9,12.5-4.4c0.8-1.3,4.5-6.3,1.5-11.6c0.2-0.1-0.7,0.2-1.7,4.1
								c-1,3.9-1.8,6.8-1.8,6.8l-8.1,3.5C558,427.1,555.6,427.9,555.6,428.7z"/>
							<path class="st12" d="M579.8,420.8l9-0.5c0,0,2.6-0.1,2.1,3.4c-0.9,1.5-4.6,7.1-4.6,7.1s-1.2,1.3-0.3,3.2
								c1,1.9,2.7,6.2,2.7,6.2s1.6,4.4-2.4,4.2c-3.4-1-9.4-2.8-9.4-2.8l-7.4,6.5c0,0-2.4,1.6-3.9-1.2c-0.4-4.5-0.5-7.1-0.5-7.1
								s8,0.8,12.2-6.9C578.9,429.8,581.3,424,579.8,420.8z"/>
							
								<ellipse transform="matrix(0.5144 -0.8576 0.8576 0.5144 -76.8243 709.0892)" class="st13" cx="587.7" cy="422.4" rx="1" ry="1.3"/>
						</g>
					</g>
					<g>
						<path class="st15" d="M416.5,175.8c0.1-0.5,0.1-0.9-0.1-1c-0.2,0-0.5,0.3-0.6,0.8c-0.1,0.5-0.2,1.1-0.1,1.1
							C415.9,176.8,416.3,176.3,416.5,175.8z"/>
						<path class="st15" d="M417.1,175.9c0-0.5-0.2-0.9-0.3-0.9c-0.2,0-0.4,0.4-0.4,0.9c0,0.5,0,1.1,0.2,1.1
							C416.8,177,417.1,176.5,417.1,175.9z"/>
						<path class="st16" d="M379.8,172.2c-1.3-1.6-2.9-2.5-3.5-2c-0.6,0.5,0,2.3,1.3,4c1.3,1.6,2.9,2.5,3.5,2
							C381.7,175.7,381.2,173.9,379.8,172.2z"/>
						<path class="st17" d="M397.4,187.3c11.3,2.4,16.2,11,17.8,19.7l-0.5,0.6c-4.6-14.7-11.5-16.6-19.9-18.5L397.4,187.3z"/>
						<g>
							<path class="st15" d="M409.4,194c-2.8-3.2-6.7-5.6-11.9-6.8l-2.5,1.9c5.5,1.2,10.4,2.4,14.4,7.3
								C409,195.6,409,194.7,409.4,194z"/>
							<path class="st15" d="M412.5,198.7c-0.7,0.1-1.4-0.1-2-0.5c1.6,2.4,3,5.4,4.3,9.5l0.5-0.6
								C414.7,204.1,413.8,201.3,412.5,198.7z"/>
						</g>
						
							<linearGradient id="SVGID_7_" gradientUnits="userSpaceOnUse" x1="389.1362" y1="661.7739" x2="409.1833" y2="661.7739" gradientTransform="matrix(1 0 0 -1 0 853.4645)">
							<stop  offset="0" style="stop-color:#E13635"/>
							<stop  offset="0.6584" style="stop-color:#EB6651"/>
						</linearGradient>
						<path class="st18" d="M389.8,186.7c-1.8,1.1,0.7,5.6,2.3,6.1c1.6,0.6,10.6,6.5,10.6,6.5l6.6-7.7c0,0-10.6-6.8-14.8-7.5
							C390.1,183.4,389.8,186.7,389.8,186.7z"/>
						<path class="st19" d="M392.2,192.8c-0.3-0.1-0.7-0.3-1.1-0.6c0.4,0.4,0.7,0.6,1,0.8c1.6,0.6,10.6,6.5,10.6,6.5l0.9-1.1
							C400.5,196.6,393.7,193.1,392.2,192.8z"/>
						<path class="st15" d="M368.5,184.4c0-0.3-0.6-0.4-1.2-0.4c-0.5,0-0.8,0.2-0.8,0.5s0.2,0.4,0.7,0.4
							C367.8,184.9,368.5,184.7,368.5,184.4z"/>
						<path class="st15" d="M368.8,185.5c0-0.3-0.6-0.6-1.3-0.7c-0.7-0.1-1.1,0-1.1,0.3c0,0.3,0.1,0.5,0.8,0.5
							C367.9,185.8,368.8,185.8,368.8,185.5z"/>
						<path class="st20" d="M407.7,221.5c0-0.2-6-0.4-13.4-0.4c-7.4,0-13.4,0.2-13.4,0.4c0,0.2,6,0.4,13.4,0.4
							C401.7,221.9,407.7,221.8,407.7,221.5z"/>
						<path class="st17" d="M383,164.9c-3.7,2.7-11.6,12.5-14.4,17.2l0.4,0.6c0,0,11.5-14,15.9-16L383,164.9z"/>
						<path class="st15" d="M376.3,174.4c2.9-3.1,5.9-6,7.8-7l-2-1.7c-1.7,1.4-4.3,4.2-6.9,7.3L376.3,174.4z"/>
						<path class="st17" d="M393.5,168c4.6,2.7,16.6,6.3,21.2,6.9l0.3-0.5c0,0-16.4-5.3-20.6-9L393.5,168z"/>
						<path class="st15" d="M404.4,170.6c-4.7-1.8-8.1-3.6-10-5.2l-0.9,2.5c2.4,1.4,7.4,3.3,12.3,4.9L404.4,170.6z"/>
						
							<linearGradient id="SVGID_8_" gradientUnits="userSpaceOnUse" x1="376.3418" y1="683.8633" x2="389.4469" y2="683.8633" gradientTransform="matrix(1 0 0 -1 0 853.4645)">
							<stop  offset="0" style="stop-color:#115E64"/>
							<stop  offset="1" style="stop-color:#02333A"/>
						</linearGradient>
						<path class="st21" d="M381,176.3c-0.9-3.4-2.6-5-4.6-6c1.1-2.2,11.5-9.4,13.1-7C389.9,164.1,382.5,175.8,381,176.3z"/>
						
							<linearGradient id="SVGID_9_" gradientUnits="userSpaceOnUse" x1="389.3704" y1="685.2476" x2="403.4549" y2="685.2476" gradientTransform="matrix(1 0 0 -1 0 853.4645)">
							<stop  offset="0" style="stop-color:#115E64"/>
							<stop  offset="1" style="stop-color:#02333A"/>
						</linearGradient>
						<path class="st22" d="M403.5,168.2l-3.4,5.8c-2.7-0.4-12.6-9.3-10.4-11.6C390.4,161.8,399,166.5,403.5,168.2z"/>
						<path class="st17" d="M391.8,192.6c3.6,6.6,1.5,24.3,1.7,28.1l-0.9,0.3c0,0,0-24.5-3.6-29.7L391.8,192.6z"/>
						<path class="st15" d="M393.9,208.3c0.1-5.9-0.3-12.3-2.1-15.7l-2.9-1.3c1.9,2.7,2.8,10.6,3.2,17.6L393.9,208.3z"/>
						
							<linearGradient id="SVGID_10_" gradientUnits="userSpaceOnUse" x1="385.8097" y1="659.4285" x2="398.1172" y2="659.4285" gradientTransform="matrix(1 0 0 -1 0 853.4645)">
							<stop  offset="0" style="stop-color:#E13635"/>
							<stop  offset="0.6584" style="stop-color:#EB6651"/>
						</linearGradient>
						<path class="st23" d="M389.1,183.6c-2.3-0.2-3.8,4.9-3,9.3c0.3,1.8,2.9,11.5,2.9,11.5l9.2-1.9c0,0-1.8-12.6-5-15.9
							C391.7,185.1,389.1,183.6,389.1,183.6z"/>
						<path class="st19" d="M386.9,193.4c-0.8-4.4,0.8-9.6,3-9.3c0,0,0.3,0.2,0.8,0.5c-0.9-0.6-1.7-1.1-1.7-1.1
							c-2.3-0.2-3.8,4.9-3,9.3c0.3,1.8,2.9,11.5,2.9,11.5l0.6-0.1C389,202.1,387.1,195,386.9,193.4z"/>
						<path class="st19" d="M391.9,190.3c3.5-1.2,6.1-3.1,6.4-4.7c-1.5-0.7-2.9-1.2-4-1.4c-1.7-0.3-2.8,0.1-3.4,0.6
							c-0.3-0.2-0.6-0.4-0.9-0.6c-0.1,0-0.1,0-0.2,0.1c-1.2,0.4-2.2,0.9-3.1,1.4c-0.6,1.4-1,3.5-0.9,5.5
							C387.4,191.3,389.6,191.1,391.9,190.3z"/>
						
							<linearGradient id="SVGID_11_" gradientUnits="userSpaceOnUse" x1="385.239" y1="677.8502" x2="397.8976" y2="677.8502" gradientTransform="matrix(1 0 0 -1 0 853.4645)">
							<stop  offset="0" style="stop-color:#115E64"/>
							<stop  offset="1" style="stop-color:#02333A"/>
						</linearGradient>
						<path class="st24" d="M385.6,188.3c-0.5-4.9-1-24,3.6-25.7c6.5-2.3,4.7,17.3,8.8,23.1C397,186.6,386.7,189.9,385.6,188.3z"/>
						
							<linearGradient id="SVGID_12_" gradientUnits="userSpaceOnUse" x1="385.2401" y1="673.7708" x2="389.032" y2="673.7708" gradientTransform="matrix(1 0 0 -1 0 853.4645)">
							<stop  offset="0" style="stop-color:#115E64"/>
							<stop  offset="1" style="stop-color:#02333A"/>
						</linearGradient>
						<path class="st25" d="M385.8,170.6c-0.8,6.4-0.5,14.7-0.2,17.7c0.4,0.5,1.8,0.5,3.5,0.2C387.9,184.2,386.1,176.6,385.8,170.6z
							"/>
						<path class="st17" d="M391,163.2c0-0.6-1.1-0.9-2.4-0.8c-1.3,0.1-2.3,0.7-2.2,1.2c0,0.6,1.1,0.9,2.4,0.8
							C390.1,164.3,391.1,163.8,391,163.2z"/>
						<path class="st17" d="M387.6,163.5c0,0-1.4-5-1-10.1h1.4c0,0,1.5,8.2,2.5,10L387.6,163.5z"/>
						<path class="st26" d="M392.6,220.3c1.6,0,3.7,0.1,4.5,1.2c-2.6,0-4.8,0-4.8,0L392.6,220.3z"/>
						<path class="st26" d="M414.3,206.4c1.6-0.2,4.5-0.5,5.2,0.5c-2.6,0.3-4.8,0.6-4.8,0.6L414.3,206.4z"/>
						<path class="st27" d="M414.4,195.9c0,3.4,2.7,6.1,6.1,6.1c3.4,0,6.1-2.7,6.1-6.1c0-3.4-2.7-6.1-6.1-6.1
							C417.2,189.8,414.4,192.5,414.4,195.9z"/>
						<g>
							<path class="st28" d="M519.3,190.3c1.1-1.3,1.7-2.7,1.2-3.1c-0.4-0.4-1.7,0.4-2.8,1.7c-1.1,1.3-1.7,2.7-1.2,3.1
								C516.9,192.4,518.1,191.7,519.3,190.3z"/>
							<path class="st20" d="M537.2,219.7c0-0.2-19.8-0.4-44.3-0.4c-24.4,0-44.3,0.2-44.3,0.4c0,0.2,19.8,0.4,44.3,0.4
								C517.4,220.1,537.2,219.9,537.2,219.7z"/>
							<path class="st17" d="M511,216.9c0.4,0,15.4,0.4,17.6,1.7c1.6,1-18,0.4-18,0.4L511,216.9z"/>
							
								<linearGradient id="SVGID_13_" gradientUnits="userSpaceOnUse" x1="499.7292" y1="643.7783" x2="520.5586" y2="643.7783" gradientTransform="matrix(1 0 0 -1 0 853.4645)">
								<stop  offset="0" style="stop-color:#115E64"/>
								<stop  offset="1" style="stop-color:#02333A"/>
							</linearGradient>
							<path class="st29" d="M517.9,214.5c2.8-5.5,4.4-13.9-2-13.4l-8.5-1.1c-4.4,8.5-10.4,18.8-6.3,19.3h19.3
								C521.2,217.2,519.1,215.4,517.9,214.5z"/>
							<path class="st17" d="M478.8,169.1c8.4,6.7,16.4,11,28.6,14.3l-1.3,3c0,0-13.8-4-27.7-16.5L478.8,169.1z"/>
							<path class="st15" d="M506.3,183.1l-0.9,1.9c0,0-13.2-3.8-26.7-15.7l-0.3,0.5c13.9,12.5,27.7,16.5,27.7,16.5l1.3-3
								C507,183.4,506.6,183.2,506.3,183.1z"/>
							
								<linearGradient id="SVGID_14_" gradientUnits="userSpaceOnUse" x1="497.9612" y1="669.9694" x2="509.6743" y2="669.9694" gradientTransform="matrix(1 0 0 -1 0 853.4645)">
								<stop  offset="0" style="stop-color:#E13635"/>
								<stop  offset="0.6584" style="stop-color:#EB6651"/>
							</linearGradient>
							<path class="st30" d="M498.4,186.9c-0.5-1.8-0.6-4.1-0.3-6.9c0,0,13.2,2.1,11.4,5.6C508.7,187.1,498.4,186.9,498.4,186.9z"/>
							
								<linearGradient id="SVGID_15_" gradientUnits="userSpaceOnUse" x1="503.6783" y1="659.278" x2="520.3607" y2="659.278" gradientTransform="matrix(1 0 0 -1 0 853.4645)">
								<stop  offset="0" style="stop-color:#E13635"/>
								<stop  offset="0.6584" style="stop-color:#EB6651"/>
							</linearGradient>
							<path class="st31" d="M504,204.5c-1.1-9.8,0.3-22.5,5.3-23c6.6-0.6,4.3,14.5,11,21.7C516.1,208.5,504.2,207.1,504,204.5z"/>
							
								<linearGradient id="SVGID_16_" gradientUnits="userSpaceOnUse" x1="510.1127" y1="660.2755" x2="520.3607" y2="660.2755" gradientTransform="matrix(1 0 0 -1 0 853.4645)">
								<stop  offset="0" style="stop-color:#E13635"/>
								<stop  offset="0.6584" style="stop-color:#EB6651"/>
							</linearGradient>
							<path class="st32" d="M510.1,181.5c4.9,2.2,2.7,15.8,8.5,23.3c0.7-0.4,1.3-1,1.7-1.6C513.9,196.3,515.8,182.1,510.1,181.5z"
								/>
							<path class="st17" d="M525.7,206.4c0-8-1.5-13.6-11.1-18.8l1.5-1.5c0,0,12.2,4.6,10.2,20.1L525.7,206.4z"/>
							<path class="st15" d="M522,190.3c-2.8-3.1-5.9-4.2-5.9-4.2l-1.5,1.5c2.4,1.3,4.3,2.6,5.8,4L522,190.3z"/>
							
								<linearGradient id="SVGID_17_" gradientUnits="userSpaceOnUse" x1="510.026" y1="666.1162" x2="520.4979" y2="666.1162" gradientTransform="matrix(1 0 0 -1 0 853.4645)">
								<stop  offset="0" style="stop-color:#E13635"/>
								<stop  offset="0.6584" style="stop-color:#EB6651"/>
							</linearGradient>
							<path class="st33" d="M520.5,187.3c-1.9,1.1-3.3,2.6-4,4.8c0,0-8-6-6.2-8.8C512.3,180.2,520.5,187.3,520.5,187.3z"/>
							<path class="st17" d="M512.5,182.4c0-0.4-1.3-0.7-2.9-0.7s-2.9,0.3-3,0.7c0,0.4,1.3,0.7,2.9,0.7
								C511.2,183.1,512.5,182.8,512.5,182.4z"/>
							<g>
								
									<linearGradient id="SVGID_18_" gradientUnits="userSpaceOnUse" x1="509.1766" y1="644.5281" x2="511.0855" y2="644.5281" gradientTransform="matrix(1 0 0 -1 0 853.4645)">
									<stop  offset="0" style="stop-color:#115E64"/>
									<stop  offset="1" style="stop-color:#02333A"/>
								</linearGradient>
								<polygon class="st34" points="509.4,209.4 509.2,208.9 511.1,208.4 511,208.8 								"/>
							</g>
							<path class="st17" d="M507.5,182.9c0,0,1.3-8.2,1.3-9.6l3.9-0.4c0,0-1.8,6.7-1.1,9.4L507.5,182.9z"/>
							<path class="st15" d="M478,169.6c-0.1-0.2-1.2-0.6-1.7-0.4c-0.5,0.2-1.2,0.4-1.1,0.8c0.1,0.2,0.6,0.2,1.1,0
								C476.8,169.8,478.1,169.8,478,169.6z"/>
							<path class="st17" d="M478.6,169.3c0-0.3-1.1-0.7-1.7-0.6c-0.5,0.1-1.3,0.2-1.1,0.6c0.1,0.2,0.5,0.3,1.1,0.2
								C477.5,169.4,478.7,169.5,478.6,169.3z"/>
							<path class="st17" d="M480.5,170.7c0.1-0.2-0.6-1.2-1.2-1.4c-0.5-0.2-1.2-0.4-1.3,0c-0.1,0.3,0.3,0.5,0.9,0.7
								C479.4,170.2,480.4,170.9,480.5,170.7z"/>
							
								<linearGradient id="SVGID_19_" gradientUnits="userSpaceOnUse" x1="473.1639" y1="680.822" x2="480.3769" y2="680.822" gradientTransform="matrix(1 0 0 -1 0 853.4645)">
								<stop  offset="0" style="stop-color:#E13635"/>
								<stop  offset="0.6584" style="stop-color:#EB6651"/>
							</linearGradient>
							<polygon class="st35" points="479.3,169 473.1,170.1 474.2,176.2 480.4,175.1 							"/>
							<path class="st36" d="M527.2,219c0,0,0.6-3.3,5.4,0.1L527.2,219z"/>
							<path class="st17" d="M526.3,219.1c0,0,0.2-1.3,2.1,0H526.3z"/>
							<path class="st17" d="M525.7,205.9c-0.4,0.6-1,1.3-1.2,1.8c0,0.1-0.9,1.7-0.8,1.7c0.9,0,1.1-1.6,1.7-1.2
								c0.3,0.2-1,2.7-0.4,2.7c0.7,0.1,1.1-1.8,1.1-1.8s-0.2,1.7,0.2,1.8c0.6,0.1,0.8-2.2,0.8-2.2s-0.1,2.2,0.3,2.1
								c0.4-0.1,1.1-2.9-1.1-5.1L525.7,205.9z"/>
							<rect x="469.1" y="213.3" class="st37" width="6.3" height="6.3"/>
							
								<linearGradient id="SVGID_20_" gradientUnits="userSpaceOnUse" x1="452.2098" y1="672.5847" x2="486.2955" y2="629.2623" gradientTransform="matrix(1 0 0 -1 0 853.4645)">
								<stop  offset="0" style="stop-color:#115E64"/>
								<stop  offset="1" style="stop-color:#02333A"/>
							</linearGradient>
							<rect x="472.1" y="207" class="st38" width="6.3" height="6.3"/>
							<rect x="470.5" y="200.7" class="st37" width="6.6" height="6.3"/>
							
								<linearGradient id="SVGID_21_" gradientUnits="userSpaceOnUse" x1="452.3582" y1="672.7007" x2="486.4439" y2="629.3785" gradientTransform="matrix(1 0 0 -1 0 853.4645)">
								<stop  offset="0" style="stop-color:#115E64"/>
								<stop  offset="1" style="stop-color:#02333A"/>
							</linearGradient>
							<rect x="477.3" y="213.3" class="st39" width="6.3" height="6.3"/>
							<rect x="471.5" y="194.4" class="st40" width="6.3" height="6.3"/>
							
								<linearGradient id="SVGID_22_" gradientUnits="userSpaceOnUse" x1="465.8035" y1="643.2783" x2="472.0655" y2="643.2783" gradientTransform="matrix(1 0 0 -1 0 853.4645)">
								<stop  offset="0" style="stop-color:#E13635"/>
								<stop  offset="0.6584" style="stop-color:#EB6651"/>
							</linearGradient>
							<rect x="465.8" y="207" class="st41" width="6.3" height="6.3"/>
							<rect x="461.8" y="213.3" class="st40" width="7.1" height="6.3"/>
							
								<linearGradient id="SVGID_23_" gradientUnits="userSpaceOnUse" x1="455.0906" y1="636.9794" x2="461.3524" y2="636.9794" gradientTransform="matrix(1 0 0 -1 0 853.4645)">
								<stop  offset="0" style="stop-color:#E13635"/>
								<stop  offset="0.6584" style="stop-color:#EB6651"/>
							</linearGradient>
							<rect x="455.1" y="213.3" class="st42" width="6.3" height="6.3"/>
							<rect x="468.7" y="188.2" class="st37" width="6.3" height="6.3"/>
							
								<linearGradient id="SVGID_24_" gradientUnits="userSpaceOnUse" x1="461.4369" y1="679.8571" x2="495.5226" y2="636.5348" gradientTransform="matrix(1 0 0 -1 0 853.4645)">
								<stop  offset="0" style="stop-color:#115E64"/>
								<stop  offset="1" style="stop-color:#02333A"/>
							</linearGradient>
							<rect x="467.3" y="181.9" class="st43" width="6.3" height="6.3"/>
							
								<linearGradient id="SVGID_25_" gradientUnits="userSpaceOnUse" x1="453.455" y1="673.5672" x2="487.5407" y2="630.2449" gradientTransform="matrix(1 0 0 -1 0 853.4645)">
								<stop  offset="0" style="stop-color:#115E64"/>
								<stop  offset="1" style="stop-color:#02333A"/>
							</linearGradient>
							<rect x="464.2" y="194.4" class="st44" width="6.3" height="6.3"/>
							
								<linearGradient id="SVGID_26_" gradientUnits="userSpaceOnUse" x1="463.2779" y1="649.5773" x2="469.5401" y2="649.5773" gradientTransform="matrix(1 0 0 -1 0 853.4645)">
								<stop  offset="0" style="stop-color:#E13635"/>
								<stop  offset="0.6584" style="stop-color:#EB6651"/>
							</linearGradient>
							<rect x="463.3" y="200.7" class="st45" width="6.3" height="6.3"/>
							<rect x="458.3" y="207" class="st37" width="6.3" height="6.3"/>
							
								<linearGradient id="SVGID_27_" gradientUnits="userSpaceOnUse" x1="503.6949" y1="657.2593" x2="516.5192" y2="657.2593" gradientTransform="matrix(1 0 0 -1 0 853.4645)">
								<stop  offset="0" style="stop-color:#E13635"/>
								<stop  offset="0.6584" style="stop-color:#EB6651"/>
							</linearGradient>
							<path class="st46" d="M516.5,196.1c-0.1-0.2-0.2-0.5-0.2-0.7c-5.3,0.8-9.1,0.7-12.6,0c0,0.3,0,0.6,0,1
								C507.1,197.2,510.7,197.1,516.5,196.1z"/>
							<path class="st47" d="M515,196.3c0.5-0.1,1-0.2,1.5-0.2c-0.1-0.2-0.2-0.5-0.2-0.7c-0.5,0.1-0.9,0.1-1.4,0.2L515,196.3z"/>
							<path class="st17" d="M479.4,170.4c-0.2,0.1-1.6,0.1-1.7,0.4c-0.1,0.5,0.9,0.5,1.4,0.5c0.6-0.1,1.7,0.2,1.8-0.2
								C481,170.8,480.3,169.9,479.4,170.4z"/>
							<path class="st48" d="M510.6,186.2c3,0.4,5.8,0.2,7.8-0.5c-1.7-1.3-4.2-2.9-6-3.2l0.1-0.1c0-0.2-0.4-0.4-1.1-0.6
								c-0.2-1.4,0.1-3.5,0.4-5.4c-1.2-0.2-2.3-0.2-3.3-0.2c-0.3,1.9-0.6,4.2-0.8,5.5c-0.5,0.1-0.9,0.3-1,0.5
								c-1.8-0.7-4-1.3-5.7-1.7C501.3,183,505.4,185.5,510.6,186.2z"/>
							<path class="st49" d="M491.9,152.5c-7.6-7.6,0.1-32.6,10.5-34.3c11.7-1.9,2.3,12.4,2.3,12.4s3.9-4.3,7.4-2
								c3.9,2.6,2,7.9,2,7.9s3.2-2,5-0.5c1.8,1.5,0.9,6.7,0.9,6.7s2-2.1,4.2,0.2c3.2,3.5-5.9,28.1-8.7,27.7
								C514.6,170.6,491.9,152.5,491.9,152.5z"/>
							<path class="st49" d="M503.8,150.7c1.5-8.2,5.6-15,10.6-18.4c-0.2-1.3-0.9-2.6-2.3-3.6c-3.5-2.4-7.4,2-7.4,2
								s9.4-14.3-2.3-12.4c-10.4,1.7-18.1,26.7-10.5,34.3c0,0,5.9,4.7,11.7,9.3C503.1,158.3,503.1,154.6,503.8,150.7z"/>
							<path class="st17" d="M495.1,136.3c-5.1,6.3-10.6,34.1,10.2,41.6c12.2,4.4,14.4-21.2,12.3-26.2
								C511.4,137,499,131.4,495.1,136.3z"/>
							<g>
								<g>
									<defs>
										<polygon id="SVGID_28_" points="2.4,1.1 3.4,1.1 2.4,2.1 										"/>
									</defs>
									<defs>
										<polygon id="SVGID_29_" points="0.4,-0.9 -0.6,-0.9 0.4,-1.9 										"/>
									</defs>
									<clipPath id="SVGID_30_">
										<use xlink:href="#SVGID_28_"  style="overflow:visible;"/>
									</clipPath>
									<clipPath id="SVGID_31_" class="st50">
										<use xlink:href="#SVGID_29_"  style="overflow:visible;"/>
									</clipPath>
									
										<linearGradient id="SVGID_32_" gradientUnits="userSpaceOnUse" x1="506.787" y1="684.8781" x2="509.1683" y2="672.7873" gradientTransform="matrix(1 0 0 -1 0 853.4645)">
										<stop  offset="0" style="stop-color:#000000"/>
										<stop  offset="1" style="stop-color:#FFFFFF"/>
									</linearGradient>
									<path class="st51" d="M495.1,136.3c-5.1,6.3-10.6,34.1,10.2,41.6c12.2,4.4,14.4-21.2,12.3-26.2
										C511.4,137,499,131.4,495.1,136.3z"/>
								</g>
							</g>
							
								<linearGradient id="SVGID_33_" gradientUnits="userSpaceOnUse" x1="506.787" y1="684.8781" x2="509.1683" y2="672.7873" gradientTransform="matrix(1 0 0 -1 0 853.4645)">
								<stop  offset="0" style="stop-color:#BE4B00"/>
								<stop  offset="1" style="stop-color:#B53400"/>
							</linearGradient>
							<path class="st52" d="M495.1,136.3c-5.1,6.3-10.6,34.1,10.2,41.6c12.2,4.4,14.4-21.2,12.3-26.2
								C511.4,137,499,131.4,495.1,136.3z"/>
							<path class="st17" d="M523.9,161.9c-0.2-1.5-2.4-2.4-4.8-2c-2.5,0.4-4.3,1.9-4,3.3c0.2,1.5,2.4,2.4,4.8,2
								C522.3,164.8,524.1,163.4,523.9,161.9z"/>
							<path class="st53" d="M506.3,168.2c-1.4-0.2-1.7-0.6-1.6-1c0.1-0.8,1.8-0.5,1.8-0.5S506.7,167.7,506.3,168.2z"/>
							<g>
								<path class="st54" d="M498.3,169.4L498.3,169.4c1.6,1.9,8.5,2.9,8.1-3.2h0.3C507.2,172.6,499.8,171.6,498.3,169.4z"/>
							</g>
							<path class="st55" d="M501.6,163.7c0-0.8-1.3-0.7-2.9-0.7c-1.7,0-3.1-0.1-3.1,0.7s1.4,1.4,3,1.4
								C500.3,165.2,501.6,164.5,501.6,163.7z"/>
							<path class="st55" d="M506.8,163c0.1,0.7,1.1,1,2.3,0.9c1.2-0.1,2.2-0.6,2.1-1.3c-0.1-0.7-1.1-1.2-2.3-1
								C507.7,161.7,506.7,162.3,506.8,163z"/>
							<path class="st17" d="M503.1,163.7c0-0.5-1.2-0.5-2.9-0.6c-1.7-0.1-3.1-0.2-3.1,0.3c0,0.5,1.3,1.1,3,1.1
								C501.7,164.6,503.1,164.2,503.1,163.7z"/>
							<path class="st54" d="M507.3,157.9c0-2.3-1.7-4.2-3.6-4.2c-1.9,0-2.8,1.8-2.8,4c0,2.3,1.4,2.7,3.3,2.7
								C506.1,160.5,507.3,160.2,507.3,157.9z"/>
							<path class="st56" d="M507,158.3c0-2.3-1.7-4.2-3.6-4.2s-2.8,1.8-2.8,4c0,2.3,1.4,2.7,3.3,2.7
								C505.9,160.8,507,160.6,507,158.3z"/>
							<path class="st54" d="M497.3,158.2c-0.4-2.2-2.1-3.8-3.7-3.3c-1.6,0.4-2,2.4-1.6,4.6c0.4,2.2,1.6,2.4,3.2,1.9
								C496.8,161,497.7,160.4,497.3,158.2z"/>
							<path class="st56" d="M497.2,158.6c-0.4-2.2-2.1-3.8-3.7-3.3c-1.6,0.4-2,2.4-1.6,4.6c0.4,2.2,1.6,2.4,3.2,1.9
								C496.7,161.4,497.5,160.8,497.2,158.6z"/>
							<g>
								<path class="st57" d="M493.8,150.7c-0.9,0.1-1.8,0.4-2.5,1.1l0.1,0.7c0.8-0.7,1.6-1,2.5-1.1L493.8,150.7L493.8,150.7z"/>
								<path class="st57" d="M501.5,149.9v0.7c1.2-0.1,2.5,0.1,4.1,0.7l0.1-0.8C504.2,150,502.8,149.8,501.5,149.9z"/>
							</g>
							<path class="st49" d="M504.5,158.3c0-1.1-0.8-2-1.8-2s-1.8,0.9-1.8,2s0.8,2,1.8,2C503.6,160.4,504.5,159.5,504.5,158.3z"/>
							<path class="st49" d="M495.7,159.6c0-1.1-0.8-2-1.8-2c-1,0-1.8,0.9-1.8,2s0.8,2,1.8,2S495.7,160.7,495.7,159.6z"/>
							<path class="st58" d="M494.8,158.6c0-0.4-0.3-0.7-0.7-0.7c-0.4,0-0.7,0.3-0.7,0.7s0.3,0.7,0.7,0.7
								C494.5,159.2,494.8,159,494.8,158.6z"/>
							<path class="st58" d="M503.6,157.4c0-0.4-0.3-0.7-0.7-0.7s-0.7,0.3-0.7,0.7c0,0.4,0.3,0.7,0.7,0.7
								C503.3,158,503.6,157.7,503.6,157.4z"/>
							<path class="st55" d="M522.8,162c-0.2-1.1-1.8-1.8-3.6-1.5c-0.9,0.1-1.6,0.4-2.2,0.8c0.4-0.2,0.9-0.4,1.5-0.5
								c1.6-0.2,3.1,0.3,3.2,1.3c0.1,0.9-1.1,1.9-2.7,2.1c-0.8,0.1-1.5,0-2.1-0.2c0.7,0.4,1.7,0.6,2.9,0.5
								C521.6,164.3,523,163.1,522.8,162z"/>
							<path class="st55" d="M518,161.9c-0.3,0-0.5,0-0.7,0.1c0.5,0.1,0.9,0.4,0.9,0.7c0,0.3-0.3,0.5-0.7,0.7c0.2,0,0.4,0.1,0.6,0.1
								c0.8,0,1.4-0.3,1.4-0.8C519.5,162.2,518.8,161.9,518,161.9z"/>
							<g>
								<path class="st59" d="M470,186.6v-3.1l0.5-0.2h0.5v3.3H470z"/>
							</g>
							<g>
								<path class="st59" d="M473.1,189.6v0.4l-0.2,0.4h-1.1v0.4h0.9c0.2,0,0.4,0.2,0.4,0.4v1.3c0,0.2-0.2,0.4-0.4,0.4h-1.9v-0.8
									h1.3v-0.5h-1.3v-2L473.1,189.6L473.1,189.6z"/>
							</g>
							<g>
								<path class="st59" d="M471.9,205.6v-3.1l0.5-0.2h0.5v3.3H471.9z"/>
								<path class="st59" d="M473.8,205.6c-0.2,0-0.4-0.2-0.4-0.4v-2.5c0-0.2,0.2-0.4,0.4-0.4h1.5c0.2,0,0.4,0.2,0.4,0.4v2.5
									c0,0.2-0.2,0.4-0.4,0.4H473.8z M474.4,203.1v1.7h0.3v-1.7H474.4z"/>
							</g>
							<g>
								<path class="st59" d="M466.3,216.9v1.3c0,0.2-0.2,0.4-0.4,0.4h-1.5c-0.2,0-0.4-0.2-0.4-0.4v-2.5c0-0.2,0.2-0.4,0.4-0.4h1.9
									v0.4l-0.2,0.4H465v0.4h0.9C466.2,216.5,466.3,216.6,466.3,216.9z M465.3,217.3H465v0.5h0.3V217.3z"/>
							</g>
							<g>
								<path class="st59" d="M468.7,199.3c0,0.2-0.2,0.4-0.4,0.4h-1.9v-0.8h1.3v-0.5h-0.8v-0.5l0.6-0.5v-0.2h-0.9l-0.2-0.4v-0.4
									h2.3v0.8l-0.4,0.5c0.3,0,0.4,0.2,0.4,0.4V199.3z"/>
							</g>
							<g>
								<path class="st59" d="M480,215.8h-1V215h2v0.9l-0.8,2.5h-1V218L480,215.8L480,215.8L480,215.8z"/>
							</g>
							<g>
								<path class="st59" d="M474,198.9V198c0-0.2,0.2-0.4,0.4-0.4v-0.1c-0.2,0-0.4-0.2-0.4-0.4v-0.8c0-0.2,0.2-0.4,0.4-0.4h1.5
									c0.2,0,0.4,0.2,0.4,0.4v0.8c0,0.2-0.2,0.4-0.4,0.4v0.1c0.2,0,0.4,0.2,0.4,0.4v0.8c0,0.2-0.2,0.4-0.4,0.4h-1.5
									C474.2,199.3,474,199.1,474,198.9z M475,197.2h0.3v-0.4H475V197.2z M475,198.5h0.3V198H475V198.5z"/>
							</g>
							<g>
								<path class="st59" d="M462,211.1v0.2h1.3v0.8H461V211c0-0.3,0-0.4,0.3-0.6l1-0.6v-0.2h-1.1l-0.2-0.4v-0.4h1.9
									c0.2,0,0.4,0.2,0.4,0.4v0.8c0,0.3,0,0.4-0.3,0.6L462,211.1z"/>
							</g>
							<g>
								<path class="st59" d="M469.2,208.5v0.4l-0.4,1.3v0.2h0.4v-0.6h1v2.1h-1v-0.6h-1.5v-1l0.6-1.7L469.2,208.5L469.2,208.5z"/>
							</g>
							<g>
								<path class="st59" d="M470.9,216.4v-1.3c0-0.2,0.2-0.4,0.4-0.4h1.5c0.2,0,0.4,0.2,0.4,0.4v2.5c0,0.2-0.2,0.4-0.4,0.4H471
									v-0.8h1.2v-0.4h-0.9C471,216.8,470.9,216.7,470.9,216.4z M471.9,216h0.3v-0.5h-0.3V216z"/>
							</g>
							<g>
								<path class="st59" d="M475.6,173.1l-0.2-1.3c0-0.2,0.1-0.4,0.3-0.5l1.5-0.3c0.2,0,0.4,0.1,0.5,0.3l0.4,2.5
									c0,0.2-0.1,0.4-0.3,0.5l-1.8,0.3l-0.1-0.8l1.2-0.2l-0.1-0.4l-0.9,0.2C475.8,173.5,475.6,173.4,475.6,173.1z M476.6,172.5
									h0.3l-0.1-0.4h-0.3L476.6,172.5z"/>
							</g>
							<g>
								<path class="st59" d="M474.3,211.7v-3.1l0.5-0.2h0.5v3.3H474.3z"/>
							</g>
							<g>
								<path class="st59" d="M467.3,203.3h-1v-0.8h2v0.9l-0.8,2.5h-1v-0.3l0.7-2.1L467.3,203.3L467.3,203.3z"/>
							</g>
							<g>
								<path class="st59" d="M459.9,214.8v0.4l-0.2,0.4h-1.1v0.4h0.9c0.2,0,0.4,0.2,0.4,0.4v1.3c0,0.2-0.2,0.4-0.4,0.4h-1.9v-0.8
									h1.3v-0.5h-1.3v-2L459.9,214.8L459.9,214.8z"/>
							</g>
							<g>
								
									<linearGradient id="SVGID_34_" gradientUnits="userSpaceOnUse" x1="517.0936" y1="642.8784" x2="520.5303" y2="642.8784" gradientTransform="matrix(1 0 0 -1 0 853.4645)">
									<stop  offset="0" style="stop-color:#115E64"/>
									<stop  offset="1" style="stop-color:#02333A"/>
								</linearGradient>
								<path class="st60" d="M517.9,214.5c2.2-4.4,3.7-10.6,1-12.7c1.7,2.9,0.3,8.9-1.7,13.3c1,0.8,2.6,2.4,2.7,4.2h0.6
									C521.2,217.2,519.1,215.4,517.9,214.5z"/>
								
									<linearGradient id="SVGID_35_" gradientUnits="userSpaceOnUse" x1="506.1467" y1="639.7289" x2="509.5971" y2="639.7289" gradientTransform="matrix(1 0 0 -1 0 853.4645)">
									<stop  offset="0" style="stop-color:#115E64"/>
									<stop  offset="1" style="stop-color:#02333A"/>
								</linearGradient>
								<path class="st61" d="M506.9,208.1l-0.2,0.2l2.3,1c-1.1,2.3-4,8.4-2.2,10h0.9c-2.3-1.6,0.4-7,1.9-10l0.1-0.2L506.9,208.1z"
									/>
								
									<linearGradient id="SVGID_36_" gradientUnits="userSpaceOnUse" x1="514.9733" y1="638.3792" x2="518.0605" y2="638.3792" gradientTransform="matrix(1 0 0 -1 0 853.4645)">
									<stop  offset="0" style="stop-color:#115E64"/>
									<stop  offset="1" style="stop-color:#02333A"/>
								</linearGradient>
								<polygon class="st62" points="517.5,214.6 515,215.5 518.1,215.5 								"/>
							</g>
						</g>
						<path class="st17" d="M369.3,182.5c0.3,0.7,0.3,3.6-0.6,3.7c-0.9,0.1,0-2.3-1.1-2.1c-1.2,0.2-0.4,1.5-0.4,1.5s1.4,1.5,0.8,2
							c-0.5,0.4-2-1.7-2.1-2.2c-0.2-0.9,0.3-2.5,0.8-2.9C367.6,181.8,368.8,181.3,369.3,182.5z"/>
						
							<rect x="387.9" y="203" transform="matrix(0.9934 -0.1147 0.1147 0.9934 -20.7589 46.4462)" class="st63" width="10.9" height="1.4"/>
						
							<rect x="400.2" y="194.8" transform="matrix(0.6334 -0.7738 0.7738 0.6334 -2.6199 385.5536)" class="st63" width="10.9" height="1.4"/>
						<path class="st19" d="M397.3,195.8c0-0.2,0.8-3.2,0.8-3.2l-1.3,1.6l-2.1,0.1L397.3,195.8z"/>
						<path class="st48" d="M397.3,165.5c-2.3-1.1-4.6-2.2-6-2.7c-0.3-0.2-0.7-0.3-1.1-0.3h-0.1c-0.4-1.3-0.9-3.3-1.3-5.1
							c-0.4,0-0.8,0-1.2,0c-0.3,0-0.6,0-0.9,0c0.2,2.3,0.6,4.2,0.8,5.3c-0.4,0.1-0.7,0.3-0.9,0.5c-2.1,0.7-4.8,2.4-6.9,4
							c1.9,1.3,4.8,2.1,8,2.1C392,169.3,395.8,167.7,397.3,165.5z"/>
						<path class="st49" d="M384.7,155.8c-8.9-1-22.1-5.8-23.6-16.8c0,0-2.9-3.3-0.8-7.5c2.1-4.2-3.9-9.7,5.5-16.2
							c0,0-1.6-6.9,15.3-7c16.9-0.1,22.1,22.1,17.8,33.3C394.6,152.8,384.7,155.8,384.7,155.8z"/>
						<path class="st49" d="M371.2,139.2c-4-4.7-12.1-15.3-7.3-22.4c-6.5,5.8-1.7,10.8-3.6,14.7c-2.1,4.2,0.8,7.5,0.8,7.5
							c1.5,11,14.7,15.8,23.6,16.8c0,0,8.3-2.6,13.1-11.7C389.9,145.4,378.9,148.2,371.2,139.2z"/>
						<path class="st17" d="M377.7,147.4c0.9-1.1-0.3-4.7-1.4-5.7c-1.2-1-2.8-0.9-3.7,0.1c-0.9,1.1-0.7,2.7,0.4,3.7
							S376.8,148.4,377.7,147.4z"/>
						<path class="st17" d="M376,142c-0.4,5,4.7,20.3,17.4,17.3c20.1-4.7,0.7-36,0.7-36c0.1-0.3-9.2,2.8-9.2,2.8
							C385.2,133,381.7,140.4,376,142z"/>
						<g>
							<g>
								<defs>
									<polygon id="SVGID_37_" points="2.4,1.1 3.4,1.1 2.4,2.1 									"/>
								</defs>
								<defs>
									<polygon id="SVGID_38_" points="0.4,-0.9 -0.6,-0.9 0.4,-1.9 									"/>
								</defs>
								<clipPath id="SVGID_39_">
									<use xlink:href="#SVGID_37_"  style="overflow:visible;"/>
								</clipPath>
								<clipPath id="SVGID_40_" class="st64">
									<use xlink:href="#SVGID_38_"  style="overflow:visible;"/>
								</clipPath>
								
									<linearGradient id="SVGID_41_" gradientUnits="userSpaceOnUse" x1="388.3957" y1="699.9683" x2="387.5712" y2="691.999" gradientTransform="matrix(1 0 0 -1 0 853.4645)">
									<stop  offset="0" style="stop-color:#000000"/>
									<stop  offset="1" style="stop-color:#FFFFFF"/>
								</linearGradient>
								<path class="st65" d="M376,142c-0.4,5,4.7,20.3,17.4,17.3c20.1-4.7,0.7-36,0.7-36c0.1-0.3-9.2,2.8-9.2,2.8
									C385.2,133,381.7,140.4,376,142z"/>
							</g>
						</g>
						
							<linearGradient id="SVGID_42_" gradientUnits="userSpaceOnUse" x1="388.3957" y1="699.9683" x2="387.5712" y2="691.999" gradientTransform="matrix(1 0 0 -1 0 853.4645)">
							<stop  offset="0" style="stop-color:#BE4B00"/>
							<stop  offset="1" style="stop-color:#B53400"/>
						</linearGradient>
						<path class="st66" d="M376,142c-0.4,5,4.7,20.3,17.4,17.3c20.1-4.7,0.7-36,0.7-36c0.1-0.3-9.2,2.8-9.2,2.8
							C385.2,133,381.7,140.4,376,142z"/>
						<path class="st55" d="M399.6,149.4c-0.1-0.7-1.2-1-2.5-0.8c-1.2,0.2-2.1,0.9-2,1.6c0.1,0.7,1.2,1,2.5,0.8
							C398.8,150.8,399.7,150.1,399.6,149.4z"/>
						<path class="st17" d="M398,149.7c-0.1-0.7-1.2-1-2.5-0.8c-1.2,0.2-2.1,0.9-2,1.6c0.1,0.7,1.2,1,2.5,0.8
							C397.2,151.1,398.1,150.3,398,149.7z"/>
						<path class="st67" d="M395.4,144.5c-0.4-2.5-2.4-4.3-4.4-4c-2.1,0.3-3.4,2.6-3,5.2c0.4,2.5,2.5,2.9,4.6,2.6
							C394.6,147.9,395.7,147,395.4,144.5z"/>
						<path class="st67" d="M402,144.3c-0.4-2.5-1.8-4.4-3.2-4.2c-1.4,0.2-2.1,2.4-1.7,5c0.4,2.5,1.8,3,3.2,2.8
							C401.6,147.7,402.4,146.9,402,144.3z"/>
						<path class="st56" d="M395.2,144.8c-0.4-2.5-2.4-4.3-4.4-4c-2.1,0.3-3.4,2.6-3,5.2c0.4,2.5,2.5,2.9,4.6,2.6
							C394.4,148.2,395.6,147.3,395.2,144.8z"/>
						<path class="st56" d="M401.9,144.7c-0.4-2.5-1.8-4.4-3.2-4.2s-2.1,2.4-1.7,5c0.4,2.5,1.8,3,3.2,2.8
							C401.5,148.1,402.3,147.2,401.9,144.7z"/>
						<g>
							<path class="st68" d="M394.5,135.7c-2.5,0.3-5.2,1-8,2.2v1c2.9-0.8,5.4-1.3,7.7-1.5L394.5,135.7z"/>
							<path class="st68" d="M402.4,137.3c-1.5-1-3.2-1.5-5-1.6l-0.3,1.7c2,0.1,3.7,0.6,5.2,1.6L402.4,137.3z"/>
						</g>
						<path class="st49" d="M394.7,146.9c0.2-1.1-0.4-2.2-1.5-2.4c-1-0.2-2,0.5-2.3,1.6c-0.2,1.1,0.4,2.2,1.5,2.4
							C393.5,148.7,394.5,148,394.7,146.9z"/>
						<path class="st49" d="M401.8,146.7c0.2-1.1-0.4-2.2-1.5-2.4c-1-0.2-2,0.5-2.3,1.6c-0.2,1.1,0.4,2.2,1.5,2.4
							C400.6,148.5,401.6,147.8,401.8,146.7z"/>
						<path class="st69" d="M401.3,146.1c0.1-0.4-0.1-0.8-0.4-0.9c-0.3-0.1-0.6,0.2-0.7,0.7c-0.1,0.4,0.1,0.8,0.4,0.9
							C400.9,146.8,401.2,146.6,401.3,146.1z"/>
						<path class="st69" d="M394.2,146.2c0.1-0.4-0.1-0.8-0.4-0.9c-0.3-0.1-0.6,0.2-0.7,0.7c-0.1,0.4,0.1,0.8,0.4,0.9
							C393.8,146.9,394.1,146.6,394.2,146.2z"/>
						<path class="st70" d="M391.6,152.1l5.9,1.3C397.4,153.4,389,161.3,391.6,152.1z"/>
						<path class="st71" d="M395.4,154.7c0.9-0.7,1.6-1.3,1.6-1.3l-5.3-1.2c-0.2,0.6-0.3,1.2-0.4,1.6L395.4,154.7z"/>
						<path class="st17" d="M414.5,174.7c0,1,1.3,2.8,1.6,2.6c0.4-0.2-0.7-1.7-0.3-1.8c1.1-0.3,1.7,2.1,2.1,1.8
							c0.4-0.2-0.4-2.6-1.6-2.9C415.9,174.3,414.5,173.7,414.5,174.7z"/>
						<ellipse class="st17" cx="390.8" cy="149.1" rx="3.6" ry="1.8"/>
						<ellipse class="st55" cx="386" cy="150.6" rx="2.5" ry="1.3"/>
						<path class="st55" d="M374.3,145.2c-0.7-0.6-0.9-1.7-0.3-2.4c0.6-0.7,1.7-0.7,2.4-0.1c0,0,0,0,0.1,0.1
							c-0.1-0.2-0.3-0.4-0.4-0.5c-0.9-0.7-2.1-0.7-2.8,0.1c-0.7,0.8-0.5,2,0.3,2.8c0.9,0.7,2.9,2.2,3.5,1.4
							C376.4,146.9,375,145.8,374.3,145.2z"/>
						<path class="st55" d="M376,144.6c0.1-0.2,0.4-0.3,0.7-0.3c-0.1-0.1-0.2-0.1-0.3-0.2c-0.5-0.3-1.1-0.2-1.3,0.2
							c-0.2,0.4,0.1,0.9,0.6,1.2c0.2,0.1,0.4,0.2,0.6,0.2C376,145.3,375.8,144.9,376,144.6z"/>
						<polygon class="st72" points="416.7,206.2 414.8,206.4 414.8,207 416.6,206.6 						"/>
						<polygon class="st72" points="395.3,220.5 393.4,220.1 393.3,220.7 395.1,220.9 						"/>
						<path class="st73" d="M421.8,197.7c-3.2,0-5.8-2.4-6.1-5.5c-0.8,1-1.3,2.3-1.3,3.7c0,3.4,2.7,6.1,6.1,6.1
							c3.4,0,6.1-2.7,6.1-6.1c0-0.2,0-0.4,0-0.6C425.5,196.8,423.7,197.7,421.8,197.7z"/>
						<polygon class="st74" points="418.3,197.5 419.5,194.8 418.9,192.4 420.1,194.6 418.8,197.8 416.8,198.8 						"/>
						<polygon class="st74" points="419.5,194.8 422.7,195.7 424.8,194.1 422.6,195 419.8,194.4 						"/>
						<polygon class="st74" points="416.3,192.1 418.4,192.3 416.8,192.7 415.8,194.6 416.3,192.7 						"/>
						<polygon class="st75" points="421.1,190.6 423.3,191.5 424.6,193.8 422.6,194.7 423.3,193.1 422.8,191.7 						"/>
						<path class="st73" d="M423.8,184.7c-1.4,0-2.7,0.6-3.9,1.5c1-0.8,2.2-1.2,3.5-1.2c4,0,7.3,4.5,7.3,9.9c0,3.5-1.4,6.6-3.4,8.4
							c2.3-1.7,3.8-5,3.8-8.7C431.1,189.1,427.8,184.7,423.8,184.7z"/>
					</g>
					<g>
						<path class="st9" d="M362.1,539.9c0,2.6,2.1,4.7,4.7,4.7c2.6,0,4.7-2.1,4.7-4.7c0-2.6-2.1-4.7-4.7-4.7
							C364.2,535.1,362.1,537.3,362.1,539.9L362.1,539.9z M377,531.9h-5.1c-0.4-1.5-0.7-2.9-2.2-2.9h-5.8c-1.5,0-1.8,1.5-2.2,2.9
							h-5.1c-0.8,0-1.5,0.7-1.5,1.5v13.1c0,0.8,0.7,1.5,1.5,1.5H377c0.8,0,1.5-0.7,1.5-1.5v-13.1C378.5,532.5,377.8,531.9,377,531.9
							L377,531.9z M366.8,546.3c-3.6,0-6.5-2.9-6.5-6.5s2.9-6.5,6.5-6.5c3.6,0,6.5,2.9,6.5,6.5C373.3,543.4,370.4,546.3,366.8,546.3
							L366.8,546.3z M377,536.2h-2.9v-1.5h2.9V536.2z"/>
					</g>
					<path class="st9" d="M604.1,553.9H393.9c-1.5,0-2.6-1.2-2.6-2.6v-27.9c0-1.5,1.2-2.6,2.6-2.6H604c1.5,0,2.6,1.2,2.6,2.6v27.9
						C606.7,552.7,605.5,553.9,604.1,553.9z"/>
					<ellipse class="st76" cx="417.2" cy="308.5" rx="27.8" ry="27.8"/>
					<path class="st76" d="M629.7,275.8H460.3c-3.4,0-6.2,3.5-6.2,7.9l-6.5,13.9l6.5-1.6v32c0,4.3,2.8,7.9,6.2,7.9h169.4
						c3.4,0,6.2-3.5,6.2-7.9v-44.3C635.9,279.4,633.1,275.8,629.7,275.8z"/>
					
						<linearGradient id="SVGID_43_" gradientUnits="userSpaceOnUse" x1="471.4623" y1="547.2445" x2="515.3574" y2="547.2445" gradientTransform="matrix(1 0 0 -1 0 853.4645)">
						<stop  offset="0" style="stop-color:#E13635"/>
						<stop  offset="0.6584" style="stop-color:#EB6651"/>
					</linearGradient>
					<path class="st77" d="M503.6,286.7c-0.7,0-1.4,0.1-2.2,0.2c-3.6,0.7-6.2,2.6-8.1,5.7c-1.8-3.1-4.5-5-8.1-5.7
						c-0.7-0.1-1.4-0.2-2.2-0.2c-5.4,0-10.3,3.8-11.5,9.3c-0.3,1.4-0.3,2.8-0.2,4.2c0.4,3.6,1.9,6.7,3.8,9.6c1.8,2.7,4,5,6.3,7.2
						c3.6,3.3,7.5,6.2,11.7,8.7c4.2-2.5,8.1-5.4,11.7-8.7c2.4-2.2,4.5-4.5,6.3-7.2c2-2.9,3.4-6.1,3.8-9.6c0.2-1.4,0.1-2.8-0.2-4.2
						C513.9,290.5,509,286.7,503.6,286.7L503.6,286.7z"/>
				</g>
				<g>
					<g>
						<path class="st78" d="M716.8,157c0,0,0.7,24.6-9.1,31.1c0,0.1,6.8,2.3,6.8,2.3l0.9,7.6l10.4,0.8c0,0-0.2,3.3-8.4,5.8
							c0.2,0.8,2.6,9.5,16.6,7.5c4.4-0.7,9.5-1.6,9.5-1.6l2,17h-10.2c0,0,8.3,9.4,26.5,9.4c0.5-0.5,14.8,2.3,29.1-9.3
							c0.1,0.1-10.6,0.1-10.6,0.1l-2.1-14l-18.6-62.3L716.8,157z"/>
						<ellipse class="st79" cx="724.9" cy="178.6" rx="3.2" ry="3.3"/>
						<ellipse class="st80" cx="732.6" cy="187.2" rx="5.3" ry="5.3"/>
						<path class="st80" d="M719.7,165.6c0,0,6.9,0.1,11.5,5.3C731.2,171,729.2,164.7,719.7,165.6z"/>
						<path class="st49" d="M753.3,132.8c0,0,33.7-1,35.8,25.4c0.3,5.4,1.8,12.1-0.8,27.7c-0.5,0.3,5.4-4,11.5-4
							c0.1,0.1,17-0.1,17,18.6c0,2.1-1.8,18-17.4,19.2c-3.3,0-13.4-0.3-17.7-12.8c0.2,0.3-3.8,6.9-3.8,6.9s-9.3-0.7-11.8-10.2
							c-2.6-10.5-11.5-11.8-11.5-11.8s-9.2-1.5-9.3-18.7c0.2-4.4,2.6-16.5,2.6-16.5s-17.5,5.6-32.4-0.2
							C715.6,156.5,714.3,130.3,753.3,132.8z"/>
						<ellipse class="st7" cx="757.5" cy="194.6" rx="4.7" ry="4.7"/>
						<path class="st78" d="M704.1,264.5c0,0-22.1,48.5-68.2,52c-9.2-2.4-21.4-5.9-27.1-5.9c-1.1,0-12.9,4.4-10.9,9.8
							c2.2-0.4,9.6-4.8,9.6-4.8s10,8.5,19.4,8.5c4.6,0,20.1-0.9,22.5-0.9s40,0,66.2-33.9c7.7-11.8,7.7-11.8,7.7-11.8
							S717.9,265.2,704.1,264.5z"/>
						
							<linearGradient id="SVGID_44_" gradientUnits="userSpaceOnUse" x1="678.7658" y1="532.813" x2="853.0181" y2="612.8948" gradientTransform="matrix(1 0 0 -1 0 853.4645)">
							<stop  offset="0" style="stop-color:#E13635"/>
							<stop  offset="0.6584" style="stop-color:#EB6651"/>
						</linearGradient>
						<path class="st81" d="M735.2,227.5c0,0-17.1-5.3-34.5,35.6c0.3,0.3,13.3,5.4,13.3,5.4s-2.5,14.9,4,24.1
							c2.4,6.6,13.4,33.9,13.2,43.4c-0.1-0.3,65.9,0,65.9,0s5.4-43.4,2.5-60.1c0-0.6,29.1-21.5,29.1-21.5s-3-27.1-38-26.5
							L735.2,227.5z"/>
						
							<linearGradient id="SVGID_45_" gradientUnits="userSpaceOnUse" x1="874.2513" y1="567.1133" x2="677.8373" y2="315.5654" gradientTransform="matrix(1 0 0 -1 0 853.4645)">
							<stop  offset="0" style="stop-color:#115E64"/>
							<stop  offset="1" style="stop-color:#02333A"/>
						</linearGradient>
						<path class="st82" d="M731.6,335.8c0,0-17.9,23.1-21.9,87.1c-0.4,14.8-2.2,44.8,1.8,70.2c0.4,0,105.3,0,105.3,0
							s-1.8-46.3-5.9-82.9c-2.9-16.5-4-20.7-4-20.7s-2.6-7.4-0.4-20.4c1.1-9.1,1.7-17.7-5.1-33.4
							C802.3,336.2,731.6,335.8,731.6,335.8z"/>
						<path class="st78" d="M799.7,275.7c0,0-1.3,64.2-34.9,112.7c-3,3.2-17.6,14.2-17.6,14.2s-1.9,1-1.4,2.1
							c1.3-0.3,11.3-5.2,11.3-5.2s-0.2,2.1-3.3,6.6c-3.1,4.4-12.1,17.2-12.1,17.2s2-0.8,7.4-3.6c0.2-0.2-1,2.8-1,2.8
							s22.8-9.7,21-31.5c0.2,0,23.7-22.9,34.2-45.9c3.7-8.3,14.2-25.3,17.3-84.9C820.9,259.8,799.7,275.7,799.7,275.7z"/>
					</g>
					<path class="st78" d="M716.3,486.4l8.3,104.6c0,0,3.2,14.1-7.4,21.3c-8.2,5.1-18.1,9.3-18.1,9.3l39.9-6.9l13.9-125L716.3,486.4
						z"/>
					<path class="st78" d="M776,485.6l20.7,104.3c0,0,7.7,20.2-19.9,30.1c0.5,0.5,36.2-5.3,36.2-5.3s7.5-66.8-2.1-127.1
						C810.2,487.5,776,485.6,776,485.6z"/>
					
						<linearGradient id="SVGID_46_" gradientUnits="userSpaceOnUse" x1="672.9822" y1="220.7757" x2="845.6586" y2="253.3654" gradientTransform="matrix(1 0 0 -1 0 853.4645)">
						<stop  offset="0" style="stop-color:#E13635"/>
						<stop  offset="0.6584" style="stop-color:#EB6651"/>
					</linearGradient>
					<polygon class="st83" points="739,614.7 736.6,626.9 728.9,626.9 728.9,624 685.8,626.9 699.1,621.6 					"/>
					
						<linearGradient id="SVGID_47_" gradientUnits="userSpaceOnUse" x1="675.5554" y1="207.1178" x2="848.2319" y2="239.7075" gradientTransform="matrix(1 0 0 -1 0 853.4645)">
						<stop  offset="0" style="stop-color:#E13635"/>
						<stop  offset="0.6584" style="stop-color:#EB6651"/>
					</linearGradient>
					<polygon class="st84" points="813.9,614.7 811.5,626.9 803.9,626.9 803.9,624 760.8,626.9 774.1,621.6 					"/>
				</g>
				<g>
					<path class="st4" d="M112.6,611.2c0,5.3,42.6,9.5,94.9,9.5s94.9-4.2,94.9-9.5c0-5.3-42.6-9.5-94.9-9.5S112.6,605.9,112.6,611.2
						z"/>
					<path class="st78" d="M197.8,442.1c1.1,4.2,2.1,8.5,1.9,13c-0.3,2.1-0.8,4.5-1.6,6.6c-3.2,11.7-4.8,23.8-5,36
						c-0.3,11.7,1.6,23.1,3.4,34.4c1.9,10.6,3.7,21.2,6.1,31.5c1.1,4.5,1.3,9,0.8,13.5c-0.5,3.4-4.5,8.2-3.2,11.4
						c0.3,1.1,0.8,2.4,1.9,3.2c1.1,0.8,2.6,1.6,4,2.1c1.1,0.5,2.1,1.3,3.2,2.1c1.3,1.1,2.6,2.4,3.7,3.7c1.6,1.9,3.2,3.7,4.8,5.6
						c1.9,2.4,3.7,5,6.4,6.9c2.4,1.6,6.4,1.1,9.3,1.1c4.2,0,8.7,0,13,0c3.7,0,7.4-0.3,10.1-2.6c0.3-0.3,0.5-0.5,0.5-0.8
						c0-0.5-0.3-1.1-0.5-1.3c-2.9-3.2-7.9-3.2-11.9-4.8c-7.7-2.6-13.5-8.7-18-15.4c-2.4-3.2-4.5-6.6-5.8-10.3
						c-1.6-4.5-1.9-8.7-1.9-13.5c-0.5-21.7,1.6-43.5,3.2-65.2c0.3-5,0.8-9.8,1.9-14.6c1.3-5.3,3.4-10.1,4.5-15.4
						c1.3-6.9,1.9-18,2.6-24.9c0.8-9.5,2.4-15.9,3.7-30.7c1.1-12.7,4.8-14,0.5-26.2c-3.4-9.5-13-17-23-16.7
						C181.5,371.7,193.8,425.4,197.8,442.1z"/>
					<path class="st85" d="M200.2,583.1c0-0.3,1.9-2.1,1.9-2.1c2.1,2.9,4.2,6.4,6.4,9.3c5.6,7.4,11.9,13.8,21.4,15.6
						c3.7,0.8,9.5,1.1,12.7-1.3c0.3-0.3,0.3-1.6,0.3-1.6s5,1.6,6.1,1.9c2.4,0.8,4.5,1.3,6.9,2.4c1.1,0.5,2.1,0.8,2.9,1.6
						c1.6,1.6,1.6,4-0.5,5c-1.1,0.5-2.4,0.5-3.7,0.5c-7.1,0-19.9,0-27,0c-3.2,0-6.1-1.3-8.2-3.7l-7.1-7.9l1.3,11.7
						c-2.9,0-4.2,0-6.4-0.3c-0.3,0-6.4-21.2-6.9-23.1C198.8,588.1,198.6,585.5,200.2,583.1z"/>
					<path class="st78" d="M168.5,442.1c1.1,4.2,2.1,8.5,1.9,13c-0.3,2.1-0.8,4.5-1.6,6.6c-3.2,11.7-4.8,23.8-5,36
						c-0.3,11.7,1.6,23.1,3.4,34.4c1.9,10.6,3.7,21.2,6.1,31.5c1.1,4.5,1.3,9,0.8,13.5c-0.5,3.4-4.5,8.2-3.2,11.4
						c0.3,1.1,0.8,2.4,1.9,3.2c1.1,0.8,2.6,1.6,4,2.1c1.1,0.5,2.1,1.3,3.2,2.1c1.3,1.1,2.6,2.4,3.7,3.7c1.6,1.9,3.2,3.7,4.8,5.6
						c1.9,2.4,3.7,5,6.4,6.9c2.4,1.6,6.4,1.1,9.3,1.1c4.2,0,8.7,0,13,0c3.7,0,7.4-0.3,10.1-2.6c0.3-0.3,0.5-0.5,0.5-0.8
						c0-0.5-0.3-1.1-0.5-1.3c-2.9-3.2-7.9-3.2-11.9-4.8c-7.7-2.6-13.5-8.7-18-15.4c-2.4-3.2-4.5-6.6-5.8-10.3
						c-1.6-4.5-1.9-8.7-1.9-13.5c-0.5-21.7,1.6-43.5,3.2-65.2c0.3-5,0.8-9.8,1.9-14.6c1.3-5.3,3.4-10.1,4.5-15.4
						c1.3-6.9,1.9-18,2.6-24.9c0.8-9.5,2.4-15.9,3.7-30.7c1.1-12.7,4.8-14,0.5-26.2c-3.4-9.5-13-17-23-16.7
						C152.1,371.7,164.5,425.4,168.5,442.1z"/>
					<path class="st86" d="M205.2,235.7c-4.8-0.3-9.8-0.3-14.3,1.6c-2.1,0.8-5.3,3.2-5.6,5.8c-0.3,2.9,2.6,5.3,4.5,7.2
						c3.2,2.6,6.9,4.8,10.9,5.8c5.6,1.6,11.6,1.9,17.7,1.6c1.3,0,2.6-0.3,3.7-1.3c0.5-0.5,0.8-1.6,1.1-2.4c1.3-4.5-0.5-9.5-3.4-13.2
						c-2.6-3.7-7.4-4.5-11.6-4.8C207.3,236,206.2,235.7,205.2,235.7z"/>
					<path class="st87" d="M127.7,505.9c-0.3,4-0.5,7.6-0.5,10.7c9,1.4,51.1,6.2,60.1,5.7c36.5-1.4,50.8-2.8,77.7-8.5
						c0-3.3,0-7.1,0-10.9"/>
					<path class="st88" d="M152.3,377.3c-4.5,10.4-8.5,21.1-11.9,32c-6.6,21.6-11.6,74.4-12.7,96.7c9,1.4,50.3,5.9,59.6,5.7
						c36.5-1.4,50.8-2.8,77.7-8.5c1.1-29.9,0-82-5.3-111.6c-3.4-18.7-8.7-37.2-18.5-54.3c0,0-18,0.5-39.4,0.9
						c-21.7,0.7-29.4,0.9-29.4,0.9C164.8,351.4,158.2,364.2,152.3,377.3z"/>
					<path class="st49" d="M156.5,133.8c-0.2,0.6-0.6,1.1-0.8,1.7c-1.5,4.6-1.7,9.9,1.5,13.7c2.5,3.1,6.1,4.2,9.9,4.6
						c9,1,17.7-2.9,25.4-7.8c2.5-1.5,5-3.2,6.7-5.5c4.2-5.3,2.9-11.8-2.9-15.5c-2.5-1.5-5.1-2.3-8-2.9c-7.2-1.3-15.4-1-22.3,2.1
						C162.2,126.2,158.6,129.6,156.5,133.8z"/>
					<g>
						<path class="st78" d="M226.1,255.6c0.3-0.3,0.5-0.3,0.8-0.3c6.4,0.3,12.2,2.9,17.2,6.6c7.9,5.6,14.3,13.5,21.2,20.1
							c4.2,4.2,8.7,8.2,13,12.5c4.5,4.2,8.7,9.3,14,12.5c1.3,0.8,3.2,1.3,4.8,1.3c2.1-0.3,4-1.6,5.6-2.9
							c6.1-4.8,11.9-10.1,17.5-15.6c2.9-2.9,5.6-5.8,8.2-8.7c1.9-2.1,6.6-7.4,6.6-7.4s6.6,7.2,5,10.6c-1.9,3.7-5.8,7.4-8.5,10.3
							c-3.2,3.4-6.4,6.9-9.5,10.3c-3.7,4-7.7,7.9-11.4,11.9c-2.9,2.9-5.6,7.2-9.8,8.5c-5,1.9-10.1-2.1-13.8-5
							c-5.8-4.5-11.4-9.3-16.7-14.3c-10.9-9.8-21.4-19.9-31.8-30.5c-4.2-4.5-13.5-11.9-13.2-18.8
							C225.6,256.1,225.8,255.9,226.1,255.6z"/>
					</g>
					<g>
						<path class="st49" d="M174.6,204.6c1,0,1.1-1.1,1.3-2.5c0.6-13.5-2.1-27.1-1.1-40.6c0.4-5.2,2.1-9.7,3.1-14.7
							c0.2-0.8,0.2-1.7-0.4-2.3c-0.4-0.4-0.8-0.4-1.1-0.6c-5.7-1.3-12.6,2.3-16.8,6.3c-8.2,8-7.6,21.6-3.8,31.5c1.9,5,4.2,9.2,8,13
							c2.3,2.3,4.8,4.2,6.9,6.3c1,0.8,2.3,3.1,3.4,3.4C174.2,204.4,174.4,204.4,174.6,204.6z"/>
					</g>
					<path class="st89" d="M249.9,261.7c9.8,9.3,18.5,19.6,27.8,29.4c3.2,3.4,6.4,6.6,9.5,9.8c1.6,1.6,3.4,3.2,5,4.5
						c1.3,1.1,3.2,3.2,5.3,2.4c1.3-0.5,2.9-1.9,4-2.9c2.4-2.1,7.4-7.2,7.4-7.2s4.8,2.9,6.9,4.5c2.1,1.3,5.8,4.5,5.8,4.5
						s-4,4.2-4.5,4.8c-4,4.2-7.9,8.5-12.2,12.5c-1.3,1.1-2.6,2.4-4.2,3.2c-2.1,1.1-4.5,1.1-6.9,0.3c-6.4-2.1-11.1-6.6-15.6-11.1
						c-11.6-11.9-24.9-23.1-34.7-36.8c-3.2-4.2-5.8-8.7-8.2-13.5c-1.3-2.4-2.4-5-3.7-7.2c-1.3-1.9-2.6-3.4-4-5
						c-0.8-1.1-1.3-2.4-0.5-3.4c0.3-0.5,0.8-0.5,1.3-0.8c4.2-0.8,8.5,1.3,12.2,4c0.3,0.3,0.5,0.3,0.5,0.5
						C244.4,256.4,247.3,259,249.9,261.7z"/>
					<g>
						<path class="st90" d="M227.5,193.1c-1.3-2.7-2.3-5.3-3.2-8.2c-1.1-3.6-1.1-7.8-1.1-11.6c0-6.1-1-10.9-4.2-16.2
							c-2.9-4.6-6.7-8.6-11.1-11.8c-3.1-2.3-6.5-4.4-7.6-8c0-0.4,11.8,0,12.8,0.2c7.4,1,15.1,3.4,20.6,8.6
							c6.9,6.3,7.4,16.4,6.5,25.2c-0.4,4-1.3,8-2.3,11.8c-0.6,2.7-1.3,5.5-1.9,8.2c-0.6,2.3-1.1,4.6-2.1,6.7c-0.2,0.6-0.6,1-1,1.3
							c-1.1,0.6-2.5-0.8-3.2-1.9C229,196.2,228.2,194.6,227.5,193.1z"/>
					</g>
					
						<linearGradient id="SVGID_48_" gradientUnits="userSpaceOnUse" x1="246.5991" y1="599.4154" x2="151.4773" y2="502.7082" gradientTransform="matrix(1 0 0 -1 0 853.4645)">
						<stop  offset="0" style="stop-color:#6BB3A0"/>
						<stop  offset="1" style="stop-color:#4D9982"/>
					</linearGradient>
					<path class="st91" d="M239.6,329c-2.1-9.8,0-19.3,4-28.4c1.9-4,4.2-7.4,5-11.9c0.8-4.5,0.5-9.3-0.8-13.5
						c-0.8-2.1-1.9-4.2-2.9-6.4c-2.1-4-4.5-8.2-6.9-12.2c-1.3-2.1-2.4-4.2-4-6.1c-2.4-2.1-4.8-1.9-7.9-1.6c-4.8,0.3-9.3,0.5-14,0.5
						c-6.6,0-13.2,0-19.6,0c-3.2,0-6.6,0.5-9.8,0.3c-3.2-0.3-11.4-0.5-14.6-0.3c-1.1,0.3-1.9,12.2-2.1,13.5
						c-0.8,7.7-0.3,13,0.8,21.5c0.8,6.9,7.1,13.2,9,19.3c2.1,6.4,2.6,13,2.1,19.6c-0.3,3.2-1.1,6.1-1.9,9.3c-0.8,3.2-2.6,5.6-4,8.5
						c0,0.3-0.3,0.5-0.3,0.5c0,0.3,0.3,0.3,0.3,0.5c1.6,1.9,4,3.2,6.4,3.7c4.8,1.3,10.1,1.3,14.8,1.6c6.9,0.3,14,0.3,20.9-0.3
						c7.9-0.3,16.2-0.5,23.8-2.9c1.9-0.5,3.4-1.1,5-2.1c0.3-0.3,0.5-0.3,0.5-0.5c0.3-0.3,0-0.8,0-1.1c-0.8-3.2-1.9-6.6-2.9-9.8
						C239.9,330.6,239.6,329.8,239.6,329z"/>
					<path class="st78" d="M191.9,260.1c4.8,6.4,9,15.6,18,14.6c0.5,0,1.1,0,1.3-0.3c2.4-1.1,2.9-3.4,4-5.6c1.3-2.4,2.9-4.5,4.2-7.2
						c1.6-2.6,5.6-10.6,2.9-13.5c-1.6-1.9-4.5-1.9-6.1-4.2c-1.6-1.9-2.4-4.5-2.6-6.9c-0.5-3.4-0.5-6.9-0.5-10.3c0-3.2,0-6.6,0-9.8
						c0-0.3-19.1,0-19.1,0c0,6.9,3.2,20.4-1.1,26.5c-0.8,1.3-2.4,2.4-3.7,3.2c-1.3,0.8-2.4,2.4-4.2,2.4c-0.5,1.6,1.9,4.2,2.6,5.3
						C189,256.7,190.6,258.5,191.9,260.1z"/>
					<path class="st78" d="M241,186.4c4.2,4.4,3.1,16-4,16.8c-7.2,0.8-6.3-8.8-5-13.2c0.8-2.3,1.9-4.6,4.6-5.2
						C238.5,184.7,240.1,185.3,241,186.4z"/>
					<path class="st92" d="M234,192c0.8-1.3,2.5-3.1,4.2-2.7c0.4,0,0.8,0.2,1,0.6c2.3,1.7,1.9,5,0.6,7.3c-0.6,1.1-1.7,1.9-3.1,2.1
						C232.8,199.6,232.8,194.3,234,192z"/>
					<path class="st4" d="M195.1,236.3c0.3-6.4-1.1-14-1.1-18.8h19.1c0,3.2,0,6.6,0,9.8c0,3.4,0,6.9,0.5,10.3c0,0.8,0.3,1.6,0.5,2.1
						c-1.3,0.5-2.6,0.8-4.2,0.8c-3.2,0.3-6.6-0.8-9.5-1.9C198.6,237.9,196.7,237.1,195.1,236.3z"/>
					<path class="st78" d="M166.6,187c-4.2,4.4-3.2,16.2,4.2,17.2c7.4,0.8,6.5-9,5-13.4c-0.8-2.3-1.9-4.8-4.6-5.2
						C169.2,185.1,167.7,185.9,166.6,187z"/>
					<path class="st92" d="M174,192.5c-0.8-1.3-2.5-3.1-4.2-2.9c-0.4,0-0.8,0.2-1,0.6c-2.3,1.9-1.9,5.2-0.6,7.4
						c0.6,1.1,1.7,2.1,3.1,2.1C175.1,200.4,175.1,194.8,174,192.5z"/>
					<path class="st78" d="M178.8,216.8c-6.5-7.1-6.9-15.6-5.1-24.6c1.1-5.2,1.5-10.3,1.7-15.6c0.2-6.1,1.9-12.8,7.8-17.2
						c7.6-5.9,17.9-7.3,28.2-6.7c5.3,0.4,11.1,1.3,15.1,4c4.2,2.7,5.5,6.7,5.7,10.7c0.2,6.5-1.3,13.7,0.8,20
						c0.8,2.3,2.3,4.4,3.2,6.7c2.1,5.7,0,11.6-3.2,16.8c-4.6,7.6-11.4,13.2-18.9,17.7c-2.5,1.5-5,2.9-7.8,3.1
						c-2.3,0.2-4.8-0.6-6.9-1.3c-3.8-1.5-7.2-4-10.9-5.9C184.7,222.1,181.4,219.6,178.8,216.8z"/>
					<path class="st4" d="M183.2,159.1c7.6-5.9,17.9-7.3,28.2-6.7c5.3,0.4,11.1,1.3,15.1,4c4.2,2.7,5.5,6.7,5.7,10.7
						c0,1.1,0,2.3,0,3.4c-1.5-0.6-3.1-1.3-4.4-1.9c-3.4-1.1-6.9-2.3-10.5-3.1c-7.6-1.7-15.6-2.1-23.3-3.4c-0.6,0-1.1-0.2-1.7-0.4
						c-2.9-0.6-6.3-1.1-9.5-2.5C183,159.3,183,159.3,183.2,159.1z"/>
					<path class="st92" d="M207.6,203.8c-0.2-0.4,0-0.6,0.4-0.8c0.2-0.2,0.6-0.2,0.8-0.4c1.1-0.6,1.7-1.5,1.9-2.7c0-0.4,0-0.8,0.4-1
						c0.2,0,0.4-0.2,0.4-0.2c1,0,1.7,0.8,1.9,1.7c0.2,1.1-0.6,2.3-1.5,2.9c-1,0.6-2.1,0.8-3.2,0.8
						C208.2,204.2,208,204.2,207.6,203.8L207.6,203.8z"/>
					<path class="st49" d="M194.5,161.1c-0.6,0-1.1-0.2-1.7-0.2c-6.3-0.6-15.3-1.7-18.3-8.2c-0.4-0.8-0.6-1.7-0.6-2.7
						c0-9.3,14.3-13,21.4-14.1c11.4-1.9,23.3-0.6,33.7,3.8c5.9,2.5,12,5.9,16.6,10.3c2.9,2.9,5.3,6.7,4.6,10.9
						c-1,4.8-6.9,7.4-11.2,6.9c-3.4-0.4-6.9-2.1-10.1-2.9c-3.4-1-7.1-1.7-10.7-2.3C210.3,161.4,202.3,161.6,194.5,161.1z"/>
					<g>
						<path class="st90" d="M194.9,173.1c0-1.7-1.5-3.4-3.2-3.8c-1.7-0.6-3.4-0.4-5,0.2c-1.5,0.6-2.9,1.7-3.8,3.2
							c-0.8,1.5-1.1,3.4,0,5c1.3-1.1,2.3-1.5,3.2-1.9c0.9-0.4,1.7-0.6,2.7-1l2.5-1.1C192.2,173.5,193,173.1,194.9,173.1z"/>
					</g>
					<g>
						<path class="st90" d="M215.5,174.8c1.7-0.2,2.7,0.2,3.4,0.4l2.1,0.8l2.3,0.8c1,0.4,1.9,0.8,3.6,1.3c1.3-3.2-1-6.5-4-7.6
							c-1.5-0.6-3.4-0.6-5,0.2C216.4,171.5,215.1,173.1,215.5,174.8z"/>
					</g>
					
						<ellipse transform="matrix(0.1332 -0.9911 0.9911 0.1332 -36.6083 352.9492)" class="st93" cx="183.5" cy="197.4" rx="3.4" ry="4.6"/>
					<path class="st93" d="M232.2,196.7c0.2,1.9-1.7,3.6-4.2,4c-2.7,0.4-5-1-5.1-2.9c-0.2-1.9,1.7-3.6,4.2-4
						C229.6,193.7,231.9,194.8,232.2,196.7z"/>
					<path class="st90" d="M175.1,187c2.9-5.7,4.8-11.3,6.9-17.4c1.9-5.3,2.7-11.1,1.5-16.6c-1-4.4-4-9.2-9.2-9.2
						c-10.7,0.4-10.7,13.9-9.5,21.6c0.6,3.6,1.5,7.3,3.2,10.7c0.8,1.7,1.7,3.4,2.7,5c0.8,1.3,1.1,1.7,2.1,3.2
						c0.4,0.6,1.9,2.9,1.7,3.2C174.6,187.4,175,187.4,175.1,187z"/>
					<g>
						<g>
							<path id="SVGID_4_" class="st94" d="M217.2,210.3c-0.2,1.5-0.6,3.1-1.1,4.6c-0.6,1.5-1.7,3.1-3.1,4c-1.5,1.1-3.1,1.1-5,1.3
								c-3.6,0.2-7.6-1-10.3-3.6c-1.3-1.1-2.5-2.7-3.2-4.2c-0.4-0.8-0.8-1.5-1.1-2.1c-0.4-0.6-0.6-1.3-1.1-1.9l-0.6-0.4
								c4.6,2.7,10.5,3.1,15.6,2.3c1.7-0.2,3.6-0.8,5.1-0.2C213.9,210.5,215.7,210.7,217.2,210.3"/>
						</g>
						<g>
							<g>
								<defs>
									<path id="SVGID_49_" d="M217.2,210.3c-0.2,1.5-0.6,3.1-1.1,4.6c-0.6,1.5-1.7,3.1-3.1,4c-1.5,1.1-3.1,1.1-5,1.3
										c-3.6,0.2-7.6-1-10.3-3.6c-1.3-1.1-2.5-2.7-3.2-4.2c-0.4-0.8-0.8-1.5-1.1-2.1c-0.4-0.6-0.6-1.3-1.1-1.9l-0.6-0.4
										c4.6,2.7,10.5,3.1,15.6,2.3c1.7-0.2,3.6-0.8,5.1-0.2C213.9,210.5,215.7,210.7,217.2,210.3"/>
								</defs>
								<clipPath id="SVGID_50_">
									<use xlink:href="#SVGID_49_"  style="overflow:visible;"/>
								</clipPath>
								<g class="st95">
									<path class="st7" d="M202.7,214.5c-2.9-0.2-5.5-0.8-7.8-2.5c-1-0.8-1.7-1.3-2.5-2.3c-0.2-0.4-0.8-1-0.6-1.3
										c0.2-0.3,1-0.6,1.3-0.8c3.4-0.6,6.9-0.6,10.3-0.4c3.4,0.2,6.9,0,10.3,0.4c0.6,0,1.1,0.2,1.7,0.6c1,0.8,0.2,1.9-0.2,2.9
										c-0.2,0.8-0.6,1.5-1.1,2.1c-0.6,0.8-1.5,1-2.5,1.1c-1.5,0.4-2.9,0.4-4.4,0.2C205.9,214.5,204.2,214.5,202.7,214.5z"/>
									<path class="st7" d="M212.2,219.6c1.1-0.4,2.1-1.7,1.9-2.9c-0.2-0.8-0.6-1.3-1-1.9c-0.2-0.2-0.2-0.4-0.4-0.6
										c-0.2-0.2-0.4-0.2-0.8-0.4c-1.1-0.4-2.3-0.4-3.4-0.4c-2.9,0-5.7,0-8.6,0.2c-0.6,0-1.1,0-1.5,0.2c-0.6,0.2-1.3,0.4-1.7,0.8
										c-0.4,0.4-0.8,1.1-0.6,1.7c0.2,1,1.1,1.1,1.9,1.5c0.8,0.6,1.5,1.1,2.5,1.3c2.1,0.6,4.2,0.6,6.3,0.6
										C208.8,220.2,210.5,220.2,212.2,219.6z"/>
								</g>
							</g>
						</g>
						<g>
							<path class="st96" d="M220.8,208.2c-1.1,0.6-2.3,1-3.4,1.3s-2.3,0.2-3.4-0.2c-0.6-0.2-1.1-0.4-1.9-0.6
								c-0.8-0.2-1.3-0.2-2.1-0.2c-1.3,0.2-2.5,0.4-3.8,0.4c-2.5,0.2-5,0.4-7.2,0.2c-2.5-0.2-4.8-0.8-7.2-1.7
								c1.9,1.5,4.4,2.7,7.1,3.1c2.5,0.6,5.1,0.6,7.8,0.4c1.3-0.2,2.5-0.4,3.6-0.6c0.6,0,1.1-0.2,1.7,0c0.4,0,1.1,0.2,1.9,0.4
								c1.3,0.2,2.9,0.2,4-0.4C218.7,209.9,219.9,209.1,220.8,208.2z"/>
						</g>
						<g>
							<path class="st96" d="M217,210.1c-1,2.9-1.9,5.9-4,7.4c-1.1,0.8-2.3,1.1-3.6,1.3c-1.5,0.2-2.9,0.2-4.2-0.2
								c-2.9-0.4-5.3-1.7-7.4-3.6c-1-1-1.9-2.1-2.9-3.2l-1.1-1.9c-0.4-0.6-0.8-1.3-1.3-1.7c0.8,1.3,1.1,2.9,1.7,4.2
								c0.8,1.3,1.5,2.7,2.5,3.8c2.1,2.5,5.1,4,8.2,4.4c1.5,0.2,3.2,0.2,4.8,0c1.5-0.2,3.2-0.8,4.6-1.9c1.1-1.1,2.1-2.5,2.5-4
								C216.8,213,217,211.6,217,210.1z"/>
						</g>
					</g>
					<g>
						<g>
							<path class="st97" d="M238.9,164.5c-1.3-4.8-5.1-9-9.5-11.4c-4.6-2.7-9.7-3.8-14.7-4c-2.5-0.2-5.1,0-7.6,0.2
								c-2.5,0.4-5,0.8-7.4,1.3c-4.8,1.1-9.3,2.5-14.3,3.1c5,1,10.1,0.4,14.9-0.2c4.8-0.6,9.5-1,14.3-0.8c4.8,0.2,9.3,1.1,13.5,2.9
								C232.2,157.4,236.2,160.3,238.9,164.5z"/>
						</g>
						<g>
							<path class="st97" d="M240.6,152.7c-3.1-4.2-7.1-7.8-12-10.3c-5-2.5-10.3-3.6-15.6-3.8c-5.3-0.2-10.7,0.6-15.8,2.1
								c-5.1,1.5-9.9,4.2-13.7,7.6c4.8-2.1,9.5-3.8,14.5-4.8c2.5-0.4,5-1,7.4-1.1c2.5-0.2,5-0.4,7.4-0.2c5,0.2,9.9,1.1,14.5,2.7
								C232.2,146.7,236.4,149.6,240.6,152.7z"/>
						</g>
						<g>
							<path class="st97" d="M176.5,150.8c-0.6,2.5-1,4.8-1.3,7.3l-1,6.9l-1,7.1c-0.4,2.3-0.6,4.8-0.8,7.3c1.5-1.9,2.7-4.2,3.6-6.5
								c1-2.3,1.5-4.8,1.9-7.3c0.4-2.5,0.4-5,0.2-7.4C178,155.5,177.4,153,176.5,150.8z"/>
						</g>
						<g>
							<path class="st97" d="M168.5,152.7c-1.1,1.5-1.7,3.1-2.1,4.8c-0.4,1.7-0.6,3.4-0.6,5.2s0.2,3.4,0.8,5.2
								c0.6,1.8,1.1,3.2,2.3,4.8c0.4-1.7,0.6-3.4,0.8-5.2c0.2-1.7,0.2-3.2,0.2-4.8c0-1.6,0-3.2-0.2-4.8
								C169,156.1,168.9,154.4,168.5,152.7z"/>
						</g>
						<g>
							<path class="st97" d="M159.9,159.9c-1.3,1.7-2.1,3.8-2.5,6.1c-0.4,2.1-0.2,4.4,0.4,6.5c0.6,2.1,1.3,4.2,2.7,5.9
								c1.1,1.7,2.5,3.2,4.4,4.6c-0.6-2.1-1.1-4-1.7-5.9s-1.1-3.6-1.5-5.5c-0.4-1.9-0.8-3.6-1.1-5.5
								C160.1,163.9,160.1,162,159.9,159.9z"/>
						</g>
					</g>
					<path class="st98" d="M196.6,189.2c0,2.9,1.1,5.2,2.7,5.2c1.5,0,2.7-2.3,2.7-5.2s-1.1-5.2-2.7-5.2
						C197.8,184.3,196.6,186.6,196.6,189.2z"/>
					<path class="st99" d="M142.3,507.8c3.2-45.3,6.6-67.8,16.2-106.9c9.3-39.1,17.5-56.4,17.5-56.4"/>
					<path class="st89" d="M137.2,278.4c-5.6,6.9-11.1,13.8-16.9,20.4c-5.3,6.6-10.9,13-15.4,20.1c-1.6,2.9-2.6,7.4,0,10.1
						c0.8,0.8,2.1,1.3,3.4,1.9c4.2,1.6,8.7,1.9,13,2.9c4.5,1.3,9.3,2.4,13.8,3.2c2.4,0.5,4.8,0.8,7.1,1.3c1.3,0.3,4.5,1.1,4.5,0.8
						c0,0,0.8-2.9,1.1-4.5c0.8-3.2,1.9-6.1,2.6-9.3c0,0-9-1.6-10.9-1.9c-2.9-0.5-6.1-1.1-9-1.9c-1.3-0.3-7.1-1.6-5-4
						c3.2-3.2,6.6-6.1,9.8-9c7.4-6.4,15.4-12.5,22.8-19.1c2.9-2.6,6.4-5.3,9-8.2c4.5-5.3,7.1-11.4,7.1-18.5c0-4.2-0.5-11.9-5.6-13.2
						c-2.4-0.8-4.5,1.3-6.4,2.6c-2.1,1.6-4,3.2-6.1,5c-4.2,3.7-7.9,7.4-11.6,11.7C142.3,272,139.6,275.2,137.2,278.4z"/>
					<path class="st86" d="M211.8,292.7c-2.9-3.4-5.6-7.2-7.9-11.1c-2.9-4.5-5.8-8.7-8.7-13.2c-2.6-4-5.3-7.9-7.1-12.5
						c1.9,0.3,3.2,1.9,4.2,3.2c2.4,2.9,4.5,6.1,7.4,8.7c1.3,1.3,3.2,2.6,4.8,4c0.5,0.5,3.7,4,4.8,3.4l0.3-0.3
						c1.9-2.6,2.9-5.6,4.5-8.5c1.6-2.9,3.2-5.8,4.8-8.7c0.3-1.9,1.3-3.4,2.9-4.2c1.1-0.5,2.9-0.3,3.7,0.8c1.1,1.3,0,3.2-0.5,4.5
						c-1.3,4-2.9,7.9-4.2,12.2c-0.5,1.9-1.3,3.7-1.9,5.3c-0.8,1.9-1.9,3.4-2.6,5C214.4,285,213.1,288.7,211.8,292.7z"/>
					<g>
						
							<linearGradient id="SVGID_51_" gradientUnits="userSpaceOnUse" x1="141.9855" y1="536.6463" x2="202.4809" y2="536.6463" gradientTransform="matrix(1 0 0 -1 0 853.4645)">
							<stop  offset="0" style="stop-color:#E13635"/>
							<stop  offset="0.6584" style="stop-color:#EB6651"/>
						</linearGradient>
						<path class="st100" d="M143.9,354.4h4.8c0,0,53.2-66.5,53.7-67.8c0.8-1.3-1.9-6.1-4-6.1c-2.4,0-56.4-1.3-56.4-1.3L143.9,354.4
							z"/>
						<path class="st7" d="M144.9,354.4l4.2,2.9l4.5-1.9c0,0,46.1-69.2,46.6-69.4s-0.5-4-3.2-4s-53.5-1.6-53.5-1.6L144.9,354.4z"/>
						
							<linearGradient id="SVGID_52_" gradientUnits="userSpaceOnUse" x1="148.0806" y1="530.8473" x2="202.5369" y2="530.8473" gradientTransform="matrix(1 0 0 -1 0 853.4645)">
							<stop  offset="0" style="stop-color:#E13635"/>
							<stop  offset="0.6584" style="stop-color:#EB6651"/>
						</linearGradient>
						<polygon class="st101" points="148.4,357.6 199.4,359.7 202.5,286.3 148.1,285.5 						"/>
						<polygon class="st7" points="161.1,314.4 188.2,315.2 189,299.9 161.1,298.3 						"/>
					</g>
					<g>
						<path class="st102" d="M148.9,358.9l4.8,0.8c0,0,62.2-58,63.2-59.4c1.1-1.3-1.1-6.1-3.2-6.6c-2.4-0.3-55.6-9.5-55.6-9.5
							L148.9,358.9z"/>
						<path class="st7" d="M149.9,359.2l3.7,3.4l4.8-1.3c0,0,55.9-61.5,56.1-61.7c0.5-0.3,0.3-4-2.4-4.5c-2.6-0.5-52.7-9.3-52.7-9.3
							L149.9,359.2z"/>
						
							<linearGradient id="SVGID_53_" gradientUnits="userSpaceOnUse" x1="133.3301" y1="484.2821" x2="232.9029" y2="558.9617" gradientTransform="matrix(1 0 0 -1 0 853.4645)">
							<stop  offset="0" style="stop-color:#E13635"/>
							<stop  offset="0.6584" style="stop-color:#EB6651"/>
						</linearGradient>
						<polygon class="st103" points="152.9,362.9 203.1,372.2 216.8,300.1 163.2,291.4 						"/>
						<polygon class="st104" points="172.7,320.8 199.4,325.6 202.3,310.5 175.1,304.6 						"/>
						<polygon class="st9" points="171.9,321 198.6,325.8 201.7,310.7 174.3,304.9 						"/>
					</g>
					<path class="st98" d="M223,188c0,2.9,1.1,5.2,2.7,5.2c1.6,0,2.7-2.3,2.7-5.2c0-2.9-1.1-5.2-2.7-5.2
						C224.4,183,223,185.3,223,188z"/>
					<path class="st7" d="M191.7,250.3c-1.9-2.6-3.7-5.8-3.7-8.7c0-0.3,0.3-2.4,0.5-2.4c-2.4,1.6-4.8,2.9-6.9,4.8
						c-2.1,1.9-4.2,3.7-6.1,5.8c0,0,2.1,2.6,2.4,2.6c1.1,1.1,14.8,25.7,14.3,26.2c1.9-1.6,3.7-3.2,5.6-4.2c1.3-0.8,2.6-1.6,4.2-1.6
						c2.4,0,4.2,2.1,6.6,2.6c-0.8-2.4-2.4-4.2-3.7-6.4c-1.3-2.1-8.2-12.2-10.6-15.1C193.5,252.7,192.5,251.6,191.7,250.3z"/>
					<path class="st7" d="M213.4,264.1c-1.6,4-3.4,7.4-4.8,10.9c0.8-0.3,1.3-1.1,1.9-1.6c2.4-2.4,5.3-3.4,8.2-2.1
						c2.1,0.8,3.7,2.6,4.5,4.5c2.4-8.2,5-16.4,5-25.2c0-0.8,0-1.6-0.3-2.4s-0.8-1.6-1.3-2.1c-2.6-3.7-6.9-7.2-10.1-8.5
						c1.9,1.3,2.4,3.7,2.6,5.6C220,250.8,216,257.5,213.4,264.1z"/>
					<path class="st105" d="M225.4,199.5h1.9c5.1,0,9.7-3.8,10.5-9l0.2-1.3c0.8-4.6-2.7-8.8-7.4-8.8h-9.7c-3.6,0-6.7,3.1-6.3,6.7
						l0.2,2.1C215.1,195.1,219.9,199.5,225.4,199.5z"/>
					<path class="st105" d="M194.1,200.7h-1.9c-5.1,0-9.7-3.8-10.5-9l-0.2-1.3c-0.8-4.6,2.7-8.8,7.4-8.8h9.7c3.6,0,6.7,3.1,6.3,6.7
						l-0.2,2.1C204.4,196.4,199.8,200.7,194.1,200.7z"/>
					<path class="st78" d="M143.9,326.1c0.3,0,0.5,0,0.8,0.3c10.3,2.4,20.4,4.5,31,6.1c1.9,0.3,3.7,0.8,5.3,1.6
						c1.6,1.1,2.9,2.6,2.9,4.5c0,2.1-1.6,3.7-3.4,4.2c-1.9,0.8-4,0.8-5.8,0.5c-4.8-0.3-9.5-1.3-14.3-2.1c-7.7-1.6-15.4-2.9-23-4.8"
						/>
					<polygon class="st106" points="150.5,325.8 146.8,339.6 133.8,338.8 143.1,323.7 					"/>
					<path class="st105" d="M198.5,182c3.6,0,6.7,3.1,6.3,6.7l-0.2,2.1c0,0.6-0.2,1.1-0.2,1.7c-1.3,0.4-2.9,0.4-4.2,0.4
						c-7.6,0-13.7-4.2-13.7-9.2c0-0.6,0-1,0.2-1.5c0.8-0.2,1.3-0.4,2.3-0.4h9.5L198.5,182L198.5,182z"/>
					<path class="st105" d="M230.7,182c4.6,0,8.2,4.2,7.4,8.8l-0.2,1.3c0,0.2,0,0.4-0.2,0.6c-1.1,0.2-2.5,0.4-3.8,0.4
						c-7.6,0-13.7-4.2-13.7-9.2c0-0.6,0.2-1.1,0.2-1.9c0.2,0,0.4,0,0.8,0L230.7,182L230.7,182z"/>
					<g>
						<g>
							<path class="st107" d="M214.7,187.6c-2.5-2.5-7.2-2.7-9.7,0"/>
							<path class="st108" d="M225.4,200.7h1.9c5.1,0,9.7-3.8,10.5-9l0.2-1.3c0.8-4.6-2.7-8.8-7.4-8.8h-9.7c-3.6,0-6.7,3.1-6.3,6.7
								l0.2,2.1C215.1,196.4,219.9,200.7,225.4,200.7z"/>
							<path class="st108" d="M194.1,200.7h-1.9c-5.1,0-9.7-3.8-10.5-9l-0.2-1.3c-0.8-4.6,2.7-8.8,7.4-8.8h9.7
								c3.6,0,6.7,3.1,6.3,6.7l-0.2,2.1C204.4,196.4,199.8,200.7,194.1,200.7z"/>
						</g>
					</g>
					<polygon class="st106" points="305.5,300.1 317.6,315.5 324.5,304.1 311.8,294.3 					"/>
					<g>
						<path class="st109" d="M181.6,188.7l0.4-3.1l-9.2-2.5c-1.5-0.4-3.1,0.6-3.4,2.1l0,0L181.6,188.7z"/>
					</g>
					<path class="st78" d="M208.4,347C208.4,347.3,208.4,347.3,208.4,347c-0.3,0.3-0.5,0.3-0.5,0.3c0,0.3,0,0.5,0,0.8
						c0,0.8-0.5,1.3-1.1,1.6c-1.3,0.8-2.6,1.1-4,1.1s-2.9,0.3-4.2,0.3c-3.4,0-6.9-0.5-10.1-1.9c-5-2.4-10.1-4.2-14.8-6.9
						c0,0-0.3,0-0.3-0.3c-0.3-0.3,0-0.5,0-0.8c1.1-1.6,2.4-2.9,3.2-4.8c0.3-0.5,0.5-1.1,0.5-1.9c0-0.3-0.5-2.6-0.8-2.6
						c0.8,0.3,1.3,0.3,2.1,0.5c0.8,0.3,1.3,0.3,2.1,0.3c1.1,0,1.6-0.5,2.1-1.1c0.3,0,0.3-0.3,0.5-0.5c0.8-0.8,1.6-1.6,2.4-2.4
						c3.4-3.2,8.2-5.6,13-5.8c0.3,0,0.8,0,1.1,0c0.3,0,0.5,0.5,0.5,0.8c0,0.3-0.3,0.5-0.3,0.5c-0.5,0.5-1.3,1.1-2.1,1.6
						c-1.6,1.1-2.9,2.1-4.2,3.4c-1.1,1.1-2.6,2.1-1.6,3.7c0.5,0.5,1.3,0.8,2.1,1.1c2.6,0.5,5.6,0,8.2-0.3c3.2-0.5,7.1-0.8,9.3-3.2
						c0.5,0,1.1,0.5,1.3,1.1c0.3,0.5,0.3,1.1,0.3,1.6c0,0.8-0.5,1.9-1.1,2.4c1.3,0.5,1.6,2.4,1.1,3.7c-0.5,1.6-2.1,2.4-3.4,2.9
						C211.8,343.6,209.4,346.5,208.4,347z"/>
					<g>
						<path class="st92" d="M211.8,336.7c-2.1,0-3.7,0.3-5.3,0.8c-1.6,0.5-3.2,1.1-4.8,2.1c1.9,1.1,3.7,1.1,5.6,0.5
							C209.2,339.3,210.7,338.3,211.8,336.7z"/>
					</g>
					<g>
						<path class="st92" d="M209.4,343.3c-0.8-0.3-1.3-0.5-2.1-0.8c-0.3,0-0.8-0.3-1.1-0.3s-0.8,0-1.1,0c-0.5,0-1.3,0-2.1,0.3
							c-0.8,0.3-1.3,0.5-2.1,1.1c0.8,0.5,1.3,0.8,2.1,1.1c0.8,0.3,1.3,0.3,2.1,0.3c0.3,0,0.8,0,1.1-0.3l1.1-0.3
							C208.1,344.1,208.9,343.8,209.4,343.3z"/>
					</g>
					<g>
						<path class="st92" d="M208.1,347.5c-1.3-0.8-2.1-0.8-3.2-0.8c-1.1,0-1.9,0.3-3.2,1.1c0.8,1.3,2.1,1.6,3.2,1.6
							C206,349.4,207.3,348.9,208.1,347.5z"/>
					</g>
					<g>
						<path class="st78" d="M363.1,253c2.9-0.5,5.8-0.8,8.5-0.8c1.9,0,4.5,0.3,5.6,2.4c0.3,0.3,0.3,0.8-0.3,1.1c0,0-0.3,0.3-0.5,0.3
							c-3.2,1.1-6.6,0.5-9.5,2.1c0.8-0.5,2.6-0.5,3.7-0.5c1.3-0.3,2.6-0.3,3.7-0.3c2.1,0,4.2,0,6.4,1.1c0.5,0.3,1.1,0.8,1.1,1.3
							c0.3,0.8-0.3,1.9-1.1,2.4c-0.8,0.5-1.6,0.5-2.6,0.8c-0.8,0-1.3,0.3-2.1,0.3c1.3,0,3.2,0,4.5,0.5c1.1,0.5,1.6,1.9,1.1,2.9
							c-0.5,0.8-1.6,1.1-2.6,1.1c-1.3,0.3-2.9,0.5-4.2,1.1c0.8-0.3,2.1,0.5,2.6,1.3c0.5,0.8,0.8,1.6,0.5,2.6c0,0.3-0.3,0.8-0.5,1.1
							c-0.3,0.3-0.8,0.5-1.3,0.5c-2.9,0.8-6.1,1.3-9,2.1c-4.8,1.1-9.3,1.6-14,2.9c-1.6,0.5-3.4,1.1-5,1.9c-2.6,1.3-6.1,2.1-7.9,4.2
							c-1.6,1.9-5.6,5.8-7.9,6.4c-3.4,0.8-3.2,0-4.5-2.6c-1.3-3.7,3.4-9,5-11.9c1.1-1.9,0.5-5,1.1-7.2c0.5-2.1,1.3-4,2.4-5.8
							c0.8-1.3,1.9-2.6,2.9-3.7c1-1.1,2.1-1.6,3.2-2.4c2.1-1.6,3.4-4,5-6.4c1.1-1.6,2.4-3.2,4.5-2.9c1.3,0.3,2.4,1.1,2.9,2.1
							c0.5,1.3,0,1.9-0.8,2.9c-0.5,0.8-1.6,2.9-2.4,3.2C355.2,255.3,359.2,254,363.1,253z"/>
						<g>
							<path class="st92" d="M340.6,273.1c2.9-1.1,5.6-2.1,8.5-2.9c2.6-0.8,5.6-1.1,8.7-1.3c-2.6-1.9-6.1-2.1-9.3-1.3
								C345.1,268.6,342.2,270.4,340.6,273.1z"/>
						</g>
						<g>
							<path class="st92" d="M358.1,260.4c2.1,0.3,3.7,0,5.3-0.5c1.6-0.5,3.2-1.1,4.8-2.1c-1.9-0.8-3.7-0.8-5.6-0.3
								C361,258,359.4,258.8,358.1,260.4z"/>
						</g>
						<g>
							<path class="st92" d="M360.5,264.6c2.9,0.3,5.6,0,8.5,0c2.6-0.3,5.6-0.3,8.5-1.3c-2.9-1.1-5.8-1.3-8.7-1.3
								C365.8,262,362.9,262.8,360.5,264.6z"/>
						</g>
						<g>
							<path class="st92" d="M362.1,270.2c2.4,0.3,4.5,0,6.6,0c2.1-0.3,4.2-0.5,6.6-1.3c-2.1-1.1-4.5-1.3-6.6-1.3
								C366.3,267.5,363.9,268.3,362.1,270.2z"/>
						</g>
					</g>
					<path class="st110" d="M170.9,583.1c0-0.3,1.9-2.1,1.9-2.1c2.1,2.9,4.2,6.4,6.4,9.3c5.6,7.4,11.9,13.8,21.4,15.6
						c3.7,0.8,9.5,1.1,12.7-1.3c0.3-0.3,0.3-1.6,0.3-1.6s5,1.6,6.1,1.9c2.4,0.8,4.5,1.3,6.9,2.4c1.1,0.5,2.1,0.8,2.9,1.6
						c1.6,1.6,1.6,4-0.5,5c-1.1,0.5-2.4,0.5-3.7,0.5c-7.1,0-19.9,0-27,0c-3.2,0-6.1-1.3-8.2-3.7l-7.1-7.9l1.3,11.7
						c-2.9,0-4.2,0-6.4-0.3c-0.3,0-6.4-21.2-6.9-23.1C169.5,588.1,169.3,585.5,170.9,583.1z"/>
				</g>
				<g>
					<path class="st111" d="M913.6,443.8c-2.8-22.6-15.5-41.8-22.1-63.3c-1.6-5.2-8.6-4.4-10.1-0.4c-0.5,0-1,0-1.6,0.2
						c-6.2,1.9-15.9,3.1-18.2,10.4c-1.9,6.2,0.5,13.9,1.5,20.1c1.3,8.5,1.5,19.6,2,29.1c0.6,10.9,1.5,21.9,1.7,32.8
						c0.1,3.8,0,7.9,2,11.2c1.8,3.1,5.4,5,8.8,5.8c7.1,1.6,15.5,0.2,21.8-3.4C913.6,478.5,915.4,457.9,913.6,443.8z"/>
					<path class="st112" d="M888.2,374.9c-0.5-0.5-1.2-1-2-1.4c-3.8-2.1-26.6-5.8-29.7-1.8c-3.6,4.8-5.4,11.9-5.2,18
						c0.2,0.1,0.5,0.2,0.8,0.2c1.6,0.1,3.2,0.4,4.9,0.6c2.7,0.6,5.4,1.3,8.1,1.9c3.7,0.8,8.7,2.1,12.5,1.6c2.6-0.3,3.9-2.7,5.3-4.7
						C886.9,384,892.3,378.8,888.2,374.9z"/>
					<path class="st113" d="M866.3,636.5c-2.8-2-5.5,2.7-2.7,4.6c-1-0.7-0.2,0.4-0.1,1.3c0.1,0.5,0.2,1.3-0.1,1.8
						c-1,1.5-5.5,1.1-7,1.1c-5,0.3-10.1,0.3-15.1,0.4c-3.3,0.1-6.7,0.5-10,0.2c-3.2-0.3-4.7-1.5-4.5-4.8c0.2-3.4-5.1-3.4-5.3,0
						c-0.9,13.1,15.7,10.1,23.9,9.9c4.1-0.1,8.1-0.2,12.2-0.4c2.9-0.2,6.3-0.1,8.7-1.9C869.8,646.2,869.9,639.1,866.3,636.5z"/>
					
						<linearGradient id="SVGID_54_" gradientUnits="userSpaceOnUse" x1="821.8777" y1="215.4091" x2="868.2358" y2="215.4091" gradientTransform="matrix(1 0 0 -1 0 853.4645)">
						<stop  offset="0" style="stop-color:#E13635"/>
						<stop  offset="0.6584" style="stop-color:#EB6651"/>
					</linearGradient>
					<path class="st114" d="M854.5,630.4c-0.6-0.3-1.2-0.6-2-0.6c-1.6-0.1-3.2-0.4-4.9-0.7c-7.3,0.2-15.7-0.4-21.8,3.7
						c-8.2,5.7-2.3,12.6,5.3,13.9c3.8,0.7,7.7,0.3,11.6-0.1c6.6-0.7,13.2-1.4,19.8-2.1c5.4-0.6,7.3-6.2,4.1-10.7
						C864.1,630.2,858.5,630,854.5,630.4z"/>
					<path class="st113" d="M879.5,644.3c-3.1-2.2-6.1,2.9-3,5.1c-1.1-0.8-0.2,0.5-0.1,1.4c0.1,0.6,0.2,1.5-0.1,2
						c-1.1,1.7-6.1,1.2-7.7,1.3c-5.5,0.3-11.1,0.3-16.7,0.5c-3.6,0.1-7.4,0.6-11,0.2c-3.5-0.4-5.2-1.6-4.9-5.3
						c0.3-3.8-5.6-3.8-5.9,0c-1,14.4,17.3,11.1,26.3,10.9c4.5-0.1,9-0.2,13.5-0.4c3.2-0.2,7-0.1,9.6-2.1
						C883.4,655,883.5,647.2,879.5,644.3z"/>
					
						<linearGradient id="SVGID_55_" gradientUnits="userSpaceOnUse" x1="832.4008" y1="289.9887" x2="875.337" y2="289.9887" gradientTransform="matrix(1 0 0 -1 0 853.4645)">
						<stop  offset="0" style="stop-color:#115E64"/>
						<stop  offset="1" style="stop-color:#02333A"/>
					</linearGradient>
					<path class="st115" d="M874.2,592c-1.3-12.7-2.7-25.2-2.8-38.1c-0.1-12.2,1.3-24.4,0.8-36.5c-0.5-11-2.5-24.6-12.4-30.2
						c-2.5-1.4-5.7-0.8-7.2,2.1c-1.6,3.3-2.8,6.7-3.6,10.3c0-0.1,0-0.2,0-0.3c-0.6-6.6-8.3-7.4-10.1-2.1h-0.1
						c-5.8-2.2-8.6,6.9-4.3,10.3c0.5,1.5,0.8,3.1,1.1,4.7c0.6,3.6,0.9,8,1.1,12.3c0.4,8.6,0.4,17.2,0.5,25.8
						c0.1,13.4,1.3,26.7,1.2,40.1c-0.1,6.8-0.5,13.2-1.5,19.8c-0.9,5.9-1.8,12-0.6,17.9c2.6,12,15.9,13.2,25.2,12.1
						c4.3-0.5,7.8-2,10.2-6.2c2.1-3.7,2.7-8.2,3.2-12.5C875.9,611.8,875.2,601.8,874.2,592z"/>
					
						<linearGradient id="SVGID_56_" gradientUnits="userSpaceOnUse" x1="830.5069" y1="206.2138" x2="881.6362" y2="206.2138" gradientTransform="matrix(1 0 0 -1 0 853.4645)">
						<stop  offset="0" style="stop-color:#E13635"/>
						<stop  offset="0.6584" style="stop-color:#EB6651"/>
					</linearGradient>
					<path class="st116" d="M866.4,638.8c-0.6-0.4-1.4-0.6-2.2-0.7c-1.7-0.1-3.5-0.4-5.4-0.7c-8,0.2-17.4-0.5-24,4.1
						c-9.1,6.3-2.5,13.9,5.9,15.3c4.2,0.7,8.5,0.3,12.8-0.2c7.3-0.8,14.6-1.6,21.9-2.3c5.9-0.6,8.1-6.9,4.6-11.7
						C877,638.6,870.9,638.4,866.4,638.8z"/>
					
						<linearGradient id="SVGID_57_" gradientUnits="userSpaceOnUse" x1="842.2646" y1="286.5887" x2="890.4728" y2="286.5887" gradientTransform="matrix(1 0 0 -1 0 853.4645)">
						<stop  offset="0" style="stop-color:#115E64"/>
						<stop  offset="1" style="stop-color:#02333A"/>
					</linearGradient>
					<path class="st117" d="M889.4,596.7c-1.3-13.3-2.7-26.3-2.8-39.8c-0.1-12.7,1.3-25.4,0.8-38.1c-0.5-11.5-2.5-25.7-12.4-31.6
						c-2.5-1.5-5.7-0.8-7.2,2.2c-1.6,3.4-2.8,7-3.6,10.8c0-0.1,0-0.2,0-0.3c-0.6-6.8-8.3-7.7-10.1-2.2H854c-2.6-1-4.6,0.3-5.6,2.4
						c-0.1-0.2-0.1-0.5-0.2-0.7c-1.1-3.6-6.7-2.1-5.7,1.6c2.4,8.3,0.9,19.8,9.4,24.4c0,0.3,0,0.6,0,0.8c0.4,9,0.4,18,0.5,27
						c0.1,14,1.3,27.9,1.2,41.9c-0.1,7.1-0.5,13.8-1.5,20.6c-0.9,6.1-1.8,12.6-0.6,18.7c2.6,12.6,15.9,13.8,25.2,12.6
						c4.3-0.5,7.8-2,10.2-6.4c2.1-3.9,2.7-8.6,3.2-13C891,617.3,890.3,606.8,889.4,596.7z"/>
					
						<linearGradient id="SVGID_58_" gradientUnits="userSpaceOnUse" x1="815.7125" y1="323.2969" x2="892.8917" y2="459.8448" gradientTransform="matrix(1 0 0 -1 0 853.4645)">
						<stop  offset="0" style="stop-color:#E13635"/>
						<stop  offset="0.6584" style="stop-color:#EB6651"/>
					</linearGradient>
					<path class="st118" d="M887.9,496.4c-1.4,2.7-3.6,4.8-5.8,6.6c-2.2,1.8-4.5,3.3-7,4.5c-6.1,3.1-12.7,4.8-19.4,4.9
						c-7,0.1-22.3,0.4-25.3-8.9c-0.9-2.8-0.9-5.9-0.8-8.9c0.5-22.5,1.2-45.1,2.8-67.5c1.1-15.7,3.2-34,15.8-43.4
						c3.2-3.9,10.5-4.4,16.1-3.7c-1.6-1.9,1.1-4.9,2.9-3c0.9,0.9,1.8,1.9,2.7,2.9c0.5,0.4,1,0.8,1.5,1.2c1.2,0.9,2.5,1.7,3.8,2.5
						c3.1,2,5.9,4.2,7.5,8.5c1.9,5.2,1.7,11.1-1.4,15.6c-0.2,0.2-0.3,0.4-0.5,0.5c0.5,7.8-0.1,16-0.3,23.5c-0.1,3.3-0.2,6.4-0.1,9.3
						c0.4,11.9,1.2,24,3.1,35.7c0.1,0.9,0.3,1.8,0.4,2.6c0.4,2.2,0.8,4.3,1.3,6.4C885.9,489.2,886.8,492.8,887.9,496.4z"/>
					<path class="st119" d="M887.9,496.4c-1.4,2.7-3.6,4.8-5.8,6.6c-2.2,1.8-4.5,3.3-7,4.5c-0.6-10.9-2.5-37.2-6-51.5
						c-4.5-18.4-2.1-30.1-2.1-30.1l4.7,13.4l8.6-7.7c-0.1,3.3-0.2,6.4-0.1,9.3c0.4,11.9,1.2,24,3.1,35.7
						C884.5,483.3,885.9,489.9,887.9,496.4z"/>
					<path class="st120" d="M876,344.4c0-5.6-0.2-11.4-2.7-16.5c-2.7-5.3-7.5-9.2-11-14c-1.5-2-4.9-0.1-3.4,2c0.3,0.4,0.6,0.8,1,1.3
						c-0.7-0.3-1.6-0.2-2.2,0.3c-0.9-1.4-3.6-1-3.6,1.1c-0.2,8.7,2.4,17.5,6.8,24.9c0.7,1.2,2,1.1,2.9,0.5c0,0.1,0.1,0.1,0.1,0.2
						c0.5,0.9,1.3,1.1,2.1,0.9c0.2,0.2,0.3,0.3,0.5,0.5c0.3,0.3,0.7,0.5,1.1,0.5c0.1,0.5,0.2,1,0.4,1.6c0.4,1.8,2.5,1.7,3.4,0.6
						c1.2,0.8,3.2,0.4,3.1-1.5c0-0.1,0-0.3-0.1-0.4C875.2,346.2,876,345.6,876,344.4z M863.9,321.8c0.1,0.1,0.1,0.2,0.2,0.2
						l-0.1,0.1C864,322.1,863.9,322,863.9,321.8z"/>
					<path class="st78" d="M845.6,375c-0.9,2.8-0.8,6.2-0.2,9.4c0.2,0.8,9.1-0.4,10.2-0.7c2.5-0.9,5-1.9,7.4-2.9
						c3.3-1.4,2.7-1.6,3-4.9c0.6-5.4,3.9-6.8,7.6-10c3.5-3.1,6.1-7.3,7.2-11.8c3.3-13.6-7.7-31.9-20.8-36.1
						c-5.5-1.8-13.8-2.1-18.6,1.7c-4.8,3.7-5.9,10.4-8.4,15.5c-1.9,3.8-4.6,6-7.7,8.6c-1.6,1.4-3.2,3.3-1.5,5.2
						c0.6,0.7,1.2,0.5,1.9,1.5c0.6,0.8,0.8,1.8,1,2.7c0.6,3-0.3,6-0.3,8.9c0,2.4,0.5,4.9,2.2,6.7c2.3,2.5,5.9,3.6,9.1,4.6
						c2.1,0.7,4.3,1.2,6.4,1.4C844.7,374.8,845.1,374.8,845.6,375C845.6,374.9,845.6,374.9,845.6,375z"/>
					<path class="st49" d="M839.1,310.4c-0.8-1.4-3.5-1.1-3.4,0.9c0,0.9,0.1,1.7,0.3,2.5c-0.8,0.2-1.6,0.9-1.5,1.8
						c0.3,3.4,2.8,5.9,6,6.6c2.3,0.5,4.7,0.4,6.9,1.2c2.2,0.9,3.8,2.6,5.1,4.6c1.4,2.3,2.3,4.7,3,7.3c0.5,1.7-0.1,4.3,1.3,5.7
						c1.1,1.2,3.1,0.8,4.2,2c1.3,1.4,1.2,3.8,0.8,5.6c-0.7,3-3.2,5.1-3.4,8.3c-0.3,3.5,1.8,6.4,2.8,9.5c0.5,1.5,0.2,6.8,1.7,7.4
						c1,0.5,11.4-6.2,11.3-6.7c0.2,1.1,3.3,0.8,4.2-0.3c3.4-4.7,5.5-7.7,8.2-13.9c2.9-4.6,4.1-7.9,3.4-10.4
						c-1.4-5.3-0.9-6.2-1.7-12.6c-2.3-5.8-2.3-5.8-3-8.3c-0.8-2.8-1.8-5.9-3.8-8.2c-2.4-2.8-5.9-3.4-9.2-4.9
						c-1.8-0.9-2.9-0.1-4.3,0.6c-2.7,1.4-0.2-0.2,0,0c-5.6-3.2-9.9-0.9-16.2-2.3c-1.3-0.3-2.2,0.7-2.3,1.7l0,0
						c-0.7-0.3-1.3-0.2-1.8,0.1c-0.7-0.4-1.5-0.8-2.3-1.2c-0.8-0.3-1.5-0.1-1.8,0.5c-0.7,0.3-1.3,1.1-1,2.1"/>
					<path class="st121" d="M858.5,351.8c0,0,8.9-3.3,8.3-10.2c-0.6-6.9-8.3,0-8.3,0S861.1,347.2,858.5,351.8z"/>
					
						<linearGradient id="SVGID_59_" gradientUnits="userSpaceOnUse" x1="884.5961" y1="481.3326" x2="869.0093" y2="395.9769" gradientTransform="matrix(1 0 0 -1 0 853.4645)">
						<stop  offset="0" style="stop-color:#E13635"/>
						<stop  offset="0.6584" style="stop-color:#EB6651"/>
					</linearGradient>
					<path class="st122" d="M871.8,439.2c1-0.1-7.9-21.9-8.4-23.4c-3.5-11.2-9.1-30.1,7.6-30.3c12.6-0.1,18.9,16.4,21.6,27.6
						c1.1,4.6,4,15,1.3,19C890.2,437.7,877.4,438.7,871.8,439.2z"/>
					<path class="st112" d="M885.1,485.6c-4.1-2.6-7.9-5.9-11.1-9.6c-5.7-6.4-10-14-12.8-22.1c-3.1-8.9-3.7-18.8-3.7-28.2
						c0.1-10.5,2.9-19.9,6.3-29.7c1.9-5.3,4-10.8,7.5-15.2c1.2,0.9,2.5,1.7,3.8,2.5c-5.2,5.9-7.3,14.9-9.7,22
						c-4.2,12.1-3.9,25.5-2.1,38.1c2,13.2,9.5,27.2,20.5,35.7C884.2,481.4,884.6,483.5,885.1,485.6z"/>
					<path class="st78" d="M900,459.9c-0.1-1.5-0.3-3-0.6-4.5c-1.5-7.6-4.3-14.9-6.1-22.4c-3.6,4.1-12.5,5.4-18.4,6
						c2.6,6.6,5.7,12.9,9.2,18.8c1,1.8,1.9,3.7,1.9,5.6c-0.1,4-3.9,9.6-5.5,13.2c-4.5,10.8-9.9,22.3-11.3,34.3
						c-0.7,6.3,7.3,7.6,9.8,3c3.1-5.6,6-11.4,8.6-17.3c2.3-5.1,4.2-10.5,6.7-15.5C897.8,473.9,900.4,467.7,900,459.9z"/>
				</g>
			</g>
			<g>
				<g>
					<path class="st54" d="M827.2,356.7L827.2,356.7c0.7,1.3,4.6,2.8,5.1-0.8h0.2C832,359.7,827.8,358.2,827.2,356.7z"/>
				</g>
				<path class="st54" d="M839.9,338.2c-0.9-2-3-3-4.7-2.3c-1.6,0.7-1.7,2.6-0.9,4.5c0.9,2,2.3,1.8,3.9,1.1
					C839.9,340.8,840.8,340.2,839.9,338.2z"/>
				<path class="st123" d="M839.2,338.5c-0.8-1.8-2.8-2.7-4.3-2.1c-1.5,0.7-1.6,2.4-0.8,4.1c0.8,1.8,2.1,1.6,3.6,1
					C839.3,340.9,840,340.3,839.2,338.5z"/>
				<g>
					<path class="st49" d="M834.5,332.1v1.1c2-0.2,4.2,0.2,6.9,1.2l0.1-1.4C839,332.2,836.7,331.8,834.5,332.1z"/>
				</g>
				<path class="st49" d="M837,338.1c-0.4-1-1.5-1.5-2.3-1.1c-0.9,0.4-1.2,1.5-0.8,2.5c0.4,1,1.5,1.5,2.3,1.1
					C837.1,340.2,837.4,339.1,837,338.1z"/>
				<path class="st58" d="M835.9,337.6c-0.1-0.3-0.5-0.4-0.8-0.3c-0.3,0.1-0.5,0.5-0.3,0.8c0.1,0.3,0.5,0.4,0.8,0.3
					C835.9,338.3,836,337.9,835.9,337.6z"/>
			</g>
			
				<linearGradient id="SVGID_60_" gradientUnits="userSpaceOnUse" x1="817.7518" y1="4.112" x2="909.9899" y2="352.403" gradientTransform="matrix(1 0 0 -1 0 853.4645)">
				<stop  offset="0" style="stop-color:#43AD85"/>
				<stop  offset="1" style="stop-color:#A7D26F"/>
			</linearGradient>
			<path class="st124" d="M760.4,708.7c0,0,6-30.8,48.2-37.3c-6.9-23.8-39.4-127.1,74.7-141.3c0.5,0,37.1-2.4,65,25.7
				c6.1-5.8,18.9-17,44.1-11c-9.1,38.5-28.8,149.2-164.6,232.2C827.7,777,744.2,769.1,760.4,708.7z"/>
			
				<linearGradient id="SVGID_61_" gradientUnits="userSpaceOnUse" x1="96.8512" y1="54.6214" x2="177.6937" y2="359.8828" gradientTransform="matrix(1 0 0 -1 0 853.4645)">
				<stop  offset="0" style="stop-color:#43AD85"/>
				<stop  offset="1" style="stop-color:#A7D26F"/>
			</linearGradient>
			<path class="st125" d="M21.6,474.9c0,0,48.5-3.5,60.7,38.2c0,0,11.7-11.6,43.2-11.6c7.1,0,62,10.2,62,54.8c0,0,1.5,11.2-6.1,25.7
				c12.2-1.5,184.5-17.1,70.7,193.5C252.1,775.3,75.5,693.9,21.6,474.9z"/>
		</g>
	</g>
</g>
</svg>
