<?xml version="1.0" encoding="utf-8"?>
<!-- Generator: Adobe Illustrator 22.0.1, SVG Export Plug-In . SVG Version: 6.00 Build 0)  -->
<svg version="1.1" id="Layer_1" xmlns="http://www.w3.org/2000/svg" xmlns:xlink="http://www.w3.org/1999/xlink" x="0px" y="0px"
	 viewBox="0 0 100 100" style="enable-background:new 0 0 100 100;" xml:space="preserve">
<style type="text/css">
	.st0{fill:#FFFFFF;}
</style>
<g>
	<g>
		<path class="st0" d="M9.9,99.1c-1.1,0-2.1-0.2-3.1-0.7c-1-0.4-1.7-1.1-2.3-1.8v2.2H1.1V75.3h3.4v9.5c0.6-0.8,1.4-1.4,2.3-1.8
			c0.9-0.4,1.9-0.7,3-0.7c2.2,0,4.1,0.8,5.6,2.3s2.4,3.6,2.4,6c0,2.5-0.8,4.5-2.4,6C13.9,98.3,12,99.1,9.9,99.1z M5.8,94.4
			c1,1,2.2,1.5,3.6,1.5c1.4,0,2.6-0.5,3.6-1.5c1-1,1.5-2.3,1.5-3.7c0-1.5-0.5-2.7-1.5-3.7c-1-1-2.2-1.5-3.6-1.5
			c-1.4,0-2.6,0.5-3.6,1.5c-1,1-1.4,2.2-1.4,3.7C4.3,92.2,4.8,93.4,5.8,94.4z"/>
		<path class="st0" d="M30.2,99.1c-2.5,0-4.5-0.8-6.1-2.4c-1.6-1.6-2.4-3.6-2.4-5.9c0-2.4,0.8-4.3,2.4-6c1.6-1.6,3.6-2.4,6-2.4
			c2.4,0,4.3,0.8,5.9,2.3s2.3,3.5,2.3,5.9v1.3H25c0.2,1.2,0.8,2.2,1.7,3c0.9,0.8,2.1,1.1,3.5,1.1c1.1,0,2-0.3,2.8-0.8
			c0.8-0.5,1.4-1.2,1.9-2.1l2.8,1.6C36.2,97.6,33.7,99.1,30.2,99.1z M30.1,85.4c-1.2,0-2.2,0.3-3.1,1s-1.5,1.5-1.8,2.6h9.6
			c-0.3-1.2-0.8-2-1.6-2.7C32.4,85.7,31.3,85.4,30.1,85.4z"/>
		<path class="st0" d="M50.6,99.1c-2.5,0-4.5-0.8-6.1-2.4c-1.6-1.6-2.4-3.6-2.4-5.9c0-2.4,0.8-4.3,2.4-6c1.6-1.6,3.6-2.4,6-2.4
			c2.4,0,4.3,0.8,5.9,2.3c1.6,1.5,2.3,3.5,2.3,5.9v1.3H45.5c0.2,1.2,0.8,2.2,1.7,3c0.9,0.8,2.1,1.1,3.5,1.1c1.1,0,2-0.3,2.8-0.8
			c0.8-0.5,1.4-1.2,1.9-2.1l2.8,1.6C56.6,97.6,54.1,99.1,50.6,99.1z M50.5,85.4c-1.2,0-2.2,0.3-3.1,1s-1.5,1.5-1.8,2.6h9.6
			c-0.3-1.2-0.8-2-1.6-2.7C52.8,85.7,51.7,85.4,50.5,85.4z"/>
		<path class="st0" d="M70.6,99.1c-2.1,0-4-0.8-5.6-2.3c-1.6-1.5-2.4-3.6-2.4-6c0-2.5,0.8-4.5,2.4-6c1.6-1.5,3.5-2.3,5.7-2.3
			c1.1,0,2,0.2,3,0.6c1,0.4,1.7,1,2.3,1.8v-9.5h3.4v23.4H76v-2.2c-0.6,0.8-1.4,1.4-2.4,1.9C72.6,98.9,71.6,99.1,70.6,99.1z
			 M71.1,95.9c1.5,0,2.7-0.5,3.6-1.5c1-1,1.4-2.3,1.4-3.7c0-1.5-0.5-2.7-1.4-3.7c-1-1-2.2-1.5-3.6-1.5c-1.4,0-2.6,0.5-3.6,1.5
			c-1,1-1.5,2.2-1.5,3.7c0,1.5,0.5,2.7,1.5,3.7C68.4,95.4,69.6,95.9,71.1,95.9z"/>
		<path class="st0" d="M90.8,99.1c-2.1,0-3.7-0.6-4.9-1.9c-1.2-1.2-1.7-3-1.7-5.2v-9.3h3.5v9.1c0,1.3,0.3,2.4,1,3.2
			c0.7,0.8,1.6,1.1,2.9,1.1c1.2,0,2.1-0.4,2.9-1.2c0.8-0.8,1.2-1.9,1.2-3.3v-8.8h3.4v16.1h-3.4v-2.1C94.5,98.3,92.9,99.1,90.8,99.1z
			"/>
	</g>
	<rect x="9.4" y="15.6" class="st0" width="24.5" height="24.4"/>
	<rect x="61.8" y="4.5" transform="matrix(0.3177 -0.9482 0.9482 0.3177 34.5197 82.507)" class="st0" width="25.5" height="25.5"/>
	<rect x="9.4" y="42.2" class="st0" width="24.5" height="24.4"/>
	<rect x="36.1" y="42.2" class="st0" width="24.5" height="24.4"/>
</g>
</svg>
