<?xml version="1.0" encoding="utf-8"?>
<!-- Generator: Adobe Illustrator 22.0.1, SVG Export Plug-In . SVG Version: 6.00 Build 0)  -->
<svg version="1.1" id="Capa_1" xmlns="http://www.w3.org/2000/svg" xmlns:xlink="http://www.w3.org/1999/xlink" x="0px" y="0px"
	 viewBox="0 0 100 100" style="enable-background:new 0 0 100 100;" xml:space="preserve">
<style type="text/css">
	.st0{fill:#363636;}
</style>
<g>
	<g id="_x33__21_">
		<g>
			<path class="st0" d="M71.4,1c-0.4,0-36.8,0-36.8,0c-6.5,0-12.2,5.9-12.2,12.3l-3.5,0.1c-6.5,0-11.8,5.9-11.8,12.2v61.3
				c0,6.3,5.8,12.2,12.3,12.2h45.9c6.5,0,12.2-5.9,12.2-12.2h3.1c6.5,0,12.3-5.9,12.3-12.2V25.6L71.4,1z M65.3,92.9H19.4
				c-3.2,0-6.1-3-6.1-6.1V25.5c0-3.1,2.6-6,5.8-6l3.4-0.1v55.1c0,6.3,5.8,12.2,12.2,12.2h36.8C71.4,89.9,68.5,92.9,65.3,92.9z
				 M86.8,74.5c0,3.1-2.9,6.1-6.1,6.1H34.7c-3.2,0-6.1-3-6.1-6.1V13.3c0-3.1,2.9-6.1,6.1-6.1h30.6c0,7.1,0,12.3,0,12.3
				c0,6.4,5.7,12.2,12.2,12.2c0,0,3.3,0,9.2,0V74.5z M77.6,25.5c-3.3,0-6.1-5.9-6.1-9.1c0,0,0-3.2,0-9.2v0l15.3,18.3H77.6z
				 M71.4,43.9H43.9c-1.7,0-3.1,1.4-3.1,3.1c0,1.7,1.4,3.1,3.1,3.1h27.6c1.7,0,3.1-1.4,3.1-3.1C74.5,45.3,73.1,43.9,71.4,43.9z
				 M71.4,59.2H43.9c-1.7,0-3.1,1.4-3.1,3.1c0,1.7,1.4,3.1,3.1,3.1h27.6c1.7,0,3.1-1.4,3.1-3.1C74.5,60.6,73.1,59.2,71.4,59.2z"/>
		</g>
	</g>
</g>
</svg>
