<?xml version="1.0" encoding="utf-8"?>
<!-- Generator: Adobe Illustrator 22.0.1, SVG Export Plug-In . SVG Version: 6.00 Build 0)  -->
<svg version="1.1" id="Capa_1" xmlns="http://www.w3.org/2000/svg" xmlns:xlink="http://www.w3.org/1999/xlink" x="0px" y="0px"
	 viewBox="0 0 100 100" style="enable-background:new 0 0 100 100;" xml:space="preserve">
<style type="text/css">
	.st0{fill:url(#SVGID_1_);}
	.st1{fill:#2A3653;}
	.st2{fill:url(#SVGID_2_);}
	.st3{fill:url(#SVGID_3_);}
</style>
<g>
	<linearGradient id="SVGID_1_" gradientUnits="userSpaceOnUse" x1="50" y1="-3.9212" x2="50" y2="102.8387">
		<stop  offset="0" style="stop-color:#FEE76A"/>
		<stop  offset="0.641" style="stop-color:#F7A738"/>
	</linearGradient>
	<circle class="st0" cx="50" cy="50" r="49"/>
	<g>
		<g>
			<g>
				<g>
					<path class="st1" d="M80.4,42c-0.2,0-0.5,0-0.7-0.1l-18-7.6c-0.7-0.3-1.1-0.9-1.1-1.6c0-0.7,0.4-1.4,1-1.7l18-9
						c0.9-0.5,2-0.1,2.5,0.8c0.5,0.9,0.1,2-0.8,2.5l-14.4,7.2l14.3,6c0.9,0.4,1.4,1.5,1,2.4C81.8,41.5,81.1,42,80.4,42z"/>
				</g>
			</g>
			<g>
				<g>
					<path class="st1" d="M23.6,42c0.2,0,0.5,0,0.7-0.1l18-7.6c0.7-0.3,1.1-0.9,1.1-1.6c0-0.7-0.4-1.4-1-1.7l-18-9
						c-0.9-0.5-2-0.1-2.5,0.8c-0.5,0.9-0.1,2,0.8,2.5l14.4,7.2l-14.3,6c-0.9,0.4-1.4,1.5-1,2.4C22.2,41.5,22.9,42,23.6,42z"/>
				</g>
			</g>
		</g>
		<linearGradient id="SVGID_2_" gradientUnits="userSpaceOnUse" x1="50" y1="91.396" x2="50" y2="42.8417">
			<stop  offset="0" style="stop-color:#78330E"/>
			<stop  offset="1" style="stop-color:#4C2413"/>
		</linearGradient>
		<path class="st2" d="M15.8,50.8c0,0,38.3-14.8,68.3,0c0.7,0.7-2.8,38.6-34.1,38.6C46.9,89.5,20,87.4,15.8,50.8z"/>
		<linearGradient id="SVGID_3_" gradientUnits="userSpaceOnUse" x1="50.9067" y1="70.0313" x2="50.9067" y2="92.4804">
			<stop  offset="0" style="stop-color:#FA5773"/>
			<stop  offset="1" style="stop-color:#D6253C"/>
		</linearGradient>
		<path class="st3" d="M29.1,80.9c0,0,6.9-9.1,20.8-9.1c3.5,0,13,0.4,22.7,8.2c0.3-0.4-8.3,9.9-21.8,9.9
			C48,89.9,36.9,88.6,29.1,80.9z"/>
	</g>
</g>
</svg>
