<?xml version="1.0" encoding="utf-8"?>
<!-- Generator: Adobe Illustrator 22.0.1, SVG Export Plug-In . SVG Version: 6.00 Build 0)  -->
<svg version="1.1" id="Layer_1" xmlns="http://www.w3.org/2000/svg" xmlns:xlink="http://www.w3.org/1999/xlink" x="0px" y="0px"
	 viewBox="0 0 100 100" style="enable-background:new 0 0 100 100;" xml:space="preserve">
<style type="text/css">
	.st0{fill:#363636;}
</style>
<path class="st0" d="M1.1,44.2c0-23.6,21.9-42.7,49-42.7s49,19.1,49,42.7c0,13.5-7.2,25.4-18.4,33.3v21.6l-21.5-13
	c-2.9,0.5-6,0.8-9.1,0.8C23,86.9,1.1,67.8,1.1,44.2z M5.7,44.1C5.7,65,25.6,82,50.1,82c3.7,0,7.3-0.5,10.7-1.2l14.9,8.9L75.5,75
	c11.5-6.8,19-18.1,19-31c0-20.9-19.9-37.9-44.4-37.9S5.7,23.2,5.7,44.1z"/>
</svg>
