<?xml version="1.0" encoding="utf-8"?>
<!-- Generator: Adobe Illustrator 22.0.1, SVG Export Plug-In . SVG Version: 6.00 Build 0)  -->
<svg version="1.1" id="Capa_1" xmlns="http://www.w3.org/2000/svg" xmlns:xlink="http://www.w3.org/1999/xlink" x="0px" y="0px"
	 viewBox="0 0 100 100" style="enable-background:new 0 0 100 100;" xml:space="preserve">
<style type="text/css">
	.st0{fill:#363636;}
</style>
<g>
	<path class="st0" d="M25.7,27.5c-4.3,0-7.8,3.5-7.8,7.8s3.5,7.8,7.8,7.8c4.3,0,7.8-3.5,7.8-7.8S30,27.5,25.7,27.5z M25.7,39.1
		c-2.1,0-3.9-1.7-3.9-3.9c0-2.1,1.7-3.9,3.9-3.9s3.9,1.7,3.9,3.9C29.5,37.4,27.8,39.1,25.7,39.1z"/>
	<path class="st0" d="M15.5,67.8l11.3-11.3c0,0,4.1-5.2,8.5,0s4.4,5.2,4.4,5.2s1.1,2.2,2.7,0c1.6-2.2,15.9-18.6,15.9-18.6
		s3.9-5.4,8.4,0s20,24.7,20,24.7s0.8,1.1-1.1,2.8c0,0-0.9,1.3-2.7,0C81.2,69.4,64,46.7,64,46.7s-1.7-2.2-3.6,0
		c-1.9,2.2-16.7,20.5-16.7,20.5s-3,2.2-5,0c-2.2-2.7-5.2-6.9-5.2-6.9s-2-2.4-3.9-0.2S19.3,71.2,19.3,71.2s-1.7,1.2-3,0
		C15.2,70,13.8,69.6,15.5,67.8z"/>
	<path class="st0" d="M84.2,12.8H15.8C7.7,12.8,1,19.5,1,27.6v45.5C1,81.3,7.7,88,15.8,88h68.4C92.3,88,99,81.3,99,73.2V27.6
		C99,19.5,92.3,12.8,84.2,12.8z M94.1,72.9c0,5.7-4.7,10.4-10.4,10.4H16.3c-5.7,0-10.4-4.7-10.4-10.4V28c0-5.7,4.7-10.4,10.4-10.4
		h67.4c5.7,0,10.4,4.7,10.4,10.4V72.9z"/>
</g>
</svg>
