<?xml version="1.0" encoding="utf-8"?>
<!-- Generator: Adobe Illustrator 22.0.1, SVG Export Plug-In . SVG Version: 6.00 Build 0)  -->
<svg version="1.1" id="Layer_1" xmlns="http://www.w3.org/2000/svg" xmlns:xlink="http://www.w3.org/1999/xlink" x="0px" y="0px"
	 viewBox="0 0 100 100" style="enable-background:new 0 0 100 100;" xml:space="preserve">
<style type="text/css">
	.st0{fill:#363636;}
</style>
<path class="st0" d="M93.5,68.1c2-2.6,3-5.3,2.8-8.1c-0.1-3.1-1.5-5.6-2.7-7c1.3-3.3,1.8-8.5-2.6-12.6c-3.3-3-8.8-4.3-16.5-3.9
	c-5.4,0.2-9.9,1.3-10.1,1.3h0c-1,0.2-2.1,0.4-3.2,0.7c-0.1-1.3,0.1-4.6,2.6-11.9c2.9-8.7,2.7-15.4-0.5-19.9
	c-3.4-4.7-8.8-5.1-10.4-5.1c-1.5,0-3,0.6-4,1.8c-2.3,2.6-2,7.5-1.7,9.8c-2.7,7.3-10.3,25-16.7,30c-0.1,0.1-0.2,0.2-0.3,0.3
	c-1.9,2-3.2,4.1-4,6c-1.2-0.7-2.6-1-4.1-1H9.6c-4.7,0-8.5,3.8-8.5,8.5v33.3c0,4.7,3.8,8.5,8.5,8.5h12.5c1.8,0,3.5-0.6,4.9-1.6
	l4.8,0.6c0.7,0.1,13.9,1.8,27.3,1.5c2.4,0.2,4.7,0.3,6.9,0.3c3.7,0,6.9-0.3,9.5-0.9c6.3-1.3,10.6-4,12.7-7.9c1.7-3,1.7-6,1.4-7.8
	c4.1-3.7,4.8-7.8,4.7-10.6C94.3,70.6,93.9,69.2,93.5,68.1z M26.1,88.3c0,3-2.5,5.5-5.5,5.5H11c-3,0-5.5-2.5-5.5-5.5V58.2
	c0-3,2.5-5.5,5.5-5.5h9.5c3,0,5.5,2.5,5.5,5.5V88.3z M88.3,65.7c-0.9,0.9-1,2.3-0.4,3.3c0,0,0.8,1.5,0.9,3.4
	c0.1,2.7-1.1,5.1-3.9,7.1c-1,0.7-1.4,2-0.9,3.2c0,0,0.9,2.7-0.6,5.3c-1.4,2.5-4.4,4.2-9.1,5.2c-3.7,0.8-8.8,0.9-14.9,0.5h-0.3
	C46,94,32.7,92.2,32.6,92.2h0L30.5,92c0.1-0.6,0.2-1.2,0.2-1.8V56.9c0-0.9-0.1-1.7-0.4-2.5c0.4-1.4,1.4-4.4,3.8-7
	c9.2-7.3,18.2-31.9,18.6-33c0.2-0.4,0.2-0.9,0.1-1.4c-0.3-2.3-0.2-5.1,0.3-5.9c1.1,0,4,0.3,5.8,2.8c2.1,2.9,2,8.1-0.2,14.9
	c-3.4,10.4-3.7,15.9-1,18.3c1.4,1.2,3.2,1.3,4.5,0.8c1.2-0.3,2.4-0.5,3.6-0.7c0.1,0,0.2,0,0.3-0.1c6.3-1.4,17.6-2.2,21.5,1.4
	c3.3,3,1,7,0.7,7.5c-0.8,1.1-0.5,2.6,0.5,3.6c0,0,2.2,2,2.3,4.8C90.9,62,90,63.9,88.3,65.7z"/>
</svg>
