<?xml version="1.0" encoding="utf-8"?>
<!-- Generator: Adobe Illustrator 22.0.1, SVG Export Plug-In . SVG Version: 6.00 Build 0)  -->
<svg version="1.1" id="Capa_1" xmlns="http://www.w3.org/2000/svg" xmlns:xlink="http://www.w3.org/1999/xlink" x="0px" y="0px"
	 viewBox="0 0 100 100" style="enable-background:new 0 0 100 100;" xml:space="preserve">
<style type="text/css">
	.st0{fill:url(#SVGID_1_);}
	.st1{fill:url(#SVGID_2_);}
	.st2{fill:url(#SVGID_3_);}
</style>
<g>
	<g>
		<linearGradient id="SVGID_1_" gradientUnits="userSpaceOnUse" x1="50" y1="-4.7981" x2="50" y2="107.3889">
			<stop  offset="0" style="stop-color:#32A2FB"/>
			<stop  offset="1" style="stop-color:#175BEE"/>
		</linearGradient>
		<circle class="st0" cx="50" cy="50" r="49"/>
	</g>
	<g>
		<linearGradient id="SVGID_2_" gradientUnits="userSpaceOnUse" x1="25.6911" y1="60.1087" x2="36.6184" y2="60.1087">
			<stop  offset="0" style="stop-color:#F6F6F6"/>
			<stop  offset="1" style="stop-color:#EDEDED"/>
		</linearGradient>
		<path class="st1" d="M36.6,47h-6.5c-2.5,0-4.4,2-4.4,4.4v17.3c0,2.5,2,4.4,4.4,4.4h6.5V47z"/>
		<linearGradient id="SVGID_3_" gradientUnits="userSpaceOnUse" x1="39.8101" y1="48.1168" x2="75.3078" y2="48.1168">
			<stop  offset="0" style="stop-color:#F6F6F6"/>
			<stop  offset="1" style="stop-color:#EDEDED"/>
		</linearGradient>
		<path class="st2" d="M74.3,59.4c0-0.9-0.2-1.6-0.4-2.1c1-1.3,1.5-2.8,1.5-4.2c-0.1-1.6-0.8-2.9-1.4-3.7c0.7-1.7,1-4.5-1.4-6.6
			c-1.7-1.5-4.6-2.2-8.6-2c-2.8,0.1-5.2,0.7-5.3,0.7h0c-0.5,0.1-1.1,0.2-1.7,0.3c0-0.7,0.1-2.4,1.3-6.2c1.5-4.5,1.4-8-0.3-10.4
			c-1.8-2.4-4.6-2.6-5.4-2.6c-0.8,0-1.5,0.3-2.1,0.9c-1.2,1.4-1,3.9-0.9,5.1c-1.4,3.8-5.4,13-8.7,15.6c-0.1,0-0.1,0.1-0.2,0.1
			c-0.4,0.4-0.7,0.9-1,1.3v26.8l1.9,0.2c0.4,0.1,7.2,0.9,14.2,0.8c1.3,0.1,2.5,0.1,3.6,0.1c1.9,0,3.6-0.1,5-0.4
			c3.3-0.7,5.5-2.1,6.6-4.1C72,67.5,72,66,71.8,65C74,63.1,74.3,60.9,74.3,59.4z"/>
	</g>
</g>
</svg>
