<?xml version="1.0" encoding="utf-8"?>
<!-- Generator: Adobe Illustrator 22.0.1, SVG Export Plug-In . SVG Version: 6.00 Build 0)  -->
<svg version="1.1" id="Capa_1" xmlns="http://www.w3.org/2000/svg" xmlns:xlink="http://www.w3.org/1999/xlink" x="0px" y="0px"
	 viewBox="0 0 100 100" style="enable-background:new 0 0 100 100;" xml:space="preserve">
<style type="text/css">
	.st0{fill:#363636;}
</style>
<path class="st0" d="M89.4,49.5L89,49.8L51.8,87c-0.1,0.1-0.2,0.1-0.3,0.2c-9.3,9-24.2,8.9-33.4-0.3c-9.1-9-9.2-24-0.1-33.3
	c0.6-0.6,42.3-42.3,42.7-42.7c6.5-6.5,17.1-6.5,23.6,0c3.1,3.1,4.9,7.3,4.9,11.8s-1.8,8.7-4.9,11.8L41.4,77.3
	c-3.6,3.3-9.1,3.1-12.6-0.3s-3.6-9-0.3-12.6c0.1-0.1,0.1-0.1,0.2-0.2l0,0l0,0l0.1-0.1l0,0L66,26.9c1-1,1-2.6,0-3.6s-2.6-1-3.6,0
	L25.1,60.6L25,60.7l-0.4,0.4c-0.2,0.2-0.3,0.4-0.4,0.5c-4.6,5.6-4.2,13.8,1,19c5.4,5.4,14,5.6,19.7,0.4c0,0,0.1,0,0.1-0.1L87.9,38
	c4.1-4.1,6.4-9.6,6.4-15.4s-2.2-11.3-6.4-15.4c-8.5-8.5-22.3-8.5-30.8,0L14.4,50c0,0,0,0,0,0.1c-11,11.2-10.9,29.4,0.2,40.5
	c5.6,5.6,13,8.4,20.4,8.4c7.2,0,14.3-2.6,19.9-7.9L55,91l0.1-0.1l0.3-0.3l0,0l37.2-37.2l0,0c0.1-0.1,0.1-0.1,0.2-0.2
	c1-1,1.1-2.5,0.1-3.6C92,48.6,90.4,48.5,89.4,49.5L89.4,49.5z"/>
</svg>
