<?xml version="1.0" encoding="utf-8"?>
<!-- Generator: Adobe Illustrator 22.0.1, SVG Export Plug-In . SVG Version: 6.00 Build 0)  -->
<svg version="1.1" id="Capa_1" xmlns="http://www.w3.org/2000/svg" xmlns:xlink="http://www.w3.org/1999/xlink" x="0px" y="0px"
	 viewBox="0 0 100 100" style="enable-background:new 0 0 100 100;" xml:space="preserve">
<style type="text/css">
	.st0{fill:url(#SVGID_1_);}
	.st1{fill:none;stroke:#460A01;stroke-width:3.9509;stroke-linecap:round;stroke-miterlimit:10;}
	.st2{fill:#42120E;}
</style>
<g>
	<linearGradient id="SVGID_1_" gradientUnits="userSpaceOnUse" x1="50" y1="1.3007" x2="50" y2="99.9324">
		<stop  offset="0" style="stop-color:#DE4703"/>
		<stop  offset="0.5447" style="stop-color:#FD9D1E"/>
		<stop  offset="0.7919" style="stop-color:#FB991D"/>
		<stop  offset="1" style="stop-color:#E66B14"/>
	</linearGradient>
	<circle class="st0" cx="50" cy="50" r="49"/>
	<g>
		<path class="st1" d="M20.5,62.4c4,2.5,10.7,4.5,19.8,3.8"/>
		<path class="st2" d="M36.9,69.6c0,1.9-2.5,3.4-5.6,3.4c-3.1,0-5.6-1.5-5.6-3.4c0-1.9,2.5-3.4,5.6-3.4
			C34.4,66.3,36.9,67.8,36.9,69.6z"/>
		<path class="st1" d="M79,62.4c-4,2.5-10.7,4.5-19.8,3.8"/>
		<path class="st2" d="M62.7,69.6c0,1.9,2.5,3.4,5.6,3.4c3.1,0,5.6-1.5,5.6-3.4c0-1.9-2.5-3.4-5.6-3.4
			C65.2,66.3,62.7,67.8,62.7,69.6z"/>
		<ellipse class="st2" cx="50.8" cy="78.8" rx="9.5" ry="1.9"/>
	</g>
</g>
</svg>
