<?xml version="1.0" encoding="utf-8"?>
<!-- Generator: Adobe Illustrator 22.0.1, SVG Export Plug-In . SVG Version: 6.00 Build 0)  -->
<svg version="1.1" id="Capa_1" xmlns="http://www.w3.org/2000/svg" xmlns:xlink="http://www.w3.org/1999/xlink" x="0px" y="0px"
	 viewBox="0 0 100 100" style="enable-background:new 0 0 100 100;" xml:space="preserve">
<style type="text/css">
	.st0{fill:#363636;}
</style>
<g>
	<path class="st0" d="M56.3,42.1c0-1.7,1.4-3.2,3.2-3.2c1.7,0,3.2,1.4,3.2,3.2v31.6c0,1.7-1.4,3.2-3.2,3.2c-1.7,0-3.2-1.4-3.2-3.2
		V42.1z M37.4,42.1c0-1.7,1.4-3.2,3.2-3.2c1.7,0,3.2,1.4,3.2,3.2v31.6c0,1.7-1.4,3.2-3.2,3.2c-1.7,0-3.2-1.4-3.2-3.2V42.1z
		 M56.2,13.6c-1.8,0-3.2-1.5-3.2-3.4c0-1.4-1.1-2.5-2.4-2.5h-1.2c-0.7,0-1.3,0.3-1.7,0.7C47.2,8.9,47,9.6,47,10.3
		c0,1.9-1.4,3.4-3.2,3.4s-3.2-1.5-3.2-3.4c0-2.5,0.9-4.8,2.6-6.6C44.8,2,47,1,49.4,1h1.2c4.9,0,8.9,4.2,8.9,9.3
		C59.5,12.1,58,13.6,56.2,13.6z M8.9,20c0-1.7,1.4-3.2,3.2-3.2h75.9c1.7,0,3.2,1.4,3.2,3.2c0,1.7-1.4,3.2-3.2,3.2H12.1
		C10.3,23.1,8.9,21.7,8.9,20z M24.6,99c-6.9,0-12.6-5.7-12.6-12.6V32.6c0-1.7,1.4-3.2,3.2-3.2s3.2,1.4,3.2,3.2v53.8
		c0,3.5,2.8,6.3,6.3,6.3h50.7c3.5,0,6.3-2.8,6.3-6.3V32.6c0-1.7,1.4-3.2,3.2-3.2s3.2,1.4,3.2,3.2v53.8c0,6.9-5.6,12.6-12.6,12.6
		H24.6z"/>
</g>
</svg>
