<?xml version="1.0" encoding="utf-8"?>
<!-- Generator: Adobe Illustrator 22.0.1, SVG Export Plug-In . SVG Version: 6.00 Build 0)  -->
<svg version="1.1" id="Capa_1" xmlns="http://www.w3.org/2000/svg" xmlns:xlink="http://www.w3.org/1999/xlink" x="0px" y="0px"
	 viewBox="0 0 100 100" style="enable-background:new 0 0 100 100;" xml:space="preserve">
<style type="text/css">
	.st0{fill:#363636;}
</style>
<g>
	<path class="st0" d="M32.4,61.4c-0.8-0.9-2.1-1-3-0.2c-0.9,0.8-1,2.1-0.2,3c5.3,5.9,12.8,9.2,20.8,9.2c7.9,0,15.5-3.4,20.8-9.2
		c0.8-0.9,0.7-2.2-0.2-3c-0.9-0.8-2.2-0.7-3,0.2c-4.4,5-10.9,7.8-17.6,7.8C43.3,69.2,36.9,66.3,32.4,61.4z"/>
	<path class="st0" d="M50,99c27,0,49-22,49-49S77,1,50,1S1,23,1,50S23,99,50,99z M50,5.3c24.7,0,44.7,20.1,44.7,44.7
		S74.7,94.7,50,94.7S5.3,74.7,5.3,50S25.3,5.3,50,5.3z"/>
	<path class="st0" d="M58.5,47.9c1.2,0,2.1-1,2.1-2.1c0-3.5,2.9-6.4,6.4-6.4c3.5,0,6.4,2.9,6.4,6.4c0,1.2,1,2.1,2.1,2.1
		s2.1-1,2.1-2.1c0-5.9-4.8-10.7-10.7-10.7c-5.9,0-10.7,4.8-10.7,10.7C56.4,46.9,57.3,47.9,58.5,47.9z"/>
	<path class="st0" d="M24.4,47.9c1.2,0,2.1-1,2.1-2.1c0-3.5,2.9-6.4,6.4-6.4s6.4,2.9,6.4,6.4c0,1.2,1,2.1,2.1,2.1
		c1.2,0,2.1-1,2.1-2.1c0-5.9-4.8-10.7-10.7-10.7s-10.7,4.8-10.7,10.7C22.3,46.9,23.3,47.9,24.4,47.9z"/>
</g>
</svg>
