<?xml version="1.0" encoding="utf-8"?>
<!-- Generator: Adobe Illustrator 22.0.1, SVG Export Plug-In . SVG Version: 6.00 Build 0)  -->
<svg version="1.1" id="Layer_1" xmlns="http://www.w3.org/2000/svg" xmlns:xlink="http://www.w3.org/1999/xlink" x="0px" y="0px"
	 viewBox="0 0 100 100" style="enable-background:new 0 0 100 100;" xml:space="preserve">
<style type="text/css">
	.st0{fill:#363636;}
</style>
<g>
	<path class="st0" d="M39.3,35.5c1.4-1.1,2.9-2.2,4.4-3.4C50.1,27.1,56.5,22,63,17c0.5-0.4,1-0.7,1.5-1c1.3-0.8,1.6-1.9,0.9-3.2
		c-0.4-0.8-0.9-1.5-1.3-2.3c-0.9-1.5-0.8-2.9,0.1-4.4c1.9-3.1,4.9-4.3,8.3-5c1.5-0.3,2.7,0.5,3.7,1.5c1.1,1.1,2.1,2.2,3.2,3.3
		c5.9,5.8,11.8,11.6,17.7,17.4c2.8,2.7,2.6,7-0.3,9.5c-0.7,0.6-1.4,1.3-2.1,1.8C93,35.9,91.2,36,89.5,35c-1.6-0.9-3.2-2.1-4.7-3.1
		c-2.7,3.6-5.4,7.3-8.2,11c-3.5,4.6-7.1,9.2-10.7,13.8c-0.4,0.6-0.5,1-0.2,1.6c1.9,3.8,2.9,7.7,2.4,12c-0.6,5-4.5,9.5-9.3,10.5
		c-1.4,0.3-2.5,0.1-3.6-1c-11.5-11.6-23.1-23-34.7-34.5c-3.6-3.6-2.9-9.1,1.6-11.6c2-1.1,4.1-2.1,6.4-2.5c3.3-0.6,6.2,0.2,8.7,2.4
		C37.9,34.1,38.6,34.8,39.3,35.5z"/>
	<path class="st0" d="M29.4,60.7c2,0,3.3,0.6,4.4,1.7c1.1,1.1,2.1,2.4,3.1,3.5c2.1,2.4,1.7,7.3-1.4,9.6C26.4,82.3,17.4,89.2,8.3,96
		C7,97,5.4,97.8,4,98.7C3.6,98.9,3,99,2.5,99c-0.3,0-0.7-0.2-0.7-0.3c-0.2-1.1-1.2-2.1-0.6-3.3c0.8-1.6,1.4-3.3,2.4-4.6
		c4.4-6.1,9-12.1,13.5-18.1c2.4-3.1,4.8-6.2,7.3-9.3C25.8,61.6,27.7,60.9,29.4,60.7z"/>
</g>
</svg>
