<?xml version="1.0" encoding="utf-8"?>
<!-- Generator: Adobe Illustrator 22.0.1, SVG Export Plug-In . SVG Version: 6.00 Build 0)  -->
<svg version="1.1" id="Capa_1" xmlns="http://www.w3.org/2000/svg" xmlns:xlink="http://www.w3.org/1999/xlink" x="0px" y="0px"
	 viewBox="0 0 100 100" style="enable-background:new 0 0 100 100;" xml:space="preserve">
<style type="text/css">
	.st0{fill:#262626;}
</style>
<g>
	<path class="st0" d="M90.3,60.8c-1.3,0-2.4,1.1-2.4,2.4v21.4c0,4-3.2,7.2-7.2,7.2H13c-4,0-7.2-3.2-7.2-7.2V21.8
		c0-4,3.2-7.2,7.2-7.2h21.4c1.3,0,2.4-1.1,2.4-2.4c0-1.3-1.1-2.4-2.4-2.4H13c-6.7,0-12,5.4-12,12v62.8c0,6.7,5.4,12,12,12h67.6
		c6.7,0,12-5.4,12-12V63.2C92.7,61.8,91.6,60.8,90.3,60.8z"/>
	<path class="st0" d="M93.5,6.3c-3.9-3.9-10.1-3.9-13.9,0L40.5,45.4c-0.3,0.3-0.5,0.6-0.6,1l-5.1,18.6c-0.2,0.8,0,1.6,0.6,2.1
		c0.6,0.6,1.4,0.8,2.1,0.6l18.6-5.1c0.4-0.1,0.7-0.3,1-0.6l39.1-39.1c3.8-3.9,3.8-10.1,0-13.9L93.5,6.3z M45.3,46.8l32-32l10.3,10.3
		l-32,32L45.3,46.8z M43.2,50.9l8.2,8.2l-11.4,3.2L43.2,50.9z M93,19.7L90.7,22L80.4,11.7l2.3-2.3c2.1-2.1,5.6-2.1,7.7,0L93,12
		C95.2,14.1,95.2,17.6,93,19.7z"/>
</g>
</svg>
