<?xml version="1.0" encoding="utf-8"?>
<!-- Generator: Adobe Illustrator 22.0.1, SVG Export Plug-In . SVG Version: 6.00 Build 0)  -->
<svg version="1.1" id="Capa_1" xmlns="http://www.w3.org/2000/svg" xmlns:xlink="http://www.w3.org/1999/xlink" x="0px" y="0px"
	 viewBox="0 0 100 100" style="enable-background:new 0 0 100 100;" xml:space="preserve">
<style type="text/css">
	.st0{fill:url(#SVGID_1_);}
	.st1{fill:#2A3653;}
	.st2{fill:none;stroke:#460A01;stroke-width:2.7732;stroke-linecap:round;stroke-miterlimit:10;}
	.st3{fill:#582811;}
	.st4{fill:url(#SVGID_2_);}
</style>
<g>
	<linearGradient id="SVGID_1_" gradientUnits="userSpaceOnUse" x1="50" y1="-5.2957" x2="50" y2="106.0003">
		<stop  offset="0" style="stop-color:#FEE76A"/>
		<stop  offset="0.641" style="stop-color:#F7A738"/>
	</linearGradient>
	<circle class="st0" cx="50" cy="50" r="49"/>
	<g>
		<path class="st1" d="M78.1,55.8c0,5-2.9,9.1-6.4,9.1c-3.5,0-6.4-4.1-6.4-9.1s2.9-9.1,6.4-9.1C75.3,46.7,78.1,50.8,78.1,55.8z"/>
		<ellipse class="st1" cx="30.1" cy="55.8" rx="6.4" ry="9.1"/>
		<path class="st2" d="M19.5,41.9c1.4-3.5,7.3-6.8,13.1-4.9"/>
		<path class="st2" d="M80.5,41.9c-1.4-3.5-7.3-6.8-13.1-4.9"/>
	</g>
	<path class="st3" d="M33.7,86.7c0,0,3.4-12.1,15.7-12.1c0,0,11.4-1,17,12.1c0,0.2-5.6,0-5.6,0s-2.5-5.1-10.8-5.1
		c0.2,0-7.4,0.1-10.6,5.1C39.4,86.5,33.7,86.7,33.7,86.7z"/>
	<linearGradient id="SVGID_2_" gradientUnits="userSpaceOnUse" x1="83.4652" y1="63.4952" x2="83.4652" y2="109.8235">
		<stop  offset="0.3122" style="stop-color:#32A2FB"/>
		<stop  offset="1" style="stop-color:#175BEE"/>
	</linearGradient>
	<path class="st4" d="M83.5,67c0,0,7.5,12.6,7.5,18.4c0,4.3-2.4,10-7.5,10c-1.8,0-7.5-2.3-7.5-10C76,81,80.8,71.3,83.5,67z"/>
</g>
</svg>
