<?xml version="1.0" encoding="utf-8"?>
<!-- Generator: Adobe Illustrator 22.0.1, SVG Export Plug-In . SVG Version: 6.00 Build 0)  -->
<svg version="1.1" id="Layer_1" xmlns="http://www.w3.org/2000/svg" xmlns:xlink="http://www.w3.org/1999/xlink" x="0px" y="0px"
	 viewBox="0 0 100 100" style="enable-background:new 0 0 100 100;" xml:space="preserve">
<style type="text/css">
	.st0{fill:#363636;}
</style>
<g>
	<path class="st0" d="M92.6,36.7c-2-0.1-2.4-2.1-2.4-4.5c0-5.6,0-12.2,0-17.8c0-5.5-3.4-8.9-8.9-8.9c-22.3,0-44.5,0-66.8,0
		C9,5.5,5.5,9,5.5,14.4v71.3c0,5.4,3.5,8.9,8.9,8.9c10.5,0,22.3,0,22.3,0V99H14.4C4.7,99,1.1,92.2,1.1,85.6
		C1,76.1,1.1,67.1,1.1,57.6c0-13.7,0.2-29.5-0.1-43.2C0.9,6.7,7.3,1,14.4,1h66.8c5.7,0,13.4,1.8,13.4,13.4c0,0,0,11.5,0,17.8
		C94.6,34.7,94.6,36.8,92.6,36.7z M18.9,61.1c0-1.2,1-2.2,2.2-2.2h22.3c1.2,0,2.2,1,2.2,2.2c0,1.2-1,2.2-2.2,2.2l0,0H21.1
		C19.9,63.4,18.9,62.4,18.9,61.1L18.9,61.1z M21.1,41.1h31.2c1.2,0,2.2,1,2.2,2.2c0,1.2-1,2.2-2.2,2.2H21.1c-1.2,0-2.2-1-2.2-2.2
		C18.9,42.1,19.9,41.1,21.1,41.1z M21.1,23.3h44.5c1.2,0,2.2,1,2.2,2.2c0,1.2-1,2.2-2.2,2.2H21.1c-1.2,0-2.2-1-2.2-2.2
		C18.9,24.3,19.9,23.3,21.1,23.3z M54.1,70.8c8.5-8,16.6-16.5,24.8-24.8c3.5-3.6,7.4-4.7,12.1-2.8c4.4,1.8,8,7,8,11.7
		c0.2,3-1.1,5.5-3.2,7.7c-9.1,9.3-18.1,18.7-27.2,28c-4.5,4.6-10.4,6.3-16.5,6.9c-4.6,0.5-7.8-3.5-6.9-8.2
		C46.5,82.5,48.5,76,54.1,70.8L54.1,70.8z M92.9,57.9c0.6-0.8,0.5-1.7,0.5-2.6c0-3-1.8-5.7-4.6-6.8c-2.2-0.9-4.2-0.6-6,1.2
		c-1.1,1.1-1.2,1.7-0.1,2.7c2,1.9,3.9,3.9,5.9,5.9C90.5,60.3,91.4,60.2,92.9,57.9z M52.8,92.2c3.9-1.4,8.7-1.9,12.2-5.4
		c6.7-6.9,13.4-14,20.1-21c1-1,1-1.7,0-2.6c-2.1-2-4.2-4.1-6.1-6.3c-1.2-1.4-2-1.3-3.3,0c-5.8,6.2-11.7,12.2-17.6,18.2
		c-4.3,4.2-5.9,9.6-7.1,15.2C50.5,91.6,51,92.4,52.8,92.2L52.8,92.2z"/>
</g>
</svg>
