<?xml version="1.0" encoding="utf-8"?>
<!-- Generator: Adobe Illustrator 22.0.1, SVG Export Plug-In . SVG Version: 6.00 Build 0)  -->
<svg version="1.1" id="Layer_1" xmlns="http://www.w3.org/2000/svg" xmlns:xlink="http://www.w3.org/1999/xlink" x="0px" y="0px"
	 viewBox="0 0 100 100" style="enable-background:new 0 0 100 100;" xml:space="preserve">
<style type="text/css">
	.st0{fill:#363636;}
</style>
<path class="st0" d="M50,18.7c-10.2,0-18.5,8.3-18.5,18.5c0,10.2,8.3,18.5,18.5,18.5c10.2,0,18.5-8.3,18.5-18.5
	C68.5,27,60.2,18.7,50,18.7z M50,52.6c-8.5,0-15.4-6.9-15.4-15.4c0-8.5,6.9-15.4,15.4-15.4s15.4,6.9,15.4,15.4
	C65.4,45.7,58.5,52.6,50,52.6z"/>
<path class="st0" d="M41.7,35.3c0-0.7,0.1-1,0.3-1.7c0.2-0.8-0.3-1.7-1.1-1.9c-0.8-0.2-1.7,0.3-1.9,1.1c-0.2,0.9-0.4,1.5-0.4,2.5
	c0,0.9,0.7,1.5,1.5,1.5C41.1,36.8,41.7,36.1,41.7,35.3z"/>
<path class="st0" d="M50,45.5c-3.6,0-6.7-2.3-7.8-5.7c-0.3-0.8-1.1-1.2-1.9-1c-0.8,0.3-1.2,1.1-1,1.9c1.5,4.6,5.9,7.8,10.8,7.8
	c0.8,0,1.5-0.7,1.5-1.5C51.5,46.2,50.9,45.5,50,45.5z"/>
<path class="st0" d="M85.1,41.2l-1.3-2c-0.6-1-0.6-3,0-4l1.3-2c1.1-1.7,1.4-3.7,0.9-5.6c-0.5-1.9-1.8-3.5-3.6-4.4L80.2,22
	c-1.1-0.5-2-2.2-2-3.4l0.1-2.4c0.1-2-0.6-3.8-1.9-5.2C75,9.5,73.1,8.8,71,8.8L68.5,9c-1.2,0-2.8-1-3.3-2L64,4.8
	C62.8,2.5,60.5,1,57.9,1c-1.3,0-2.7,0.4-3.8,1.1l-2,1.3c-0.9,0.6-3,0.6-4,0l-2-1.3C44.8,1.4,43.5,1,42.1,1c-2.6,0-5,1.5-6.2,3.8
	L34.8,7c-0.5,1-2.2,2-3.4,2c0,0,0,0,0,0L29,8.9c-2.1-0.1-4,0.6-5.4,2.1c-1.3,1.4-2,3.2-1.9,5.2l0.1,2.4c0.1,1.2-0.9,2.9-2,3.4
	l-2.2,1.1c-1.8,0.9-3.1,2.5-3.6,4.4c-0.5,1.9-0.2,3.9,0.9,5.6l1.3,2c0.6,1,0.6,3,0,4l-1.3,2.1c-1.1,1.7-1.4,3.7-0.9,5.6
	c0.5,1.9,1.8,3.5,3.6,4.4l2.2,1.1c1.1,0.5,2,2.2,2,3.4l-0.1,2.4c-0.1,1.9,0.6,3.8,1.9,5.1L18.8,89c-0.2,1,0.2,2.1,1,2.8
	c0.8,0.7,1.9,1,2.9,0.7l8.3-2.3l7,5.1c0.5,0.4,1.2,0.6,1.8,0.6c0.4,0,0.8-0.1,1.1-0.2c1-0.4,1.7-1.3,1.9-2.3l3.5-19.2l4.1,22.3
	c0.2,1,0.9,1.9,1.9,2.3c0.4,0.1,0.8,0.2,1.1,0.2c0.6,0,1.3-0.3,1.8-0.6l11.2-8.2l13.4,3.6c0.3,0.1,0.5-0.1,0.8-0.1c0,0,0,0,0,0
	c1.7,0,3.1-1.2,3.1-2.9c0-0.3-0.1-0.4-0.2-0.8l-5.4-29.9c0.1-0.6,0.2-1.3,0.2-1.9l-0.1-2.4c-0.1-1.2,0.9-2.9,2-3.4l2.2-1.1
	c1.8-0.9,3.1-2.5,3.6-4.4C86.5,45,86.2,42.9,85.1,41.2z M37.7,87.5l-4.2-3.1c-0.5-0.4-1.2-0.6-1.8-0.6c-0.3,0-0.5,0-0.8,0.1l-5,1.4
	l3.6-19.8l2.1-0.1c0.9,0,2,0.5,2.8,1.2c0.2,0.2,0.4,0.5,0.6,0.7l1.1,2.2c0,0,0,0,0,0c0.2,0.4,0.4,0.7,0.7,1.1
	c0.1,0.1,0.1,0.2,0.2,0.2c0.6,0.7,1.2,1.2,2,1.6c0.1,0,0.1,0.1,0.2,0.1c0.4,0.2,0.8,0.4,1.2,0.5L37.7,87.5z M66.7,83.9
	c-0.9-0.2-1.9-0.1-2.6,0.5l-8.5,6.1L52,71l2,1.3c1.2,0.7,2.5,1.2,3.8,1.2c2.6,0,5-1.4,6.2-3.8l1.1-2c0.2-0.4,0.5-0.7,1-1
	c0.7-0.5,1.6-0.7,2.4-0.7c0,0,0,0,0,0l0.3,0l2.5-0.1c0.5,0,1-0.3,1.5-0.4l3.9,21.3L66.7,83.9z M78.6,42.5l1.3,2
	c0.2,0.3,0.2,0.5,0.1,0.7c0,0.2-0.2,0.4-0.5,0.5l-2.2,1.1c-3.2,1.6-5.5,5.6-5.3,9.2l0.1,2.5c0,0.3-0.1,0.6-0.2,0.8
	c-0.1,0.1-0.2,0.3-0.4,0.4c-0.1,0-0.2,0.1-0.3,0.1c0,0,0,0,0,0l-2.4-0.3c-3.6-0.2-7.5,1.9-9.2,5.1l-1.1,2.2
	c-0.2,0.4-0.6,0.5-0.7,0.5c-0.2,0-0.3-0.1-0.5-0.2l-2-1.3c-0.3-0.2-0.7-0.4-1-0.5c-0.1-0.1-0.3-0.1-0.4-0.2
	c-0.2-0.1-0.4-0.2-0.7-0.2c-0.2-0.1-0.4-0.1-0.6-0.2c-0.1,0-0.1,0-0.2,0c-0.5-0.1-1-0.2-1.5-0.2c-0.1,0-0.3,0-0.4,0
	c-0.2,0-0.3,0-0.5,0c-0.1,0-0.2,0-0.3,0c-0.2,0-0.4,0-0.6,0c-0.3,0-0.7,0.1-1,0.1c-0.2,0-0.3,0.1-0.5,0.1c0,0-0.1,0-0.1,0
	c-1,0.2-2,0.6-2.8,1.1l-2,1.3c0,0-0.1,0-0.1,0c-0.4,0.2-0.9,0.1-1.1-0.4l-1.1-2.2c-1.7-3.2-5.6-5.4-9.2-5.3l-2.5,0.1c0,0,0,0-0.1,0
	c-0.1,0-0.1,0-0.2,0c-0.1,0-0.1,0-0.2-0.1c0,0,0,0-0.1,0c-0.1,0-0.1-0.1-0.2-0.1c-0.2-0.2-0.2-0.4-0.2-0.7l0.1-2.4
	c0.2-3.6-2.1-7.5-5.3-9.2l-2.2-1.1c-0.3-0.2-0.4-0.4-0.5-0.5c0-0.2-0.1-0.4,0.1-0.7l1.3-2.1c1.9-3,1.9-7.6,0-10.6l-1.3-2
	c-0.2-0.3-0.2-0.5-0.1-0.7c0-0.2,0.2-0.4,0.5-0.5l2.2-1.1c3.2-1.6,5.5-5.6,5.3-9.2l-0.1-2.4c0-0.3,0.1-0.4,0.2-0.6
	c0.1-0.1,0.3-0.1,0.7-0.1c0,0,0,0,0,0l2.4,0c3.6,0.2,7.5-2.2,9.2-5.4l1.1-2.2c0.2-0.4,0.6-0.5,0.7-0.5c0.2,0,0.3,0.1,0.5,0.2l2,1.3
	c2.9,1.9,7.7,1.9,10.6,0l2.1-1.3c0.2-0.1,0.3-0.2,0.5-0.2c0.2,0,0.5,0.1,0.7,0.5l1.1,2.2c1.6,3.2,5.6,5.5,9.2,5.3l2.5-0.1
	c0.3,0,0.5,0.1,0.6,0.2c0.2,0.2,0.2,0.4,0.2,0.7l-0.1,2.4c-0.2,3.6,2.1,7.5,5.3,9.2l2.2,1.1c0.3,0.2,0.4,0.4,0.5,0.5
	c0,0.2,0.1,0.4-0.1,0.7l-1.3,2C76.6,34.9,76.6,39.5,78.6,42.5z"/>
</svg>
