<?xml version="1.0" encoding="utf-8"?>
<!-- Generator: Adobe Illustrator 22.0.1, SVG Export Plug-In . SVG Version: 6.00 Build 0)  -->
<svg version="1.1" id="Layer_5" xmlns="http://www.w3.org/2000/svg" xmlns:xlink="http://www.w3.org/1999/xlink" x="0px" y="0px"
	 viewBox="0 0 100 100" style="enable-background:new 0 0 100 100;" xml:space="preserve">
<style type="text/css">
	.st0{fill:#363636;}
</style>
<path class="st0" d="M50,56.3c3.5,0,6.3-2.8,6.3-6.3h-3.2c0,1.7-1.4,3.2-3.2,3.2s-3.2-1.4-3.2-3.2h-3.2C43.7,53.5,46.5,56.3,50,56.3
	z"/>
<path class="st0" d="M79.7,75.4c2.7-1.9,4.5-3.7,4.6-3.8l1.2-1.2l-1.4-1.1c-4.6-3.7-7.3-9.3-7.3-15.2V27.9C76.9,13.1,64.8,1,50,1
	S23.1,13.1,23.1,27.9v26.2c0,5.9-2.7,11.5-7.3,15.2l-1.4,1.1l1.2,1.2c0.1,0.1,1.9,1.9,4.6,3.8c-8,4.4-13,12.7-13,22V99h85.4v-1.6
	C92.7,88.2,87.6,79.8,79.7,75.4L79.7,75.4z M26.3,54.1V27.9C26.3,14.8,36.9,4.2,50,4.2s23.7,10.6,23.7,23.7v26.2
	c0,6.3,2.6,12.2,7.1,16.5c-1,0.9-2.6,2.1-4.5,3.3l-15.5-6.3c-1.8-0.7-2.9-2.5-2.9-4.4V62c7.8-5.4,12.6-14.3,12.6-24.1V26.3h-2.2
	c-3,0-5.9-1.5-7.5-4l-0.5-0.7H39.7l-0.5,0.7c-1.7,2.5-4.5,4-7.5,4h-2.2v11.6c0,9.8,4.9,18.7,12.6,24.1v1.1c0,1.9-1.2,3.7-2.9,4.4
	l-15.5,6.3c-1.9-1.2-3.5-2.4-4.5-3.3C23.7,66.3,26.3,60.4,26.3,54.1z M62.6,31h-6.3c-2.1,0-3.8,1.3-4.5,3.2h-3.7
	c-0.7-1.8-2.4-3.2-4.5-3.2h-6.3c-2.6,0-4.7,2.1-4.7,4.7v-6.4c3.4-0.3,6.6-2,8.7-4.7h17.3c2.1,2.7,5.3,4.4,8.7,4.7v6.4
	C67.4,33.2,65.3,31,62.6,31z M64.2,35.8v1.6c0,1.7-1.4,3.2-3.2,3.2h-3.2c-1.7,0-3.2-1.4-3.2-3.2v-1.6c0-0.9,0.7-1.6,1.6-1.6h6.3
	C63.5,34.2,64.2,34.9,64.2,35.8z M45.3,35.8v1.6c0,1.7-1.4,3.2-3.2,3.2h-3.2c-1.7,0-3.2-1.4-3.2-3.2v-1.6c0-0.9,0.7-1.6,1.6-1.6h6.3
	C44.5,34.2,45.3,34.9,45.3,35.8z M38.9,43.7h3.2c3.5,0,6.3-2.8,6.3-6.3h3.2c0,3.5,2.8,6.3,6.3,6.3h3.2c3.5,0,6.3-2.8,6.3-6.3v0.6
	c0,11.1-7,20.9-17.4,24.6C39.6,58.8,32.6,49,32.6,37.9v-0.6C32.6,40.8,35.4,43.7,38.9,43.7L38.9,43.7z M45.2,63.9
	c1.4,0.7,2.8,1.3,4.3,1.8l0.5,0.2l0.5-0.2c1.5-0.5,2.9-1.1,4.3-1.8c0.3,2.8,2,5.3,4.7,6.5v0.2c0,4.4-4.3,7.9-9.5,7.9
	s-9.5-3.5-9.5-7.9v-0.2C43.2,69.2,44.9,66.7,45.2,63.9L45.2,63.9z M40.5,77.8c2.3,2.3,5.7,3.8,9.5,3.8s7.2-1.5,9.5-3.8v18h-19V77.8z
	 M23.1,95.8H10.5c0.6-8.3,5.8-15.6,13.6-18.7l13.2-5.4v24.2H26.3 M73.7,95.8H62.6V71.7l13.2,5.4c7.8,3.2,13,10.4,13.6,18.7H76.9"/>
</svg>
