<?xml version="1.0" encoding="utf-8"?>
<!-- Generator: Adobe Illustrator 22.0.1, SVG Export Plug-In . SVG Version: 6.00 Build 0)  -->
<svg version="1.1" id="Layer_1" xmlns="http://www.w3.org/2000/svg" xmlns:xlink="http://www.w3.org/1999/xlink" x="0px" y="0px"
	 viewBox="0 0 100 100" style="enable-background:new 0 0 100 100;" xml:space="preserve">
<style type="text/css">
	.st0{fill:#363636;}
</style>
<path class="st0" d="M59,49.9c7.2-3.4,12.2-10.8,12.2-19.4c0-11.8-9.5-21.4-21.3-21.4s-21.2,9.6-21.2,21.4c0,8.6,5,15.9,12.2,19.4
	C23,54.4,14.7,72.1,14.7,88.7c0,1.2,1,2.1,2.1,2.1c1.2,0,2.1-1,2.1-2.1c0-17.1,9.7-35.6,31-35.6c21.3,0,31,18.4,31,35.6
	c0,1.2,1,2.1,2.1,2.1c1.2,0,2.1-1,2.1-2.1C85.2,72.1,77,54.4,59,49.9 M33,30.5c0-9.5,7.6-17.1,17-17.1c9.4,0,17,7.7,17,17.1
	c0,9.4-7.6,17.1-17,17.1C40.6,47.7,33,40,33,30.5"/>
<path class="st0" d="M24,48.5c1-0.1,1.7-0.8,1.9-1.8c0.1-1-0.4-1.9-1.3-2.3c-0.4-0.2-10.4-4.6-9.7-15.1
	c0.9-11.9,13.8-13.4,14.3-13.4c1.2-0.1,2-1.2,1.9-2.3c-0.1-1.2-1.1-2-2.3-1.9c-5.9,0.6-17.2,4.9-18.2,17.4
	c-0.6,7.7,3.5,13.3,7.6,16.6C11.3,48-0.3,55.1,1.1,74.6c0.1,1.1,1,2,2.1,2c0.1,0,0.1,0,0.2,0c1.2-0.1,2.1-1.1,2-2.3
	C3.6,50.9,23.2,48.6,24,48.5 M89.2,29C88.2,16.5,76.9,12.2,71,11.6c-1.2-0.1-2.2,0.8-2.3,1.9c-0.1,1.2,0.7,2.2,1.9,2.3
	c0.5,0.1,13.4,1.4,14.3,13.4c0.8,10.5-9.2,14.9-9.6,15.1c-0.9,0.4-1.4,1.3-1.3,2.3c0.1,1,0.9,1.7,1.9,1.8
	c0.8,0.1,20.4,2.3,18.7,25.8c-0.1,1.2,0.8,2.2,2,2.3c0.1,0,0.1,0,0.2,0c1.1,0,2-0.9,2.1-2c1.4-19.5-10.2-26.6-17.3-29.1
	C85.7,42.3,89.8,36.7,89.2,29L89.2,29z"/>
</svg>
