<?xml version="1.0" encoding="utf-8"?>
<!-- Generator: Adobe Illustrator 22.0.1, SVG Export Plug-In . SVG Version: 6.00 Build 0)  -->
<svg version="1.1" id="Layer_1" xmlns="http://www.w3.org/2000/svg" xmlns:xlink="http://www.w3.org/1999/xlink" x="0px" y="0px"
	 viewBox="0 0 100 100" style="enable-background:new 0 0 100 100;" xml:space="preserve">
<style type="text/css">
	.st0{fill:#363636;}
</style>
<path class="st0" d="M94.1,95.5L94.1,95.5c0-0.2-0.1-0.4-0.1-0.6c0-0.1,0-0.1-0.1-0.2l0-0.1l0-0.1c-1-7.7-4-15-8.7-21.1
	c-4.6-6.1-10.7-10.9-17.7-13.9l-2.3-1l2.1-1.4c8.4-5.7,13.4-15.2,13.4-25.3c0-8.2-3.2-15.9-9-21.7c-5.8-5.8-13.5-9-21.7-9
	C41.7,1,34,4.2,28.2,10c-5.8,5.8-9,13.5-9,21.7c0,10.1,5,19.6,13.4,25.3l2.1,1.4l-2.3,1c-6.8,2.9-12.9,7.6-17.5,13.6
	c-4.6,6-7.7,13.2-8.8,20.7l0,0.2L6,94.1c-0.2,0.4-0.3,0.8-0.3,1.2l0,0.4v0.1c0,1.8,1.4,3.2,3.2,3.2c1.7,0,3.1-1.4,3.2-3.1l0.3-1.5
	c2.8-18.1,17.9-31.5,36.3-32.1l0,0l0,0c0.2,0,0.4,0,0.6,0c0.2,0,0.4,0,0.6,0c0.2,0,0.4,0,0.6,0c0.2,0,0.4,0,0.6,0l0,0l0,0
	c18.5,0.6,33.5,14,36.3,32.1l0.3,1.5c0,1.8,1.4,3.2,3.2,3.2c1.7,0,3.1-1.4,3.2-3.1C94.1,95.9,94.1,95.5,94.1,95.5z M49.9,56
	c-13.4,0-24.3-10.9-24.3-24.3c0-13.4,10.9-24.3,24.3-24.3c13.4,0,24.3,10.9,24.3,24.3C74.2,45.1,63.3,56,49.9,56z"/>
</svg>
