<?xml version="1.0" encoding="utf-8"?>
<!-- Generator: Adobe Illustrator 22.0.1, SVG Export Plug-In . SVG Version: 6.00 Build 0)  -->
<svg version="1.1" id="Layer_1" xmlns="http://www.w3.org/2000/svg" xmlns:xlink="http://www.w3.org/1999/xlink" x="0px" y="0px"
	 viewBox="0 0 100 100" style="enable-background:new 0 0 100 100;" xml:space="preserve">
<style type="text/css">
	.st0{fill:#363636;}
</style>
<path class="st0" d="M62.8,27.3c-5.6-3.5-12.4-4.5-18.8-2.8c-6.4,1.6-11.9,5.6-15.3,11.3c-1.1,1.9-1.9,3.9-2.5,5.9
	c-0.1,0.3-0.1,0.6,0,0.9h-4.3l3.3,5l3.3,5.2l3.3-5.2l3.3-5h-4c0.5-1.5,1.1-3,1.9-4.4c2.7-4.5,7.1-7.7,12.3-8.9
	c5.1-1.3,10.5-0.5,14.9,2.3c9.3,5.7,12.2,17.9,6.5,27.2c-3.3,5.4-9.1,8.9-15.4,9.3c-1.4,0-2.5,1.1-2.5,2.5c0,1.4,1.1,2.5,2.5,2.5
	c13.6-0.9,24-12.6,23.1-26.3c-0.5-8.1-5-15.4-11.9-19.6L62.8,27.3z"/>
<path class="st0" d="M50,1C22.9,1,1,22.9,1,50s21.9,49,49,49s49-21.9,49-49l0,0C99,23,77,1,50,1z M50,94C25.7,94,6,74.3,6,50
	S25.7,6,50,6s44,19.7,44,44c0,0,0,0,0,0C94,74.3,74.3,94,50,94z"/>
</svg>
