<?xml version="1.0" encoding="utf-8"?>
<!-- Generator: Adobe Illustrator 22.0.1, SVG Export Plug-In . SVG Version: 6.00 Build 0)  -->
<svg version="1.1" id="Layer_1" xmlns="http://www.w3.org/2000/svg" xmlns:xlink="http://www.w3.org/1999/xlink" x="0px" y="0px"
	 viewBox="0 0 100 100" style="enable-background:new 0 0 100 100;" xml:space="preserve">
<style type="text/css">
	.st0{fill:#363636;}
</style>
<path class="st0" d="M49.4,33.3c3.4,0,6.1-2.7,6.1-6.1S52.8,21,49.4,21c-3.4,0-6.1,2.7-6.1,6.1S46.1,33.3,49.4,33.3z M54.5,74.5
	V38.9h-8.9v35.6h-4.5v2.2h17.8v-2.2H54.5L54.5,74.5z M41.1,38.9h4.5v2.2h-4.5V38.9z M50,94.5L50,94.5c24.6,0,44.5-19.9,44.5-44.5
	S74.6,5.5,50,5.5S5.5,25.4,5.5,50S25.4,94.5,50,94.5L50,94.5z M50,99L50,99C22.9,99,1,77.1,1,50S22.9,1,50,1s49,21.9,49,49
	S77.1,99,50,99L50,99z"/>
</svg>
